<?xml version="1.0" encoding="utf-8" standalone="no"?>
<!DOCTYPE svg PUBLIC "-//W3C//DTD SVG 1.1//EN"
  "http://www.w3.org/Graphics/SVG/1.1/DTD/svg11.dtd">
<!-- Created with matplotlib (http://matplotlib.org/) -->
<svg height="265pt" version="1.1" viewBox="0 0 388 265" width="388pt" xmlns="http://www.w3.org/2000/svg" xmlns:xlink="http://www.w3.org/1999/xlink">
 <defs>
  <style type="text/css">
*{stroke-linecap:butt;stroke-linejoin:round;}
  </style>
 </defs>
 <g id="figure_1">
  <g id="patch_1">
   <path d="M 0 265.69625 
L 388.120313 265.69625 
L 388.120313 0 
L 0 0 
z
" style="fill:none;"/>
  </g>
  <g id="axes_1">
   <g id="patch_2">
    <path d="M 42.620313 228.14 
L 377.420313 228.14 
L 377.420313 10.7 
L 42.620313 10.7 
z
" style="fill:#ffffff;"/>
   </g>
   <g id="PathCollection_1">
    <defs>
     <path d="M 0 3 
C 0.795609 3 1.55874 2.683901 2.12132 2.12132 
C 2.683901 1.55874 3 0.795609 3 0 
C 3 -0.795609 2.683901 -1.55874 2.12132 -2.12132 
C 1.55874 -2.683901 0.795609 -3 0 -3 
C -0.795609 -3 -1.55874 -2.683901 -2.12132 -2.12132 
C -2.683901 -1.55874 -3 -0.795609 -3 0 
C -3 0.795609 -2.683901 1.55874 -2.12132 2.12132 
C -1.55874 2.683901 -0.795609 3 0 3 
z
" id="mdaf452065a" style="stroke:#1f77b4;"/>
    </defs>
    <g clip-path="url(#pbec3233d10)">
     <use style="fill:#1f77b4;stroke:#1f77b4;" x="221.606332" xlink:href="#mdaf452065a" y="151.999259"/>
     <use style="fill:#1f77b4;stroke:#1f77b4;" x="288.296591" xlink:href="#mdaf452065a" y="182.07242"/>
     <use style="fill:#1f77b4;stroke:#1f77b4;" x="203.520838" xlink:href="#mdaf452065a" y="133.830057"/>
     <use style="fill:#1f77b4;stroke:#1f77b4;" x="178.653284" xlink:href="#mdaf452065a" y="115.034331"/>
     <use style="fill:#1f77b4;stroke:#1f77b4;" x="271.341441" xlink:href="#mdaf452065a" y="193.97638"/>
     <use style="fill:#1f77b4;stroke:#1f77b4;" x="277.558329" xlink:href="#mdaf452065a" y="204.627292"/>
     <use style="fill:#1f77b4;stroke:#1f77b4;" x="281.514531" xlink:href="#mdaf452065a" y="159.517549"/>
     <use style="fill:#1f77b4;stroke:#1f77b4;" x="160.56779" xlink:href="#mdaf452065a" y="61.779773"/>
     <use style="fill:#1f77b4;stroke:#1f77b4;" x="207.47704" xlink:href="#mdaf452065a" y="101.250798"/>
     <use style="fill:#1f77b4;stroke:#1f77b4;" x="189.956718" xlink:href="#mdaf452065a" y="103.756895"/>
     <use style="fill:#1f77b4;stroke:#1f77b4;" x="257.77732" xlink:href="#mdaf452065a" y="148.866638"/>
     <use style="fill:#1f77b4;stroke:#1f77b4;" x="182.044314" xlink:href="#mdaf452065a" y="152.625783"/>
     <use style="fill:#1f77b4;stroke:#1f77b4;" x="186.000516" xlink:href="#mdaf452065a" y="72.430685"/>
     <use style="fill:#1f77b4;stroke:#1f77b4;" x="231.214251" xlink:href="#mdaf452065a" y="135.709629"/>
     <use style="fill:#1f77b4;stroke:#1f77b4;" x="178.088112" xlink:href="#mdaf452065a" y="108.142564"/>
     <use style="fill:#1f77b4;stroke:#1f77b4;" x="208.042212" xlink:href="#mdaf452065a" y="143.22792"/>
     <use style="fill:#1f77b4;stroke:#1f77b4;" x="158.872275" xlink:href="#mdaf452065a" y="103.130371"/>
     <use style="fill:#1f77b4;stroke:#1f77b4;" x="229.518736" xlink:href="#mdaf452065a" y="118.793476"/>
     <use style="fill:#1f77b4;stroke:#1f77b4;" x="219.345645" xlink:href="#mdaf452065a" y="160.770597"/>
     <use style="fill:#1f77b4;stroke:#1f77b4;" x="218.780474" xlink:href="#mdaf452065a" y="138.215726"/>
     <use style="fill:#1f77b4;stroke:#1f77b4;" x="269.645926" xlink:href="#mdaf452065a" y="171.421509"/>
     <use style="fill:#1f77b4;stroke:#1f77b4;" x="167.915022" xlink:href="#mdaf452065a" y="145.734017"/>
     <use style="fill:#1f77b4;stroke:#1f77b4;" x="247.60423" xlink:href="#mdaf452065a" y="164.529743"/>
     <use style="fill:#1f77b4;stroke:#1f77b4;" x="205.781525" xlink:href="#mdaf452065a" y="137.589202"/>
     <use style="fill:#1f77b4;stroke:#1f77b4;" x="178.653284" xlink:href="#mdaf452065a" y="173.927606"/>
     <use style="fill:#1f77b4;stroke:#1f77b4;" x="150.394699" xlink:href="#mdaf452065a" y="70.551112"/>
     <use style="fill:#1f77b4;stroke:#1f77b4;" x="109.702338" xlink:href="#mdaf452065a" y="75.563306"/>
     <use style="fill:#1f77b4;stroke:#1f77b4;" x="192.782576" xlink:href="#mdaf452065a" y="111.275185"/>
     <use style="fill:#1f77b4;stroke:#1f77b4;" x="361.768911" xlink:href="#mdaf452065a" y="178.939799"/>
     <use style="fill:#1f77b4;stroke:#1f77b4;" x="174.13191" xlink:href="#mdaf452065a" y="101.250798"/>
     <use style="fill:#1f77b4;stroke:#1f77b4;" x="238.561483" xlink:href="#mdaf452065a" y="160.144073"/>
     <use style="fill:#1f77b4;stroke:#1f77b4;" x="197.30395" xlink:href="#mdaf452065a" y="149.493162"/>
     <use style="fill:#1f77b4;stroke:#1f77b4;" x="195.043263" xlink:href="#mdaf452065a" y="160.144073"/>
     <use style="fill:#1f77b4;stroke:#1f77b4;" x="219.345645" xlink:href="#mdaf452065a" y="113.154758"/>
     <use style="fill:#1f77b4;stroke:#1f77b4;" x="149.264356" xlink:href="#mdaf452065a" y="155.13188"/>
     <use style="fill:#1f77b4;stroke:#1f77b4;" x="240.256998" xlink:href="#mdaf452065a" y="168.915412"/>
     <use style="fill:#1f77b4;stroke:#1f77b4;" x="282.644874" xlink:href="#mdaf452065a" y="115.034331"/>
     <use style="fill:#1f77b4;stroke:#1f77b4;" x="280.949359" xlink:href="#mdaf452065a" y="127.564815"/>
     <use style="fill:#1f77b4;stroke:#1f77b4;" x="205.216353" xlink:href="#mdaf452065a" y="103.130371"/>
     <use style="fill:#1f77b4;stroke:#1f77b4;" x="173.566739" xlink:href="#mdaf452065a" y="69.924588"/>
     <use style="fill:#1f77b4;stroke:#1f77b4;" x="148.699184" xlink:href="#mdaf452065a" y="129.444387"/>
     <use style="fill:#1f77b4;stroke:#1f77b4;" x="158.307103" xlink:href="#mdaf452065a" y="108.142564"/>
     <use style="fill:#1f77b4;stroke:#1f77b4;" x="205.216353" xlink:href="#mdaf452065a" y="108.769089"/>
     <use style="fill:#1f77b4;stroke:#1f77b4;" x="168.480193" xlink:href="#mdaf452065a" y="134.456581"/>
     <use style="fill:#1f77b4;stroke:#1f77b4;" x="207.47704" xlink:href="#mdaf452065a" y="166.409315"/>
     <use style="fill:#1f77b4;stroke:#1f77b4;" x="58.271714" xlink:href="#mdaf452065a" y="91.226411"/>
     <use style="fill:#1f77b4;stroke:#1f77b4;" x="121.570943" xlink:href="#mdaf452065a" y="89.973362"/>
     <use style="fill:#1f77b4;stroke:#1f77b4;" x="227.258049" xlink:href="#mdaf452065a" y="115.660855"/>
     <use style="fill:#1f77b4;stroke:#1f77b4;" x="243.648028" xlink:href="#mdaf452065a" y="193.97638"/>
     <use style="fill:#1f77b4;stroke:#1f77b4;" x="194.478091" xlink:href="#mdaf452065a" y="217.7843"/>
     <use style="fill:#1f77b4;stroke:#1f77b4;" x="208.042212" xlink:href="#mdaf452065a" y="141.974871"/>
     <use style="fill:#1f77b4;stroke:#1f77b4;" x="175.827425" xlink:href="#mdaf452065a" y="113.781282"/>
     <use style="fill:#1f77b4;stroke:#1f77b4;" x="283.775218" xlink:href="#mdaf452065a" y="160.144073"/>
     <use style="fill:#1f77b4;stroke:#1f77b4;" x="141.917124" xlink:href="#mdaf452065a" y="138.215726"/>
     <use style="fill:#1f77b4;stroke:#1f77b4;" x="172.436395" xlink:href="#mdaf452065a" y="98.118177"/>
     <use style="fill:#1f77b4;stroke:#1f77b4;" x="137.960922" xlink:href="#mdaf452065a" y="141.348347"/>
     <use style="fill:#1f77b4;stroke:#1f77b4;" x="331.249639" xlink:href="#mdaf452065a" y="192.096808"/>
     <use style="fill:#1f77b4;stroke:#1f77b4;" x="206.911868" xlink:href="#mdaf452065a" y="171.421509"/>
     <use style="fill:#1f77b4;stroke:#1f77b4;" x="228.953564" xlink:href="#mdaf452065a" y="168.288888"/>
     <use style="fill:#1f77b4;stroke:#1f77b4;" x="186.565687" xlink:href="#mdaf452065a" y="117.540427"/>
     <use style="fill:#1f77b4;stroke:#1f77b4;" x="274.167299" xlink:href="#mdaf452065a" y="164.529743"/>
     <use style="fill:#1f77b4;stroke:#1f77b4;" x="178.653284" xlink:href="#mdaf452065a" y="148.866638"/>
     <use style="fill:#1f77b4;stroke:#1f77b4;" x="115.354055" xlink:href="#mdaf452065a" y="73.683733"/>
     <use style="fill:#1f77b4;stroke:#1f77b4;" x="231.779422" xlink:href="#mdaf452065a" y="160.144073"/>
     <use style="fill:#1f77b4;stroke:#1f77b4;" x="248.169401" xlink:href="#mdaf452065a" y="152.625783"/>
     <use style="fill:#1f77b4;stroke:#1f77b4;" x="134.569892" xlink:href="#mdaf452065a" y="92.479459"/>
     <use style="fill:#1f77b4;stroke:#1f77b4;" x="127.22266" xlink:href="#mdaf452065a" y="94.359032"/>
     <use style="fill:#1f77b4;stroke:#1f77b4;" x="275.862814" xlink:href="#mdaf452065a" y="148.240113"/>
     <use style="fill:#1f77b4;stroke:#1f77b4;" x="162.828477" xlink:href="#mdaf452065a" y="61.153249"/>
     <use style="fill:#1f77b4;stroke:#1f77b4;" x="219.345645" xlink:href="#mdaf452065a" y="111.275185"/>
     <use style="fill:#1f77b4;stroke:#1f77b4;" x="183.739829" xlink:href="#mdaf452065a" y="150.119686"/>
     <use style="fill:#1f77b4;stroke:#1f77b4;" x="334.64067" xlink:href="#mdaf452065a" y="196.482477"/>
     <use style="fill:#1f77b4;stroke:#1f77b4;" x="229.518736" xlink:href="#mdaf452065a" y="113.781282"/>
     <use style="fill:#1f77b4;stroke:#1f77b4;" x="187.130859" xlink:href="#mdaf452065a" y="128.817863"/>
     <use style="fill:#1f77b4;stroke:#1f77b4;" x="248.169401" xlink:href="#mdaf452065a" y="189.590711"/>
     <use style="fill:#1f77b4;stroke:#1f77b4;" x="268.515582" xlink:href="#mdaf452065a" y="179.566324"/>
     <use style="fill:#1f77b4;stroke:#1f77b4;" x="261.733522" xlink:href="#mdaf452065a" y="146.360541"/>
     <use style="fill:#1f77b4;stroke:#1f77b4;" x="274.732471" xlink:href="#mdaf452065a" y="100.624274"/>
     <use style="fill:#1f77b4;stroke:#1f77b4;" x="188.261203" xlink:href="#mdaf452065a" y="88.09379"/>
     <use style="fill:#1f77b4;stroke:#1f77b4;" x="199.564636" xlink:href="#mdaf452065a" y="71.177636"/>
     <use style="fill:#1f77b4;stroke:#1f77b4;" x="196.738778" xlink:href="#mdaf452065a" y="105.636468"/>
     <use style="fill:#1f77b4;stroke:#1f77b4;" x="262.863865" xlink:href="#mdaf452065a" y="184.578517"/>
     <use style="fill:#1f77b4;stroke:#1f77b4;" x="121.005772" xlink:href="#mdaf452065a" y="136.336154"/>
     <use style="fill:#1f77b4;stroke:#1f77b4;" x="146.438498" xlink:href="#mdaf452065a" y="110.022137"/>
     <use style="fill:#1f77b4;stroke:#1f77b4;" x="206.346697" xlink:href="#mdaf452065a" y="143.22792"/>
     <use style="fill:#1f77b4;stroke:#1f77b4;" x="165.654335" xlink:href="#mdaf452065a" y="89.973362"/>
     <use style="fill:#1f77b4;stroke:#1f77b4;" x="163.393648" xlink:href="#mdaf452065a" y="125.685242"/>
     <use style="fill:#1f77b4;stroke:#1f77b4;" x="250.430088" xlink:href="#mdaf452065a" y="193.97638"/>
     <use style="fill:#1f77b4;stroke:#1f77b4;" x="131.744034" xlink:href="#mdaf452065a" y="93.732508"/>
     <use style="fill:#1f77b4;stroke:#1f77b4;" x="200.129808" xlink:href="#mdaf452065a" y="66.791967"/>
     <use style="fill:#1f77b4;stroke:#1f77b4;" x="206.911868" xlink:href="#mdaf452065a" y="116.287379"/>
     <use style="fill:#1f77b4;stroke:#1f77b4;" x="228.388392" xlink:href="#mdaf452065a" y="111.90171"/>
     <use style="fill:#1f77b4;stroke:#1f77b4;" x="157.741931" xlink:href="#mdaf452065a" y="89.973362"/>
     <use style="fill:#1f77b4;stroke:#1f77b4;" x="270.776269" xlink:href="#mdaf452065a" y="116.287379"/>
     <use style="fill:#1f77b4;stroke:#1f77b4;" x="220.475989" xlink:href="#mdaf452065a" y="91.852935"/>
     <use style="fill:#1f77b4;stroke:#1f77b4;" x="213.693928" xlink:href="#mdaf452065a" y="99.371225"/>
     <use style="fill:#1f77b4;stroke:#1f77b4;" x="213.128757" xlink:href="#mdaf452065a" y="97.491653"/>
     <use style="fill:#1f77b4;stroke:#1f77b4;" x="181.479142" xlink:href="#mdaf452065a" y="142.601396"/>
     <use style="fill:#1f77b4;stroke:#1f77b4;" x="237.996311" xlink:href="#mdaf452065a" y="158.891025"/>
     <use style="fill:#1f77b4;stroke:#1f77b4;" x="193.347748" xlink:href="#mdaf452065a" y="103.130371"/>
     <use style="fill:#1f77b4;stroke:#1f77b4;" x="186.565687" xlink:href="#mdaf452065a" y="113.154758"/>
     <use style="fill:#1f77b4;stroke:#1f77b4;" x="171.306052" xlink:href="#mdaf452065a" y="100.624274"/>
     <use style="fill:#1f77b4;stroke:#1f77b4;" x="197.869121" xlink:href="#mdaf452065a" y="140.095299"/>
     <use style="fill:#1f77b4;stroke:#1f77b4;" x="191.087061" xlink:href="#mdaf452065a" y="134.456581"/>
     <use style="fill:#1f77b4;stroke:#1f77b4;" x="190.521889" xlink:href="#mdaf452065a" y="98.118177"/>
     <use style="fill:#1f77b4;stroke:#1f77b4;" x="253.821118" xlink:href="#mdaf452065a" y="136.336154"/>
     <use style="fill:#1f77b4;stroke:#1f77b4;" x="179.783627" xlink:href="#mdaf452065a" y="74.936782"/>
     <use style="fill:#1f77b4;stroke:#1f77b4;" x="168.480193" xlink:href="#mdaf452065a" y="99.99775"/>
     <use style="fill:#1f77b4;stroke:#1f77b4;" x="226.692877" xlink:href="#mdaf452065a" y="136.336154"/>
     <use style="fill:#1f77b4;stroke:#1f77b4;" x="235.735624" xlink:href="#mdaf452065a" y="135.083105"/>
     <use style="fill:#1f77b4;stroke:#1f77b4;" x="225.562534" xlink:href="#mdaf452065a" y="136.962678"/>
     <use style="fill:#1f77b4;stroke:#1f77b4;" x="195.608434" xlink:href="#mdaf452065a" y="133.830057"/>
     <use style="fill:#1f77b4;stroke:#1f77b4;" x="185.435344" xlink:href="#mdaf452065a" y="130.697436"/>
     <use style="fill:#1f77b4;stroke:#1f77b4;" x="267.385239" xlink:href="#mdaf452065a" y="139.468775"/>
     <use style="fill:#1f77b4;stroke:#1f77b4;" x="192.217404" xlink:href="#mdaf452065a" y="115.660855"/>
     <use style="fill:#1f77b4;stroke:#1f77b4;" x="197.869121" xlink:href="#mdaf452065a" y="148.240113"/>
     <use style="fill:#1f77b4;stroke:#1f77b4;" x="180.913971" xlink:href="#mdaf452065a" y="115.034331"/>
     <use style="fill:#1f77b4;stroke:#1f77b4;" x="216.519787" xlink:href="#mdaf452065a" y="159.517549"/>
     <use style="fill:#1f77b4;stroke:#1f77b4;" x="189.391546" xlink:href="#mdaf452065a" y="81.828548"/>
     <use style="fill:#1f77b4;stroke:#1f77b4;" x="257.212148" xlink:href="#mdaf452065a" y="134.456581"/>
     <use style="fill:#1f77b4;stroke:#1f77b4;" x="253.255947" xlink:href="#mdaf452065a" y="118.166952"/>
     <use style="fill:#1f77b4;stroke:#1f77b4;" x="249.299745" xlink:href="#mdaf452065a" y="131.32396"/>
     <use style="fill:#1f77b4;stroke:#1f77b4;" x="241.952513" xlink:href="#mdaf452065a" y="183.325469"/>
     <use style="fill:#1f77b4;stroke:#1f77b4;" x="135.135064" xlink:href="#mdaf452065a" y="114.407806"/>
     <use style="fill:#1f77b4;stroke:#1f77b4;" x="201.825323" xlink:href="#mdaf452065a" y="89.346838"/>
     <use style="fill:#1f77b4;stroke:#1f77b4;" x="226.127706" xlink:href="#mdaf452065a" y="121.299573"/>
     <use style="fill:#1f77b4;stroke:#1f77b4;" x="190.521889" xlink:href="#mdaf452065a" y="133.203532"/>
     <use style="fill:#1f77b4;stroke:#1f77b4;" x="184.305001" xlink:href="#mdaf452065a" y="151.999259"/>
     <use style="fill:#1f77b4;stroke:#1f77b4;" x="250.430088" xlink:href="#mdaf452065a" y="105.636468"/>
     <use style="fill:#1f77b4;stroke:#1f77b4;" x="230.083907" xlink:href="#mdaf452065a" y="131.950484"/>
     <use style="fill:#1f77b4;stroke:#1f77b4;" x="134.569892" xlink:href="#mdaf452065a" y="71.804161"/>
     <use style="fill:#1f77b4;stroke:#1f77b4;" x="292.817965" xlink:href="#mdaf452065a" y="141.348347"/>
     <use style="fill:#1f77b4;stroke:#1f77b4;" x="118.745085" xlink:href="#mdaf452065a" y="21.0557"/>
     <use style="fill:#1f77b4;stroke:#1f77b4;" x="134.569892" xlink:href="#mdaf452065a" y="55.514531"/>
     <use style="fill:#1f77b4;stroke:#1f77b4;" x="255.516633" xlink:href="#mdaf452065a" y="152.625783"/>
     <use style="fill:#1f77b4;stroke:#1f77b4;" x="198.434293" xlink:href="#mdaf452065a" y="156.384928"/>
     <use style="fill:#1f77b4;stroke:#1f77b4;" x="243.648028" xlink:href="#mdaf452065a" y="128.191339"/>
     <use style="fill:#1f77b4;stroke:#1f77b4;" x="186.565687" xlink:href="#mdaf452065a" y="108.142564"/>
     <use style="fill:#1f77b4;stroke:#1f77b4;" x="271.906612" xlink:href="#mdaf452065a" y="133.830057"/>
     <use style="fill:#1f77b4;stroke:#1f77b4;" x="137.395751" xlink:href="#mdaf452065a" y="79.948975"/>
     <use style="fill:#1f77b4;stroke:#1f77b4;" x="124.961974" xlink:href="#mdaf452065a" y="80.575499"/>
     <use style="fill:#1f77b4;stroke:#1f77b4;" x="172.436395" xlink:href="#mdaf452065a" y="111.90171"/>
     <use style="fill:#1f77b4;stroke:#1f77b4;" x="252.125603" xlink:href="#mdaf452065a" y="178.313275"/>
     <use style="fill:#1f77b4;stroke:#1f77b4;" x="203.520838" xlink:href="#mdaf452065a" y="168.915412"/>
     <use style="fill:#1f77b4;stroke:#1f77b4;" x="206.911868" xlink:href="#mdaf452065a" y="105.636468"/>
     <use style="fill:#1f77b4;stroke:#1f77b4;" x="257.77732" xlink:href="#mdaf452065a" y="188.337662"/>
     <use style="fill:#1f77b4;stroke:#1f77b4;" x="175.827425" xlink:href="#mdaf452065a" y="122.552621"/>
     <use style="fill:#1f77b4;stroke:#1f77b4;" x="229.518736" xlink:href="#mdaf452065a" y="113.781282"/>
     <use style="fill:#1f77b4;stroke:#1f77b4;" x="172.436395" xlink:href="#mdaf452065a" y="64.912394"/>
     <use style="fill:#1f77b4;stroke:#1f77b4;" x="338.596871" xlink:href="#mdaf452065a" y="172.674557"/>
     <use style="fill:#1f77b4;stroke:#1f77b4;" x="155.481245" xlink:href="#mdaf452065a" y="119.42"/>
     <use style="fill:#1f77b4;stroke:#1f77b4;" x="208.607383" xlink:href="#mdaf452065a" y="113.154758"/>
     <use style="fill:#1f77b4;stroke:#1f77b4;" x="144.742983" xlink:href="#mdaf452065a" y="73.057209"/>
     <use style="fill:#1f77b4;stroke:#1f77b4;" x="231.214251" xlink:href="#mdaf452065a" y="136.336154"/>
     <use style="fill:#1f77b4;stroke:#1f77b4;" x="199.564636" xlink:href="#mdaf452065a" y="86.840741"/>
     <use style="fill:#1f77b4;stroke:#1f77b4;" x="235.170453" xlink:href="#mdaf452065a" y="113.154758"/>
     <use style="fill:#1f77b4;stroke:#1f77b4;" x="243.648028" xlink:href="#mdaf452065a" y="130.697436"/>
     <use style="fill:#1f77b4;stroke:#1f77b4;" x="155.481245" xlink:href="#mdaf452065a" y="151.372734"/>
     <use style="fill:#1f77b4;stroke:#1f77b4;" x="180.913971" xlink:href="#mdaf452065a" y="91.226411"/>
     <use style="fill:#1f77b4;stroke:#1f77b4;" x="186.565687" xlink:href="#mdaf452065a" y="111.275185"/>
     <use style="fill:#1f77b4;stroke:#1f77b4;" x="155.481245" xlink:href="#mdaf452065a" y="63.659346"/>
     <use style="fill:#1f77b4;stroke:#1f77b4;" x="226.127706" xlink:href="#mdaf452065a" y="146.360541"/>
     <use style="fill:#1f77b4;stroke:#1f77b4;" x="245.908715" xlink:href="#mdaf452065a" y="152.625783"/>
     <use style="fill:#1f77b4;stroke:#1f77b4;" x="131.178862" xlink:href="#mdaf452065a" y="83.081596"/>
     <use style="fill:#1f77b4;stroke:#1f77b4;" x="129.483347" xlink:href="#mdaf452065a" y="167.035839"/>
     <use style="fill:#1f77b4;stroke:#1f77b4;" x="184.870172" xlink:href="#mdaf452065a" y="131.950484"/>
     <use style="fill:#1f77b4;stroke:#1f77b4;" x="122.136115" xlink:href="#mdaf452065a" y="105.636468"/>
     <use style="fill:#1f77b4;stroke:#1f77b4;" x="294.51348" xlink:href="#mdaf452065a" y="159.517549"/>
     <use style="fill:#1f77b4;stroke:#1f77b4;" x="174.697082" xlink:href="#mdaf452065a" y="83.70812"/>
     <use style="fill:#1f77b4;stroke:#1f77b4;" x="174.13191" xlink:href="#mdaf452065a" y="142.601396"/>
     <use style="fill:#1f77b4;stroke:#1f77b4;" x="202.955666" xlink:href="#mdaf452065a" y="149.493162"/>
     <use style="fill:#1f77b4;stroke:#1f77b4;" x="239.691826" xlink:href="#mdaf452065a" y="125.058718"/>
     <use style="fill:#1f77b4;stroke:#1f77b4;" x="183.739829" xlink:href="#mdaf452065a" y="172.048033"/>
     <use style="fill:#1f77b4;stroke:#1f77b4;" x="258.907663" xlink:href="#mdaf452065a" y="178.313275"/>
     <use style="fill:#1f77b4;stroke:#1f77b4;" x="224.997362" xlink:href="#mdaf452065a" y="160.144073"/>
     <use style="fill:#1f77b4;stroke:#1f77b4;" x="293.383136" xlink:href="#mdaf452065a" y="160.770597"/>
     <use style="fill:#1f77b4;stroke:#1f77b4;" x="235.735624" xlink:href="#mdaf452065a" y="141.974871"/>
     <use style="fill:#1f77b4;stroke:#1f77b4;" x="169.610537" xlink:href="#mdaf452065a" y="117.540427"/>
     <use style="fill:#1f77b4;stroke:#1f77b4;" x="236.865968" xlink:href="#mdaf452065a" y="141.974871"/>
     <use style="fill:#1f77b4;stroke:#1f77b4;" x="186.000516" xlink:href="#mdaf452065a" y="108.142564"/>
     <use style="fill:#1f77b4;stroke:#1f77b4;" x="162.263305" xlink:href="#mdaf452065a" y="106.889516"/>
     <use style="fill:#1f77b4;stroke:#1f77b4;" x="236.300796" xlink:href="#mdaf452065a" y="115.034331"/>
     <use style="fill:#1f77b4;stroke:#1f77b4;" x="186.000516" xlink:href="#mdaf452065a" y="105.636468"/>
     <use style="fill:#1f77b4;stroke:#1f77b4;" x="174.697082" xlink:href="#mdaf452065a" y="120.673048"/>
     <use style="fill:#1f77b4;stroke:#1f77b4;" x="166.784678" xlink:href="#mdaf452065a" y="123.805669"/>
     <use style="fill:#1f77b4;stroke:#1f77b4;" x="206.911868" xlink:href="#mdaf452065a" y="127.564815"/>
     <use style="fill:#1f77b4;stroke:#1f77b4;" x="206.911868" xlink:href="#mdaf452065a" y="127.564815"/>
     <use style="fill:#1f77b4;stroke:#1f77b4;" x="266.820067" xlink:href="#mdaf452065a" y="151.999259"/>
     <use style="fill:#1f77b4;stroke:#1f77b4;" x="274.167299" xlink:href="#mdaf452065a" y="190.217235"/>
     <use style="fill:#1f77b4;stroke:#1f77b4;" x="227.258049" xlink:href="#mdaf452065a" y="133.203532"/>
     <use style="fill:#1f77b4;stroke:#1f77b4;" x="249.299745" xlink:href="#mdaf452065a" y="140.095299"/>
     <use style="fill:#1f77b4;stroke:#1f77b4;" x="208.607383" xlink:href="#mdaf452065a" y="133.830057"/>
     <use style="fill:#1f77b4;stroke:#1f77b4;" x="263.994209" xlink:href="#mdaf452065a" y="151.999259"/>
     <use style="fill:#1f77b4;stroke:#1f77b4;" x="197.30395" xlink:href="#mdaf452065a" y="132.577008"/>
     <use style="fill:#1f77b4;stroke:#1f77b4;" x="193.347748" xlink:href="#mdaf452065a" y="110.022137"/>
     <use style="fill:#1f77b4;stroke:#1f77b4;" x="202.390495" xlink:href="#mdaf452065a" y="127.564815"/>
     <use style="fill:#1f77b4;stroke:#1f77b4;" x="135.700236" xlink:href="#mdaf452065a" y="63.032822"/>
    </g>
   </g>
   <g id="matplotlib.axis_1">
    <g id="xtick_1">
     <g id="line2d_1">
      <defs>
       <path d="M 0 0 
L 0 3.5 
" id="m71d7b8dd98" style="stroke:#000000;stroke-width:0.8;"/>
      </defs>
      <g>
       <use style="stroke:#000000;stroke-width:0.8;" x="61.364858" xlink:href="#m71d7b8dd98" y="228.14"/>
      </g>
     </g>
     <g id="text_1">
      <!-- −3 -->
      <defs>
       <path d="M 10.59375 35.5 
L 73.1875 35.5 
L 73.1875 27.203125 
L 10.59375 27.203125 
z
" id="DejaVuSans-2212"/>
       <path d="M 40.578125 39.3125 
Q 47.65625 37.796875 51.625 33 
Q 55.609375 28.21875 55.609375 21.1875 
Q 55.609375 10.40625 48.1875 4.484375 
Q 40.765625 -1.421875 27.09375 -1.421875 
Q 22.515625 -1.421875 17.65625 -0.515625 
Q 12.796875 0.390625 7.625 2.203125 
L 7.625 11.71875 
Q 11.71875 9.328125 16.59375 8.109375 
Q 21.484375 6.890625 26.8125 6.890625 
Q 36.078125 6.890625 40.9375 10.546875 
Q 45.796875 14.203125 45.796875 21.1875 
Q 45.796875 27.640625 41.28125 31.265625 
Q 36.765625 34.90625 28.71875 34.90625 
L 20.21875 34.90625 
L 20.21875 43.015625 
L 29.109375 43.015625 
Q 36.375 43.015625 40.234375 45.921875 
Q 44.09375 48.828125 44.09375 54.296875 
Q 44.09375 59.90625 40.109375 62.90625 
Q 36.140625 65.921875 28.71875 65.921875 
Q 24.65625 65.921875 20.015625 65.03125 
Q 15.375 64.15625 9.8125 62.3125 
L 9.8125 71.09375 
Q 15.4375 72.65625 20.34375 73.4375 
Q 25.25 74.21875 29.59375 74.21875 
Q 40.828125 74.21875 47.359375 69.109375 
Q 53.90625 64.015625 53.90625 55.328125 
Q 53.90625 49.265625 50.4375 45.09375 
Q 46.96875 40.921875 40.578125 39.3125 
" id="DejaVuSans-33"/>
      </defs>
      <g transform="translate(53.993765 242.738437)scale(0.1 -0.1)">
       <use xlink:href="#DejaVuSans-2212"/>
       <use x="83.789062" xlink:href="#DejaVuSans-33"/>
      </g>
     </g>
    </g>
    <g id="xtick_2">
     <g id="line2d_2">
      <g>
       <use style="stroke:#000000;stroke-width:0.8;" x="109.71222" xlink:href="#m71d7b8dd98" y="228.14"/>
      </g>
     </g>
     <g id="text_2">
      <!-- −2 -->
      <defs>
       <path d="M 19.1875 8.296875 
L 53.609375 8.296875 
L 53.609375 0 
L 7.328125 0 
L 7.328125 8.296875 
Q 12.9375 14.109375 22.625 23.890625 
Q 32.328125 33.6875 34.8125 36.53125 
Q 39.546875 41.84375 41.421875 45.53125 
Q 43.3125 49.21875 43.3125 52.78125 
Q 43.3125 58.59375 39.234375 62.25 
Q 35.15625 65.921875 28.609375 65.921875 
Q 23.96875 65.921875 18.8125 64.3125 
Q 13.671875 62.703125 7.8125 59.421875 
L 7.8125 69.390625 
Q 13.765625 71.78125 18.9375 73 
Q 24.125 74.21875 28.421875 74.21875 
Q 39.75 74.21875 46.484375 68.546875 
Q 53.21875 62.890625 53.21875 53.421875 
Q 53.21875 48.921875 51.53125 44.890625 
Q 49.859375 40.875 45.40625 35.40625 
Q 44.1875 33.984375 37.640625 27.21875 
Q 31.109375 20.453125 19.1875 8.296875 
" id="DejaVuSans-32"/>
      </defs>
      <g transform="translate(102.341126 242.738437)scale(0.1 -0.1)">
       <use xlink:href="#DejaVuSans-2212"/>
       <use x="83.789062" xlink:href="#DejaVuSans-32"/>
      </g>
     </g>
    </g>
    <g id="xtick_3">
     <g id="line2d_3">
      <g>
       <use style="stroke:#000000;stroke-width:0.8;" x="158.059582" xlink:href="#m71d7b8dd98" y="228.14"/>
      </g>
     </g>
     <g id="text_3">
      <!-- −1 -->
      <defs>
       <path d="M 12.40625 8.296875 
L 28.515625 8.296875 
L 28.515625 63.921875 
L 10.984375 60.40625 
L 10.984375 69.390625 
L 28.421875 72.90625 
L 38.28125 72.90625 
L 38.28125 8.296875 
L 54.390625 8.296875 
L 54.390625 0 
L 12.40625 0 
z
" id="DejaVuSans-31"/>
      </defs>
      <g transform="translate(150.688488 242.738437)scale(0.1 -0.1)">
       <use xlink:href="#DejaVuSans-2212"/>
       <use x="83.789062" xlink:href="#DejaVuSans-31"/>
      </g>
     </g>
    </g>
    <g id="xtick_4">
     <g id="line2d_4">
      <g>
       <use style="stroke:#000000;stroke-width:0.8;" x="206.406943" xlink:href="#m71d7b8dd98" y="228.14"/>
      </g>
     </g>
     <g id="text_4">
      <!-- 0 -->
      <defs>
       <path d="M 31.78125 66.40625 
Q 24.171875 66.40625 20.328125 58.90625 
Q 16.5 51.421875 16.5 36.375 
Q 16.5 21.390625 20.328125 13.890625 
Q 24.171875 6.390625 31.78125 6.390625 
Q 39.453125 6.390625 43.28125 13.890625 
Q 47.125 21.390625 47.125 36.375 
Q 47.125 51.421875 43.28125 58.90625 
Q 39.453125 66.40625 31.78125 66.40625 
M 31.78125 74.21875 
Q 44.046875 74.21875 50.515625 64.515625 
Q 56.984375 54.828125 56.984375 36.375 
Q 56.984375 17.96875 50.515625 8.265625 
Q 44.046875 -1.421875 31.78125 -1.421875 
Q 19.53125 -1.421875 13.0625 8.265625 
Q 6.59375 17.96875 6.59375 36.375 
Q 6.59375 54.828125 13.0625 64.515625 
Q 19.53125 74.21875 31.78125 74.21875 
" id="DejaVuSans-30"/>
      </defs>
      <g transform="translate(203.225693 242.738437)scale(0.1 -0.1)">
       <use xlink:href="#DejaVuSans-30"/>
      </g>
     </g>
    </g>
    <g id="xtick_5">
     <g id="line2d_5">
      <g>
       <use style="stroke:#000000;stroke-width:0.8;" x="254.754305" xlink:href="#m71d7b8dd98" y="228.14"/>
      </g>
     </g>
     <g id="text_5">
      <!-- 1 -->
      <g transform="translate(251.573055 242.738437)scale(0.1 -0.1)">
       <use xlink:href="#DejaVuSans-31"/>
      </g>
     </g>
    </g>
    <g id="xtick_6">
     <g id="line2d_6">
      <g>
       <use style="stroke:#000000;stroke-width:0.8;" x="303.101667" xlink:href="#m71d7b8dd98" y="228.14"/>
      </g>
     </g>
     <g id="text_6">
      <!-- 2 -->
      <g transform="translate(299.920417 242.738437)scale(0.1 -0.1)">
       <use xlink:href="#DejaVuSans-32"/>
      </g>
     </g>
    </g>
    <g id="xtick_7">
     <g id="line2d_7">
      <g>
       <use style="stroke:#000000;stroke-width:0.8;" x="351.449028" xlink:href="#m71d7b8dd98" y="228.14"/>
      </g>
     </g>
     <g id="text_7">
      <!-- 3 -->
      <g transform="translate(348.267778 242.738437)scale(0.1 -0.1)">
       <use xlink:href="#DejaVuSans-33"/>
      </g>
     </g>
    </g>
    <g id="text_8">
     <!-- normalized distance -->
     <defs>
      <path d="M 54.890625 33.015625 
L 54.890625 0 
L 45.90625 0 
L 45.90625 32.71875 
Q 45.90625 40.484375 42.875 44.328125 
Q 39.84375 48.1875 33.796875 48.1875 
Q 26.515625 48.1875 22.3125 43.546875 
Q 18.109375 38.921875 18.109375 30.90625 
L 18.109375 0 
L 9.078125 0 
L 9.078125 54.6875 
L 18.109375 54.6875 
L 18.109375 46.1875 
Q 21.34375 51.125 25.703125 53.5625 
Q 30.078125 56 35.796875 56 
Q 45.21875 56 50.046875 50.171875 
Q 54.890625 44.34375 54.890625 33.015625 
" id="DejaVuSans-6e"/>
      <path d="M 30.609375 48.390625 
Q 23.390625 48.390625 19.1875 42.75 
Q 14.984375 37.109375 14.984375 27.296875 
Q 14.984375 17.484375 19.15625 11.84375 
Q 23.34375 6.203125 30.609375 6.203125 
Q 37.796875 6.203125 41.984375 11.859375 
Q 46.1875 17.53125 46.1875 27.296875 
Q 46.1875 37.015625 41.984375 42.703125 
Q 37.796875 48.390625 30.609375 48.390625 
M 30.609375 56 
Q 42.328125 56 49.015625 48.375 
Q 55.71875 40.765625 55.71875 27.296875 
Q 55.71875 13.875 49.015625 6.21875 
Q 42.328125 -1.421875 30.609375 -1.421875 
Q 18.84375 -1.421875 12.171875 6.21875 
Q 5.515625 13.875 5.515625 27.296875 
Q 5.515625 40.765625 12.171875 48.375 
Q 18.84375 56 30.609375 56 
" id="DejaVuSans-6f"/>
      <path d="M 41.109375 46.296875 
Q 39.59375 47.171875 37.8125 47.578125 
Q 36.03125 48 33.890625 48 
Q 26.265625 48 22.1875 43.046875 
Q 18.109375 38.09375 18.109375 28.8125 
L 18.109375 0 
L 9.078125 0 
L 9.078125 54.6875 
L 18.109375 54.6875 
L 18.109375 46.1875 
Q 20.953125 51.171875 25.484375 53.578125 
Q 30.03125 56 36.53125 56 
Q 37.453125 56 38.578125 55.875 
Q 39.703125 55.765625 41.0625 55.515625 
z
" id="DejaVuSans-72"/>
      <path d="M 52 44.1875 
Q 55.375 50.25 60.0625 53.125 
Q 64.75 56 71.09375 56 
Q 79.640625 56 84.28125 50.015625 
Q 88.921875 44.046875 88.921875 33.015625 
L 88.921875 0 
L 79.890625 0 
L 79.890625 32.71875 
Q 79.890625 40.578125 77.09375 44.375 
Q 74.3125 48.1875 68.609375 48.1875 
Q 61.625 48.1875 57.5625 43.546875 
Q 53.515625 38.921875 53.515625 30.90625 
L 53.515625 0 
L 44.484375 0 
L 44.484375 32.71875 
Q 44.484375 40.625 41.703125 44.40625 
Q 38.921875 48.1875 33.109375 48.1875 
Q 26.21875 48.1875 22.15625 43.53125 
Q 18.109375 38.875 18.109375 30.90625 
L 18.109375 0 
L 9.078125 0 
L 9.078125 54.6875 
L 18.109375 54.6875 
L 18.109375 46.1875 
Q 21.1875 51.21875 25.484375 53.609375 
Q 29.78125 56 35.6875 56 
Q 41.65625 56 45.828125 52.96875 
Q 50 49.953125 52 44.1875 
" id="DejaVuSans-6d"/>
      <path d="M 34.28125 27.484375 
Q 23.390625 27.484375 19.1875 25 
Q 14.984375 22.515625 14.984375 16.5 
Q 14.984375 11.71875 18.140625 8.90625 
Q 21.296875 6.109375 26.703125 6.109375 
Q 34.1875 6.109375 38.703125 11.40625 
Q 43.21875 16.703125 43.21875 25.484375 
L 43.21875 27.484375 
z
M 52.203125 31.203125 
L 52.203125 0 
L 43.21875 0 
L 43.21875 8.296875 
Q 40.140625 3.328125 35.546875 0.953125 
Q 30.953125 -1.421875 24.3125 -1.421875 
Q 15.921875 -1.421875 10.953125 3.296875 
Q 6 8.015625 6 15.921875 
Q 6 25.140625 12.171875 29.828125 
Q 18.359375 34.515625 30.609375 34.515625 
L 43.21875 34.515625 
L 43.21875 35.40625 
Q 43.21875 41.609375 39.140625 45 
Q 35.0625 48.390625 27.6875 48.390625 
Q 23 48.390625 18.546875 47.265625 
Q 14.109375 46.140625 10.015625 43.890625 
L 10.015625 52.203125 
Q 14.9375 54.109375 19.578125 55.046875 
Q 24.21875 56 28.609375 56 
Q 40.484375 56 46.34375 49.84375 
Q 52.203125 43.703125 52.203125 31.203125 
" id="DejaVuSans-61"/>
      <path d="M 9.421875 75.984375 
L 18.40625 75.984375 
L 18.40625 0 
L 9.421875 0 
z
" id="DejaVuSans-6c"/>
      <path d="M 9.421875 54.6875 
L 18.40625 54.6875 
L 18.40625 0 
L 9.421875 0 
z
M 9.421875 75.984375 
L 18.40625 75.984375 
L 18.40625 64.59375 
L 9.421875 64.59375 
z
" id="DejaVuSans-69"/>
      <path d="M 5.515625 54.6875 
L 48.1875 54.6875 
L 48.1875 46.484375 
L 14.40625 7.171875 
L 48.1875 7.171875 
L 48.1875 0 
L 4.296875 0 
L 4.296875 8.203125 
L 38.09375 47.515625 
L 5.515625 47.515625 
z
" id="DejaVuSans-7a"/>
      <path d="M 56.203125 29.59375 
L 56.203125 25.203125 
L 14.890625 25.203125 
Q 15.484375 15.921875 20.484375 11.0625 
Q 25.484375 6.203125 34.421875 6.203125 
Q 39.59375 6.203125 44.453125 7.46875 
Q 49.3125 8.734375 54.109375 11.28125 
L 54.109375 2.78125 
Q 49.265625 0.734375 44.1875 -0.34375 
Q 39.109375 -1.421875 33.890625 -1.421875 
Q 20.796875 -1.421875 13.15625 6.1875 
Q 5.515625 13.8125 5.515625 26.8125 
Q 5.515625 40.234375 12.765625 48.109375 
Q 20.015625 56 32.328125 56 
Q 43.359375 56 49.78125 48.890625 
Q 56.203125 41.796875 56.203125 29.59375 
M 47.21875 32.234375 
Q 47.125 39.59375 43.09375 43.984375 
Q 39.0625 48.390625 32.421875 48.390625 
Q 24.90625 48.390625 20.390625 44.140625 
Q 15.875 39.890625 15.1875 32.171875 
z
" id="DejaVuSans-65"/>
      <path d="M 45.40625 46.390625 
L 45.40625 75.984375 
L 54.390625 75.984375 
L 54.390625 0 
L 45.40625 0 
L 45.40625 8.203125 
Q 42.578125 3.328125 38.25 0.953125 
Q 33.9375 -1.421875 27.875 -1.421875 
Q 17.96875 -1.421875 11.734375 6.484375 
Q 5.515625 14.40625 5.515625 27.296875 
Q 5.515625 40.1875 11.734375 48.09375 
Q 17.96875 56 27.875 56 
Q 33.9375 56 38.25 53.625 
Q 42.578125 51.265625 45.40625 46.390625 
M 14.796875 27.296875 
Q 14.796875 17.390625 18.875 11.75 
Q 22.953125 6.109375 30.078125 6.109375 
Q 37.203125 6.109375 41.296875 11.75 
Q 45.40625 17.390625 45.40625 27.296875 
Q 45.40625 37.203125 41.296875 42.84375 
Q 37.203125 48.484375 30.078125 48.484375 
Q 22.953125 48.484375 18.875 42.84375 
Q 14.796875 37.203125 14.796875 27.296875 
" id="DejaVuSans-64"/>
      <path id="DejaVuSans-20"/>
      <path d="M 44.28125 53.078125 
L 44.28125 44.578125 
Q 40.484375 46.53125 36.375 47.5 
Q 32.28125 48.484375 27.875 48.484375 
Q 21.1875 48.484375 17.84375 46.4375 
Q 14.5 44.390625 14.5 40.28125 
Q 14.5 37.15625 16.890625 35.375 
Q 19.28125 33.59375 26.515625 31.984375 
L 29.59375 31.296875 
Q 39.15625 29.25 43.1875 25.515625 
Q 47.21875 21.78125 47.21875 15.09375 
Q 47.21875 7.46875 41.1875 3.015625 
Q 35.15625 -1.421875 24.609375 -1.421875 
Q 20.21875 -1.421875 15.453125 -0.5625 
Q 10.6875 0.296875 5.421875 2 
L 5.421875 11.28125 
Q 10.40625 8.6875 15.234375 7.390625 
Q 20.0625 6.109375 24.8125 6.109375 
Q 31.15625 6.109375 34.5625 8.28125 
Q 37.984375 10.453125 37.984375 14.40625 
Q 37.984375 18.0625 35.515625 20.015625 
Q 33.0625 21.96875 24.703125 23.78125 
L 21.578125 24.515625 
Q 13.234375 26.265625 9.515625 29.90625 
Q 5.8125 33.546875 5.8125 39.890625 
Q 5.8125 47.609375 11.28125 51.796875 
Q 16.75 56 26.8125 56 
Q 31.78125 56 36.171875 55.265625 
Q 40.578125 54.546875 44.28125 53.078125 
" id="DejaVuSans-73"/>
      <path d="M 18.3125 70.21875 
L 18.3125 54.6875 
L 36.8125 54.6875 
L 36.8125 47.703125 
L 18.3125 47.703125 
L 18.3125 18.015625 
Q 18.3125 11.328125 20.140625 9.421875 
Q 21.96875 7.515625 27.59375 7.515625 
L 36.8125 7.515625 
L 36.8125 0 
L 27.59375 0 
Q 17.1875 0 13.234375 3.875 
Q 9.28125 7.765625 9.28125 18.015625 
L 9.28125 47.703125 
L 2.6875 47.703125 
L 2.6875 54.6875 
L 9.28125 54.6875 
L 9.28125 70.21875 
z
" id="DejaVuSans-74"/>
      <path d="M 48.78125 52.59375 
L 48.78125 44.1875 
Q 44.96875 46.296875 41.140625 47.34375 
Q 37.3125 48.390625 33.40625 48.390625 
Q 24.65625 48.390625 19.8125 42.84375 
Q 14.984375 37.3125 14.984375 27.296875 
Q 14.984375 17.28125 19.8125 11.734375 
Q 24.65625 6.203125 33.40625 6.203125 
Q 37.3125 6.203125 41.140625 7.25 
Q 44.96875 8.296875 48.78125 10.40625 
L 48.78125 2.09375 
Q 45.015625 0.34375 40.984375 -0.53125 
Q 36.96875 -1.421875 32.421875 -1.421875 
Q 20.0625 -1.421875 12.78125 6.34375 
Q 5.515625 14.109375 5.515625 27.296875 
Q 5.515625 40.671875 12.859375 48.328125 
Q 20.21875 56 33.015625 56 
Q 37.15625 56 41.109375 55.140625 
Q 45.0625 54.296875 48.78125 52.59375 
" id="DejaVuSans-63"/>
     </defs>
     <g transform="translate(159.374219 256.416562)scale(0.1 -0.1)">
      <use xlink:href="#DejaVuSans-6e"/>
      <use x="63.378906" xlink:href="#DejaVuSans-6f"/>
      <use x="124.560547" xlink:href="#DejaVuSans-72"/>
      <use x="165.658203" xlink:href="#DejaVuSans-6d"/>
      <use x="263.070312" xlink:href="#DejaVuSans-61"/>
      <use x="324.349609" xlink:href="#DejaVuSans-6c"/>
      <use x="352.132812" xlink:href="#DejaVuSans-69"/>
      <use x="379.916016" xlink:href="#DejaVuSans-7a"/>
      <use x="432.40625" xlink:href="#DejaVuSans-65"/>
      <use x="493.929688" xlink:href="#DejaVuSans-64"/>
      <use x="557.40625" xlink:href="#DejaVuSans-20"/>
      <use x="589.193359" xlink:href="#DejaVuSans-64"/>
      <use x="652.669922" xlink:href="#DejaVuSans-69"/>
      <use x="680.453125" xlink:href="#DejaVuSans-73"/>
      <use x="732.552734" xlink:href="#DejaVuSans-74"/>
      <use x="771.761719" xlink:href="#DejaVuSans-61"/>
      <use x="833.041016" xlink:href="#DejaVuSans-6e"/>
      <use x="896.419922" xlink:href="#DejaVuSans-63"/>
      <use x="951.400391" xlink:href="#DejaVuSans-65"/>
     </g>
    </g>
   </g>
   <g id="matplotlib.axis_2">
    <g id="ytick_1">
     <g id="line2d_8">
      <defs>
       <path d="M 0 0 
L -3.5 0 
" id="m6ddbe088a5" style="stroke:#000000;stroke-width:0.8;"/>
      </defs>
      <g>
       <use style="stroke:#000000;stroke-width:0.8;" x="42.620313" xlink:href="#m6ddbe088a5" y="196.214602"/>
      </g>
     </g>
     <g id="text_9">
      <!-- −2 -->
      <g transform="translate(20.878125 200.01382)scale(0.1 -0.1)">
       <use xlink:href="#DejaVuSans-2212"/>
       <use x="83.789062" xlink:href="#DejaVuSans-32"/>
      </g>
     </g>
    </g>
    <g id="ytick_2">
     <g id="line2d_9">
      <g>
       <use style="stroke:#000000;stroke-width:0.8;" x="42.620313" xlink:href="#m6ddbe088a5" y="161.999429"/>
      </g>
     </g>
     <g id="text_10">
      <!-- −1 -->
      <g transform="translate(20.878125 165.798648)scale(0.1 -0.1)">
       <use xlink:href="#DejaVuSans-2212"/>
       <use x="83.789062" xlink:href="#DejaVuSans-31"/>
      </g>
     </g>
    </g>
    <g id="ytick_3">
     <g id="line2d_10">
      <g>
       <use style="stroke:#000000;stroke-width:0.8;" x="42.620313" xlink:href="#m6ddbe088a5" y="127.784257"/>
      </g>
     </g>
     <g id="text_11">
      <!-- 0 -->
      <g transform="translate(29.257813 131.583476)scale(0.1 -0.1)">
       <use xlink:href="#DejaVuSans-30"/>
      </g>
     </g>
    </g>
    <g id="ytick_4">
     <g id="line2d_11">
      <g>
       <use style="stroke:#000000;stroke-width:0.8;" x="42.620313" xlink:href="#m6ddbe088a5" y="93.569085"/>
      </g>
     </g>
     <g id="text_12">
      <!-- 1 -->
      <g transform="translate(29.257813 97.368304)scale(0.1 -0.1)">
       <use xlink:href="#DejaVuSans-31"/>
      </g>
     </g>
    </g>
    <g id="ytick_5">
     <g id="line2d_12">
      <g>
       <use style="stroke:#000000;stroke-width:0.8;" x="42.620313" xlink:href="#m6ddbe088a5" y="59.353913"/>
      </g>
     </g>
     <g id="text_13">
      <!-- 2 -->
      <g transform="translate(29.257813 63.153131)scale(0.1 -0.1)">
       <use xlink:href="#DejaVuSans-32"/>
      </g>
     </g>
    </g>
    <g id="ytick_6">
     <g id="line2d_13">
      <g>
       <use style="stroke:#000000;stroke-width:0.8;" x="42.620313" xlink:href="#m6ddbe088a5" y="25.13874"/>
      </g>
     </g>
     <g id="text_14">
      <!-- 3 -->
      <g transform="translate(29.257813 28.937959)scale(0.1 -0.1)">
       <use xlink:href="#DejaVuSans-33"/>
      </g>
     </g>
    </g>
    <g id="text_15">
     <!-- normalized accuracy -->
     <defs>
      <path d="M 8.5 21.578125 
L 8.5 54.6875 
L 17.484375 54.6875 
L 17.484375 21.921875 
Q 17.484375 14.15625 20.5 10.265625 
Q 23.53125 6.390625 29.59375 6.390625 
Q 36.859375 6.390625 41.078125 11.03125 
Q 45.3125 15.671875 45.3125 23.6875 
L 45.3125 54.6875 
L 54.296875 54.6875 
L 54.296875 0 
L 45.3125 0 
L 45.3125 8.40625 
Q 42.046875 3.421875 37.71875 1 
Q 33.40625 -1.421875 27.6875 -1.421875 
Q 18.265625 -1.421875 13.375 4.4375 
Q 8.5 10.296875 8.5 21.578125 
M 31.109375 56 
z
" id="DejaVuSans-75"/>
      <path d="M 32.171875 -5.078125 
Q 28.375 -14.84375 24.75 -17.8125 
Q 21.140625 -20.796875 15.09375 -20.796875 
L 7.90625 -20.796875 
L 7.90625 -13.28125 
L 13.1875 -13.28125 
Q 16.890625 -13.28125 18.9375 -11.515625 
Q 21 -9.765625 23.484375 -3.21875 
L 25.09375 0.875 
L 2.984375 54.6875 
L 12.5 54.6875 
L 29.59375 11.921875 
L 46.6875 54.6875 
L 56.203125 54.6875 
z
" id="DejaVuSans-79"/>
     </defs>
     <g transform="translate(14.798438 171.43875)rotate(-90)scale(0.1 -0.1)">
      <use xlink:href="#DejaVuSans-6e"/>
      <use x="63.378906" xlink:href="#DejaVuSans-6f"/>
      <use x="124.560547" xlink:href="#DejaVuSans-72"/>
      <use x="165.658203" xlink:href="#DejaVuSans-6d"/>
      <use x="263.070312" xlink:href="#DejaVuSans-61"/>
      <use x="324.349609" xlink:href="#DejaVuSans-6c"/>
      <use x="352.132812" xlink:href="#DejaVuSans-69"/>
      <use x="379.916016" xlink:href="#DejaVuSans-7a"/>
      <use x="432.40625" xlink:href="#DejaVuSans-65"/>
      <use x="493.929688" xlink:href="#DejaVuSans-64"/>
      <use x="557.40625" xlink:href="#DejaVuSans-20"/>
      <use x="589.193359" xlink:href="#DejaVuSans-61"/>
      <use x="650.472656" xlink:href="#DejaVuSans-63"/>
      <use x="705.453125" xlink:href="#DejaVuSans-63"/>
      <use x="760.433594" xlink:href="#DejaVuSans-75"/>
      <use x="823.8125" xlink:href="#DejaVuSans-72"/>
      <use x="864.925781" xlink:href="#DejaVuSans-61"/>
      <use x="926.205078" xlink:href="#DejaVuSans-63"/>
      <use x="981.185547" xlink:href="#DejaVuSans-79"/>
     </g>
    </g>
   </g>
   <g id="patch_3">
    <path d="M 42.620313 228.14 
L 42.620313 10.7 
" style="fill:none;stroke:#000000;stroke-linecap:square;stroke-linejoin:miter;stroke-width:0.8;"/>
   </g>
   <g id="patch_4">
    <path d="M 377.420313 228.14 
L 377.420313 10.7 
" style="fill:none;stroke:#000000;stroke-linecap:square;stroke-linejoin:miter;stroke-width:0.8;"/>
   </g>
   <g id="patch_5">
    <path d="M 42.620313 228.14 
L 377.420313 228.14 
" style="fill:none;stroke:#000000;stroke-linecap:square;stroke-linejoin:miter;stroke-width:0.8;"/>
   </g>
   <g id="patch_6">
    <path d="M 42.620313 10.7 
L 377.420313 10.7 
" style="fill:none;stroke:#000000;stroke-linecap:square;stroke-linejoin:miter;stroke-width:0.8;"/>
   </g>
  </g>
 </g>
 <defs>
  <clipPath id="pbec3233d10">
   <rect height="217.44" width="334.8" x="42.620313" y="10.7"/>
  </clipPath>
 </defs>
</svg>
