<?xml version="1.0" encoding="utf-8" standalone="no"?>
<!DOCTYPE svg PUBLIC "-//W3C//DTD SVG 1.1//EN"
  "http://www.w3.org/Graphics/SVG/1.1/DTD/svg11.dtd">
<!-- Created with matplotlib (http://matplotlib.org/) -->
<svg height="261pt" version="1.1" viewBox="0 0 388 261" width="388pt" xmlns="http://www.w3.org/2000/svg" xmlns:xlink="http://www.w3.org/1999/xlink">
 <defs>
  <style type="text/css">
*{stroke-linecap:butt;stroke-linejoin:round;}
  </style>
 </defs>
 <g id="figure_1">
  <g id="patch_1">
   <path d="M 0 261.22125 
L 388.506818 261.22125 
L 388.506818 0 
L 0 0 
z
" style="fill:none;"/>
  </g>
  <g id="axes_1">
   <g id="patch_2">
    <path d="M 32.9625 228.14 
L 367.7625 228.14 
L 367.7625 10.7 
L 32.9625 10.7 
z
" style="fill:#ffffff;"/>
   </g>
   <g id="matplotlib.axis_1">
    <g id="xtick_1">
     <g id="line2d_1">
      <defs>
       <path d="M 0 0 
L 0 3.5 
" id="m11653c1acc" style="stroke:#000000;stroke-width:0.8;"/>
      </defs>
      <g>
       <use style="stroke:#000000;stroke-width:0.8;" x="48.180682" xlink:href="#m11653c1acc" y="228.14"/>
      </g>
     </g>
     <g id="text_1">
      <!-- 2008年 -->
      <defs>
       <path d="M 42.59375 -0.296875 
Q 35.40625 0 22.203125 0 
Q 9.296875 0 2.203125 -0.296875 
Q 4.09375 3.59375 7 7.09375 
Q 9.90625 10.59375 16.296875 17 
Q 25.59375 26.296875 29.890625 32.84375 
Q 34.203125 39.40625 34.203125 46.09375 
Q 34.203125 51.59375 30.75 55 
Q 27.296875 58.40625 22.203125 58.40625 
Q 17.203125 58.40625 13.09375 54.953125 
Q 9 51.5 7.40625 45.203125 
L 5.09375 45.59375 
Q 6.703125 54.09375 11.796875 58.796875 
Q 16.90625 63.5 24.203125 63.5 
Q 31.5 63.5 36.59375 58.640625 
Q 41.703125 53.796875 41.703125 47 
Q 41.703125 40.203125 36.953125 34.25 
Q 32.203125 28.296875 22.59375 19.40625 
Q 17.5 14.703125 9.90625 5.296875 
L 33.40625 5.296875 
Q 37.203125 5.296875 38.75 6.640625 
Q 40.296875 8 42 12.5 
L 44.09375 12.5 
z
" id="STSong-32"/>
       <path d="M 23.703125 63.5 
Q 32 63.5 38.046875 54.140625 
Q 44.09375 44.796875 44.09375 30.90625 
Q 44.09375 17.09375 38.046875 7.75 
Q 32 -1.59375 23.703125 -1.59375 
Q 15.703125 -1.59375 9.5 7.65625 
Q 3.296875 16.90625 3.296875 30.90625 
Q 3.296875 44.796875 9.34375 54.140625 
Q 15.40625 63.5 23.703125 63.5 
M 23.703125 0.703125 
Q 31.09375 0.703125 33.9375 8.046875 
Q 36.796875 15.40625 36.796875 30.90625 
Q 36.796875 46.40625 33.9375 53.796875 
Q 31.09375 61.203125 23.703125 61.203125 
Q 16.296875 61.203125 13.4375 53.796875 
Q 10.59375 46.40625 10.59375 30.90625 
Q 10.59375 0.703125 23.703125 0.703125 
" id="STSong-30"/>
       <path d="M 19.796875 31.203125 
Q 7.703125 37.203125 7.703125 47.5 
Q 7.703125 53.703125 12.640625 58.59375 
Q 17.59375 63.5 24.296875 63.5 
Q 31.90625 63.5 36.59375 59.390625 
Q 41.296875 55.296875 41.296875 49.09375 
Q 41.296875 43.703125 38.296875 40.390625 
Q 35.296875 37.09375 29.703125 34.296875 
Q 38.90625 29.90625 41.5 25.40625 
Q 44.09375 20.90625 44.09375 16.40625 
Q 44.09375 9.09375 38.640625 3.75 
Q 33.203125 -1.59375 25.09375 -1.59375 
Q 16.703125 -1.59375 11.703125 3.046875 
Q 6.703125 7.703125 6.703125 14.796875 
Q 6.703125 19.09375 8.703125 23.25 
Q 10.703125 27.40625 19.796875 31.203125 
M 27.5 35.5 
Q 31.59375 37.40625 33.796875 41.046875 
Q 36 44.703125 36 49 
Q 36 54.296875 32.953125 57.75 
Q 29.90625 61.203125 24.5 61.203125 
Q 19.59375 61.203125 16.5 57.84375 
Q 13.40625 54.5 13.40625 49.59375 
Q 13.40625 47.09375 14.296875 44.6875 
Q 15.203125 42.296875 19.25 39.5 
Q 23.296875 36.703125 27.5 35.5 
M 22.203125 30.09375 
Q 17.09375 27.59375 14.890625 23.9375 
Q 12.703125 20.296875 12.703125 14.203125 
Q 12.703125 8.09375 16.203125 4.4375 
Q 19.703125 0.796875 25 0.796875 
Q 30.5 0.796875 34.140625 4.4375 
Q 37.796875 8.09375 37.796875 13.796875 
Q 37.796875 19.796875 34.140625 23.390625 
Q 30.5 27 22.203125 30.09375 
" id="STSong-38"/>
       <path d="M 95.5 12.796875 
Q 96.09375 12.09375 96.09375 11.796875 
Q 96.09375 11.5 95.09375 11.5 
L 56.796875 11.5 
Q 56.796875 -1.59375 56.90625 -6.40625 
L 57.09375 -13.796875 
Q 57.09375 -15.40625 55 -16.40625 
Q 52.90625 -17.40625 52.296875 -17.40625 
Q 51.703125 -17.40625 51.703125 -15.953125 
Q 51.703125 -14.5 51.84375 -7.5 
Q 52 -0.5 52 11.5 
L 13.703125 11.5 
Q 9.796875 11.5 7 10.40625 
L 4.203125 14.09375 
Q 9 13.703125 11.5 13.703125 
L 23.703125 13.703125 
L 23.703125 31.59375 
Q 23.703125 38.203125 23.40625 43.5 
L 29.40625 39.09375 
L 52 39.09375 
L 52 60.59375 
L 27.59375 60.59375 
Q 17.09375 45.796875 8 36.90625 
L 6.703125 37.796875 
Q 22.5 57.90625 30.703125 77 
L 38 73.296875 
Q 38.796875 72.90625 38.796875 72.59375 
Q 38.796875 72.296875 37.9375 72.046875 
Q 37.09375 71.796875 36.140625 71.25 
Q 35.203125 70.703125 34.546875 70.140625 
Q 33.90625 69.59375 32.40625 67.34375 
Q 30.90625 65.09375 29.203125 62.796875 
L 82 62.796875 
L 86.59375 68.5 
L 92.703125 61.90625 
Q 93.40625 61.203125 93.40625 60.890625 
Q 93.40625 60.59375 92.203125 60.59375 
L 56.796875 60.59375 
L 56.796875 39.09375 
L 74.296875 39.09375 
L 78.59375 44.40625 
L 84.59375 38.09375 
Q 85.203125 37.5 85.203125 37.203125 
Q 85.203125 36.90625 84.09375 36.90625 
L 56.796875 36.90625 
L 56.796875 13.703125 
L 85 13.703125 
L 89.796875 19 
z
M 52 13.703125 
L 52 36.90625 
L 28.40625 36.90625 
L 28.40625 13.703125 
z
" id="STSong-5e74"/>
      </defs>
      <g transform="translate(19.418182 248.880625)scale(0.2 -0.2)">
       <use xlink:href="#STSong-32"/>
       <use x="46.899994" xlink:href="#STSong-30"/>
       <use x="93.799988" xlink:href="#STSong-30"/>
       <use x="140.699982" xlink:href="#STSong-38"/>
       <use x="187.599976" xlink:href="#STSong-5e74"/>
      </g>
     </g>
    </g>
    <g id="xtick_2">
     <g id="line2d_2">
      <g>
       <use style="stroke:#000000;stroke-width:0.8;" x="124.271591" xlink:href="#m11653c1acc" y="228.14"/>
      </g>
     </g>
     <g id="text_2">
      <!-- 2009年 -->
      <defs>
       <path d="M 26.203125 25.796875 
Q 23.40625 24.296875 20.296875 24.296875 
Q 13.90625 24.296875 9.15625 29.84375 
Q 4.40625 35.40625 4.40625 43.59375 
Q 4.40625 52 9.796875 57.75 
Q 15.203125 63.5 22.90625 63.5 
Q 31.59375 63.5 36.890625 56.59375 
Q 42.203125 49.703125 42.203125 38.703125 
Q 42.203125 23.203125 32.75 11.703125 
Q 23.296875 0.203125 8.5 -1.90625 
L 8.09375 0.296875 
Q 20.796875 2.796875 27.9375 13.390625 
Q 35.09375 24 35.09375 39.59375 
Q 35.09375 50 31.59375 55.640625 
Q 28.09375 61.296875 22.09375 61.296875 
Q 17.5 61.296875 14.59375 56.1875 
Q 11.703125 51.09375 11.703125 42.703125 
Q 11.703125 35.796875 14.5 31.59375 
Q 17.296875 27.40625 21.90625 27.40625 
Q 23.5 27.40625 25.296875 27.90625 
z
" id="STSong-39"/>
      </defs>
      <g transform="translate(95.509091 248.880625)scale(0.2 -0.2)">
       <use xlink:href="#STSong-32"/>
       <use x="46.899994" xlink:href="#STSong-30"/>
       <use x="93.799988" xlink:href="#STSong-30"/>
       <use x="140.699982" xlink:href="#STSong-39"/>
       <use x="187.599976" xlink:href="#STSong-5e74"/>
      </g>
     </g>
    </g>
    <g id="xtick_3">
     <g id="line2d_3">
      <g>
       <use style="stroke:#000000;stroke-width:0.8;" x="200.3625" xlink:href="#m11653c1acc" y="228.14"/>
      </g>
     </g>
     <g id="text_3">
      <!-- 2010年 -->
      <defs>
       <path d="M 35.5 -0.296875 
Q 30.296875 0 23.796875 0 
Q 17.296875 0 12.09375 -0.296875 
L 12.09375 1.296875 
L 17.296875 2.203125 
Q 20.796875 2.90625 20.796875 6.09375 
L 20.796875 55.5 
L 8.90625 47.796875 
L 7.5 49.703125 
Q 14.40625 54.203125 24.09375 63.5 
L 27.40625 63.5 
L 27.40625 6.09375 
Q 27.40625 2.703125 30.90625 2.09375 
L 35.5 1.296875 
z
" id="STSong-31"/>
      </defs>
      <g transform="translate(171.6 248.880625)scale(0.2 -0.2)">
       <use xlink:href="#STSong-32"/>
       <use x="46.899994" xlink:href="#STSong-30"/>
       <use x="93.799988" xlink:href="#STSong-31"/>
       <use x="140.699982" xlink:href="#STSong-30"/>
       <use x="187.599976" xlink:href="#STSong-5e74"/>
      </g>
     </g>
    </g>
    <g id="xtick_4">
     <g id="line2d_4">
      <g>
       <use style="stroke:#000000;stroke-width:0.8;" x="276.453409" xlink:href="#m11653c1acc" y="228.14"/>
      </g>
     </g>
     <g id="text_4">
      <!-- 2011年 -->
      <g transform="translate(247.690909 248.880625)scale(0.2 -0.2)">
       <use xlink:href="#STSong-32"/>
       <use x="46.899994" xlink:href="#STSong-30"/>
       <use x="93.799988" xlink:href="#STSong-31"/>
       <use x="140.699982" xlink:href="#STSong-31"/>
       <use x="187.599976" xlink:href="#STSong-5e74"/>
      </g>
     </g>
    </g>
    <g id="xtick_5">
     <g id="line2d_5">
      <g>
       <use style="stroke:#000000;stroke-width:0.8;" x="352.544318" xlink:href="#m11653c1acc" y="228.14"/>
      </g>
     </g>
     <g id="text_5">
      <!-- 2012年 -->
      <g transform="translate(323.781818 248.880625)scale(0.2 -0.2)">
       <use xlink:href="#STSong-32"/>
       <use x="46.899994" xlink:href="#STSong-30"/>
       <use x="93.799988" xlink:href="#STSong-31"/>
       <use x="140.699982" xlink:href="#STSong-32"/>
       <use x="187.599976" xlink:href="#STSong-5e74"/>
      </g>
     </g>
    </g>
   </g>
   <g id="matplotlib.axis_2">
    <g id="ytick_1">
     <g id="line2d_6">
      <defs>
       <path d="M 0 0 
L -3.5 0 
" id="m62637cb0c1" style="stroke:#000000;stroke-width:0.8;"/>
      </defs>
      <g>
       <use style="stroke:#000000;stroke-width:0.8;" x="32.9625" xlink:href="#m62637cb0c1" y="198.777302"/>
      </g>
     </g>
     <g id="text_6">
      <!-- 5 -->
      <defs>
       <path d="M 38 56.59375 
L 24 56.59375 
Q 16.203125 56.59375 15.40625 56.296875 
L 14.09375 38 
Q 18.5 40.09375 23.09375 40.09375 
Q 31.296875 40.09375 37 34.5 
Q 42.703125 28.90625 42.703125 19.90625 
Q 42.703125 9.90625 35.640625 4.15625 
Q 28.59375 -1.59375 19.59375 -1.59375 
Q 14.59375 -1.59375 10.390625 0.15625 
Q 6.203125 1.90625 6.203125 4 
Q 6.203125 5 7.09375 6.046875 
Q 8 7.09375 9.59375 7.09375 
Q 10.703125 7.09375 11.40625 6.59375 
Q 18.40625 1.296875 22.703125 1.296875 
Q 28.296875 1.296875 32.59375 6.140625 
Q 36.90625 11 36.90625 17.59375 
Q 36.90625 24.59375 32.546875 29.25 
Q 28.203125 33.90625 21.796875 33.90625 
Q 19 33.90625 16.546875 33 
Q 14.09375 32.09375 13 30.5 
L 11.296875 30.5 
L 13.203125 62.5 
L 24.09375 62.5 
Q 31.59375 62.5 34 62.703125 
Q 36.40625 62.90625 37.40625 64.203125 
L 38.90625 64.203125 
z
" id="STSong-35"/>
      </defs>
      <g transform="translate(16.58125 205.377302)scale(0.2 -0.2)">
       <use xlink:href="#STSong-35"/>
      </g>
     </g>
    </g>
    <g id="ytick_2">
     <g id="line2d_7">
      <g>
       <use style="stroke:#000000;stroke-width:0.8;" x="32.9625" xlink:href="#m62637cb0c1" y="149.085817"/>
      </g>
     </g>
     <g id="text_7">
      <!-- 10 -->
      <g transform="translate(7.2 155.685817)scale(0.2 -0.2)">
       <use xlink:href="#STSong-31"/>
       <use x="46.899994" xlink:href="#STSong-30"/>
      </g>
     </g>
    </g>
    <g id="ytick_3">
     <g id="line2d_8">
      <g>
       <use style="stroke:#000000;stroke-width:0.8;" x="32.9625" xlink:href="#m62637cb0c1" y="99.394332"/>
      </g>
     </g>
     <g id="text_8">
      <!-- 15 -->
      <g transform="translate(7.2 105.994332)scale(0.2 -0.2)">
       <use xlink:href="#STSong-31"/>
       <use x="46.899994" xlink:href="#STSong-35"/>
      </g>
     </g>
    </g>
    <g id="ytick_4">
     <g id="line2d_9">
      <g>
       <use style="stroke:#000000;stroke-width:0.8;" x="32.9625" xlink:href="#m62637cb0c1" y="49.702847"/>
      </g>
     </g>
     <g id="text_9">
      <!-- 20 -->
      <g transform="translate(7.2 56.302847)scale(0.2 -0.2)">
       <use xlink:href="#STSong-32"/>
       <use x="46.899994" xlink:href="#STSong-30"/>
      </g>
     </g>
    </g>
   </g>
   <g id="line2d_10">
    <path clip-path="url(#p97d0d258d7)" d="M 48.180682 218.256364 
L 124.271591 20.583636 
L 200.3625 121.954266 
L 276.453409 23.863274 
L 352.544318 125.929585 
" style="fill:none;stroke:#1f77b4;stroke-linecap:square;stroke-width:1.5;"/>
    <defs>
     <path d="M 0 -3 
L -0.673542 -0.927051 
L -2.85317 -0.927051 
L -1.089814 0.354102 
L -1.763356 2.427051 
L -0 1.145898 
L 1.763356 2.427051 
L 1.089814 0.354102 
L 2.85317 -0.927051 
L 0.673542 -0.927051 
z
" id="md9972ab245" style="stroke:#1f77b4;stroke-linejoin:bevel;"/>
    </defs>
    <g clip-path="url(#p97d0d258d7)">
     <use style="fill:#1f77b4;stroke:#1f77b4;stroke-linejoin:bevel;" x="48.180682" xlink:href="#md9972ab245" y="218.256364"/>
     <use style="fill:#1f77b4;stroke:#1f77b4;stroke-linejoin:bevel;" x="124.271591" xlink:href="#md9972ab245" y="20.583636"/>
     <use style="fill:#1f77b4;stroke:#1f77b4;stroke-linejoin:bevel;" x="200.3625" xlink:href="#md9972ab245" y="121.954266"/>
     <use style="fill:#1f77b4;stroke:#1f77b4;stroke-linejoin:bevel;" x="276.453409" xlink:href="#md9972ab245" y="23.863274"/>
     <use style="fill:#1f77b4;stroke:#1f77b4;stroke-linejoin:bevel;" x="352.544318" xlink:href="#md9972ab245" y="125.929585"/>
    </g>
   </g>
   <g id="line2d_11">
    <path clip-path="url(#p97d0d258d7)" d="M 48.180682 167.173517 
L 124.271591 65.802888 
L 200.3625 157.732135 
L 276.453409 170.651921 
L 352.544318 181.98158 
" style="fill:none;stroke:#ff7f0e;stroke-linecap:square;stroke-width:1.5;"/>
    <defs>
     <path d="M 0 1.5 
C 0.397805 1.5 0.77937 1.341951 1.06066 1.06066 
C 1.341951 0.77937 1.5 0.397805 1.5 0 
C 1.5 -0.397805 1.341951 -0.77937 1.06066 -1.06066 
C 0.77937 -1.341951 0.397805 -1.5 0 -1.5 
C -0.397805 -1.5 -0.77937 -1.341951 -1.06066 -1.06066 
C -1.341951 -0.77937 -1.5 -0.397805 -1.5 0 
C -1.5 0.397805 -1.341951 0.77937 -1.06066 1.06066 
C -0.77937 1.341951 -0.397805 1.5 0 1.5 
z
" id="me8c9a7a420" style="stroke:#ff7f0e;"/>
    </defs>
    <g clip-path="url(#p97d0d258d7)">
     <use style="fill:#ff7f0e;stroke:#ff7f0e;" x="48.180682" xlink:href="#me8c9a7a420" y="167.173517"/>
     <use style="fill:#ff7f0e;stroke:#ff7f0e;" x="124.271591" xlink:href="#me8c9a7a420" y="65.802888"/>
     <use style="fill:#ff7f0e;stroke:#ff7f0e;" x="200.3625" xlink:href="#me8c9a7a420" y="157.732135"/>
     <use style="fill:#ff7f0e;stroke:#ff7f0e;" x="276.453409" xlink:href="#me8c9a7a420" y="170.651921"/>
     <use style="fill:#ff7f0e;stroke:#ff7f0e;" x="352.544318" xlink:href="#me8c9a7a420" y="181.98158"/>
    </g>
   </g>
   <g id="patch_3">
    <path d="M 32.9625 228.14 
L 32.9625 10.7 
" style="fill:none;stroke:#000000;stroke-linecap:square;stroke-linejoin:miter;stroke-width:0.8;"/>
   </g>
   <g id="patch_4">
    <path d="M 367.7625 228.14 
L 367.7625 10.7 
" style="fill:none;stroke:#000000;stroke-linecap:square;stroke-linejoin:miter;stroke-width:0.8;"/>
   </g>
   <g id="patch_5">
    <path d="M 32.9625 228.14 
L 367.7625 228.14 
" style="fill:none;stroke:#000000;stroke-linecap:square;stroke-linejoin:miter;stroke-width:0.8;"/>
   </g>
   <g id="patch_6">
    <path d="M 32.9625 10.7 
L 367.7625 10.7 
" style="fill:none;stroke:#000000;stroke-linecap:square;stroke-linejoin:miter;stroke-width:0.8;"/>
   </g>
  </g>
 </g>
 <defs>
  <clipPath id="p97d0d258d7">
   <rect height="217.44" width="334.8" x="32.9625" y="10.7"/>
  </clipPath>
 </defs>
</svg>
