<?xml version="1.0" encoding="utf-8" standalone="no"?>
<!DOCTYPE svg PUBLIC "-//W3C//DTD SVG 1.1//EN"
  "http://www.w3.org/Graphics/SVG/1.1/DTD/svg11.dtd">
<!-- Created with matplotlib (http://matplotlib.org/) -->
<svg height="278pt" version="1.1" viewBox="0 0 411 278" width="411pt" xmlns="http://www.w3.org/2000/svg" xmlns:xlink="http://www.w3.org/1999/xlink">
 <defs>
  <style type="text/css">
*{stroke-linecap:butt;stroke-linejoin:round;}
  </style>
 </defs>
 <g id="figure_1">
  <g id="patch_1">
   <path d="M 0 278.949375 
L 411.49074 278.949375 
L 411.49074 0 
L 0 0 
z
" style="fill:none;"/>
  </g>
  <g id="axes_1">
   <g id="patch_2">
    <path d="M 56.10625 246.40875 
L 390.90625 246.40875 
L 390.90625 28.96875 
L 56.10625 28.96875 
z
" style="fill:#ffffff;"/>
   </g>
   <g id="patch_3">
    <path clip-path="url(#p83a6bbfafe)" d="M 71.324432 246.40875 
L 71.324432 227.582776 
L 86.542614 227.582776 
L 86.542614 246.40875 
L 101.760795 246.40875 
L 101.760795 227.582776 
L 116.978977 227.582776 
L 116.978977 171.104854 
L 132.197159 171.104854 
L 132.197159 189.930828 
L 147.415341 189.930828 
L 147.415341 171.104854 
L 162.633523 171.104854 
L 162.633523 114.626932 
L 177.851705 114.626932 
L 177.851705 133.452906 
L 193.069886 133.452906 
L 193.069886 114.626932 
L 208.288068 114.626932 
L 208.288068 58.14901 
L 223.50625 58.14901 
L 223.50625 114.626932 
L 238.724432 114.626932 
L 238.724432 39.323036 
L 253.942614 39.323036 
L 253.942614 39.323036 
L 269.160795 39.323036 
L 269.160795 152.27888 
L 284.378977 152.27888 
L 284.378977 133.452906 
L 299.597159 133.452906 
L 299.597159 152.27888 
L 314.815341 152.27888 
L 314.815341 152.27888 
L 330.033523 152.27888 
L 330.033523 208.756802 
L 345.251705 208.756802 
L 345.251705 189.930828 
L 360.469886 189.930828 
L 360.469886 208.756802 
L 375.688068 208.756802 
L 375.688068 246.40875 
L 360.469886 246.40875 
L 360.469886 246.40875 
L 345.251705 246.40875 
L 345.251705 246.40875 
L 330.033523 246.40875 
L 330.033523 246.40875 
L 314.815341 246.40875 
L 314.815341 246.40875 
L 299.597159 246.40875 
L 299.597159 246.40875 
L 284.378977 246.40875 
L 284.378977 246.40875 
L 269.160795 246.40875 
L 269.160795 246.40875 
L 253.942614 246.40875 
L 253.942614 246.40875 
L 238.724432 246.40875 
L 238.724432 246.40875 
L 223.50625 246.40875 
L 223.50625 246.40875 
L 208.288068 246.40875 
L 208.288068 246.40875 
L 193.069886 246.40875 
L 193.069886 246.40875 
L 177.851705 246.40875 
L 177.851705 246.40875 
L 162.633523 246.40875 
L 162.633523 246.40875 
L 147.415341 246.40875 
L 147.415341 246.40875 
L 132.197159 246.40875 
L 132.197159 246.40875 
L 116.978977 246.40875 
L 116.978977 246.40875 
L 101.760795 246.40875 
L 101.760795 246.40875 
L 86.542614 246.40875 
L 86.542614 246.40875 
z
" style="fill:#0000ff;"/>
   </g>
   <g id="matplotlib.axis_1">
    <g id="xtick_1">
     <g id="line2d_1">
      <defs>
       <path d="M 0 0 
L 0 3.5 
" id="mdce288e090" style="stroke:#000000;stroke-width:0.8;"/>
      </defs>
      <g>
       <use style="stroke:#000000;stroke-width:0.8;" x="74.668622" xlink:href="#mdce288e090" y="246.40875"/>
      </g>
     </g>
     <g id="text_1">
      <!-- 50 -->
      <defs>
       <path d="M 38 56.59375 
L 24 56.59375 
Q 16.203125 56.59375 15.40625 56.296875 
L 14.09375 38 
Q 18.5 40.09375 23.09375 40.09375 
Q 31.296875 40.09375 37 34.5 
Q 42.703125 28.90625 42.703125 19.90625 
Q 42.703125 9.90625 35.640625 4.15625 
Q 28.59375 -1.59375 19.59375 -1.59375 
Q 14.59375 -1.59375 10.390625 0.15625 
Q 6.203125 1.90625 6.203125 4 
Q 6.203125 5 7.09375 6.046875 
Q 8 7.09375 9.59375 7.09375 
Q 10.703125 7.09375 11.40625 6.59375 
Q 18.40625 1.296875 22.703125 1.296875 
Q 28.296875 1.296875 32.59375 6.140625 
Q 36.90625 11 36.90625 17.59375 
Q 36.90625 24.59375 32.546875 29.25 
Q 28.203125 33.90625 21.796875 33.90625 
Q 19 33.90625 16.546875 33 
Q 14.09375 32.09375 13 30.5 
L 11.296875 30.5 
L 13.203125 62.5 
L 24.09375 62.5 
Q 31.59375 62.5 34 62.703125 
Q 36.40625 62.90625 37.40625 64.203125 
L 38.90625 64.203125 
z
" id="STSong-35"/>
       <path d="M 23.703125 63.5 
Q 32 63.5 38.046875 54.140625 
Q 44.09375 44.796875 44.09375 30.90625 
Q 44.09375 17.09375 38.046875 7.75 
Q 32 -1.59375 23.703125 -1.59375 
Q 15.703125 -1.59375 9.5 7.65625 
Q 3.296875 16.90625 3.296875 30.90625 
Q 3.296875 44.796875 9.34375 54.140625 
Q 15.40625 63.5 23.703125 63.5 
M 23.703125 0.703125 
Q 31.09375 0.703125 33.9375 8.046875 
Q 36.796875 15.40625 36.796875 30.90625 
Q 36.796875 46.40625 33.9375 53.796875 
Q 31.09375 61.203125 23.703125 61.203125 
Q 16.296875 61.203125 13.4375 53.796875 
Q 10.59375 46.40625 10.59375 30.90625 
Q 10.59375 0.703125 23.703125 0.703125 
" id="STSong-30"/>
      </defs>
      <g transform="translate(65.287372 266.60875)scale(0.2 -0.2)">
       <use xlink:href="#STSong-35"/>
       <use x="46.899994" xlink:href="#STSong-30"/>
      </g>
     </g>
    </g>
    <g id="xtick_2">
     <g id="line2d_2">
      <g>
       <use style="stroke:#000000;stroke-width:0.8;" x="153.556183" xlink:href="#mdce288e090" y="246.40875"/>
      </g>
     </g>
     <g id="text_2">
      <!-- 75 -->
      <defs>
       <path d="M 4.59375 62.5 
L 43.09375 62.5 
L 43.09375 60.796875 
Q 39.703125 54.796875 30.953125 30.140625 
Q 22.203125 5.5 21.296875 0 
L 18 0 
Q 22.796875 20.703125 37.296875 56.40625 
L 10.296875 56.40625 
Q 7.796875 56.40625 7.59375 55.09375 
L 6.796875 50.90625 
L 4.59375 50.90625 
z
" id="STSong-37"/>
      </defs>
      <g transform="translate(144.174933 266.60875)scale(0.2 -0.2)">
       <use xlink:href="#STSong-37"/>
       <use x="46.899994" xlink:href="#STSong-35"/>
      </g>
     </g>
    </g>
    <g id="xtick_3">
     <g id="line2d_3">
      <g>
       <use style="stroke:#000000;stroke-width:0.8;" x="232.443743" xlink:href="#mdce288e090" y="246.40875"/>
      </g>
     </g>
     <g id="text_3">
      <!-- 100 -->
      <defs>
       <path d="M 35.5 -0.296875 
Q 30.296875 0 23.796875 0 
Q 17.296875 0 12.09375 -0.296875 
L 12.09375 1.296875 
L 17.296875 2.203125 
Q 20.796875 2.90625 20.796875 6.09375 
L 20.796875 55.5 
L 8.90625 47.796875 
L 7.5 49.703125 
Q 14.40625 54.203125 24.09375 63.5 
L 27.40625 63.5 
L 27.40625 6.09375 
Q 27.40625 2.703125 30.90625 2.09375 
L 35.5 1.296875 
z
" id="STSong-31"/>
      </defs>
      <g transform="translate(218.371868 266.60875)scale(0.2 -0.2)">
       <use xlink:href="#STSong-31"/>
       <use x="46.899994" xlink:href="#STSong-30"/>
       <use x="93.799988" xlink:href="#STSong-30"/>
      </g>
     </g>
    </g>
    <g id="xtick_4">
     <g id="line2d_4">
      <g>
       <use style="stroke:#000000;stroke-width:0.8;" x="311.331304" xlink:href="#mdce288e090" y="246.40875"/>
      </g>
     </g>
     <g id="text_4">
      <!-- 125 -->
      <defs>
       <path d="M 42.59375 -0.296875 
Q 35.40625 0 22.203125 0 
Q 9.296875 0 2.203125 -0.296875 
Q 4.09375 3.59375 7 7.09375 
Q 9.90625 10.59375 16.296875 17 
Q 25.59375 26.296875 29.890625 32.84375 
Q 34.203125 39.40625 34.203125 46.09375 
Q 34.203125 51.59375 30.75 55 
Q 27.296875 58.40625 22.203125 58.40625 
Q 17.203125 58.40625 13.09375 54.953125 
Q 9 51.5 7.40625 45.203125 
L 5.09375 45.59375 
Q 6.703125 54.09375 11.796875 58.796875 
Q 16.90625 63.5 24.203125 63.5 
Q 31.5 63.5 36.59375 58.640625 
Q 41.703125 53.796875 41.703125 47 
Q 41.703125 40.203125 36.953125 34.25 
Q 32.203125 28.296875 22.59375 19.40625 
Q 17.5 14.703125 9.90625 5.296875 
L 33.40625 5.296875 
Q 37.203125 5.296875 38.75 6.640625 
Q 40.296875 8 42 12.5 
L 44.09375 12.5 
z
" id="STSong-32"/>
      </defs>
      <g transform="translate(297.259429 266.60875)scale(0.2 -0.2)">
       <use xlink:href="#STSong-31"/>
       <use x="46.899994" xlink:href="#STSong-32"/>
       <use x="93.799988" xlink:href="#STSong-35"/>
      </g>
     </g>
    </g>
    <g id="xtick_5">
     <g id="line2d_5">
      <g>
       <use style="stroke:#000000;stroke-width:0.8;" x="390.218865" xlink:href="#mdce288e090" y="246.40875"/>
      </g>
     </g>
     <g id="text_5">
      <!-- 150 -->
      <g transform="translate(376.14699 266.60875)scale(0.2 -0.2)">
       <use xlink:href="#STSong-31"/>
       <use x="46.899994" xlink:href="#STSong-35"/>
       <use x="93.799988" xlink:href="#STSong-30"/>
      </g>
     </g>
    </g>
   </g>
   <g id="matplotlib.axis_2">
    <g id="ytick_1">
     <g id="line2d_6">
      <defs>
       <path d="M 0 0 
L -3.5 0 
" id="mec923ffbdd" style="stroke:#000000;stroke-width:0.8;"/>
      </defs>
      <g>
       <use style="stroke:#000000;stroke-width:0.8;" x="56.10625" xlink:href="#mec923ffbdd" y="246.40875"/>
      </g>
     </g>
     <g id="text_6">
      <!-- 0.000 -->
      <defs>
       <path d="M 11 -1.59375 
Q 8.796875 -1.59375 7.296875 -0.09375 
Q 5.796875 1.40625 5.796875 3.59375 
Q 5.796875 5.796875 7.296875 7.296875 
Q 8.796875 8.796875 11 8.796875 
Q 13.203125 8.796875 14.703125 7.296875 
Q 16.203125 5.796875 16.203125 3.59375 
Q 16.203125 1.40625 14.703125 -0.09375 
Q 13.203125 -1.59375 11 -1.59375 
" id="STSong-2e"/>
      </defs>
      <g transform="translate(7.2 253.00875)scale(0.2 -0.2)">
       <use xlink:href="#STSong-30"/>
       <use x="46.899994" xlink:href="#STSong-2e"/>
       <use x="68.799988" xlink:href="#STSong-30"/>
       <use x="115.699982" xlink:href="#STSong-30"/>
       <use x="162.599976" xlink:href="#STSong-30"/>
      </g>
     </g>
    </g>
    <g id="ytick_2">
     <g id="line2d_7">
      <g>
       <use style="stroke:#000000;stroke-width:0.8;" x="56.10625" xlink:href="#mec923ffbdd" y="201.012319"/>
      </g>
     </g>
     <g id="text_7">
      <!-- 0.005 -->
      <g transform="translate(7.2 207.612319)scale(0.2 -0.2)">
       <use xlink:href="#STSong-30"/>
       <use x="46.899994" xlink:href="#STSong-2e"/>
       <use x="68.799988" xlink:href="#STSong-30"/>
       <use x="115.699982" xlink:href="#STSong-30"/>
       <use x="162.599976" xlink:href="#STSong-35"/>
      </g>
     </g>
    </g>
    <g id="ytick_3">
     <g id="line2d_8">
      <g>
       <use style="stroke:#000000;stroke-width:0.8;" x="56.10625" xlink:href="#mec923ffbdd" y="155.615888"/>
      </g>
     </g>
     <g id="text_8">
      <!-- 0.010 -->
      <g transform="translate(7.2 162.215888)scale(0.2 -0.2)">
       <use xlink:href="#STSong-30"/>
       <use x="46.899994" xlink:href="#STSong-2e"/>
       <use x="68.799988" xlink:href="#STSong-30"/>
       <use x="115.699982" xlink:href="#STSong-31"/>
       <use x="162.599976" xlink:href="#STSong-30"/>
      </g>
     </g>
    </g>
    <g id="ytick_4">
     <g id="line2d_9">
      <g>
       <use style="stroke:#000000;stroke-width:0.8;" x="56.10625" xlink:href="#mec923ffbdd" y="110.219458"/>
      </g>
     </g>
     <g id="text_9">
      <!-- 0.015 -->
      <g transform="translate(7.2 116.819458)scale(0.2 -0.2)">
       <use xlink:href="#STSong-30"/>
       <use x="46.899994" xlink:href="#STSong-2e"/>
       <use x="68.799988" xlink:href="#STSong-30"/>
       <use x="115.699982" xlink:href="#STSong-31"/>
       <use x="162.599976" xlink:href="#STSong-35"/>
      </g>
     </g>
    </g>
    <g id="ytick_5">
     <g id="line2d_10">
      <g>
       <use style="stroke:#000000;stroke-width:0.8;" x="56.10625" xlink:href="#mec923ffbdd" y="64.823027"/>
      </g>
     </g>
     <g id="text_10">
      <!-- 0.020 -->
      <g transform="translate(7.2 71.423027)scale(0.2 -0.2)">
       <use xlink:href="#STSong-30"/>
       <use x="46.899994" xlink:href="#STSong-2e"/>
       <use x="68.799988" xlink:href="#STSong-30"/>
       <use x="115.699982" xlink:href="#STSong-32"/>
       <use x="162.599976" xlink:href="#STSong-30"/>
      </g>
     </g>
    </g>
   </g>
   <g id="patch_4">
    <path d="M 56.10625 246.40875 
L 56.10625 28.96875 
" style="fill:none;stroke:#000000;stroke-linecap:square;stroke-linejoin:miter;stroke-width:0.8;"/>
   </g>
   <g id="patch_5">
    <path d="M 390.90625 246.40875 
L 390.90625 28.96875 
" style="fill:none;stroke:#000000;stroke-linecap:square;stroke-linejoin:miter;stroke-width:0.8;"/>
   </g>
   <g id="patch_6">
    <path d="M 56.10625 246.40875 
L 390.90625 246.40875 
" style="fill:none;stroke:#000000;stroke-linecap:square;stroke-linejoin:miter;stroke-width:0.8;"/>
   </g>
   <g id="patch_7">
    <path d="M 56.10625 28.96875 
L 390.90625 28.96875 
" style="fill:none;stroke:#000000;stroke-linecap:square;stroke-linejoin:miter;stroke-width:0.8;"/>
   </g>
   <g id="text_11">
    <!-- Histgram -->
    <defs>
     <path d="M 56 56.796875 
Q 56 58.796875 55.5 59.640625 
Q 55 60.5 53.796875 60.59375 
L 48.5 61.203125 
L 48.5 62.796875 
Q 52.296875 62.40625 65.40625 62.40625 
Q 69.40625 62.40625 73 62.796875 
L 73 61.203125 
L 65.90625 60.203125 
Q 64.59375 60 64.1875 59.296875 
Q 63.796875 58.59375 63.796875 56.703125 
L 63.796875 6.796875 
Q 63.796875 4.703125 64.25 3.796875 
Q 64.703125 2.90625 66.5 2.59375 
L 74.203125 1.203125 
L 74.203125 -0.40625 
Q 69.203125 0 58.90625 0 
Q 53.09375 0 47.796875 -0.40625 
L 47.796875 1.203125 
L 54 2.203125 
Q 55.203125 2.40625 55.59375 3.40625 
Q 56 4.40625 56 6.796875 
L 56 29.90625 
L 20.09375 29.90625 
L 20.09375 6.796875 
Q 20.09375 4.296875 20.5 3.34375 
Q 20.90625 2.40625 22.203125 2.203125 
L 28.40625 1.203125 
L 28.40625 -0.40625 
Q 23.09375 0 17.296875 0 
Q 7 0 2 -0.40625 
L 2 1.203125 
L 9.703125 2.59375 
Q 11.296875 2.90625 11.796875 3.796875 
Q 12.296875 4.703125 12.296875 6.796875 
L 12.296875 56.796875 
Q 12.296875 58.796875 11.796875 59.640625 
Q 11.296875 60.5 10.09375 60.59375 
L 4.796875 61.203125 
L 4.796875 62.796875 
Q 8.59375 62.40625 21.90625 62.40625 
Q 26.203125 62.40625 29.796875 62.796875 
L 29.796875 61.203125 
L 22.203125 60.203125 
Q 20.90625 60 20.5 59.296875 
Q 20.09375 58.59375 20.09375 56.703125 
L 20.09375 32.796875 
L 56 32.796875 
z
" id="STSong-48"/>
     <path d="M 11.203125 64 
Q 12.90625 64 14.296875 62.703125 
Q 15.703125 61.40625 15.703125 59.703125 
Q 15.703125 58.09375 14.25 56.84375 
Q 12.796875 55.59375 11 55.59375 
Q 9.296875 55.59375 8.09375 56.796875 
Q 6.90625 58 6.90625 59.703125 
Q 6.90625 61.40625 8.203125 62.703125 
Q 9.5 64 11.203125 64 
M 22.203125 -0.40625 
Q 19.09375 0 11.203125 0 
Q 3.296875 0 0.203125 -0.40625 
L 0.203125 1.203125 
L 5.796875 2.296875 
Q 8.90625 2.90625 8.90625 5.90625 
L 8.90625 29.40625 
Q 8.90625 31.796875 7.703125 32.890625 
Q 6.5 34 2.90625 34.796875 
L 2.90625 36.203125 
Q 10 38 13.296875 43.40625 
L 14.90625 43.40625 
L 14.90625 5.59375 
Q 14.90625 4.09375 15.34375 3.390625 
Q 15.796875 2.703125 17.09375 2.40625 
L 22.203125 1.203125 
z
" id="STSong-69"/>
     <path d="M 28 28.796875 
Q 27.09375 32.203125 24 34.890625 
Q 20.90625 37.59375 18.5 37.59375 
Q 11.203125 37.59375 11.203125 30.90625 
Q 11.203125 28.203125 13.59375 26.34375 
Q 16 24.5 20.90625 22.703125 
Q 32.203125 18.40625 32.203125 10.5 
Q 32.203125 5.296875 28.203125 1.84375 
Q 24.203125 -1.59375 18.296875 -1.59375 
Q 11.09375 -1.59375 6.5 1 
L 5.5 12.296875 
L 7.203125 12.296875 
Q 8.59375 7 12.09375 3.75 
Q 15.59375 0.5 19.59375 0.5 
Q 22.796875 0.5 25 2.546875 
Q 27.203125 4.59375 27.203125 7.703125 
Q 27.203125 13.40625 17.796875 16.90625 
Q 11.203125 19.40625 8.34375 22.15625 
Q 5.5 24.90625 5.5 28.90625 
Q 5.5 34 9.296875 36.953125 
Q 13.09375 39.90625 19.5 39.90625 
Q 25.203125 39.90625 29.296875 37.5 
L 29.90625 28.796875 
z
" id="STSong-73"/>
     <path d="M 15.296875 48.203125 
L 16.5 48.203125 
L 16.59375 37.5 
L 30.203125 37.796875 
L 30.203125 34.203125 
L 16.59375 33.796875 
L 16.59375 10 
Q 16.59375 5.5 17.84375 3.5 
Q 19.09375 1.5 21.90625 1.5 
Q 25.296875 1.5 30.09375 4.296875 
L 31 2.90625 
Q 28.90625 0.5 26.15625 -0.546875 
Q 23.40625 -1.59375 18.703125 -1.59375 
Q 13.5 -1.59375 11.890625 0.953125 
Q 10.296875 3.5 10.296875 11 
L 10.296875 33.59375 
L 4.90625 33.5 
Q 3.5 33.5 3.5 34.296875 
Q 3.5 35 4.796875 35.59375 
Q 9.09375 37.40625 11.046875 39.75 
Q 13 42.09375 15.296875 48.203125 
" id="STSong-74"/>
     <path d="M 16.40625 -3.796875 
Q 12 -2.09375 9.5 0.203125 
Q 7 2.5 7 4.5 
Q 7 6.09375 8.046875 7 
Q 9.09375 7.90625 11.90625 8.703125 
Q 14.40625 9.5 17.203125 10.703125 
Q 12.40625 13.40625 10.15625 16.65625 
Q 7.90625 19.90625 7.90625 24.40625 
Q 7.90625 30.90625 12.546875 35.40625 
Q 17.203125 39.90625 24.296875 39.90625 
Q 27.5 39.90625 29.796875 39.15625 
Q 32.09375 38.40625 35 36.59375 
Q 37.5 35 39 35 
Q 40.203125 35 43.09375 35.40625 
Q 45.703125 35.703125 46.703125 35.703125 
Q 48.40625 35.703125 48.84375 35 
Q 49.296875 34.296875 49.296875 32.09375 
Q 49.296875 30.59375 47.59375 30.59375 
Q 46.40625 30.59375 43.203125 31.40625 
Q 39.203125 32.40625 38.40625 32.09375 
Q 40.5 27.90625 40.5 24.59375 
Q 40.5 19.59375 36.25 14.6875 
Q 32 9.796875 22.796875 9.796875 
Q 18.90625 9.796875 15.796875 8.296875 
Q 12.703125 6.796875 12.703125 5.40625 
Q 12.703125 3.703125 18.203125 2 
Q 23.703125 0.296875 32.09375 0 
Q 39.296875 -0.203125 43.296875 -3.140625 
Q 47.296875 -6.09375 47.296875 -10.59375 
Q 47.296875 -14.40625 44.546875 -18.046875 
Q 41.796875 -21.703125 35.890625 -23.84375 
Q 30 -26 23.203125 -26 
Q 14.90625 -26 9.34375 -22.75 
Q 3.796875 -19.5 3.796875 -15.5 
Q 3.796875 -9.203125 16.40625 -3.796875 
M 23.90625 38.203125 
Q 14.40625 38.203125 14.40625 24.59375 
Q 14.40625 18.5 17.09375 15 
Q 19.796875 11.5 24 11.5 
Q 28.5 11.5 31.203125 14.890625 
Q 33.90625 18.296875 33.90625 24.5 
Q 33.90625 30.796875 31.09375 34.5 
Q 28.296875 38.203125 23.90625 38.203125 
M 9.703125 -14.5 
Q 9.703125 -18.40625 13.59375 -21.203125 
Q 17.5 -24 24 -24 
Q 32.296875 -24 37.59375 -20.890625 
Q 42.90625 -17.796875 42.90625 -13.203125 
Q 42.90625 -8.40625 37.90625 -6.65625 
Q 32.90625 -4.90625 23.203125 -4.90625 
Q 16.296875 -4.90625 13 -8 
Q 9.703125 -11.09375 9.703125 -14.5 
" id="STSong-67"/>
     <path d="M 2.09375 -0.40625 
L 2.09375 1.203125 
L 7.09375 2.09375 
Q 9.09375 2.59375 9.640625 3.59375 
Q 10.203125 4.59375 10.203125 7.203125 
L 10.203125 26.40625 
Q 10.203125 28.40625 9.34375 29.296875 
Q 8.5 30.203125 5.59375 30.796875 
L 2.90625 31.40625 
L 3.09375 32.90625 
Q 7 34.296875 9.59375 36.140625 
Q 12.203125 38 14.203125 42.203125 
L 16 42.203125 
Q 16.40625 36.796875 16.40625 29.59375 
Q 18.296875 33.203125 21.890625 36.546875 
Q 25.5 39.90625 28.296875 39.90625 
Q 30.5 39.90625 31.84375 38.5 
Q 33.203125 37.09375 33.203125 34.90625 
Q 33.203125 33.203125 32.09375 32.203125 
Q 31 31.203125 29.296875 31.203125 
Q 27.796875 31.203125 26.09375 31.90625 
Q 24.09375 32.796875 22.796875 32.796875 
Q 20.59375 32.796875 18.5 29.1875 
Q 16.40625 25.59375 16.40625 23.59375 
L 16.40625 7 
Q 16.40625 4.40625 17.25 3.546875 
Q 18.09375 2.703125 20.90625 2.296875 
L 28.59375 1.203125 
L 28.59375 -0.40625 
Q 23.203125 0 15.296875 0 
Q 7.796875 0 2.09375 -0.40625 
" id="STSong-72"/>
     <path d="M 39.90625 6.296875 
L 41.203125 5.59375 
Q 38.296875 -1.59375 33.203125 -1.59375 
Q 30.09375 -1.59375 28.34375 0.15625 
Q 26.59375 1.90625 26.59375 5.203125 
Q 21.09375 1 18.4375 -0.296875 
Q 15.796875 -1.59375 11.796875 -1.59375 
Q 5.296875 -1.59375 5.296875 3.703125 
Q 5.296875 8.40625 11.046875 13.703125 
Q 16.796875 19 26.796875 22.703125 
L 26.796875 29.5 
Q 26.796875 32.703125 25 34.75 
Q 23.203125 36.796875 20.203125 36.796875 
Q 16.703125 36.796875 14.203125 34.4375 
Q 11.703125 32.09375 11.203125 27.90625 
Q 11 26.203125 9.546875 25 
Q 8.09375 23.796875 6.5 23.796875 
Q 5.796875 23.796875 5.046875 24.140625 
Q 4.296875 24.5 4.296875 25.296875 
Q 4.296875 26.703125 6.890625 31 
Q 9.5 35.296875 13.390625 37.59375 
Q 17.296875 39.90625 21 39.90625 
Q 27.203125 39.90625 30 37.453125 
Q 32.796875 35 32.796875 29.59375 
L 32.796875 9.296875 
Q 32.796875 7 32.9375 5.75 
Q 33.09375 4.5 34 3.84375 
Q 34.90625 3.203125 35.796875 3.203125 
Q 38 3.203125 39.90625 6.296875 
M 26.796875 10.203125 
L 26.796875 20.5 
Q 20.40625 18 16.296875 13.890625 
Q 12.203125 9.796875 12.203125 6.40625 
Q 12.203125 4.5 13.453125 3.25 
Q 14.703125 2 16.59375 2 
Q 19.296875 2 23.046875 4.75 
Q 26.796875 7.5 26.796875 10.203125 
" id="STSong-61"/>
     <path d="M 55.90625 1.296875 
L 58.796875 1.90625 
Q 61.203125 2.40625 62.203125 3.15625 
Q 63.203125 3.90625 63.203125 6.09375 
L 63.203125 24 
Q 63.203125 29.90625 60.84375 32.59375 
Q 58.5 35.296875 53.5 35.296875 
Q 46.90625 35.296875 42 29.5 
L 42 6.90625 
Q 42 4.796875 42.390625 3.75 
Q 42.796875 2.703125 44.59375 2.296875 
L 49.703125 1.203125 
L 49.703125 -0.40625 
Q 44.703125 0 39.09375 0 
Q 33.203125 0 27.703125 -0.40625 
L 27.703125 1.203125 
L 30.59375 1.90625 
Q 33.40625 2.59375 34.65625 3.4375 
Q 35.90625 4.296875 35.90625 6.40625 
L 35.90625 24.203125 
Q 35.90625 29.203125 33.5 32.203125 
Q 31.09375 35.203125 27.296875 35.203125 
Q 22.796875 35.203125 18.640625 32.546875 
Q 14.5 29.90625 14.5 27.203125 
L 14.5 6.796875 
Q 14.5 4.40625 15.140625 3.5 
Q 15.796875 2.59375 17.203125 2.296875 
L 22.296875 1.203125 
L 22.296875 -0.40625 
Q 17.296875 0 12.296875 0 
Q 7.09375 0 1.796875 -0.40625 
L 1.796875 1.203125 
L 4.703125 1.796875 
Q 6.90625 2.296875 7.65625 3.1875 
Q 8.40625 4.09375 8.40625 6.203125 
L 8.40625 27.796875 
Q 8.40625 30.296875 7.453125 31.25 
Q 6.5 32.203125 3 32.703125 
L 3 34.296875 
Q 8.09375 35.59375 12.59375 41.703125 
L 14.5 41.703125 
L 14.5 32.09375 
Q 18.90625 36.09375 22.34375 38 
Q 25.796875 39.90625 29.5 39.90625 
Q 34.203125 39.90625 36.703125 38.5 
Q 39.203125 37.09375 41.703125 32.59375 
Q 45.09375 36.09375 48.640625 38 
Q 52.203125 39.90625 56.796875 39.90625 
Q 62.703125 39.90625 66 36.34375 
Q 69.296875 32.796875 69.296875 26.203125 
L 69.296875 6 
Q 69.296875 2.296875 70.90625 2 
L 75.40625 1.203125 
L 75.40625 -0.40625 
Q 70.40625 0 65.90625 0 
Q 59.90625 0 55.90625 -0.296875 
z
" id="STSong-6d"/>
    </defs>
    <g transform="translate(180.259375 22.96875)scale(0.24 -0.24)">
     <use xlink:href="#STSong-48"/>
     <use x="75.999985" xlink:href="#STSong-69"/>
     <use x="98.899979" xlink:href="#STSong-73"/>
     <use x="135.399963" xlink:href="#STSong-74"/>
     <use x="164.59996" xlink:href="#STSong-67"/>
     <use x="209.399948" xlink:href="#STSong-72"/>
     <use x="242.699936" xlink:href="#STSong-61"/>
     <use x="283.299927" xlink:href="#STSong-6d"/>
    </g>
   </g>
  </g>
 </g>
 <defs>
  <clipPath id="p83a6bbfafe">
   <rect height="217.44" width="334.8" x="56.10625" y="28.96875"/>
  </clipPath>
 </defs>
</svg>
