<?xml version="1.0" encoding="utf-8" standalone="no"?>
<!DOCTYPE svg PUBLIC "-//W3C//DTD SVG 1.1//EN"
  "http://www.w3.org/Graphics/SVG/1.1/DTD/svg11.dtd">
<!-- Created with matplotlib (http://matplotlib.org/) -->
<svg height="299pt" version="1.1" viewBox="0 0 401 299" width="401pt" xmlns="http://www.w3.org/2000/svg" xmlns:xlink="http://www.w3.org/1999/xlink">
 <defs>
  <style type="text/css">
*{stroke-linecap:butt;stroke-linejoin:round;}
  </style>
 </defs>
 <g id="figure_1">
  <g id="patch_1">
   <path d="M 0 299.450156 
L 401.440625 299.450156 
L 401.440625 0 
L 0 0 
z
" style="fill:none;"/>
  </g>
  <g id="axes_1">
   <g id="patch_2">
    <path d="M 54.75 248.964219 
L 389.55 248.964219 
L 389.55 31.524219 
L 54.75 31.524219 
z
" style="fill:#ffffff;"/>
   </g>
   <g id="matplotlib.axis_1">
    <g id="xtick_1">
     <g id="line2d_1">
      <path clip-path="url(#pbd4ce9c551)" d="M 102.578571 248.964219 
L 102.578571 31.524219 
" style="fill:none;stroke:#b0b0b0;stroke-linecap:square;stroke-width:0.8;"/>
     </g>
     <g id="line2d_2">
      <defs>
       <path d="M 0 0 
L 0 3.5 
" id="mb9d5be1e74" style="stroke:#000000;stroke-width:0.8;"/>
      </defs>
      <g>
       <use style="stroke:#000000;stroke-width:0.8;" x="102.578571" xlink:href="#mb9d5be1e74" y="248.964219"/>
      </g>
     </g>
     <g id="text_1">
      <!-- this is 0 -->
      <defs>
       <path d="M 15.296875 48.203125 
L 16.5 48.203125 
L 16.59375 37.5 
L 30.203125 37.796875 
L 30.203125 34.203125 
L 16.59375 33.796875 
L 16.59375 10 
Q 16.59375 5.5 17.84375 3.5 
Q 19.09375 1.5 21.90625 1.5 
Q 25.296875 1.5 30.09375 4.296875 
L 31 2.90625 
Q 28.90625 0.5 26.15625 -0.546875 
Q 23.40625 -1.59375 18.703125 -1.59375 
Q 13.5 -1.59375 11.890625 0.953125 
Q 10.296875 3.5 10.296875 11 
L 10.296875 33.59375 
L 4.90625 33.5 
Q 3.5 33.5 3.5 34.296875 
Q 3.5 35 4.796875 35.59375 
Q 9.09375 37.40625 11.046875 39.75 
Q 13 42.09375 15.296875 48.203125 
" id="STSong-74"/>
       <path d="M 9 55.296875 
Q 9 58 7.75 59.046875 
Q 6.5 60.09375 1.59375 61.203125 
L 1.59375 62.40625 
Q 5.796875 62.59375 12.59375 66 
L 15 66 
L 15 30.703125 
Q 22.296875 39.90625 31 39.90625 
Q 36.296875 39.90625 39.546875 36.296875 
Q 42.796875 32.703125 42.796875 26.296875 
L 42.796875 4.703125 
Q 42.796875 3.703125 43.1875 3.140625 
Q 43.59375 2.59375 45.296875 2.203125 
L 49.703125 1.203125 
L 49.703125 -0.40625 
Q 43.5 0 40.09375 0 
Q 36.59375 0 30.40625 -0.40625 
L 30.40625 1.203125 
L 34.5 2.296875 
Q 35.796875 2.703125 36.34375 3.203125 
Q 36.90625 3.703125 36.90625 5.40625 
L 36.90625 26.09375 
Q 36.90625 30.296875 34.40625 32.796875 
Q 31.90625 35.296875 27.5 35.296875 
Q 24.09375 35.296875 21.1875 33.34375 
Q 18.296875 31.40625 15 27.203125 
L 15 5.40625 
Q 15 4.203125 15.34375 3.703125 
Q 15.703125 3.203125 16.90625 2.90625 
L 23.703125 1.203125 
L 23.703125 -0.40625 
Q 20.5 0 12.59375 0 
Q 4.703125 0 1.5 -0.40625 
L 1.5 1.203125 
L 6.90625 2.296875 
Q 8.203125 2.59375 8.59375 2.9375 
Q 9 3.296875 9 4.5 
z
" id="STSong-68"/>
       <path d="M 11.203125 64 
Q 12.90625 64 14.296875 62.703125 
Q 15.703125 61.40625 15.703125 59.703125 
Q 15.703125 58.09375 14.25 56.84375 
Q 12.796875 55.59375 11 55.59375 
Q 9.296875 55.59375 8.09375 56.796875 
Q 6.90625 58 6.90625 59.703125 
Q 6.90625 61.40625 8.203125 62.703125 
Q 9.5 64 11.203125 64 
M 22.203125 -0.40625 
Q 19.09375 0 11.203125 0 
Q 3.296875 0 0.203125 -0.40625 
L 0.203125 1.203125 
L 5.796875 2.296875 
Q 8.90625 2.90625 8.90625 5.90625 
L 8.90625 29.40625 
Q 8.90625 31.796875 7.703125 32.890625 
Q 6.5 34 2.90625 34.796875 
L 2.90625 36.203125 
Q 10 38 13.296875 43.40625 
L 14.90625 43.40625 
L 14.90625 5.59375 
Q 14.90625 4.09375 15.34375 3.390625 
Q 15.796875 2.703125 17.09375 2.40625 
L 22.203125 1.203125 
z
" id="STSong-69"/>
       <path d="M 28 28.796875 
Q 27.09375 32.203125 24 34.890625 
Q 20.90625 37.59375 18.5 37.59375 
Q 11.203125 37.59375 11.203125 30.90625 
Q 11.203125 28.203125 13.59375 26.34375 
Q 16 24.5 20.90625 22.703125 
Q 32.203125 18.40625 32.203125 10.5 
Q 32.203125 5.296875 28.203125 1.84375 
Q 24.203125 -1.59375 18.296875 -1.59375 
Q 11.09375 -1.59375 6.5 1 
L 5.5 12.296875 
L 7.203125 12.296875 
Q 8.59375 7 12.09375 3.75 
Q 15.59375 0.5 19.59375 0.5 
Q 22.796875 0.5 25 2.546875 
Q 27.203125 4.59375 27.203125 7.703125 
Q 27.203125 13.40625 17.796875 16.90625 
Q 11.203125 19.40625 8.34375 22.15625 
Q 5.5 24.90625 5.5 28.90625 
Q 5.5 34 9.296875 36.953125 
Q 13.09375 39.90625 19.5 39.90625 
Q 25.203125 39.90625 29.296875 37.5 
L 29.90625 28.796875 
z
" id="STSong-73"/>
       <path id="STSong-20"/>
       <path d="M 23.703125 63.5 
Q 32 63.5 38.046875 54.140625 
Q 44.09375 44.796875 44.09375 30.90625 
Q 44.09375 17.09375 38.046875 7.75 
Q 32 -1.59375 23.703125 -1.59375 
Q 15.703125 -1.59375 9.5 7.65625 
Q 3.296875 16.90625 3.296875 30.90625 
Q 3.296875 44.796875 9.34375 54.140625 
Q 15.40625 63.5 23.703125 63.5 
M 23.703125 0.703125 
Q 31.09375 0.703125 33.9375 8.046875 
Q 36.796875 15.40625 36.796875 30.90625 
Q 36.796875 46.40625 33.9375 53.796875 
Q 31.09375 61.203125 23.703125 61.203125 
Q 16.296875 61.203125 13.4375 53.796875 
Q 10.59375 46.40625 10.59375 30.90625 
Q 10.59375 0.703125 23.703125 0.703125 
" id="STSong-30"/>
      </defs>
      <g transform="translate(72.986384 269.164219)scale(0.2 -0.2)">
       <use xlink:href="#STSong-74"/>
       <use x="29.199997" xlink:href="#STSong-68"/>
       <use x="80.199982" xlink:href="#STSong-69"/>
       <use x="103.099976" xlink:href="#STSong-73"/>
       <use x="139.59996" xlink:href="#STSong-20"/>
       <use x="164.599945" xlink:href="#STSong-69"/>
       <use x="187.499939" xlink:href="#STSong-73"/>
       <use x="223.999924" xlink:href="#STSong-20"/>
       <use x="248.999908" xlink:href="#STSong-30"/>
      </g>
     </g>
    </g>
    <g id="xtick_2">
     <g id="line2d_3">
      <path clip-path="url(#pbd4ce9c551)" d="M 198.235714 248.964219 
L 198.235714 31.524219 
" style="fill:none;stroke:#b0b0b0;stroke-linecap:square;stroke-width:0.8;"/>
     </g>
     <g id="line2d_4">
      <g>
       <use style="stroke:#000000;stroke-width:0.8;" x="198.235714" xlink:href="#mb9d5be1e74" y="248.964219"/>
      </g>
     </g>
     <g id="text_2">
      <!-- 2 -->
      <defs>
       <path d="M 42.59375 -0.296875 
Q 35.40625 0 22.203125 0 
Q 9.296875 0 2.203125 -0.296875 
Q 4.09375 3.59375 7 7.09375 
Q 9.90625 10.59375 16.296875 17 
Q 25.59375 26.296875 29.890625 32.84375 
Q 34.203125 39.40625 34.203125 46.09375 
Q 34.203125 51.59375 30.75 55 
Q 27.296875 58.40625 22.203125 58.40625 
Q 17.203125 58.40625 13.09375 54.953125 
Q 9 51.5 7.40625 45.203125 
L 5.09375 45.59375 
Q 6.703125 54.09375 11.796875 58.796875 
Q 16.90625 63.5 24.203125 63.5 
Q 31.5 63.5 36.59375 58.640625 
Q 41.703125 53.796875 41.703125 47 
Q 41.703125 40.203125 36.953125 34.25 
Q 32.203125 28.296875 22.59375 19.40625 
Q 17.5 14.703125 9.90625 5.296875 
L 33.40625 5.296875 
Q 37.203125 5.296875 38.75 6.640625 
Q 40.296875 8 42 12.5 
L 44.09375 12.5 
z
" id="STSong-32"/>
      </defs>
      <g transform="translate(193.545089 269.164219)scale(0.2 -0.2)">
       <use xlink:href="#STSong-32"/>
      </g>
     </g>
    </g>
    <g id="xtick_3">
     <g id="line2d_5">
      <path clip-path="url(#pbd4ce9c551)" d="M 293.892857 248.964219 
L 293.892857 31.524219 
" style="fill:none;stroke:#b0b0b0;stroke-linecap:square;stroke-width:0.8;"/>
     </g>
     <g id="line2d_6">
      <g>
       <use style="stroke:#000000;stroke-width:0.8;" x="293.892857" xlink:href="#mb9d5be1e74" y="248.964219"/>
      </g>
     </g>
     <g id="text_3">
      <!-- 4 -->
      <defs>
       <path d="M 32.59375 63.5 
L 35 63.5 
L 35 22 
L 45.59375 22 
L 45.59375 17.40625 
L 35 17.40625 
L 35 -1.59375 
L 28.40625 -1.59375 
L 28.40625 17.40625 
L 2.796875 17.40625 
L 2.796875 20.703125 
L 14.703125 38.09375 
z
M 28.40625 22 
L 28.40625 52.703125 
Q 14.796875 33.796875 7.59375 22 
z
" id="STSong-34"/>
      </defs>
      <g transform="translate(289.202232 269.164219)scale(0.2 -0.2)">
       <use xlink:href="#STSong-34"/>
      </g>
     </g>
    </g>
    <g id="xtick_4">
     <g id="line2d_7">
      <path clip-path="url(#pbd4ce9c551)" d="M 389.55 248.964219 
L 389.55 31.524219 
" style="fill:none;stroke:#b0b0b0;stroke-linecap:square;stroke-width:0.8;"/>
     </g>
     <g id="line2d_8">
      <g>
       <use style="stroke:#000000;stroke-width:0.8;" x="389.55" xlink:href="#mb9d5be1e74" y="248.964219"/>
      </g>
     </g>
     <g id="text_4">
      <!-- 6 -->
      <defs>
       <path d="M 38.40625 63.796875 
L 39.203125 61.90625 
Q 26.703125 57.203125 19.25 45.84375 
Q 11.796875 34.5 11.796875 21.5 
Q 11.796875 12.90625 15.390625 6.75 
Q 19 0.59375 24.203125 0.59375 
Q 35.40625 0.59375 35.40625 18.40625 
Q 35.40625 25.90625 32.5 30.09375 
Q 29.59375 34.296875 25.203125 34.296875 
Q 23.5 34.296875 21.90625 33.59375 
L 20.796875 35.203125 
Q 24 36.59375 27.296875 36.59375 
Q 33.90625 36.59375 38.25 31.59375 
Q 42.59375 26.59375 42.59375 17.90625 
Q 42.59375 9.59375 37.4375 4 
Q 32.296875 -1.59375 24.09375 -1.59375 
Q 15.59375 -1.59375 10.25 5.046875 
Q 4.90625 11.703125 4.90625 23.09375 
Q 4.90625 36.90625 13.953125 48.25 
Q 23 59.59375 38.40625 63.796875 
" id="STSong-36"/>
      </defs>
      <g transform="translate(384.859375 269.164219)scale(0.2 -0.2)">
       <use xlink:href="#STSong-36"/>
      </g>
     </g>
    </g>
    <g id="text_5">
     <!-- 横轴：时间 -->
     <defs>
      <path d="M 74.609375 69.921875 
Q 84.765625 69.921875 89.453125 70.3125 
L 89.453125 64.0625 
Q 84.375 64.453125 74.609375 64.453125 
L 74.609375 53.515625 
L 83.203125 53.515625 
Q 89.453125 53.515625 94.53125 53.90625 
L 94.53125 47.65625 
Q 89.0625 48.046875 83.203125 48.046875 
L 65.234375 48.046875 
L 65.234375 41.40625 
L 86.328125 41.40625 
Q 85.9375 35.9375 85.9375 25.390625 
Q 85.9375 15.234375 86.328125 9.765625 
L 39.0625 9.765625 
Q 39.453125 14.0625 39.453125 25 
Q 39.453125 35.9375 39.0625 41.40625 
L 58.59375 41.40625 
L 58.59375 48.046875 
L 44.53125 48.046875 
Q 39.0625 48.046875 35.15625 47.65625 
L 35.15625 53.90625 
Q 39.453125 53.515625 44.53125 53.515625 
L 50 53.515625 
L 50 64.453125 
Q 43.359375 64.453125 37.890625 64.0625 
L 37.890625 70.3125 
Q 43.75 69.921875 50 69.921875 
Q 50 75.78125 49.609375 79.6875 
L 56.640625 79.6875 
Q 56.25 76.171875 56.25 69.921875 
L 68.359375 69.921875 
Q 68.359375 76.5625 67.96875 80.46875 
L 75 80.46875 
Q 74.609375 76.953125 74.609375 69.921875 
z
M 17.1875 69.140625 
Q 17.1875 73.4375 16.796875 79.6875 
L 24.21875 79.6875 
Q 23.828125 74.609375 23.828125 69.140625 
L 23.828125 59.375 
Q 27.734375 59.375 32.8125 59.765625 
L 32.8125 53.125 
Q 27.734375 53.515625 23.828125 53.515625 
L 23.828125 36.328125 
Q 26.171875 38.28125 27.734375 40.234375 
Q 31.640625 35.15625 35.9375 29.296875 
Q 33.59375 27.734375 30.46875 25 
Q 26.5625 31.25 23.828125 34.375 
L 23.828125 3.515625 
Q 23.828125 -3.90625 24.21875 -9.765625 
L 16.796875 -9.765625 
Q 17.1875 -4.296875 17.1875 3.515625 
L 17.1875 35.546875 
Q 15.625 29.6875 13.28125 24.796875 
Q 10.9375 19.921875 7.8125 14.453125 
Q 5.859375 17.96875 2.734375 21.875 
Q 8.203125 28.515625 11.328125 36.328125 
Q 14.453125 44.140625 16.015625 53.515625 
Q 10.15625 53.515625 5.859375 53.125 
L 5.859375 59.765625 
Q 10.15625 59.375 17.1875 59.375 
z
M 72.265625 8.984375 
Q 76.5625 6.640625 81.4375 3.90625 
Q 86.328125 1.171875 92.1875 -2.734375 
Q 89.0625 -6.640625 87.5 -9.375 
Q 78.125 -2.734375 75.96875 -1.5625 
Q 73.828125 -0.390625 68.359375 2.34375 
Q 70.703125 5.078125 72.265625 8.984375 
z
M 57.421875 2.34375 
Q 52.734375 0 47.453125 -3.703125 
Q 42.1875 -7.421875 36.328125 -10.15625 
Q 34.765625 -6.25 32.421875 -3.515625 
Q 37.890625 -1.171875 41.796875 1.171875 
Q 45.703125 3.515625 51.5625 8.59375 
Q 54.296875 5.46875 57.421875 2.34375 
z
M 68.359375 53.515625 
L 68.359375 64.453125 
L 56.25 64.453125 
L 56.25 53.515625 
z
M 79.6875 15.234375 
L 79.6875 23.046875 
L 65.234375 23.046875 
L 65.234375 15.234375 
z
M 79.6875 28.125 
L 79.6875 35.9375 
L 65.234375 35.9375 
L 65.234375 28.125 
z
M 58.59375 28.125 
L 58.59375 35.9375 
L 45.703125 35.9375 
L 45.703125 28.125 
z
M 58.59375 15.234375 
L 58.59375 23.046875 
L 45.703125 23.046875 
L 45.703125 15.234375 
z
" id="SimHei-6a2a"/>
      <path d="M 65.625 60.9375 
Q 65.625 74.609375 65.234375 80.859375 
L 73.4375 80.859375 
Q 73.046875 75 73.046875 60.9375 
L 92.96875 60.9375 
Q 92.578125 47.265625 92.578125 26.171875 
Q 92.578125 5.078125 92.96875 -8.203125 
L 85.15625 -8.203125 
L 85.15625 1.5625 
L 53.515625 1.5625 
L 53.515625 -8.984375 
L 46.09375 -8.984375 
Q 46.484375 5.078125 46.484375 26.171875 
Q 46.484375 47.265625 46.09375 60.9375 
L 65.625 60.9375 
z
M 42.578125 14.84375 
Q 35.15625 14.0625 32.421875 13.671875 
Q 32.421875 3.125 32.8125 -9.375 
L 24.609375 -9.375 
Q 25 3.125 25 12.5 
Q 10.9375 10.15625 7.03125 8.984375 
Q 6.25 12.5 4.296875 16.796875 
Q 10.9375 17.1875 25 19.53125 
L 25 32.421875 
L 17.1875 32.421875 
Q 13.28125 32.421875 8.203125 31.25 
L 4.6875 38.671875 
Q 8.203125 40.625 10.9375 47.265625 
Q 13.671875 53.90625 16.015625 61.328125 
Q 10.9375 61.328125 5.078125 60.9375 
L 5.078125 67.96875 
Q 10.9375 67.578125 17.578125 67.578125 
Q 20.3125 75.390625 21.484375 82.03125 
Q 25.390625 80.46875 30.078125 79.6875 
Q 28.515625 76.953125 25 67.578125 
Q 33.984375 67.578125 42.96875 67.96875 
L 42.96875 60.9375 
Q 34.375 61.328125 23.046875 61.328125 
Q 17.96875 46.875 14.453125 38.671875 
L 25 38.671875 
Q 25 47.65625 24.609375 53.125 
L 32.8125 53.125 
Q 32.421875 48.4375 32.421875 38.671875 
Q 37.890625 38.671875 41.015625 39.0625 
L 41.015625 32.03125 
Q 38.28125 32.421875 32.421875 32.421875 
L 32.421875 20.3125 
L 43.359375 21.875 
Q 42.578125 18.359375 42.578125 14.84375 
z
M 65.625 8.203125 
L 65.625 28.90625 
L 53.515625 28.90625 
L 53.515625 8.203125 
z
M 85.15625 8.203125 
L 85.15625 28.90625 
L 73.046875 28.90625 
L 73.046875 8.203125 
z
M 65.625 35.15625 
L 65.625 54.296875 
L 53.515625 54.296875 
L 53.515625 35.15625 
z
M 85.15625 35.15625 
L 85.15625 54.296875 
L 73.046875 54.296875 
L 73.046875 35.15625 
z
" id="SimHei-8f74"/>
      <path d="M 18.75 37.890625 
L 31.640625 37.890625 
L 31.640625 25 
L 18.75 25 
z
M 18.75 12.890625 
L 31.640625 12.890625 
L 31.640625 0 
L 18.75 0 
z
" id="SimHei-ff1a"/>
      <path d="M 39.453125 71.484375 
Q 39.0625 57.421875 39.0625 37.5 
Q 39.0625 17.578125 39.453125 6.25 
L 31.25 6.25 
L 31.25 13.671875 
L 15.625 13.671875 
L 15.625 0.78125 
L 7.421875 0.78125 
Q 7.8125 18.75 7.8125 36.71875 
Q 7.8125 55.078125 7.421875 71.484375 
L 39.453125 71.484375 
z
M 76.171875 59.765625 
Q 76.171875 71.484375 75.78125 81.640625 
L 84.375 81.640625 
Q 83.984375 71.484375 83.984375 59.765625 
Q 89.84375 59.765625 96.484375 60.15625 
L 96.484375 52.734375 
Q 89.84375 53.125 83.984375 53.125 
L 83.984375 0.78125 
Q 83.984375 -5.078125 79.296875 -6.640625 
Q 74.609375 -8.203125 67.1875 -8.984375 
Q 67.1875 -4.296875 62.890625 0 
Q 70.3125 -0.78125 73.234375 -0.390625 
Q 76.171875 0 76.171875 4.6875 
L 76.171875 53.125 
Q 56.640625 53.125 43.359375 52.734375 
L 43.359375 60.15625 
Q 55.859375 59.765625 76.171875 59.765625 
z
M 31.25 20.3125 
L 31.25 39.84375 
L 15.625 39.84375 
L 15.625 20.3125 
z
M 31.25 46.484375 
L 31.25 64.84375 
L 15.625 64.84375 
L 15.625 46.484375 
z
M 55.46875 42.578125 
Q 60.546875 34.375 65.234375 25 
Q 61.328125 23.828125 57.03125 21.484375 
Q 53.90625 30.859375 48.046875 39.0625 
Q 51.5625 40.625 55.46875 42.578125 
z
" id="SimHei-65f6"/>
      <path d="M 69.53125 55.46875 
Q 69.140625 48.046875 69.140625 42.578125 
L 69.140625 21.875 
Q 69.140625 16.796875 69.53125 9.765625 
L 30.078125 9.765625 
Q 30.46875 16.796875 30.46875 22.265625 
L 30.46875 42.578125 
Q 30.46875 48.046875 30.078125 55.46875 
L 69.53125 55.46875 
z
M 90.625 76.171875 
Q 90.234375 68.75 90.234375 61.328125 
L 90.234375 3.90625 
Q 90.625 -5.078125 85.34375 -7.03125 
Q 80.078125 -8.984375 73.828125 -9.765625 
Q 73.4375 -5.078125 70.703125 -0.390625 
Q 78.125 -0.78125 80.265625 0.390625 
Q 82.421875 1.5625 82.421875 5.46875 
L 82.421875 69.53125 
L 58.984375 69.53125 
Q 49.609375 69.53125 41.40625 69.140625 
L 41.40625 76.5625 
Q 49.609375 76.171875 58.984375 76.171875 
z
M 8.59375 -8.203125 
Q 9.375 -0.390625 9.375 8.203125 
L 9.375 49.21875 
Q 9.375 57.421875 8.59375 62.890625 
L 17.578125 62.890625 
Q 17.1875 57.03125 17.1875 51.5625 
L 17.1875 7.8125 
Q 17.1875 0 17.578125 -8.203125 
z
M 61.71875 16.015625 
L 61.71875 30.46875 
L 37.890625 30.46875 
L 37.890625 16.015625 
z
M 61.71875 36.71875 
L 61.71875 49.21875 
L 37.890625 49.21875 
L 37.890625 36.71875 
z
M 23.828125 82.8125 
Q 27.34375 78.125 34.765625 67.96875 
Q 30.46875 66.015625 26.5625 63.671875 
Q 22.65625 71.484375 16.796875 78.515625 
Q 21.09375 81.640625 23.828125 82.8125 
z
" id="SimHei-95f4"/>
     </defs>
     <g style="fill:#008000;" transform="translate(184.65 290.375156)scale(0.15 -0.15)">
      <use xlink:href="#SimHei-6a2a"/>
      <use x="100" xlink:href="#SimHei-8f74"/>
      <use x="200" xlink:href="#SimHei-ff1a"/>
      <use x="300" xlink:href="#SimHei-65f6"/>
      <use x="400" xlink:href="#SimHei-95f4"/>
     </g>
    </g>
   </g>
   <g id="matplotlib.axis_2">
    <g id="ytick_1">
     <g id="line2d_9">
      <path clip-path="url(#pbd4ce9c551)" d="M 54.75 248.964219 
L 389.55 248.964219 
" style="fill:none;stroke:#b0b0b0;stroke-linecap:square;stroke-width:0.8;"/>
     </g>
     <g id="line2d_10">
      <defs>
       <path d="M 0 0 
L -3.5 0 
" id="m4fc4115d5a" style="stroke:#000000;stroke-width:0.8;"/>
      </defs>
      <g>
       <use style="stroke:#000000;stroke-width:0.8;" x="54.75" xlink:href="#m4fc4115d5a" y="248.964219"/>
      </g>
     </g>
     <g id="text_6">
      <!-- −2 -->
      <defs>
       <path d="M 7.09375 33.296875 
L 59.59375 33.296875 
L 59.59375 29 
L 7.09375 29 
z
" id="STSong-2212"/>
      </defs>
      <g transform="translate(25.028125 255.564219)scale(0.2 -0.2)">
       <use xlink:href="#STSong-2212"/>
       <use x="66.699997" xlink:href="#STSong-32"/>
      </g>
     </g>
    </g>
    <g id="ytick_2">
     <g id="line2d_11">
      <path clip-path="url(#pbd4ce9c551)" d="M 54.75 194.604219 
L 389.55 194.604219 
" style="fill:none;stroke:#b0b0b0;stroke-linecap:square;stroke-width:0.8;"/>
     </g>
     <g id="line2d_12">
      <g>
       <use style="stroke:#000000;stroke-width:0.8;" x="54.75" xlink:href="#m4fc4115d5a" y="194.604219"/>
      </g>
     </g>
     <g id="text_7">
      <!-- −1 -->
      <defs>
       <path d="M 35.5 -0.296875 
Q 30.296875 0 23.796875 0 
Q 17.296875 0 12.09375 -0.296875 
L 12.09375 1.296875 
L 17.296875 2.203125 
Q 20.796875 2.90625 20.796875 6.09375 
L 20.796875 55.5 
L 8.90625 47.796875 
L 7.5 49.703125 
Q 14.40625 54.203125 24.09375 63.5 
L 27.40625 63.5 
L 27.40625 6.09375 
Q 27.40625 2.703125 30.90625 2.09375 
L 35.5 1.296875 
z
" id="STSong-31"/>
      </defs>
      <g transform="translate(25.028125 201.204219)scale(0.2 -0.2)">
       <use xlink:href="#STSong-2212"/>
       <use x="66.699997" xlink:href="#STSong-31"/>
      </g>
     </g>
    </g>
    <g id="ytick_3">
     <g id="line2d_13">
      <path clip-path="url(#pbd4ce9c551)" d="M 54.75 140.244219 
L 389.55 140.244219 
" style="fill:none;stroke:#b0b0b0;stroke-linecap:square;stroke-width:0.8;"/>
     </g>
     <g id="line2d_14">
      <g>
       <use style="stroke:#000000;stroke-width:0.8;" x="54.75" xlink:href="#m4fc4115d5a" y="140.244219"/>
      </g>
     </g>
     <g id="text_8">
      <!-- 0 -->
      <g transform="translate(38.36875 146.844219)scale(0.2 -0.2)">
       <use xlink:href="#STSong-30"/>
      </g>
     </g>
    </g>
    <g id="ytick_4">
     <g id="line2d_15">
      <path clip-path="url(#pbd4ce9c551)" d="M 54.75 85.884219 
L 389.55 85.884219 
" style="fill:none;stroke:#b0b0b0;stroke-linecap:square;stroke-width:0.8;"/>
     </g>
     <g id="line2d_16">
      <g>
       <use style="stroke:#000000;stroke-width:0.8;" x="54.75" xlink:href="#m4fc4115d5a" y="85.884219"/>
      </g>
     </g>
     <g id="text_9">
      <!-- 1 -->
      <g transform="translate(38.36875 92.484219)scale(0.2 -0.2)">
       <use xlink:href="#STSong-31"/>
      </g>
     </g>
    </g>
    <g id="ytick_5">
     <g id="line2d_17">
      <path clip-path="url(#pbd4ce9c551)" d="M 54.75 31.524219 
L 389.55 31.524219 
" style="fill:none;stroke:#b0b0b0;stroke-linecap:square;stroke-width:0.8;"/>
     </g>
     <g id="line2d_18">
      <g>
       <use style="stroke:#000000;stroke-width:0.8;" x="54.75" xlink:href="#m4fc4115d5a" y="31.524219"/>
      </g>
     </g>
     <g id="text_10">
      <!-- 2 -->
      <g transform="translate(38.36875 38.124219)scale(0.2 -0.2)">
       <use xlink:href="#STSong-32"/>
      </g>
     </g>
    </g>
    <g id="text_11">
     <!-- 纵轴：振幅 -->
     <defs>
      <path d="M 78.125 77.734375 
Q 77.734375 71.875 77.53125 61.328125 
Q 77.34375 50.78125 78.90625 39.25 
Q 80.46875 27.734375 85.34375 16.015625 
Q 90.234375 4.296875 96.875 -1.171875 
Q 93.359375 -3.515625 90.234375 -8.59375 
Q 85.9375 -3.90625 81.828125 4.296875 
Q 77.734375 12.5 74.21875 28.125 
Q 71.09375 11.71875 65.234375 2.140625 
Q 59.375 -7.421875 57.03125 -9.765625 
Q 53.125 -6.640625 49.609375 -5.46875 
Q 57.03125 1.171875 61.71875 11.125 
Q 66.40625 21.09375 67.96875 31.640625 
Q 69.53125 42.1875 69.53125 53.90625 
Q 69.53125 65.625 69.140625 78.515625 
L 78.125 77.734375 
z
M 53.125 78.90625 
Q 52.34375 71.484375 52.34375 64.0625 
Q 52.34375 56.640625 51.953125 40.234375 
Q 60.15625 30.859375 64.84375 24.21875 
Q 61.328125 21.09375 58.984375 17.96875 
Q 55.078125 26.171875 50.78125 31.640625 
Q 48.4375 14.84375 44.53125 6.046875 
Q 40.625 -2.734375 36.328125 -9.375 
Q 33.59375 -6.640625 28.515625 -5.46875 
Q 35.15625 2.734375 38.671875 12.296875 
Q 42.1875 21.875 43.75 32.8125 
Q 45.3125 43.75 45.109375 55.65625 
Q 44.921875 67.578125 44.53125 79.6875 
Q 49.609375 78.90625 53.125 78.90625 
z
M 7.8125 25 
Q 12.109375 28.125 15.03125 32.21875 
Q 17.96875 36.328125 21.875 43.359375 
Q 19.140625 43.359375 15.421875 42.578125 
Q 11.71875 41.796875 8.59375 40.625 
Q 7.421875 44.53125 5.46875 48.828125 
Q 9.375 51.5625 13.28125 60.9375 
Q 17.1875 70.3125 19.140625 80.46875 
Q 23.4375 78.515625 27.734375 77.34375 
Q 25.390625 72.265625 22.265625 66.015625 
Q 19.140625 59.765625 14.0625 49.21875 
Q 21.484375 49.21875 25 49.609375 
Q 28.90625 57.03125 30.859375 63.28125 
Q 33.984375 60.546875 38.28125 58.203125 
Q 35.15625 53.515625 31.046875 45.890625 
Q 26.953125 38.28125 18.359375 26.171875 
Q 22.65625 27.34375 36.328125 29.296875 
L 36.328125 22.65625 
Q 29.6875 21.875 23.828125 20.703125 
Q 17.96875 19.53125 11.328125 16.796875 
Q 9.765625 21.484375 7.8125 25 
z
M 5.859375 5.46875 
Q 10.9375 6.640625 17.96875 8.78125 
Q 25 10.9375 35.15625 14.453125 
Q 35.15625 11.328125 35.9375 7.421875 
Q 29.296875 6.25 22.0625 3.3125 
Q 14.84375 0.390625 9.765625 -2.34375 
Q 7.8125 2.34375 5.859375 5.46875 
z
" id="SimHei-7eb5"/>
      <path d="M 51.171875 -3.125 
Q 53.125 -1.5625 53.703125 0.578125 
Q 54.296875 2.734375 54.296875 7.8125 
L 54.296875 35.9375 
L 47.265625 35.9375 
Q 46.875 28.125 46.09375 21.484375 
Q 45.3125 14.84375 43.75 9.375 
Q 42.1875 3.90625 40.234375 -0.578125 
Q 38.28125 -5.078125 36.328125 -9.765625 
Q 33.984375 -7.421875 28.515625 -5.46875 
Q 33.59375 -0.390625 35.9375 6.4375 
Q 38.28125 13.28125 39.0625 21.09375 
Q 39.84375 28.90625 40.03125 38.078125 
Q 40.234375 47.265625 40.234375 56.640625 
Q 40.234375 66.40625 39.453125 75.390625 
L 80.46875 75.390625 
Q 85.546875 75.390625 91.015625 75.78125 
L 91.015625 68.359375 
Q 84.375 68.75 81.640625 68.75 
L 47.265625 68.75 
L 47.265625 42.1875 
L 83.984375 42.1875 
Q 87.5 42.1875 93.359375 42.578125 
L 93.359375 35.546875 
Q 91.40625 35.9375 85.546875 35.9375 
L 73.046875 35.9375 
Q 74.609375 25 76.953125 19.921875 
Q 80.078125 22.65625 82.21875 24.796875 
Q 84.375 26.953125 86.71875 30.859375 
Q 88.28125 27.734375 92.1875 24.609375 
Q 89.84375 23.4375 87.109375 20.890625 
Q 84.375 18.359375 80.078125 13.671875 
Q 81.640625 10.15625 85.9375 5.65625 
Q 90.234375 1.171875 96.484375 -1.171875 
Q 91.796875 -3.90625 90.234375 -8.203125 
Q 82.8125 -2.734375 79.296875 1.5625 
Q 75.78125 5.859375 73.234375 10.734375 
Q 70.703125 15.625 68.9375 21.671875 
Q 67.1875 27.734375 66.40625 35.9375 
L 61.71875 35.9375 
L 61.71875 2.34375 
Q 66.40625 4.6875 71.484375 7.421875 
Q 72.265625 5.078125 74.21875 0.78125 
Q 71.484375 -0.390625 66.203125 -3.3125 
Q 60.9375 -6.25 56.25 -10.15625 
Q 54.6875 -7.03125 51.171875 -3.125 
z
M 3.90625 31.25 
Q 8.59375 32.421875 11.328125 33.203125 
L 17.96875 35.546875 
L 17.96875 52.34375 
Q 10.546875 52.34375 5.078125 51.953125 
L 5.078125 59.375 
Q 10.15625 58.984375 17.96875 58.984375 
L 17.96875 70.3125 
Q 17.96875 75.78125 17.578125 80.46875 
L 26.171875 80.46875 
Q 25.78125 76.171875 25.78125 70.3125 
L 25.78125 58.984375 
Q 29.296875 58.984375 35.9375 59.375 
L 35.9375 51.953125 
Q 29.6875 52.34375 25.78125 52.34375 
L 25.78125 37.890625 
Q 31.25 39.84375 35.15625 41.796875 
Q 35.15625 38.671875 35.546875 35.15625 
Q 32.8125 34.375 25.78125 31.25 
L 25.78125 1.5625 
Q 25 -3.90625 22.65625 -5.65625 
Q 20.3125 -7.421875 11.328125 -8.203125 
Q 10.9375 -5.078125 9.375 0.390625 
Q 13.28125 0 15.625 0 
Q 17.96875 0 17.96875 4.6875 
L 17.96875 28.125 
Q 15.234375 26.953125 13.28125 25.96875 
Q 11.328125 25 7.421875 22.65625 
Q 6.640625 26.171875 3.90625 31.25 
z
M 77.34375 58.984375 
Q 82.421875 58.984375 87.5 59.375 
L 87.5 51.953125 
Q 82.421875 52.34375 78.125 52.34375 
L 62.5 52.34375 
Q 58.203125 52.34375 52.734375 51.953125 
L 52.734375 59.375 
Q 57.8125 58.984375 62.5 58.984375 
z
" id="SimHei-632f"/>
      <path d="M 92.96875 35.15625 
Q 92.578125 29.296875 92.578125 14.0625 
Q 92.578125 -0.78125 92.96875 -6.640625 
L 85.15625 -6.640625 
L 85.15625 -2.734375 
L 52.34375 -2.734375 
L 52.34375 -7.421875 
L 44.921875 -7.421875 
Q 45.3125 3.125 45.3125 16.015625 
Q 45.3125 29.296875 44.921875 35.15625 
L 92.96875 35.15625 
z
M 40.234375 17.578125 
Q 40.234375 12.5 38.078125 10.9375 
Q 35.9375 9.375 30.46875 8.203125 
Q 29.6875 12.5 27.34375 15.625 
Q 30.859375 15.625 32.421875 16.203125 
Q 33.984375 16.796875 33.984375 20.3125 
L 33.984375 58.203125 
L 26.5625 58.203125 
L 26.5625 7.421875 
Q 26.5625 0 26.953125 -8.59375 
L 19.140625 -8.59375 
Q 19.53125 -0.390625 19.53125 7.421875 
L 19.53125 58.203125 
L 13.28125 58.203125 
L 13.28125 7.8125 
L 6.25 7.8125 
Q 6.640625 15.625 6.640625 35.9375 
Q 6.640625 56.25 6.25 64.0625 
L 19.53125 64.0625 
L 19.53125 70.3125 
Q 19.53125 75.390625 19.140625 80.859375 
L 26.953125 80.859375 
Q 26.5625 75.390625 26.5625 70.3125 
L 26.5625 64.0625 
L 40.625 64.0625 
Q 40.234375 60.9375 40.234375 50.390625 
z
M 87.109375 61.328125 
Q 86.71875 56.640625 86.71875 51.5625 
Q 86.71875 46.484375 87.109375 40.625 
L 50 40.625 
Q 50.390625 46.484375 50.390625 51.5625 
Q 50.390625 56.640625 50 61.328125 
L 87.109375 61.328125 
z
M 82.03125 75 
Q 88.28125 75 94.140625 75.390625 
L 94.140625 68.359375 
Q 88.28125 68.75 82.03125 68.75 
L 55.46875 68.75 
Q 48.046875 68.75 43.75 68.359375 
L 43.75 75.390625 
Q 48.046875 75 55.46875 75 
z
M 80.46875 46.484375 
L 80.46875 55.859375 
L 56.640625 55.859375 
L 56.640625 46.484375 
z
M 85.15625 19.140625 
L 85.15625 29.296875 
L 72.265625 29.296875 
L 72.265625 19.140625 
z
M 65.234375 3.125 
L 65.234375 13.28125 
L 52.34375 13.28125 
L 52.34375 3.125 
z
M 85.15625 3.125 
L 85.15625 13.28125 
L 72.265625 13.28125 
L 72.265625 3.125 
z
M 65.234375 19.140625 
L 65.234375 29.296875 
L 52.34375 29.296875 
L 52.34375 19.140625 
z
" id="SimHei-5e45"/>
     </defs>
     <g transform="translate(19.153125 177.744219)rotate(-90)scale(0.15 -0.15)">
      <use xlink:href="#SimHei-7eb5"/>
      <use x="100" xlink:href="#SimHei-8f74"/>
      <use x="200" xlink:href="#SimHei-ff1a"/>
      <use x="300" xlink:href="#SimHei-632f"/>
      <use x="400" xlink:href="#SimHei-5e45"/>
     </g>
    </g>
   </g>
   <g id="line2d_19">
    <path clip-path="url(#pbd4ce9c551)" d="M 102.578571 85.884219 
L 103.535143 85.991486 
L 104.491714 86.312864 
L 105.448286 86.847084 
L 106.404857 87.592038 
L 107.361429 88.544787 
L 108.318 89.701569 
L 109.274571 91.05782 
L 111.187714 94.346553 
L 113.100857 98.359119 
L 115.014 103.032238 
L 116.927143 108.292212 
L 119.796857 117.098856 
L 122.666571 126.725436 
L 134.145429 166.432348 
L 137.015143 174.894587 
L 138.928286 179.870953 
L 140.841429 184.222383 
L 142.754571 187.88025 
L 144.667714 190.786869 
L 145.624286 191.943651 
L 146.580857 192.896399 
L 147.537429 193.641354 
L 148.494 194.175574 
L 149.450571 194.496952 
L 150.407143 194.604219 
L 151.363714 194.496952 
L 152.320286 194.175574 
L 153.276857 193.641354 
L 154.233429 192.896399 
L 155.19 191.943651 
L 156.146571 190.786869 
L 157.103143 189.430617 
L 159.016286 186.141885 
L 160.929429 182.129319 
L 162.842571 177.456199 
L 164.755714 172.196225 
L 167.625429 163.389581 
L 170.495143 153.763001 
L 181.974 114.056089 
L 184.843714 105.593851 
L 186.756857 100.617484 
L 188.67 96.266055 
L 190.583143 92.608188 
L 192.496286 89.701569 
L 193.452857 88.544787 
L 194.409429 87.592038 
L 195.366 86.847084 
L 196.322571 86.312864 
L 197.279143 85.991486 
L 198.235714 85.884219 
L 199.192286 85.991486 
L 200.148857 86.312864 
L 201.105429 86.847084 
L 202.062 87.592038 
L 203.018571 88.544787 
L 203.975143 89.701569 
L 204.931714 91.05782 
L 206.844857 94.346553 
L 208.758 98.359119 
L 210.671143 103.032238 
L 212.584286 108.292212 
L 215.454 117.098856 
L 218.323714 126.725436 
L 229.802571 166.432348 
L 232.672286 174.894587 
L 234.585429 179.870953 
L 236.498571 184.222383 
L 238.411714 187.88025 
L 240.324857 190.786869 
L 241.281429 191.943651 
L 242.238 192.896399 
L 243.194571 193.641354 
L 244.151143 194.175574 
L 245.107714 194.496952 
L 246.064286 194.604219 
L 247.020857 194.496952 
L 247.977429 194.175574 
L 248.934 193.641354 
L 249.890571 192.896399 
L 250.847143 191.943651 
L 251.803714 190.786869 
L 252.760286 189.430617 
L 254.673429 186.141885 
L 256.586571 182.129319 
L 258.499714 177.456199 
L 260.412857 172.196225 
L 263.282571 163.389581 
L 266.152286 153.763001 
L 277.631143 114.056089 
L 280.500857 105.593851 
L 282.414 100.617484 
L 284.327143 96.266055 
L 286.240286 92.608188 
L 288.153429 89.701569 
L 289.11 88.544787 
L 290.066571 87.592038 
L 291.023143 86.847084 
L 291.979714 86.312864 
L 292.936286 85.991486 
L 293.892857 85.884219 
L 294.849429 85.991486 
L 295.806 86.312864 
L 296.762571 86.847084 
L 297.719143 87.592038 
L 298.675714 88.544787 
L 299.632286 89.701569 
L 300.588857 91.05782 
L 302.502 94.346553 
L 304.415143 98.359119 
L 306.328286 103.032238 
L 308.241429 108.292212 
L 311.111143 117.098856 
L 313.980857 126.725436 
L 325.459714 166.432348 
L 328.329429 174.894587 
L 330.242571 179.870953 
L 332.155714 184.222383 
L 334.068857 187.88025 
L 335.982 190.786869 
L 336.938571 191.943651 
L 337.895143 192.896399 
L 338.851714 193.641354 
L 339.808286 194.175574 
L 340.764857 194.496952 
L 340.764857 194.496952 
" style="fill:none;stroke:#ff0000;stroke-dasharray:5.6,2.4;stroke-dashoffset:0;stroke-width:1.5;"/>
   </g>
   <g id="patch_3">
    <path d="M 54.75 248.964219 
L 54.75 31.524219 
" style="fill:none;stroke:#000000;stroke-linecap:square;stroke-linejoin:miter;stroke-width:0.8;"/>
   </g>
   <g id="patch_4">
    <path d="M 389.55 248.964219 
L 389.55 31.524219 
" style="fill:none;stroke:#000000;stroke-linecap:square;stroke-linejoin:miter;stroke-width:0.8;"/>
   </g>
   <g id="patch_5">
    <path d="M 54.75 248.964219 
L 389.55 248.964219 
" style="fill:none;stroke:#000000;stroke-linecap:square;stroke-linejoin:miter;stroke-width:0.8;"/>
   </g>
   <g id="patch_6">
    <path d="M 54.75 31.524219 
L 389.55 31.524219 
" style="fill:none;stroke:#000000;stroke-linecap:square;stroke-linejoin:miter;stroke-width:0.8;"/>
   </g>
   <g id="text_12">
    <!-- $\mu = 100$ -->
    <defs>
     <path d="M -1.3125 -20.796875 
L 13.375 54.6875 
L 22.40625 54.6875 
L 15.765625 20.65625 
Q 15.578125 19.625 15.421875 18.359375 
Q 15.28125 17.09375 15.28125 15.828125 
Q 15.28125 11.28125 18.140625 8.828125 
Q 21 6.390625 26.3125 6.390625 
Q 33.546875 6.390625 37.984375 10.484375 
Q 42.4375 14.59375 44 22.796875 
L 50.203125 54.6875 
L 59.1875 54.6875 
L 51.03125 12.640625 
Q 50.828125 11.71875 50.75 11.03125 
Q 50.6875 10.359375 50.6875 9.8125 
Q 50.6875 8.296875 51.296875 7.59375 
Q 51.90625 6.890625 53.21875 6.890625 
Q 53.71875 6.890625 54.5625 7.125 
Q 55.421875 7.375 56.984375 8.015625 
L 55.609375 0.78125 
Q 53.46875 -0.296875 51.515625 -0.859375 
Q 49.5625 -1.421875 47.703125 -1.421875 
Q 44.484375 -1.421875 42.65625 0.625 
Q 40.828125 2.6875 40.828125 6.296875 
Q 38.09375 2.390625 34.296875 0.484375 
Q 30.515625 -1.421875 25.390625 -1.421875 
Q 20.84375 -1.421875 17.453125 0.671875 
Q 14.0625 2.78125 12.984375 6.203125 
L 7.71875 -20.796875 
z
" id="DejaVuSans-Oblique-3bc"/>
     <path d="M 10.59375 45.40625 
L 73.1875 45.40625 
L 73.1875 37.203125 
L 10.59375 37.203125 
z
M 10.59375 25.484375 
L 73.1875 25.484375 
L 73.1875 17.1875 
L 10.59375 17.1875 
z
" id="DejaVuSans-3d"/>
     <path d="M 12.40625 8.296875 
L 28.515625 8.296875 
L 28.515625 63.921875 
L 10.984375 60.40625 
L 10.984375 69.390625 
L 28.421875 72.90625 
L 38.28125 72.90625 
L 38.28125 8.296875 
L 54.390625 8.296875 
L 54.390625 0 
L 12.40625 0 
z
" id="DejaVuSans-31"/>
     <path d="M 31.78125 66.40625 
Q 24.171875 66.40625 20.328125 58.90625 
Q 16.5 51.421875 16.5 36.375 
Q 16.5 21.390625 20.328125 13.890625 
Q 24.171875 6.390625 31.78125 6.390625 
Q 39.453125 6.390625 43.28125 13.890625 
Q 47.125 21.390625 47.125 36.375 
Q 47.125 51.421875 43.28125 58.90625 
Q 39.453125 66.40625 31.78125 66.40625 
M 31.78125 74.21875 
Q 44.046875 74.21875 50.515625 64.515625 
Q 56.984375 54.828125 56.984375 36.375 
Q 56.984375 17.96875 50.515625 8.265625 
Q 44.046875 -1.421875 31.78125 -1.421875 
Q 19.53125 -1.421875 13.0625 8.265625 
Q 6.59375 17.96875 6.59375 36.375 
Q 6.59375 54.828125 13.0625 64.515625 
Q 19.53125 74.21875 31.78125 74.21875 
" id="DejaVuSans-30"/>
    </defs>
    <g transform="translate(198.235714 75.012219)scale(0.15 -0.15)">
     <use transform="translate(0 0.78125)" xlink:href="#DejaVuSans-Oblique-3bc"/>
     <use transform="translate(83.105469 0.78125)" xlink:href="#DejaVuSans-3d"/>
     <use transform="translate(186.376953 0.78125)" xlink:href="#DejaVuSans-31"/>
     <use transform="translate(250 0.78125)" xlink:href="#DejaVuSans-30"/>
     <use transform="translate(313.623047 0.78125)" xlink:href="#DejaVuSans-30"/>
    </g>
   </g>
   <g id="patch_7">
    <path d="M 339.27734 213.983169 
Q 298.352214 206.590243 257.427087 199.197317 
L 256.804899 202.641571 
Q 251.434593 198.622895 246.064286 194.604219 
Q 252.5012 192.71846 258.938115 190.832702 
L 258.315927 194.276955 
Q 299.241053 201.669881 340.16618 209.062807 
L 339.27734 213.983169 
z
" style="fill:#0000ff;stroke:#000000;stroke-linecap:round;"/>
   </g>
   <g id="text_13">
    <!-- $\pi$ -->
    <defs>
     <path d="M 9.125 54.6875 
L 61.53125 54.6875 
L 59.765625 45.703125 
L 52.875 45.703125 
L 46.34375 12.109375 
Q 45.65625 8.59375 46.578125 7.03125 
Q 47.46875 5.515625 50.140625 5.515625 
Q 50.875 5.515625 51.953125 5.671875 
Q 53.078125 5.765625 53.421875 5.8125 
L 52.15625 -0.6875 
Q 50.34375 -1.3125 48.484375 -1.609375 
Q 46.578125 -1.90625 44.78125 -1.90625 
Q 38.921875 -1.90625 37.3125 1.265625 
Q 35.6875 4.5 37.359375 13.09375 
L 43.703125 45.703125 
L 23.53125 45.703125 
L 14.65625 0 
L 5.46875 0 
L 14.359375 45.703125 
L 7.375 45.703125 
z
" id="DejaVuSans-Oblique-3c0"/>
    </defs>
    <g transform="translate(341.721429 221.784219)scale(0.15 -0.15)">
     <use transform="translate(0 0.3125)" xlink:href="#DejaVuSans-Oblique-3c0"/>
    </g>
   </g>
   <g id="text_14">
    <!-- 正弦波实例$y = cos(2 \pi x)$ -->
    <defs>
     <path d="M 93.5 -6.40625 
Q 94.40625 -7.296875 94.40625 -7.9375 
Q 94.40625 -8.59375 93 -8.59375 
L 14.59375 -8.59375 
Q 10.796875 -8.59375 7.90625 -9.59375 
L 5.09375 -6 
Q 9.796875 -6.40625 12.40625 -6.40625 
L 24.40625 -6.40625 
L 24.40625 30.59375 
Q 24.40625 36.5 24 44.203125 
L 31.796875 39.90625 
Q 33 39.296875 33 38.796875 
Q 33 38.296875 32 37.703125 
L 29.203125 35.90625 
L 29.203125 -6.40625 
L 50.5 -6.40625 
L 50.5 63.90625 
L 21.5 63.90625 
Q 17.703125 63.90625 14.796875 62.90625 
L 12 66.5 
Q 16.703125 66.09375 19.296875 66.09375 
L 79.90625 66.09375 
L 84.09375 71.703125 
L 89.90625 66.09375 
Q 90.703125 65.296875 90.703125 64.59375 
Q 90.703125 63.90625 89.40625 63.90625 
L 55.40625 63.90625 
L 55.40625 32.796875 
L 74.5 32.796875 
L 78.90625 38.5 
L 84.703125 32.796875 
Q 85.703125 32 85.703125 31.296875 
Q 85.703125 30.59375 84.296875 30.59375 
L 55.40625 30.59375 
L 55.40625 -6.40625 
L 83 -6.40625 
L 87.703125 -0.703125 
z
" id="STSong-6b63"/>
     <path d="M 58.40625 76.5 
Q 71.90625 70.5 71.90625 65.296875 
Q 71.90625 63.5 70.5 61.546875 
Q 69.09375 59.59375 67.75 59.59375 
Q 66.40625 59.59375 66.09375 62.25 
Q 65.796875 64.90625 63.4375 68.75 
Q 61.09375 72.59375 57.5 75.5 
z
M 37.5 67.296875 
Q 38.203125 66.796875 38.203125 66.5 
Q 38.203125 66.203125 37.40625 65.59375 
L 34.796875 63.796875 
L 34.796875 49.796875 
Q 34.796875 46.703125 34.90625 44.796875 
L 35.09375 41.796875 
Q 35.09375 40.5 33.25 39.703125 
Q 31.40625 38.90625 30.84375 38.90625 
Q 30.296875 38.90625 30.296875 39.703125 
L 30.296875 43.90625 
L 16.296875 43.90625 
L 12.59375 24.203125 
L 27 24.203125 
L 30.09375 28.09375 
L 36.203125 23.90625 
Q 36.703125 23.5 36.703125 23.203125 
Q 36.703125 22.90625 36 22.40625 
L 33.09375 20.5 
Q 32.5 5.203125 30.5 -2.5 
Q 28.5 -10.203125 23.546875 -13.25 
Q 18.59375 -16.296875 17.59375 -16.296875 
Q 17 -16.296875 16.796875 -15.296875 
Q 16.296875 -13.09375 14 -11.75 
Q 11.703125 -10.40625 5.296875 -8.59375 
L 5.59375 -6.90625 
Q 13.40625 -8.59375 17.34375 -8.59375 
Q 21.296875 -8.59375 23.34375 -6.4375 
Q 25.40625 -4.296875 26.84375 2.796875 
Q 28.296875 9.90625 28.40625 22.40625 
L 14.09375 22.40625 
L 11.703125 19.796875 
Q 11.203125 19.296875 10.890625 19.296875 
Q 10.59375 19.296875 10.296875 19.5 
L 4 23.203125 
L 8.40625 25.796875 
L 11.59375 43.40625 
Q 12.296875 47.203125 12.59375 50.5 
L 17.40625 45.703125 
L 30.296875 45.703125 
L 30.296875 65.59375 
L 13.703125 65.59375 
Q 9.796875 65.59375 7 64.5 
L 4.203125 68 
Q 9 67.59375 11.5 67.59375 
L 28.703125 67.59375 
L 31.296875 71.703125 
z
M 94.90625 57 
Q 95.90625 56 95.90625 55.546875 
Q 95.90625 55.09375 94.40625 55.09375 
L 47.296875 55.09375 
Q 43.40625 55.09375 40.59375 54 
L 37.796875 57.703125 
Q 42.59375 57.296875 45.09375 57.296875 
L 84.296875 57.296875 
L 88.796875 62.90625 
z
M 71.703125 13.703125 
Q 80.59375 6.296875 85.140625 0.640625 
Q 89.703125 -5 89.703125 -7.953125 
Q 89.703125 -10.90625 88.59375 -12.84375 
Q 87.5 -14.796875 86.390625 -14.796875 
Q 85.296875 -14.796875 84.640625 -13.84375 
Q 84 -12.90625 83.953125 -11 
Q 83.90625 -9.09375 81.703125 -4.203125 
L 53.90625 -7.90625 
Q 50.703125 -8.296875 47.75 -9.1875 
Q 44.796875 -10.09375 44.046875 -10.59375 
Q 43.296875 -11.09375 42.890625 -11.09375 
Q 42.5 -11.09375 42 -10.296875 
L 38.5 -4.703125 
Q 41.90625 -4.09375 43.25 -3.34375 
Q 44.59375 -2.59375 48.046875 1.453125 
Q 51.5 5.5 56.953125 12.84375 
Q 62.40625 20.203125 67.40625 27.796875 
Q 49.40625 24.796875 45.5 22.5 
Q 45 22.203125 44.703125 22.203125 
Q 44.40625 22.203125 43.90625 22.796875 
L 40.09375 27.796875 
Q 43.203125 28.40625 45.296875 30.40625 
Q 47.40625 32.40625 51.296875 39.40625 
Q 55.203125 46.40625 58.203125 54.203125 
L 63.90625 51.40625 
Q 65 50.796875 65 50.34375 
Q 65 49.90625 64 49.703125 
Q 61.59375 49.09375 59.40625 45.703125 
Q 51.90625 34.40625 46.5 28.296875 
L 68.796875 29.796875 
Q 74.09375 38.09375 77.5 44.203125 
L 83.40625 40.40625 
Q 84.203125 39.90625 84.203125 39.5 
Q 84.203125 39.09375 83.40625 38.90625 
Q 80.296875 38 78.203125 35.09375 
Q 70 23.5 60.953125 12.34375 
Q 51.90625 1.203125 45.796875 -4.5 
L 80.90625 -2.59375 
Q 76.703125 6 70.90625 12.59375 
z
" id="STSong-5f26"/>
     <path d="M 96.296875 -9.59375 
Q 91.796875 -10.203125 90.25 -10.890625 
Q 88.703125 -11.59375 87.296875 -13.59375 
Q 87 -14.09375 86.59375 -14.09375 
Q 85.5 -14.09375 77.34375 -9.25 
Q 69.203125 -4.40625 63.59375 1.5 
Q 53.203125 -8.90625 32.40625 -16.90625 
L 31.90625 -15.5 
Q 49.5 -7.59375 60.796875 4.59375 
Q 53 14.5 48.703125 31.796875 
L 43.59375 31.796875 
Q 43.5 15.703125 39.046875 4.796875 
Q 34.59375 -6.09375 24.203125 -16.203125 
L 23.203125 -15 
Q 31.296875 -5.203125 35.25 5.4375 
Q 39.203125 16.09375 39.203125 35 
L 39.203125 53.203125 
Q 39.203125 58.09375 39 63.203125 
L 44.90625 57.796875 
L 60.703125 57.796875 
L 60.703125 63.703125 
Q 60.703125 70.90625 60.296875 77.09375 
L 68.203125 73.09375 
Q 69.09375 72.703125 69.09375 72.34375 
Q 69.09375 72 68.296875 71.5 
L 65.703125 69.90625 
L 65.703125 57.796875 
L 82.90625 57.796875 
L 86.5 62.40625 
L 93.703125 56.296875 
Q 94 56 94 55.703125 
Q 94 55.40625 93.09375 55.203125 
Q 89.5 54.5 87 52.296875 
Q 84.5 50.09375 79.796875 43.296875 
L 78.5 44 
L 84 55.59375 
L 65.703125 55.59375 
L 65.703125 34 
L 75 34 
L 78.40625 38.09375 
L 84.5 32.703125 
Q 85 32.296875 85 31.890625 
Q 85 31.5 84.09375 31.203125 
Q 80.40625 30 79.703125 28.5 
Q 73.59375 12.90625 66.40625 4.59375 
Q 78.09375 -6.5 96.296875 -8.296875 
z
M 60.703125 34 
L 60.703125 55.59375 
L 43.59375 55.59375 
L 43.59375 34 
z
M 75.296875 31.796875 
L 50.796875 31.796875 
Q 55 17.296875 63.40625 7.703125 
Q 71.5 18.203125 75.296875 31.796875 
M 11.296875 71.796875 
Q 20.59375 69.796875 23.390625 67.140625 
Q 26.203125 64.5 26.203125 61.703125 
Q 26.203125 60.09375 25.25 58.890625 
Q 24.296875 57.703125 23.34375 57.703125 
Q 22.40625 57.703125 21.90625 58.203125 
Q 21.40625 58.703125 20.15625 61.546875 
Q 18.90625 64.40625 17 66.546875 
Q 15.09375 68.703125 10.703125 70.796875 
z
M 35.796875 63.203125 
L 20.703125 14.203125 
Q 20 11.90625 20 7.703125 
Q 20 0.40625 21.703125 -6.90625 
Q 22 -8.203125 22 -9.796875 
Q 22 -11.40625 20.953125 -12.546875 
Q 19.90625 -13.703125 18.5 -13.703125 
Q 17.09375 -13.703125 16.046875 -12.34375 
Q 15 -11 15 -8.5 
Q 15 -7.796875 15.640625 -2.84375 
Q 16.296875 2.09375 16.296875 5.25 
Q 16.296875 8.40625 15.75 9.90625 
Q 15.203125 11.40625 12.25 12.34375 
Q 9.296875 13.296875 6.203125 13.59375 
L 6.296875 15.203125 
Q 8.5 15.09375 9.796875 15.09375 
Q 14.296875 15.09375 15.796875 16.4375 
Q 17.296875 17.796875 19.203125 22.90625 
L 34.40625 63.90625 
z
M 4.203125 50.203125 
Q 10.203125 49 13.703125 47.390625 
Q 17.203125 45.796875 18.5 44.140625 
Q 19.796875 42.5 19.796875 40.5 
Q 19.796875 38.5 18.890625 37.203125 
Q 18 35.90625 16.703125 35.90625 
Q 15.40625 35.90625 14.59375 38.203125 
Q 11.90625 45.5 3.90625 49.09375 
z
" id="STSong-6ce2"/>
     <path d="M 44.203125 76.703125 
Q 51.09375 74.203125 53.9375 71.890625 
Q 56.796875 69.59375 56.796875 67.390625 
Q 56.796875 65.203125 55.5 63.5 
Q 54.203125 61.796875 53.046875 61.796875 
Q 51.90625 61.796875 51.546875 62.4375 
Q 51.203125 63.09375 50.703125 65.5 
Q 50.203125 67.90625 48.296875 70.5 
Q 46.40625 73.09375 43.59375 75.796875 
z
M 93.5 59.796875 
Q 94.296875 59 94.296875 58.5 
Q 94.296875 58 93.09375 57.796875 
Q 89.796875 57.296875 87.140625 55.34375 
Q 84.5 53.40625 79.59375 47.296875 
L 78.296875 48.09375 
L 84.59375 59.40625 
L 20.59375 59.40625 
Q 20.5 52.703125 17.84375 49 
Q 15.203125 45.296875 11.703125 45.296875 
Q 10.296875 45.296875 9.4375 45.890625 
Q 8.59375 46.5 8.59375 47.59375 
Q 8.59375 49.296875 10.90625 50.703125 
Q 17.59375 54.59375 19.40625 65.90625 
L 20.703125 65.90625 
L 20.703125 61.59375 
L 83.5 61.59375 
L 87.40625 66 
z
M 93 16 
Q 94 14.90625 94 14.34375 
Q 94 13.796875 92.59375 13.796875 
L 57.59375 13.796875 
Q 56.703125 11.09375 55.296875 8.203125 
Q 68.40625 4.296875 77.25 0 
Q 86.09375 -4.296875 87.9375 -6.9375 
Q 89.796875 -9.59375 89.796875 -11.75 
Q 89.796875 -13.90625 89.25 -14.84375 
Q 88.703125 -15.796875 87.796875 -15.796875 
Q 85.90625 -15.796875 83.703125 -12.546875 
Q 81.5 -9.296875 73.453125 -3.75 
Q 65.40625 1.796875 54.296875 6.59375 
Q 43.296875 -11.40625 7 -17.09375 
L 6.59375 -15.59375 
Q 45.90625 -5.703125 52.90625 13.796875 
L 15.203125 13.796875 
Q 11.296875 13.796875 8.5 12.703125 
L 5.703125 16.40625 
Q 10.5 16 13 16 
L 53.59375 16 
Q 57.09375 31.5 56.59375 54.09375 
L 64.59375 49.796875 
Q 65.5 49.296875 65.5 48.84375 
Q 65.5 48.40625 64.796875 48 
L 61.90625 46.296875 
Q 60.703125 26 58.203125 16 
L 81.5 16 
L 86.796875 22.90625 
z
M 29.703125 52.59375 
Q 39.09375 50.09375 42.640625 47.34375 
Q 46.203125 44.59375 46.203125 41.296875 
Q 46.203125 39.703125 45.5 38.640625 
Q 44.796875 37.59375 43.84375 37.59375 
Q 42.90625 37.59375 42.296875 38.34375 
Q 41.703125 39.09375 40.640625 41.25 
Q 39.59375 43.40625 36.1875 46.453125 
Q 32.796875 49.5 29.09375 51.5 
z
M 24.796875 37.203125 
Q 30.703125 35 34.5 32.703125 
Q 38.296875 30.40625 39.34375 28.796875 
Q 40.40625 27.203125 40.40625 25.453125 
Q 40.40625 23.703125 39.65625 22.546875 
Q 38.90625 21.40625 38 21.40625 
Q 37.09375 21.40625 36.4375 22.09375 
Q 35.796875 22.796875 34.6875 25.09375 
Q 33.59375 27.40625 30.640625 30.59375 
Q 27.703125 33.796875 24.203125 36.09375 
z
" id="STSong-5b9e"/>
     <path d="M 33.203125 71.90625 
Q 34.09375 71.203125 34.09375 70.796875 
Q 34.09375 70.40625 32.75 69.84375 
Q 31.40625 69.296875 30.75 68.59375 
Q 30.09375 67.90625 27.4375 62.15625 
Q 24.796875 56.40625 21.90625 50.703125 
L 25.09375 49.09375 
Q 26.09375 48.59375 26.09375 48.1875 
Q 26.09375 47.796875 25.59375 47.40625 
L 23.59375 45.796875 
L 23.59375 5.59375 
Q 23.59375 -2.40625 23.796875 -6.59375 
Q 24 -10.796875 24 -11.203125 
Q 24 -13.09375 21.796875 -14.390625 
Q 19.59375 -15.703125 19 -15.703125 
Q 18.40625 -15.703125 18.40625 -14.34375 
Q 18.40625 -13 18.75 -7.34375 
Q 19.09375 -1.703125 19.09375 5.796875 
L 19.09375 45.40625 
Q 13.40625 35 5.09375 25.09375 
L 3.90625 25.90625 
Q 19.296875 49.296875 27 76.5 
z
M 93 70.90625 
Q 93.796875 70.5 93.796875 70.046875 
Q 93.796875 69.59375 92.90625 69.09375 
L 90.296875 67.796875 
L 90.296875 -4.703125 
Q 90.296875 -9.5 89.34375 -11.34375 
Q 88.40625 -13.203125 85.953125 -14.796875 
Q 83.5 -16.40625 82.796875 -16.40625 
Q 82.09375 -16.40625 81.90625 -15.5 
Q 81.40625 -13.09375 78.84375 -11.34375 
Q 76.296875 -9.59375 68.40625 -7.203125 
L 68.40625 -5.703125 
Q 77.796875 -7.703125 80.75 -7.703125 
Q 83.703125 -7.703125 84.75 -6.84375 
Q 85.796875 -6 85.796875 -3.703125 
L 85.796875 60.203125 
Q 85.796875 68.90625 85.5 74.796875 
z
M 69.796875 64.703125 
Q 70.5 64 70.5 63.59375 
Q 70.5 63.203125 69.59375 63.203125 
L 48.703125 63.203125 
Q 46.90625 54 44.40625 46.40625 
L 55.703125 46.40625 
L 58.59375 50.59375 
L 64.5 46 
Q 65.296875 45.40625 65.296875 44.90625 
Q 65.296875 44.40625 64.5 43.90625 
L 61.296875 41.796875 
Q 59.296875 23.5 50.9375 10.203125 
Q 42.59375 -3.09375 26.09375 -13.90625 
L 25.296875 -12.703125 
Q 41.59375 0.796875 48.59375 13.9375 
Q 55.59375 27.09375 56.703125 44.203125 
L 43.703125 44.203125 
Q 41.703125 38.5 39.09375 33.59375 
Q 43.59375 30 45.59375 27.453125 
Q 47.59375 24.90625 47.59375 22.75 
Q 47.59375 20.59375 46.59375 19 
Q 45.59375 17.40625 44.546875 17.40625 
Q 43.5 17.40625 43.140625 18.203125 
Q 42.796875 19 42.59375 20.953125 
Q 42.40625 22.90625 41.203125 26.203125 
Q 40 29.5 38.203125 31.796875 
Q 33.296875 22.796875 26 14.59375 
L 25.09375 15.59375 
Q 39.796875 35.90625 43.703125 63.203125 
L 40.09375 63.203125 
Q 36.09375 63.203125 33.703125 62.296875 
L 31 65.796875 
Q 35.5 65.40625 38 65.40625 
L 60 65.40625 
L 63.90625 70.59375 
z
M 76.796875 53.40625 
L 74.796875 52.09375 
L 74.796875 27.203125 
L 75 13 
Q 75 11.09375 73.09375 9.84375 
Q 71.203125 8.59375 70.59375 8.59375 
Q 70 8.59375 70 10.703125 
L 70.203125 17.5 
Q 70.296875 21.59375 70.296875 27.296875 
L 70.296875 45.5 
Q 70.296875 49 70 58.59375 
L 76.59375 55.09375 
Q 77.5 54.59375 77.5 54.25 
Q 77.5 53.90625 76.796875 53.40625 
" id="STSong-4f8b"/>
     <path d="M 24.8125 -5.078125 
Q 18.5625 -15.578125 14.625 -18.1875 
Q 10.6875 -20.796875 4.59375 -20.796875 
L -2.484375 -20.796875 
L -0.984375 -13.28125 
L 4.203125 -13.28125 
Q 7.953125 -13.28125 10.59375 -11.234375 
Q 13.234375 -9.1875 16.5 -3.21875 
L 19.28125 2 
L 7.171875 54.6875 
L 16.703125 54.6875 
L 25.78125 12.796875 
L 50.875 54.6875 
L 60.296875 54.6875 
z
" id="DejaVuSans-Oblique-79"/>
     <path d="M 53.609375 52.59375 
L 51.8125 43.703125 
Q 48.578125 46.046875 44.9375 47.21875 
Q 41.3125 48.390625 37.40625 48.390625 
Q 33.109375 48.390625 29.21875 46.875 
Q 25.34375 45.359375 22.703125 42.578125 
Q 18.5 38.328125 16.203125 32.609375 
Q 13.921875 26.90625 13.921875 20.796875 
Q 13.921875 13.421875 17.609375 9.8125 
Q 21.296875 6.203125 28.8125 6.203125 
Q 32.515625 6.203125 36.6875 7.328125 
Q 40.875 8.453125 45.40625 10.6875 
L 43.703125 1.8125 
Q 39.796875 0.203125 35.671875 -0.609375 
Q 31.546875 -1.421875 27.203125 -1.421875 
Q 16.3125 -1.421875 10.453125 4.015625 
Q 4.59375 9.46875 4.59375 19.578125 
Q 4.59375 28.078125 7.640625 35.234375 
Q 10.6875 42.390625 16.703125 48.09375 
Q 20.796875 52 26.3125 54 
Q 31.84375 56 38.375 56 
Q 42.1875 56 45.9375 55.140625 
Q 49.703125 54.296875 53.609375 52.59375 
" id="DejaVuSans-Oblique-63"/>
     <path d="M 25.390625 -1.421875 
Q 15.765625 -1.421875 10.171875 4.515625 
Q 4.59375 10.453125 4.59375 20.703125 
Q 4.59375 26.65625 6.515625 32.828125 
Q 8.453125 39.015625 11.53125 43.21875 
Q 16.359375 49.75 22.3125 52.875 
Q 28.265625 56 35.796875 56 
Q 45.125 56 50.859375 50.1875 
Q 56.59375 44.390625 56.59375 35.015625 
Q 56.59375 28.515625 54.6875 22.0625 
Q 52.78125 15.625 49.703125 11.375 
Q 44.921875 4.828125 38.96875 1.703125 
Q 33.015625 -1.421875 25.390625 -1.421875 
M 13.921875 21 
Q 13.921875 13.578125 17.015625 9.890625 
Q 20.125 6.203125 26.421875 6.203125 
Q 35.453125 6.203125 41.375 14.078125 
Q 47.3125 21.96875 47.3125 34.078125 
Q 47.3125 41.15625 44.140625 44.765625 
Q 40.96875 48.390625 34.8125 48.390625 
Q 29.734375 48.390625 25.78125 46.015625 
Q 21.828125 43.65625 18.703125 38.8125 
Q 16.40625 35.203125 15.15625 30.5625 
Q 13.921875 25.921875 13.921875 21 
" id="DejaVuSans-Oblique-6f"/>
     <path d="M 50 53.078125 
L 48.296875 44.578125 
Q 44.734375 46.53125 40.765625 47.5 
Q 36.8125 48.484375 32.625 48.484375 
Q 25.53125 48.484375 21.453125 46.0625 
Q 17.390625 43.65625 17.390625 39.5 
Q 17.390625 34.671875 26.859375 32.078125 
Q 27.59375 31.890625 27.9375 31.78125 
L 30.8125 30.90625 
Q 39.796875 28.421875 42.796875 25.6875 
Q 45.796875 22.953125 45.796875 18.21875 
Q 45.796875 9.515625 38.890625 4.046875 
Q 31.984375 -1.421875 20.796875 -1.421875 
Q 16.453125 -1.421875 11.671875 -0.578125 
Q 6.890625 0.25 1.125 2 
L 2.875 11.28125 
Q 7.8125 8.734375 12.59375 7.421875 
Q 17.390625 6.109375 21.78125 6.109375 
Q 28.375 6.109375 32.5 8.9375 
Q 36.625 11.765625 36.625 16.109375 
Q 36.625 20.796875 25.78125 23.6875 
L 24.859375 23.921875 
L 21.78125 24.703125 
Q 14.9375 26.515625 11.765625 29.46875 
Q 8.59375 32.421875 8.59375 37.015625 
Q 8.59375 45.75 15.15625 50.875 
Q 21.734375 56 33.015625 56 
Q 37.453125 56 41.671875 55.265625 
Q 45.90625 54.546875 50 53.078125 
" id="DejaVuSans-Oblique-73"/>
     <path d="M 31 75.875 
Q 24.46875 64.65625 21.28125 53.65625 
Q 18.109375 42.671875 18.109375 31.390625 
Q 18.109375 20.125 21.3125 9.0625 
Q 24.515625 -2 31 -13.1875 
L 23.1875 -13.1875 
Q 15.875 -1.703125 12.234375 9.375 
Q 8.59375 20.453125 8.59375 31.390625 
Q 8.59375 42.28125 12.203125 53.3125 
Q 15.828125 64.359375 23.1875 75.875 
z
" id="DejaVuSans-28"/>
     <path d="M 19.1875 8.296875 
L 53.609375 8.296875 
L 53.609375 0 
L 7.328125 0 
L 7.328125 8.296875 
Q 12.9375 14.109375 22.625 23.890625 
Q 32.328125 33.6875 34.8125 36.53125 
Q 39.546875 41.84375 41.421875 45.53125 
Q 43.3125 49.21875 43.3125 52.78125 
Q 43.3125 58.59375 39.234375 62.25 
Q 35.15625 65.921875 28.609375 65.921875 
Q 23.96875 65.921875 18.8125 64.3125 
Q 13.671875 62.703125 7.8125 59.421875 
L 7.8125 69.390625 
Q 13.765625 71.78125 18.9375 73 
Q 24.125 74.21875 28.421875 74.21875 
Q 39.75 74.21875 46.484375 68.546875 
Q 53.21875 62.890625 53.21875 53.421875 
Q 53.21875 48.921875 51.53125 44.890625 
Q 49.859375 40.875 45.40625 35.40625 
Q 44.1875 33.984375 37.640625 27.21875 
Q 31.109375 20.453125 19.1875 8.296875 
" id="DejaVuSans-32"/>
     <path d="M 60.015625 54.6875 
L 34.90625 27.875 
L 50.296875 0 
L 39.984375 0 
L 28.421875 21.6875 
L 8.296875 0 
L -2.59375 0 
L 24.3125 28.8125 
L 10.015625 54.6875 
L 20.3125 54.6875 
L 30.8125 34.90625 
L 49.125 54.6875 
z
" id="DejaVuSans-Oblique-78"/>
     <path d="M 8.015625 75.875 
L 15.828125 75.875 
Q 23.140625 64.359375 26.78125 53.3125 
Q 30.421875 42.28125 30.421875 31.390625 
Q 30.421875 20.453125 26.78125 9.375 
Q 23.140625 -1.703125 15.828125 -13.1875 
L 8.015625 -13.1875 
Q 14.5 -2 17.703125 9.0625 
Q 20.90625 20.125 20.90625 31.390625 
Q 20.90625 42.671875 17.703125 53.65625 
Q 14.5 64.65625 8.015625 75.875 
" id="DejaVuSans-29"/>
    </defs>
    <g transform="translate(83.15 25.524219)scale(0.25 -0.25)">
     <use transform="translate(0 0.90625)" xlink:href="#STSong-6b63"/>
     <use transform="translate(99.999985 0.90625)" xlink:href="#STSong-5f26"/>
     <use transform="translate(199.999969 0.90625)" xlink:href="#STSong-6ce2"/>
     <use transform="translate(299.999954 0.90625)" xlink:href="#STSong-5b9e"/>
     <use transform="translate(399.999939 0.90625)" xlink:href="#STSong-4f8b"/>
     <use transform="translate(499.999924 0.90625)" xlink:href="#DejaVuSans-Oblique-79"/>
     <use transform="translate(578.662033 0.90625)" xlink:href="#DejaVuSans-3d"/>
     <use transform="translate(681.933517 0.90625)" xlink:href="#DejaVuSans-Oblique-63"/>
     <use transform="translate(736.913986 0.90625)" xlink:href="#DejaVuSans-Oblique-6f"/>
     <use transform="translate(798.095627 0.90625)" xlink:href="#DejaVuSans-Oblique-73"/>
     <use transform="translate(850.195236 0.90625)" xlink:href="#DejaVuSans-28"/>
     <use transform="translate(889.208908 0.90625)" xlink:href="#DejaVuSans-32"/>
     <use transform="translate(952.831955 0.90625)" xlink:href="#DejaVuSans-Oblique-3c0"/>
     <use transform="translate(1013.037033 0.90625)" xlink:href="#DejaVuSans-Oblique-78"/>
     <use transform="translate(1072.216721 0.90625)" xlink:href="#DejaVuSans-29"/>
    </g>
   </g>
  </g>
 </g>
 <defs>
  <clipPath id="pbd4ce9c551">
   <rect height="217.44" width="334.8" x="54.75" y="31.524219"/>
  </clipPath>
 </defs>
</svg>
