<?xml version="1.0" encoding="utf-8" standalone="no"?>
<!DOCTYPE svg PUBLIC "-//W3C//DTD SVG 1.1//EN"
  "http://www.w3.org/Graphics/SVG/1.1/DTD/svg11.dtd">
<!-- Created with matplotlib (http://matplotlib.org/) -->
<svg height="279pt" version="1.1" viewBox="0 0 392 279" width="392pt" xmlns="http://www.w3.org/2000/svg" xmlns:xlink="http://www.w3.org/1999/xlink">
 <defs>
  <style type="text/css">
*{stroke-linecap:butt;stroke-linejoin:round;}
  </style>
 </defs>
 <g id="figure_1">
  <g id="patch_1">
   <path d="M -0 279.020625 
L 392.774017 279.020625 
L 392.774017 0 
L -0 0 
z
" style="fill:none;"/>
  </g>
  <g id="axes_1">
   <g id="patch_2">
    <path d="M 46.725 246.48 
L 381.525 246.48 
L 381.525 29.04 
L 46.725 29.04 
z
" style="fill:#ffffff;"/>
   </g>
   <g id="matplotlib.axis_1">
    <g id="xtick_1">
     <g id="line2d_1">
      <defs>
       <path d="M 0 0 
L 0 3.5 
" id="m69f2596663" style="stroke:#000000;stroke-width:0.8;"/>
      </defs>
      <g>
       <use style="stroke:#000000;stroke-width:0.8;" x="58.299966" xlink:href="#m69f2596663" y="246.48"/>
      </g>
     </g>
     <g id="text_1">
      <!-- 0.0 -->
      <defs>
       <path d="M 23.703125 63.5 
Q 32 63.5 38.046875 54.140625 
Q 44.09375 44.796875 44.09375 30.90625 
Q 44.09375 17.09375 38.046875 7.75 
Q 32 -1.59375 23.703125 -1.59375 
Q 15.703125 -1.59375 9.5 7.65625 
Q 3.296875 16.90625 3.296875 30.90625 
Q 3.296875 44.796875 9.34375 54.140625 
Q 15.40625 63.5 23.703125 63.5 
M 23.703125 0.703125 
Q 31.09375 0.703125 33.9375 8.046875 
Q 36.796875 15.40625 36.796875 30.90625 
Q 36.796875 46.40625 33.9375 53.796875 
Q 31.09375 61.203125 23.703125 61.203125 
Q 16.296875 61.203125 13.4375 53.796875 
Q 10.59375 46.40625 10.59375 30.90625 
Q 10.59375 0.703125 23.703125 0.703125 
" id="STSong-30"/>
       <path d="M 11 -1.59375 
Q 8.796875 -1.59375 7.296875 -0.09375 
Q 5.796875 1.40625 5.796875 3.59375 
Q 5.796875 5.796875 7.296875 7.296875 
Q 8.796875 8.796875 11 8.796875 
Q 13.203125 8.796875 14.703125 7.296875 
Q 16.203125 5.796875 16.203125 3.59375 
Q 16.203125 1.40625 14.703125 -0.09375 
Q 13.203125 -1.59375 11 -1.59375 
" id="STSong-2e"/>
      </defs>
      <g transform="translate(46.728091 266.68)scale(0.2 -0.2)">
       <use xlink:href="#STSong-30"/>
       <use x="46.899994" xlink:href="#STSong-2e"/>
       <use x="68.799988" xlink:href="#STSong-30"/>
      </g>
     </g>
    </g>
    <g id="xtick_2">
     <g id="line2d_2">
      <g>
       <use style="stroke:#000000;stroke-width:0.8;" x="136.052854" xlink:href="#m69f2596663" y="246.48"/>
      </g>
     </g>
     <g id="text_2">
      <!-- 2.5 -->
      <defs>
       <path d="M 42.59375 -0.296875 
Q 35.40625 0 22.203125 0 
Q 9.296875 0 2.203125 -0.296875 
Q 4.09375 3.59375 7 7.09375 
Q 9.90625 10.59375 16.296875 17 
Q 25.59375 26.296875 29.890625 32.84375 
Q 34.203125 39.40625 34.203125 46.09375 
Q 34.203125 51.59375 30.75 55 
Q 27.296875 58.40625 22.203125 58.40625 
Q 17.203125 58.40625 13.09375 54.953125 
Q 9 51.5 7.40625 45.203125 
L 5.09375 45.59375 
Q 6.703125 54.09375 11.796875 58.796875 
Q 16.90625 63.5 24.203125 63.5 
Q 31.5 63.5 36.59375 58.640625 
Q 41.703125 53.796875 41.703125 47 
Q 41.703125 40.203125 36.953125 34.25 
Q 32.203125 28.296875 22.59375 19.40625 
Q 17.5 14.703125 9.90625 5.296875 
L 33.40625 5.296875 
Q 37.203125 5.296875 38.75 6.640625 
Q 40.296875 8 42 12.5 
L 44.09375 12.5 
z
" id="STSong-32"/>
       <path d="M 38 56.59375 
L 24 56.59375 
Q 16.203125 56.59375 15.40625 56.296875 
L 14.09375 38 
Q 18.5 40.09375 23.09375 40.09375 
Q 31.296875 40.09375 37 34.5 
Q 42.703125 28.90625 42.703125 19.90625 
Q 42.703125 9.90625 35.640625 4.15625 
Q 28.59375 -1.59375 19.59375 -1.59375 
Q 14.59375 -1.59375 10.390625 0.15625 
Q 6.203125 1.90625 6.203125 4 
Q 6.203125 5 7.09375 6.046875 
Q 8 7.09375 9.59375 7.09375 
Q 10.703125 7.09375 11.40625 6.59375 
Q 18.40625 1.296875 22.703125 1.296875 
Q 28.296875 1.296875 32.59375 6.140625 
Q 36.90625 11 36.90625 17.59375 
Q 36.90625 24.59375 32.546875 29.25 
Q 28.203125 33.90625 21.796875 33.90625 
Q 19 33.90625 16.546875 33 
Q 14.09375 32.09375 13 30.5 
L 11.296875 30.5 
L 13.203125 62.5 
L 24.09375 62.5 
Q 31.59375 62.5 34 62.703125 
Q 36.40625 62.90625 37.40625 64.203125 
L 38.90625 64.203125 
z
" id="STSong-35"/>
      </defs>
      <g transform="translate(124.480979 266.68)scale(0.2 -0.2)">
       <use xlink:href="#STSong-32"/>
       <use x="46.899994" xlink:href="#STSong-2e"/>
       <use x="68.799988" xlink:href="#STSong-35"/>
      </g>
     </g>
    </g>
    <g id="xtick_3">
     <g id="line2d_3">
      <g>
       <use style="stroke:#000000;stroke-width:0.8;" x="213.805742" xlink:href="#m69f2596663" y="246.48"/>
      </g>
     </g>
     <g id="text_3">
      <!-- 5.0 -->
      <g transform="translate(202.233867 266.68)scale(0.2 -0.2)">
       <use xlink:href="#STSong-35"/>
       <use x="46.899994" xlink:href="#STSong-2e"/>
       <use x="68.799988" xlink:href="#STSong-30"/>
      </g>
     </g>
    </g>
    <g id="xtick_4">
     <g id="line2d_4">
      <g>
       <use style="stroke:#000000;stroke-width:0.8;" x="291.558629" xlink:href="#m69f2596663" y="246.48"/>
      </g>
     </g>
     <g id="text_4">
      <!-- 7.5 -->
      <defs>
       <path d="M 4.59375 62.5 
L 43.09375 62.5 
L 43.09375 60.796875 
Q 39.703125 54.796875 30.953125 30.140625 
Q 22.203125 5.5 21.296875 0 
L 18 0 
Q 22.796875 20.703125 37.296875 56.40625 
L 10.296875 56.40625 
Q 7.796875 56.40625 7.59375 55.09375 
L 6.796875 50.90625 
L 4.59375 50.90625 
z
" id="STSong-37"/>
      </defs>
      <g transform="translate(279.986754 266.68)scale(0.2 -0.2)">
       <use xlink:href="#STSong-37"/>
       <use x="46.899994" xlink:href="#STSong-2e"/>
       <use x="68.799988" xlink:href="#STSong-35"/>
      </g>
     </g>
    </g>
    <g id="xtick_5">
     <g id="line2d_5">
      <g>
       <use style="stroke:#000000;stroke-width:0.8;" x="369.311517" xlink:href="#m69f2596663" y="246.48"/>
      </g>
     </g>
     <g id="text_5">
      <!-- 10.0 -->
      <defs>
       <path d="M 35.5 -0.296875 
Q 30.296875 0 23.796875 0 
Q 17.296875 0 12.09375 -0.296875 
L 12.09375 1.296875 
L 17.296875 2.203125 
Q 20.796875 2.90625 20.796875 6.09375 
L 20.796875 55.5 
L 8.90625 47.796875 
L 7.5 49.703125 
Q 14.40625 54.203125 24.09375 63.5 
L 27.40625 63.5 
L 27.40625 6.09375 
Q 27.40625 2.703125 30.90625 2.09375 
L 35.5 1.296875 
z
" id="STSong-31"/>
      </defs>
      <g transform="translate(353.049017 266.68)scale(0.2 -0.2)">
       <use xlink:href="#STSong-31"/>
       <use x="46.899994" xlink:href="#STSong-30"/>
       <use x="93.799988" xlink:href="#STSong-2e"/>
       <use x="115.699982" xlink:href="#STSong-30"/>
      </g>
     </g>
    </g>
   </g>
   <g id="matplotlib.axis_2">
    <g id="ytick_1">
     <g id="line2d_6">
      <defs>
       <path d="M 0 0 
L -3.5 0 
" id="mc6f94ffe42" style="stroke:#000000;stroke-width:0.8;"/>
      </defs>
      <g>
       <use style="stroke:#000000;stroke-width:0.8;" x="46.725" xlink:href="#mc6f94ffe42" y="238.924159"/>
      </g>
     </g>
     <g id="text_6">
      <!-- 0.0 -->
      <g transform="translate(16.58125 245.524159)scale(0.2 -0.2)">
       <use xlink:href="#STSong-30"/>
       <use x="46.899994" xlink:href="#STSong-2e"/>
       <use x="68.799988" xlink:href="#STSong-30"/>
      </g>
     </g>
    </g>
    <g id="ytick_2">
     <g id="line2d_7">
      <g>
       <use style="stroke:#000000;stroke-width:0.8;" x="46.725" xlink:href="#mc6f94ffe42" y="187.998681"/>
      </g>
     </g>
     <g id="text_7">
      <!-- 2.5 -->
      <g transform="translate(16.58125 194.598681)scale(0.2 -0.2)">
       <use xlink:href="#STSong-32"/>
       <use x="46.899994" xlink:href="#STSong-2e"/>
       <use x="68.799988" xlink:href="#STSong-35"/>
      </g>
     </g>
    </g>
    <g id="ytick_3">
     <g id="line2d_8">
      <g>
       <use style="stroke:#000000;stroke-width:0.8;" x="46.725" xlink:href="#mc6f94ffe42" y="137.073204"/>
      </g>
     </g>
     <g id="text_8">
      <!-- 5.0 -->
      <g transform="translate(16.58125 143.673204)scale(0.2 -0.2)">
       <use xlink:href="#STSong-35"/>
       <use x="46.899994" xlink:href="#STSong-2e"/>
       <use x="68.799988" xlink:href="#STSong-30"/>
      </g>
     </g>
    </g>
    <g id="ytick_4">
     <g id="line2d_9">
      <g>
       <use style="stroke:#000000;stroke-width:0.8;" x="46.725" xlink:href="#mc6f94ffe42" y="86.147726"/>
      </g>
     </g>
     <g id="text_9">
      <!-- 7.5 -->
      <g transform="translate(16.58125 92.747726)scale(0.2 -0.2)">
       <use xlink:href="#STSong-37"/>
       <use x="46.899994" xlink:href="#STSong-2e"/>
       <use x="68.799988" xlink:href="#STSong-35"/>
      </g>
     </g>
    </g>
    <g id="ytick_5">
     <g id="line2d_10">
      <g>
       <use style="stroke:#000000;stroke-width:0.8;" x="46.725" xlink:href="#mc6f94ffe42" y="35.222248"/>
      </g>
     </g>
     <g id="text_10">
      <!-- 10.0 -->
      <g transform="translate(7.2 41.822248)scale(0.2 -0.2)">
       <use xlink:href="#STSong-31"/>
       <use x="46.899994" xlink:href="#STSong-30"/>
       <use x="93.799988" xlink:href="#STSong-2e"/>
       <use x="115.699982" xlink:href="#STSong-30"/>
      </g>
     </g>
    </g>
   </g>
   <g id="line2d_11">
    <defs>
     <path d="M 0 3 
C 0.795609 3 1.55874 2.683901 2.12132 2.12132 
C 2.683901 1.55874 3 0.795609 3 0 
C 3 -0.795609 2.683901 -1.55874 2.12132 -2.12132 
C 1.55874 -2.683901 0.795609 -3 0 -3 
C -0.795609 -3 -1.55874 -2.683901 -2.12132 -2.12132 
C -2.683901 -1.55874 -3 -0.795609 -3 0 
C -3 0.795609 -2.683901 1.55874 -2.12132 2.12132 
C -1.55874 2.683901 -0.795609 3 0 3 
z
" id="m17adb09344" style="stroke:#1f77b4;"/>
    </defs>
    <g clip-path="url(#p2db0a12139)">
     <use style="fill:#1f77b4;stroke:#1f77b4;" x="361.698422" xlink:href="#m17adb09344" y="102.460878"/>
     <use style="fill:#1f77b4;stroke:#1f77b4;" x="324.464691" xlink:href="#m17adb09344" y="78.987011"/>
     <use style="fill:#1f77b4;stroke:#1f77b4;" x="61.943182" xlink:href="#m17adb09344" y="181.535198"/>
     <use style="fill:#1f77b4;stroke:#1f77b4;" x="170.257302" xlink:href="#m17adb09344" y="119.471288"/>
     <use style="fill:#1f77b4;stroke:#1f77b4;" x="285.335463" xlink:href="#m17adb09344" y="225.896349"/>
     <use style="fill:#1f77b4;stroke:#1f77b4;" x="111.678778" xlink:href="#m17adb09344" y="140.00089"/>
     <use style="fill:#1f77b4;stroke:#1f77b4;" x="220.348369" xlink:href="#m17adb09344" y="39.806531"/>
     <use style="fill:#1f77b4;stroke:#1f77b4;" x="75.199708" xlink:href="#m17adb09344" y="60.378366"/>
     <use style="fill:#1f77b4;stroke:#1f77b4;" x="120.501196" xlink:href="#m17adb09344" y="170.040534"/>
     <use style="fill:#1f77b4;stroke:#1f77b4;" x="64.060458" xlink:href="#m17adb09344" y="43.050481"/>
     <use style="fill:#1f77b4;stroke:#1f77b4;" x="305.14912" xlink:href="#m17adb09344" y="191.726095"/>
     <use style="fill:#1f77b4;stroke:#1f77b4;" x="127.943131" xlink:href="#m17adb09344" y="45.546101"/>
     <use style="fill:#1f77b4;stroke:#1f77b4;" x="165.708328" xlink:href="#m17adb09344" y="47.163722"/>
     <use style="fill:#1f77b4;stroke:#1f77b4;" x="346.943969" xlink:href="#m17adb09344" y="76.125065"/>
     <use style="fill:#1f77b4;stroke:#1f77b4;" x="277.380982" xlink:href="#m17adb09344" y="110.50071"/>
     <use style="fill:#1f77b4;stroke:#1f77b4;" x="68.202241" xlink:href="#m17adb09344" y="60.83003"/>
     <use style="fill:#1f77b4;stroke:#1f77b4;" x="109.521751" xlink:href="#m17adb09344" y="179.235367"/>
     <use style="fill:#1f77b4;stroke:#1f77b4;" x="251.586928" xlink:href="#m17adb09344" y="65.992735"/>
     <use style="fill:#1f77b4;stroke:#1f77b4;" x="237.824725" xlink:href="#m17adb09344" y="113.061496"/>
     <use style="fill:#1f77b4;stroke:#1f77b4;" x="132.287382" xlink:href="#m17adb09344" y="236.227786"/>
     <use style="fill:#1f77b4;stroke:#1f77b4;" x="348.851311" xlink:href="#m17adb09344" y="168.192028"/>
     <use style="fill:#1f77b4;stroke:#1f77b4;" x="249.25047" xlink:href="#m17adb09344" y="208.747582"/>
     <use style="fill:#1f77b4;stroke:#1f77b4;" x="224.887955" xlink:href="#m17adb09344" y="38.923636"/>
     <use style="fill:#1f77b4;stroke:#1f77b4;" x="241.768783" xlink:href="#m17adb09344" y="141.479213"/>
     <use style="fill:#1f77b4;stroke:#1f77b4;" x="285.376351" xlink:href="#m17adb09344" y="137.604587"/>
     <use style="fill:#1f77b4;stroke:#1f77b4;" x="155.318463" xlink:href="#m17adb09344" y="108.662386"/>
     <use style="fill:#1f77b4;stroke:#1f77b4;" x="182.151316" xlink:href="#m17adb09344" y="163.84277"/>
     <use style="fill:#1f77b4;stroke:#1f77b4;" x="123.563796" xlink:href="#m17adb09344" y="211.037312"/>
     <use style="fill:#1f77b4;stroke:#1f77b4;" x="116.208142" xlink:href="#m17adb09344" y="71.457206"/>
     <use style="fill:#1f77b4;stroke:#1f77b4;" x="352.010688" xlink:href="#m17adb09344" y="200.251776"/>
     <use style="fill:#1f77b4;stroke:#1f77b4;" x="288.308806" xlink:href="#m17adb09344" y="134.767505"/>
     <use style="fill:#1f77b4;stroke:#1f77b4;" x="210.838321" xlink:href="#m17adb09344" y="193.230351"/>
     <use style="fill:#1f77b4;stroke:#1f77b4;" x="129.028542" xlink:href="#m17adb09344" y="218.99305"/>
     <use style="fill:#1f77b4;stroke:#1f77b4;" x="137.40777" xlink:href="#m17adb09344" y="63.2941"/>
     <use style="fill:#1f77b4;stroke:#1f77b4;" x="76.347705" xlink:href="#m17adb09344" y="40.7386"/>
     <use style="fill:#1f77b4;stroke:#1f77b4;" x="193.408555" xlink:href="#m17adb09344" y="43.200303"/>
     <use style="fill:#1f77b4;stroke:#1f77b4;" x="155.272087" xlink:href="#m17adb09344" y="54.257072"/>
     <use style="fill:#1f77b4;stroke:#1f77b4;" x="274.870835" xlink:href="#m17adb09344" y="81.249238"/>
     <use style="fill:#1f77b4;stroke:#1f77b4;" x="175.785152" xlink:href="#m17adb09344" y="171.061855"/>
     <use style="fill:#1f77b4;stroke:#1f77b4;" x="114.158785" xlink:href="#m17adb09344" y="222.403651"/>
     <use style="fill:#1f77b4;stroke:#1f77b4;" x="65.975336" xlink:href="#m17adb09344" y="155.968354"/>
     <use style="fill:#1f77b4;stroke:#1f77b4;" x="79.215379" xlink:href="#m17adb09344" y="191.61762"/>
     <use style="fill:#1f77b4;stroke:#1f77b4;" x="269.598966" xlink:href="#m17adb09344" y="211.936174"/>
     <use style="fill:#1f77b4;stroke:#1f77b4;" x="199.404926" xlink:href="#m17adb09344" y="228.04094"/>
     <use style="fill:#1f77b4;stroke:#1f77b4;" x="225.182299" xlink:href="#m17adb09344" y="91.119201"/>
     <use style="fill:#1f77b4;stroke:#1f77b4;" x="337.175096" xlink:href="#m17adb09344" y="236.596364"/>
     <use style="fill:#1f77b4;stroke:#1f77b4;" x="366.306818" xlink:href="#m17adb09344" y="81.955388"/>
     <use style="fill:#1f77b4;stroke:#1f77b4;" x="125.757434" xlink:href="#m17adb09344" y="208.990846"/>
     <use style="fill:#1f77b4;stroke:#1f77b4;" x="264.524947" xlink:href="#m17adb09344" y="222.725359"/>
     <use style="fill:#1f77b4;stroke:#1f77b4;" x="140.196267" xlink:href="#m17adb09344" y="220.67185"/>
     <use style="fill:#1f77b4;stroke:#1f77b4;" x="64.722666" xlink:href="#m17adb09344" y="102.026737"/>
     <use style="fill:#1f77b4;stroke:#1f77b4;" x="294.164488" xlink:href="#m17adb09344" y="188.942389"/>
     <use style="fill:#1f77b4;stroke:#1f77b4;" x="157.828997" xlink:href="#m17adb09344" y="153.259466"/>
     <use style="fill:#1f77b4;stroke:#1f77b4;" x="177.561667" xlink:href="#m17adb09344" y="125.387071"/>
     <use style="fill:#1f77b4;stroke:#1f77b4;" x="241.273384" xlink:href="#m17adb09344" y="63.628241"/>
     <use style="fill:#1f77b4;stroke:#1f77b4;" x="316.765635" xlink:href="#m17adb09344" y="90.823854"/>
     <use style="fill:#1f77b4;stroke:#1f77b4;" x="253.920585" xlink:href="#m17adb09344" y="183.857848"/>
     <use style="fill:#1f77b4;stroke:#1f77b4;" x="329.7044" xlink:href="#m17adb09344" y="212.140861"/>
     <use style="fill:#1f77b4;stroke:#1f77b4;" x="143.374699" xlink:href="#m17adb09344" y="227.644304"/>
     <use style="fill:#1f77b4;stroke:#1f77b4;" x="306.50175" xlink:href="#m17adb09344" y="177.487941"/>
     <use style="fill:#1f77b4;stroke:#1f77b4;" x="116.034889" xlink:href="#m17adb09344" y="185.530191"/>
     <use style="fill:#1f77b4;stroke:#1f77b4;" x="354.629177" xlink:href="#m17adb09344" y="146.007454"/>
     <use style="fill:#1f77b4;stroke:#1f77b4;" x="272.116761" xlink:href="#m17adb09344" y="99.738445"/>
     <use style="fill:#1f77b4;stroke:#1f77b4;" x="125.325343" xlink:href="#m17adb09344" y="97.223927"/>
     <use style="fill:#1f77b4;stroke:#1f77b4;" x="352.943163" xlink:href="#m17adb09344" y="181.170828"/>
     <use style="fill:#1f77b4;stroke:#1f77b4;" x="285.604564" xlink:href="#m17adb09344" y="161.532312"/>
     <use style="fill:#1f77b4;stroke:#1f77b4;" x="137.27875" xlink:href="#m17adb09344" y="202.023362"/>
     <use style="fill:#1f77b4;stroke:#1f77b4;" x="124.642455" xlink:href="#m17adb09344" y="78.295931"/>
     <use style="fill:#1f77b4;stroke:#1f77b4;" x="219.466374" xlink:href="#m17adb09344" y="227.344097"/>
     <use style="fill:#1f77b4;stroke:#1f77b4;" x="66.281368" xlink:href="#m17adb09344" y="96.944489"/>
     <use style="fill:#1f77b4;stroke:#1f77b4;" x="122.825556" xlink:href="#m17adb09344" y="80.302419"/>
     <use style="fill:#1f77b4;stroke:#1f77b4;" x="190.382053" xlink:href="#m17adb09344" y="80.564753"/>
     <use style="fill:#1f77b4;stroke:#1f77b4;" x="174.671152" xlink:href="#m17adb09344" y="186.079287"/>
     <use style="fill:#1f77b4;stroke:#1f77b4;" x="202.477278" xlink:href="#m17adb09344" y="162.777708"/>
     <use style="fill:#1f77b4;stroke:#1f77b4;" x="144.645701" xlink:href="#m17adb09344" y="119.228991"/>
     <use style="fill:#1f77b4;stroke:#1f77b4;" x="240.796676" xlink:href="#m17adb09344" y="183.349816"/>
     <use style="fill:#1f77b4;stroke:#1f77b4;" x="326.969038" xlink:href="#m17adb09344" y="163.380735"/>
     <use style="fill:#1f77b4;stroke:#1f77b4;" x="94.853731" xlink:href="#m17adb09344" y="198.783825"/>
     <use style="fill:#1f77b4;stroke:#1f77b4;" x="219.210845" xlink:href="#m17adb09344" y="145.250637"/>
     <use style="fill:#1f77b4;stroke:#1f77b4;" x="99.374673" xlink:href="#m17adb09344" y="229.836548"/>
     <use style="fill:#1f77b4;stroke:#1f77b4;" x="281.251607" xlink:href="#m17adb09344" y="76.004209"/>
     <use style="fill:#1f77b4;stroke:#1f77b4;" x="181.479109" xlink:href="#m17adb09344" y="223.247984"/>
     <use style="fill:#1f77b4;stroke:#1f77b4;" x="234.152525" xlink:href="#m17adb09344" y="133.236448"/>
     <use style="fill:#1f77b4;stroke:#1f77b4;" x="115.302112" xlink:href="#m17adb09344" y="176.426355"/>
     <use style="fill:#1f77b4;stroke:#1f77b4;" x="103.349293" xlink:href="#m17adb09344" y="121.277557"/>
     <use style="fill:#1f77b4;stroke:#1f77b4;" x="210.091107" xlink:href="#m17adb09344" y="43.485754"/>
     <use style="fill:#1f77b4;stroke:#1f77b4;" x="168.899635" xlink:href="#m17adb09344" y="107.420267"/>
     <use style="fill:#1f77b4;stroke:#1f77b4;" x="350.785164" xlink:href="#m17adb09344" y="231.720763"/>
     <use style="fill:#1f77b4;stroke:#1f77b4;" x="296.32496" xlink:href="#m17adb09344" y="151.25036"/>
     <use style="fill:#1f77b4;stroke:#1f77b4;" x="291.143" xlink:href="#m17adb09344" y="135.032752"/>
     <use style="fill:#1f77b4;stroke:#1f77b4;" x="339.367244" xlink:href="#m17adb09344" y="129.703779"/>
     <use style="fill:#1f77b4;stroke:#1f77b4;" x="84.245307" xlink:href="#m17adb09344" y="100.123203"/>
     <use style="fill:#1f77b4;stroke:#1f77b4;" x="230.038203" xlink:href="#m17adb09344" y="182.377303"/>
     <use style="fill:#1f77b4;stroke:#1f77b4;" x="240.078775" xlink:href="#m17adb09344" y="212.675015"/>
     <use style="fill:#1f77b4;stroke:#1f77b4;" x="357.473291" xlink:href="#m17adb09344" y="158.935373"/>
     <use style="fill:#1f77b4;stroke:#1f77b4;" x="149.161222" xlink:href="#m17adb09344" y="44.102486"/>
     <use style="fill:#1f77b4;stroke:#1f77b4;" x="133.200499" xlink:href="#m17adb09344" y="200.805239"/>
     <use style="fill:#1f77b4;stroke:#1f77b4;" x="89.492541" xlink:href="#m17adb09344" y="54.7809"/>
     <use style="fill:#1f77b4;stroke:#1f77b4;" x="63.409771" xlink:href="#m17adb09344" y="128.149848"/>
     <use style="fill:#1f77b4;stroke:#1f77b4;" x="347.394321" xlink:href="#m17adb09344" y="145.850429"/>
    </g>
   </g>
   <g id="patch_3">
    <path d="M 46.725 246.48 
L 46.725 29.04 
" style="fill:none;stroke:#000000;stroke-linecap:square;stroke-linejoin:miter;stroke-width:0.8;"/>
   </g>
   <g id="patch_4">
    <path d="M 381.525 246.48 
L 381.525 29.04 
" style="fill:none;stroke:#000000;stroke-linecap:square;stroke-linejoin:miter;stroke-width:0.8;"/>
   </g>
   <g id="patch_5">
    <path d="M 46.725 246.48 
L 381.525 246.48 
" style="fill:none;stroke:#000000;stroke-linecap:square;stroke-linejoin:miter;stroke-width:0.8;"/>
   </g>
   <g id="patch_6">
    <path d="M 46.725 29.04 
L 381.525 29.04 
" style="fill:none;stroke:#000000;stroke-linecap:square;stroke-linejoin:miter;stroke-width:0.8;"/>
   </g>
   <g id="text_11">
    <!-- Simple Scatter -->
    <defs>
     <path d="M 37.59375 47.703125 
Q 34.703125 60.796875 23.203125 60.796875 
Q 17.796875 60.796875 14.140625 57.6875 
Q 10.5 54.59375 10.5 50.40625 
Q 10.5 47.09375 13.453125 44.296875 
Q 16.40625 41.5 25.703125 36.703125 
Q 35.203125 31.796875 39.453125 28.09375 
Q 43.703125 24.40625 43.703125 17.09375 
Q 43.703125 8.703125 37.84375 3.546875 
Q 32 -1.59375 21.5 -1.59375 
Q 11.796875 -1.59375 3.796875 3.09375 
L 4.90625 18 
L 6.296875 18 
Q 7.203125 10.59375 12.296875 5.84375 
Q 17.40625 1.09375 23.59375 1.09375 
Q 29.5 1.09375 33.546875 4.59375 
Q 37.59375 8.09375 37.59375 13 
Q 37.59375 17.40625 34.34375 20.40625 
Q 31.09375 23.40625 23.59375 27.296875 
Q 13.203125 32.703125 9.09375 37.09375 
Q 5 41.5 5 47.203125 
Q 5 54.296875 10.5 58.890625 
Q 16 63.5 24.796875 63.5 
Q 33.59375 63.5 39.296875 59.09375 
L 38.90625 47.703125 
z
" id="STSong-53"/>
     <path d="M 11.203125 64 
Q 12.90625 64 14.296875 62.703125 
Q 15.703125 61.40625 15.703125 59.703125 
Q 15.703125 58.09375 14.25 56.84375 
Q 12.796875 55.59375 11 55.59375 
Q 9.296875 55.59375 8.09375 56.796875 
Q 6.90625 58 6.90625 59.703125 
Q 6.90625 61.40625 8.203125 62.703125 
Q 9.5 64 11.203125 64 
M 22.203125 -0.40625 
Q 19.09375 0 11.203125 0 
Q 3.296875 0 0.203125 -0.40625 
L 0.203125 1.203125 
L 5.796875 2.296875 
Q 8.90625 2.90625 8.90625 5.90625 
L 8.90625 29.40625 
Q 8.90625 31.796875 7.703125 32.890625 
Q 6.5 34 2.90625 34.796875 
L 2.90625 36.203125 
Q 10 38 13.296875 43.40625 
L 14.90625 43.40625 
L 14.90625 5.59375 
Q 14.90625 4.09375 15.34375 3.390625 
Q 15.796875 2.703125 17.09375 2.40625 
L 22.203125 1.203125 
z
" id="STSong-69"/>
     <path d="M 55.90625 1.296875 
L 58.796875 1.90625 
Q 61.203125 2.40625 62.203125 3.15625 
Q 63.203125 3.90625 63.203125 6.09375 
L 63.203125 24 
Q 63.203125 29.90625 60.84375 32.59375 
Q 58.5 35.296875 53.5 35.296875 
Q 46.90625 35.296875 42 29.5 
L 42 6.90625 
Q 42 4.796875 42.390625 3.75 
Q 42.796875 2.703125 44.59375 2.296875 
L 49.703125 1.203125 
L 49.703125 -0.40625 
Q 44.703125 0 39.09375 0 
Q 33.203125 0 27.703125 -0.40625 
L 27.703125 1.203125 
L 30.59375 1.90625 
Q 33.40625 2.59375 34.65625 3.4375 
Q 35.90625 4.296875 35.90625 6.40625 
L 35.90625 24.203125 
Q 35.90625 29.203125 33.5 32.203125 
Q 31.09375 35.203125 27.296875 35.203125 
Q 22.796875 35.203125 18.640625 32.546875 
Q 14.5 29.90625 14.5 27.203125 
L 14.5 6.796875 
Q 14.5 4.40625 15.140625 3.5 
Q 15.796875 2.59375 17.203125 2.296875 
L 22.296875 1.203125 
L 22.296875 -0.40625 
Q 17.296875 0 12.296875 0 
Q 7.09375 0 1.796875 -0.40625 
L 1.796875 1.203125 
L 4.703125 1.796875 
Q 6.90625 2.296875 7.65625 3.1875 
Q 8.40625 4.09375 8.40625 6.203125 
L 8.40625 27.796875 
Q 8.40625 30.296875 7.453125 31.25 
Q 6.5 32.203125 3 32.703125 
L 3 34.296875 
Q 8.09375 35.59375 12.59375 41.703125 
L 14.5 41.703125 
L 14.5 32.09375 
Q 18.90625 36.09375 22.34375 38 
Q 25.796875 39.90625 29.5 39.90625 
Q 34.203125 39.90625 36.703125 38.5 
Q 39.203125 37.09375 41.703125 32.59375 
Q 45.09375 36.09375 48.640625 38 
Q 52.203125 39.90625 56.796875 39.90625 
Q 62.703125 39.90625 66 36.34375 
Q 69.296875 32.796875 69.296875 26.203125 
L 69.296875 6 
Q 69.296875 2.296875 70.90625 2 
L 75.40625 1.203125 
L 75.40625 -0.40625 
Q 70.40625 0 65.90625 0 
Q 59.90625 0 55.90625 -0.296875 
z
" id="STSong-6d"/>
     <path d="M 13.90625 33.703125 
Q 22.59375 39.90625 30.703125 39.90625 
Q 38.203125 39.90625 42.796875 34.546875 
Q 47.40625 29.203125 47.40625 20.203125 
Q 47.40625 11.09375 41.296875 4.75 
Q 35.203125 -1.59375 25.703125 -1.59375 
Q 20 -1.59375 13.90625 1.296875 
L 13.90625 -19.90625 
Q 13.90625 -21.203125 14.75 -21.953125 
Q 15.59375 -22.703125 18.09375 -23.09375 
L 24.09375 -24.09375 
L 24.09375 -25.703125 
Q 20.203125 -25.296875 12.59375 -25.296875 
Q 6.296875 -25.296875 1.203125 -25.703125 
L 1.203125 -24.09375 
L 5.40625 -23.296875 
Q 6.90625 -23 7.34375 -22.34375 
Q 7.796875 -21.703125 7.796875 -19.796875 
L 7.796875 30.296875 
Q 7.796875 33.90625 6.5 34.09375 
L 1.59375 34.90625 
L 1.90625 36.296875 
Q 6.90625 38.40625 8.953125 39.796875 
Q 11 41.203125 12.40625 43.5 
L 13.90625 43.5 
z
M 13.90625 30.703125 
L 13.90625 8.796875 
Q 13.90625 5.203125 17.203125 2.84375 
Q 20.5 0.5 25.703125 0.5 
Q 32.09375 0.5 36.296875 5.25 
Q 40.5 10 40.5 16.796875 
Q 40.5 25.5 36.796875 30.390625 
Q 33.09375 35.296875 26.90625 35.296875 
Q 20.796875 35.296875 13.90625 30.703125 
" id="STSong-70"/>
     <path d="M 22.703125 -0.296875 
Q 17.796875 0 11.59375 0 
Q 5.40625 0 0.5 -0.296875 
L 0.5 1.296875 
L 6.703125 2.5 
Q 8 2.796875 8.5 3.296875 
Q 9 3.796875 9 5.296875 
L 9 56.09375 
Q 9 58.203125 7.796875 59.203125 
Q 6.59375 60.203125 2.5 61.40625 
L 2.5 62.703125 
Q 6.296875 63.5 12.796875 66 
L 15.09375 66 
L 15.09375 5.5 
Q 15.09375 3.59375 15.5 3.046875 
Q 15.90625 2.5 17.40625 2.203125 
L 22.703125 1.296875 
z
" id="STSong-6c"/>
     <path d="M 38.703125 25.09375 
L 10.796875 25.09375 
Q 10.5 23.09375 10.5 21.09375 
Q 10.5 13.296875 14.75 8.390625 
Q 19 3.5 26.296875 3.5 
Q 29.796875 3.5 32.6875 4.890625 
Q 35.59375 6.296875 39 9.5 
L 39.40625 7.09375 
Q 32.40625 -1.59375 21.296875 -1.59375 
Q 14 -1.59375 9.09375 4.296875 
Q 4.203125 10.203125 4.203125 18.59375 
Q 4.203125 27.796875 9.640625 33.84375 
Q 15.09375 39.90625 23.5 39.90625 
Q 29.90625 39.90625 34.15625 35.84375 
Q 38.40625 31.796875 38.703125 25.09375 
M 11.296875 27.203125 
L 29.5 27.203125 
Q 32.203125 27.203125 32.203125 29.296875 
Q 32.203125 31.40625 30.203125 34.5 
Q 28.203125 37.59375 23.09375 37.59375 
Q 18.703125 37.59375 15.5 34.75 
Q 12.296875 31.90625 11.296875 27.203125 
" id="STSong-65"/>
     <path id="STSong-20"/>
     <path d="M 39 8.90625 
L 39.09375 5.796875 
Q 35.40625 1.90625 31.703125 0.15625 
Q 28 -1.59375 22.796875 -1.59375 
Q 15 -1.59375 9.75 4.5 
Q 4.5 10.59375 4.5 19.703125 
Q 4.5 29.59375 10 34.75 
Q 15.5 39.90625 26.09375 39.90625 
Q 31.59375 39.90625 35.046875 38.296875 
Q 38.5 36.703125 38.5 34 
Q 38.5 32.59375 37.546875 31.5 
Q 36.59375 30.40625 35 30.40625 
Q 32.40625 30.40625 29.40625 33.40625 
Q 26.09375 36.703125 22.5 36.703125 
Q 18.203125 36.703125 14.953125 32.046875 
Q 11.703125 27.40625 11.703125 20.40625 
Q 11.703125 12.40625 15.890625 7.703125 
Q 20.09375 3 25.796875 3 
Q 32.296875 3 39 8.90625 
" id="STSong-63"/>
     <path d="M 39.90625 6.296875 
L 41.203125 5.59375 
Q 38.296875 -1.59375 33.203125 -1.59375 
Q 30.09375 -1.59375 28.34375 0.15625 
Q 26.59375 1.90625 26.59375 5.203125 
Q 21.09375 1 18.4375 -0.296875 
Q 15.796875 -1.59375 11.796875 -1.59375 
Q 5.296875 -1.59375 5.296875 3.703125 
Q 5.296875 8.40625 11.046875 13.703125 
Q 16.796875 19 26.796875 22.703125 
L 26.796875 29.5 
Q 26.796875 32.703125 25 34.75 
Q 23.203125 36.796875 20.203125 36.796875 
Q 16.703125 36.796875 14.203125 34.4375 
Q 11.703125 32.09375 11.203125 27.90625 
Q 11 26.203125 9.546875 25 
Q 8.09375 23.796875 6.5 23.796875 
Q 5.796875 23.796875 5.046875 24.140625 
Q 4.296875 24.5 4.296875 25.296875 
Q 4.296875 26.703125 6.890625 31 
Q 9.5 35.296875 13.390625 37.59375 
Q 17.296875 39.90625 21 39.90625 
Q 27.203125 39.90625 30 37.453125 
Q 32.796875 35 32.796875 29.59375 
L 32.796875 9.296875 
Q 32.796875 7 32.9375 5.75 
Q 33.09375 4.5 34 3.84375 
Q 34.90625 3.203125 35.796875 3.203125 
Q 38 3.203125 39.90625 6.296875 
M 26.796875 10.203125 
L 26.796875 20.5 
Q 20.40625 18 16.296875 13.890625 
Q 12.203125 9.796875 12.203125 6.40625 
Q 12.203125 4.5 13.453125 3.25 
Q 14.703125 2 16.59375 2 
Q 19.296875 2 23.046875 4.75 
Q 26.796875 7.5 26.796875 10.203125 
" id="STSong-61"/>
     <path d="M 15.296875 48.203125 
L 16.5 48.203125 
L 16.59375 37.5 
L 30.203125 37.796875 
L 30.203125 34.203125 
L 16.59375 33.796875 
L 16.59375 10 
Q 16.59375 5.5 17.84375 3.5 
Q 19.09375 1.5 21.90625 1.5 
Q 25.296875 1.5 30.09375 4.296875 
L 31 2.90625 
Q 28.90625 0.5 26.15625 -0.546875 
Q 23.40625 -1.59375 18.703125 -1.59375 
Q 13.5 -1.59375 11.890625 0.953125 
Q 10.296875 3.5 10.296875 11 
L 10.296875 33.59375 
L 4.90625 33.5 
Q 3.5 33.5 3.5 34.296875 
Q 3.5 35 4.796875 35.59375 
Q 9.09375 37.40625 11.046875 39.75 
Q 13 42.09375 15.296875 48.203125 
" id="STSong-74"/>
     <path d="M 2.09375 -0.40625 
L 2.09375 1.203125 
L 7.09375 2.09375 
Q 9.09375 2.59375 9.640625 3.59375 
Q 10.203125 4.59375 10.203125 7.203125 
L 10.203125 26.40625 
Q 10.203125 28.40625 9.34375 29.296875 
Q 8.5 30.203125 5.59375 30.796875 
L 2.90625 31.40625 
L 3.09375 32.90625 
Q 7 34.296875 9.59375 36.140625 
Q 12.203125 38 14.203125 42.203125 
L 16 42.203125 
Q 16.40625 36.796875 16.40625 29.59375 
Q 18.296875 33.203125 21.890625 36.546875 
Q 25.5 39.90625 28.296875 39.90625 
Q 30.5 39.90625 31.84375 38.5 
Q 33.203125 37.09375 33.203125 34.90625 
Q 33.203125 33.203125 32.09375 32.203125 
Q 31 31.203125 29.296875 31.203125 
Q 27.796875 31.203125 26.09375 31.90625 
Q 24.09375 32.796875 22.796875 32.796875 
Q 20.59375 32.796875 18.5 29.1875 
Q 16.40625 25.59375 16.40625 23.59375 
L 16.40625 7 
Q 16.40625 4.40625 17.25 3.546875 
Q 18.09375 2.703125 20.90625 2.296875 
L 28.59375 1.203125 
L 28.59375 -0.40625 
Q 23.203125 0 15.296875 0 
Q 7.796875 0 2.09375 -0.40625 
" id="STSong-72"/>
    </defs>
    <g transform="translate(147.87 23.04)scale(0.24 -0.24)">
     <use xlink:href="#STSong-53"/>
     <use x="47.899994" xlink:href="#STSong-69"/>
     <use x="70.799988" xlink:href="#STSong-6d"/>
     <use x="147.899979" xlink:href="#STSong-70"/>
     <use x="198.899963" xlink:href="#STSong-6c"/>
     <use x="221.799957" xlink:href="#STSong-65"/>
     <use x="263.499954" xlink:href="#STSong-20"/>
     <use x="288.499939" xlink:href="#STSong-53"/>
     <use x="336.399933" xlink:href="#STSong-63"/>
     <use x="378.09993" xlink:href="#STSong-61"/>
     <use x="418.699921" xlink:href="#STSong-74"/>
     <use x="447.899918" xlink:href="#STSong-74"/>
     <use x="477.099915" xlink:href="#STSong-65"/>
     <use x="518.799911" xlink:href="#STSong-72"/>
    </g>
   </g>
  </g>
 </g>
 <defs>
  <clipPath id="p2db0a12139">
   <rect height="217.44" width="334.8" x="46.725" y="29.04"/>
  </clipPath>
 </defs>
</svg>
