<?xml version="1.0" encoding="utf-8" standalone="no"?>
<!DOCTYPE svg PUBLIC "-//W3C//DTD SVG 1.1//EN"
  "http://www.w3.org/Graphics/SVG/1.1/DTD/svg11.dtd">
<!-- Created with matplotlib (http://matplotlib.org/) -->
<svg height="238pt" version="1.1" viewBox="0 0 382 238" width="382pt" xmlns="http://www.w3.org/2000/svg" xmlns:xlink="http://www.w3.org/1999/xlink">
 <defs>
  <style type="text/css">
*{stroke-linecap:butt;stroke-linejoin:round;}
  </style>
 </defs>
 <g id="figure_1">
  <g id="patch_1">
   <path d="M 0 238.84 
L 382.032041 238.84 
L 382.032041 0 
L 0 0 
z
" style="fill:none;"/>
  </g>
  <g id="axes_1">
   <g id="patch_2">
    <path d="M 201.697958 32.444 
C 180.565018 32.444 159.729135 35.692775 140.899548 41.923817 
C 122.06996 48.154859 105.776029 57.192994 93.354399 68.296793 
L 201.697958 119.42 
L 201.697958 32.444 
z
" style="fill:#1f77b4;"/>
   </g>
   <g id="patch_3">
    <path d="M 80.61785 70.984499 
C 68.19622 82.088298 59.996104 94.945596 56.690185 108.501668 
C 53.384266 122.057739 55.065484 135.931478 61.595924 148.984775 
C 68.126363 162.038072 79.322431 173.903958 94.265678 183.609032 
C 109.208924 193.314106 127.479246 200.585529 147.577868 204.826801 
L 188.961409 122.107707 
L 80.61785 70.984499 
z
" style="fill:#ff7f0e;"/>
   </g>
   <g id="patch_4">
    <path d="M 160.314416 202.139095 
C 190.632951 208.537004 223.494771 207.698452 252.946935 199.775343 
C 282.399098 191.852234 306.548889 177.35374 321.021556 158.906272 
C 335.494223 140.458804 339.359694 119.247872 331.917736 99.115851 
C 324.475777 78.98383 306.204641 61.224486 280.414155 49.054936 
L 201.697958 119.42 
L 160.314416 202.139095 
z
" style="fill:#2ca02c;"/>
   </g>
   <g id="patch_5">
    <path d="M 280.414155 49.054936 
C 269.045166 43.690342 256.446556 39.521241 243.081508 36.700907 
C 229.71646 33.880574 215.750794 32.444 201.697951 32.444 
L 201.697958 119.42 
L 280.414155 49.054936 
z
" style="fill:#d62728;"/>
   </g>
   <g id="matplotlib.axis_1"/>
   <g id="matplotlib.axis_2"/>
   <g id="text_1">
    <!-- Fogs -->
    <defs>
     <path d="M 29.90625 -0.40625 
Q 23 0 16.09375 0 
Q 6.796875 0 2.296875 -0.40625 
L 2.296875 1.203125 
L 8.703125 1.90625 
Q 10.40625 2.09375 10.953125 2.84375 
Q 11.5 3.59375 11.5 5.5 
L 11.5 55.703125 
Q 11.5 57.90625 11.046875 58.953125 
Q 10.59375 60 9 60.203125 
L 3.09375 60.90625 
L 3.09375 62.703125 
Q 7.59375 62.5 40.703125 62.5 
Q 49.5 62.5 53.796875 62.703125 
Q 53.59375 60.09375 53.59375 54.796875 
Q 53.59375 50.90625 53.703125 48.296875 
L 52.40625 48.296875 
Q 50.203125 55.703125 48.703125 57.703125 
Q 47.203125 59.703125 44.09375 59.703125 
L 22.59375 59.703125 
Q 20.90625 59.703125 20.296875 58.75 
Q 19.703125 57.796875 19.703125 55.5 
L 19.703125 33.296875 
L 40.5 33.296875 
Q 42.296875 33.296875 42.9375 33.84375 
Q 43.59375 34.40625 44 36.296875 
L 45.59375 43.40625 
L 47.203125 43.40625 
Q 47 39.703125 47 32.40625 
Q 47 27.09375 47.296875 21.296875 
L 45.90625 21.296875 
L 43.796875 28.203125 
Q 43.203125 30.203125 42.203125 30.59375 
Q 41.203125 31 38.203125 31 
L 19.703125 31 
L 19.703125 5.59375 
Q 19.703125 3 20.546875 2.546875 
Q 21.40625 2.09375 23.5 1.90625 
L 29.90625 1.203125 
z
" id="STSong-46"/>
     <path d="M 24.796875 -1.59375 
Q 16.09375 -1.59375 10 4.203125 
Q 3.90625 10 3.90625 19.296875 
Q 3.90625 28.203125 10 34.046875 
Q 16.09375 39.90625 26 39.90625 
Q 35.203125 39.90625 41.09375 33.75 
Q 47 27.59375 47 18.5 
Q 47 10.203125 40.75 4.296875 
Q 34.5 -1.59375 24.796875 -1.59375 
M 11.09375 18.296875 
Q 11.09375 10 15 5.140625 
Q 18.90625 0.296875 25.09375 0.296875 
Q 31.5 0.296875 35.640625 5.390625 
Q 39.796875 10.5 39.796875 18.90625 
Q 39.796875 27.5 35.890625 32.75 
Q 32 38 25.59375 38 
Q 18.703125 38 14.890625 33 
Q 11.09375 28 11.09375 18.296875 
" id="STSong-6f"/>
     <path d="M 16.40625 -3.796875 
Q 12 -2.09375 9.5 0.203125 
Q 7 2.5 7 4.5 
Q 7 6.09375 8.046875 7 
Q 9.09375 7.90625 11.90625 8.703125 
Q 14.40625 9.5 17.203125 10.703125 
Q 12.40625 13.40625 10.15625 16.65625 
Q 7.90625 19.90625 7.90625 24.40625 
Q 7.90625 30.90625 12.546875 35.40625 
Q 17.203125 39.90625 24.296875 39.90625 
Q 27.5 39.90625 29.796875 39.15625 
Q 32.09375 38.40625 35 36.59375 
Q 37.5 35 39 35 
Q 40.203125 35 43.09375 35.40625 
Q 45.703125 35.703125 46.703125 35.703125 
Q 48.40625 35.703125 48.84375 35 
Q 49.296875 34.296875 49.296875 32.09375 
Q 49.296875 30.59375 47.59375 30.59375 
Q 46.40625 30.59375 43.203125 31.40625 
Q 39.203125 32.40625 38.40625 32.09375 
Q 40.5 27.90625 40.5 24.59375 
Q 40.5 19.59375 36.25 14.6875 
Q 32 9.796875 22.796875 9.796875 
Q 18.90625 9.796875 15.796875 8.296875 
Q 12.703125 6.796875 12.703125 5.40625 
Q 12.703125 3.703125 18.203125 2 
Q 23.703125 0.296875 32.09375 0 
Q 39.296875 -0.203125 43.296875 -3.140625 
Q 47.296875 -6.09375 47.296875 -10.59375 
Q 47.296875 -14.40625 44.546875 -18.046875 
Q 41.796875 -21.703125 35.890625 -23.84375 
Q 30 -26 23.203125 -26 
Q 14.90625 -26 9.34375 -22.75 
Q 3.796875 -19.5 3.796875 -15.5 
Q 3.796875 -9.203125 16.40625 -3.796875 
M 23.90625 38.203125 
Q 14.40625 38.203125 14.40625 24.59375 
Q 14.40625 18.5 17.09375 15 
Q 19.796875 11.5 24 11.5 
Q 28.5 11.5 31.203125 14.890625 
Q 33.90625 18.296875 33.90625 24.5 
Q 33.90625 30.796875 31.09375 34.5 
Q 28.296875 38.203125 23.90625 38.203125 
M 9.703125 -14.5 
Q 9.703125 -18.40625 13.59375 -21.203125 
Q 17.5 -24 24 -24 
Q 32.296875 -24 37.59375 -20.890625 
Q 42.90625 -17.796875 42.90625 -13.203125 
Q 42.90625 -8.40625 37.90625 -6.65625 
Q 32.90625 -4.90625 23.203125 -4.90625 
Q 16.296875 -4.90625 13 -8 
Q 9.703125 -11.09375 9.703125 -14.5 
" id="STSong-67"/>
     <path d="M 28 28.796875 
Q 27.09375 32.203125 24 34.890625 
Q 20.90625 37.59375 18.5 37.59375 
Q 11.203125 37.59375 11.203125 30.90625 
Q 11.203125 28.203125 13.59375 26.34375 
Q 16 24.5 20.90625 22.703125 
Q 32.203125 18.40625 32.203125 10.5 
Q 32.203125 5.296875 28.203125 1.84375 
Q 24.203125 -1.59375 18.296875 -1.59375 
Q 11.09375 -1.59375 6.5 1 
L 5.5 12.296875 
L 7.203125 12.296875 
Q 8.59375 7 12.09375 3.75 
Q 15.59375 0.5 19.59375 0.5 
Q 22.796875 0.5 25 2.546875 
Q 27.203125 4.59375 27.203125 7.703125 
Q 27.203125 13.40625 17.796875 16.90625 
Q 11.203125 19.40625 8.34375 22.15625 
Q 5.5 24.90625 5.5 28.90625 
Q 5.5 34 9.296875 36.953125 
Q 13.09375 39.90625 19.5 39.90625 
Q 25.203125 39.90625 29.296875 37.5 
L 29.90625 28.796875 
z
" id="STSong-73"/>
    </defs>
    <g transform="translate(97.100957 38.144512)scale(0.2 -0.2)">
     <use xlink:href="#STSong-46"/>
     <use x="56.299988" xlink:href="#STSong-6f"/>
     <use x="107.299973" xlink:href="#STSong-67"/>
     <use x="152.09996" xlink:href="#STSong-73"/>
    </g>
   </g>
   <g id="text_2">
    <!-- 15.0% -->
    <defs>
     <path d="M 35.5 -0.296875 
Q 30.296875 0 23.796875 0 
Q 17.296875 0 12.09375 -0.296875 
L 12.09375 1.296875 
L 17.296875 2.203125 
Q 20.796875 2.90625 20.796875 6.09375 
L 20.796875 55.5 
L 8.90625 47.796875 
L 7.5 49.703125 
Q 14.40625 54.203125 24.09375 63.5 
L 27.40625 63.5 
L 27.40625 6.09375 
Q 27.40625 2.703125 30.90625 2.09375 
L 35.5 1.296875 
z
" id="STSong-31"/>
     <path d="M 38 56.59375 
L 24 56.59375 
Q 16.203125 56.59375 15.40625 56.296875 
L 14.09375 38 
Q 18.5 40.09375 23.09375 40.09375 
Q 31.296875 40.09375 37 34.5 
Q 42.703125 28.90625 42.703125 19.90625 
Q 42.703125 9.90625 35.640625 4.15625 
Q 28.59375 -1.59375 19.59375 -1.59375 
Q 14.59375 -1.59375 10.390625 0.15625 
Q 6.203125 1.90625 6.203125 4 
Q 6.203125 5 7.09375 6.046875 
Q 8 7.09375 9.59375 7.09375 
Q 10.703125 7.09375 11.40625 6.59375 
Q 18.40625 1.296875 22.703125 1.296875 
Q 28.296875 1.296875 32.59375 6.140625 
Q 36.90625 11 36.90625 17.59375 
Q 36.90625 24.59375 32.546875 29.25 
Q 28.203125 33.90625 21.796875 33.90625 
Q 19 33.90625 16.546875 33 
Q 14.09375 32.09375 13 30.5 
L 11.296875 30.5 
L 13.203125 62.5 
L 24.09375 62.5 
Q 31.59375 62.5 34 62.703125 
Q 36.40625 62.90625 37.40625 64.203125 
L 38.90625 64.203125 
z
" id="STSong-35"/>
     <path d="M 11 -1.59375 
Q 8.796875 -1.59375 7.296875 -0.09375 
Q 5.796875 1.40625 5.796875 3.59375 
Q 5.796875 5.796875 7.296875 7.296875 
Q 8.796875 8.796875 11 8.796875 
Q 13.203125 8.796875 14.703125 7.296875 
Q 16.203125 5.796875 16.203125 3.59375 
Q 16.203125 1.40625 14.703125 -0.09375 
Q 13.203125 -1.59375 11 -1.59375 
" id="STSong-2e"/>
     <path d="M 23.703125 63.5 
Q 32 63.5 38.046875 54.140625 
Q 44.09375 44.796875 44.09375 30.90625 
Q 44.09375 17.09375 38.046875 7.75 
Q 32 -1.59375 23.703125 -1.59375 
Q 15.703125 -1.59375 9.5 7.65625 
Q 3.296875 16.90625 3.296875 30.90625 
Q 3.296875 44.796875 9.34375 54.140625 
Q 15.40625 63.5 23.703125 63.5 
M 23.703125 0.703125 
Q 31.09375 0.703125 33.9375 8.046875 
Q 36.796875 15.40625 36.796875 30.90625 
Q 36.796875 46.40625 33.9375 53.796875 
Q 31.09375 61.203125 23.703125 61.203125 
Q 16.296875 61.203125 13.4375 53.796875 
Q 10.59375 46.40625 10.59375 30.90625 
Q 10.59375 0.703125 23.703125 0.703125 
" id="STSong-30"/>
     <path d="M 17.90625 -3.296875 
L 59.796875 63.59375 
L 63.40625 63.59375 
L 21.09375 -3.296875 
z
M 15.90625 63.5 
Q 21.5 63.5 25 58.890625 
Q 28.5 54.296875 28.5 46.40625 
Q 28.5 39.09375 24.75 34.296875 
Q 21 29.5 16 29.5 
Q 10.796875 29.5 7.1875 34.046875 
Q 3.59375 38.59375 3.59375 45.90625 
Q 3.59375 53.40625 7.140625 58.453125 
Q 10.703125 63.5 15.90625 63.5 
M 16.203125 31.203125 
Q 19.90625 31.203125 21.453125 34.640625 
Q 23 38.09375 23 45.5 
Q 23 54.40625 21.75 58 
Q 20.5 61.59375 16.203125 61.59375 
Q 11.40625 61.59375 10.296875 57.046875 
Q 9.203125 52.5 9.203125 45.296875 
Q 9.203125 38.296875 10.796875 34.75 
Q 12.40625 31.203125 16.203125 31.203125 
M 79.09375 15.5 
Q 79.09375 8.40625 75.5 3.40625 
Q 71.90625 -1.59375 66.5 -1.59375 
Q 61.203125 -1.59375 57.546875 3.15625 
Q 53.90625 7.90625 53.90625 14.796875 
Q 53.90625 21.796875 57.40625 27.046875 
Q 60.90625 32.296875 66.703125 32.296875 
Q 72.296875 32.296875 75.6875 27.296875 
Q 79.09375 22.296875 79.09375 15.5 
M 66.40625 0 
Q 70.40625 0 71.953125 3.34375 
Q 73.5 6.703125 73.5 14.296875 
Q 73.5 22.703125 72.25 26.546875 
Q 71 30.40625 66.796875 30.40625 
Q 61.59375 30.40625 60.59375 25.5 
Q 59.59375 20.59375 59.59375 14.09375 
Q 59.59375 7.09375 61.140625 3.546875 
Q 62.703125 0 66.40625 0 
" id="STSong-25"/>
    </defs>
    <g transform="translate(140.726724 76.951978)scale(0.2 -0.2)">
     <use xlink:href="#STSong-31"/>
     <use x="46.899994" xlink:href="#STSong-35"/>
     <use x="93.799988" xlink:href="#STSong-2e"/>
     <use x="115.699982" xlink:href="#STSong-30"/>
     <use x="162.599976" xlink:href="#STSong-25"/>
    </g>
   </g>
   <g id="text_3">
    <!-- Hogs -->
    <defs>
     <path d="M 56 56.796875 
Q 56 58.796875 55.5 59.640625 
Q 55 60.5 53.796875 60.59375 
L 48.5 61.203125 
L 48.5 62.796875 
Q 52.296875 62.40625 65.40625 62.40625 
Q 69.40625 62.40625 73 62.796875 
L 73 61.203125 
L 65.90625 60.203125 
Q 64.59375 60 64.1875 59.296875 
Q 63.796875 58.59375 63.796875 56.703125 
L 63.796875 6.796875 
Q 63.796875 4.703125 64.25 3.796875 
Q 64.703125 2.90625 66.5 2.59375 
L 74.203125 1.203125 
L 74.203125 -0.40625 
Q 69.203125 0 58.90625 0 
Q 53.09375 0 47.796875 -0.40625 
L 47.796875 1.203125 
L 54 2.203125 
Q 55.203125 2.40625 55.59375 3.40625 
Q 56 4.40625 56 6.796875 
L 56 29.90625 
L 20.09375 29.90625 
L 20.09375 6.796875 
Q 20.09375 4.296875 20.5 3.34375 
Q 20.90625 2.40625 22.203125 2.203125 
L 28.40625 1.203125 
L 28.40625 -0.40625 
Q 23.09375 0 17.296875 0 
Q 7 0 2 -0.40625 
L 2 1.203125 
L 9.703125 2.59375 
Q 11.296875 2.90625 11.796875 3.796875 
Q 12.296875 4.703125 12.296875 6.796875 
L 12.296875 56.796875 
Q 12.296875 58.796875 11.796875 59.640625 
Q 11.296875 60.5 10.09375 60.59375 
L 4.796875 61.203125 
L 4.796875 62.796875 
Q 8.59375 62.40625 21.90625 62.40625 
Q 26.203125 62.40625 29.796875 62.796875 
L 29.796875 61.203125 
L 22.203125 60.203125 
Q 20.90625 60 20.5 59.296875 
Q 20.09375 58.59375 20.09375 56.703125 
L 20.09375 32.796875 
L 56 32.796875 
z
" id="STSong-48"/>
    </defs>
    <g transform="translate(7.2 155.642794)scale(0.2 -0.2)">
     <use xlink:href="#STSong-48"/>
     <use x="75.999985" xlink:href="#STSong-6f"/>
     <use x="126.999969" xlink:href="#STSong-67"/>
     <use x="171.799957" xlink:href="#STSong-73"/>
    </g>
   </g>
   <g id="text_4">
    <!-- 30.0% -->
    <defs>
     <path d="M 9.40625 48.90625 
L 7.59375 49.90625 
Q 10.5 56.796875 14.59375 60.140625 
Q 18.703125 63.5 24.90625 63.5 
Q 30.5 63.5 34.296875 60.296875 
Q 38.09375 57.09375 38.09375 53.203125 
Q 38.09375 49.296875 35.4375 45.796875 
Q 32.796875 42.296875 27.203125 38.09375 
Q 34.5 38.59375 38.890625 33.796875 
Q 43.296875 29 43.296875 21.5 
Q 43.296875 11.796875 36.390625 5.09375 
Q 29.5 -1.59375 18.796875 -1.59375 
Q 11.90625 -1.59375 8.296875 0.046875 
Q 4.703125 1.703125 4.703125 3.90625 
Q 4.703125 4.90625 5.640625 5.75 
Q 6.59375 6.59375 7.703125 6.59375 
Q 9.40625 6.59375 11.59375 4.796875 
Q 17.203125 0.59375 21.09375 0.59375 
Q 27.203125 0.59375 31.84375 5.890625 
Q 36.5 11.203125 36.5 18.796875 
Q 36.5 25.203125 33.34375 29.34375 
Q 30.203125 33.5 25.40625 33.5 
Q 21.703125 33.5 17.796875 30.09375 
L 16.703125 32 
Q 18.703125 33.796875 21.09375 35.59375 
Q 32.09375 43.703125 32.09375 49.296875 
Q 32.09375 53.40625 29.34375 55.90625 
Q 26.59375 58.40625 22.5 58.40625 
Q 18.5 58.40625 14.953125 55.953125 
Q 11.40625 53.5 9.40625 48.90625 
" id="STSong-33"/>
    </defs>
    <g transform="translate(88.04993 142.263635)scale(0.2 -0.2)">
     <use xlink:href="#STSong-33"/>
     <use x="46.899994" xlink:href="#STSong-30"/>
     <use x="93.799988" xlink:href="#STSong-2e"/>
     <use x="115.699982" xlink:href="#STSong-30"/>
     <use x="162.599976" xlink:href="#STSong-25"/>
    </g>
   </g>
   <g id="text_5">
    <!-- Dogs -->
    <defs>
     <path d="M 11.90625 55.09375 
Q 11.90625 57.5 11.296875 58.5 
Q 10.703125 59.5 9 59.796875 
L 2.203125 61 
L 2.203125 62.59375 
Q 8.59375 62.40625 17.796875 62.953125 
Q 27 63.5 30.796875 63.5 
Q 40.59375 63.5 46.296875 62.390625 
Q 52 61.296875 57.046875 58.390625 
Q 62.09375 55.5 65.34375 51.640625 
Q 68.59375 47.796875 70.390625 42.796875 
Q 72.203125 37.796875 72.203125 32.203125 
Q 72.203125 22.796875 67 14.140625 
Q 61.796875 5.5 53.5 2.703125 
Q 45.203125 -0.09375 37.40625 -0.09375 
L 21.203125 0.296875 
L 1.203125 0.296875 
L 1.203125 1.90625 
L 9 3.59375 
Q 10.59375 3.90625 11.25 4.90625 
Q 11.90625 5.90625 11.90625 8.703125 
z
M 20.09375 11.09375 
Q 20.09375 7.90625 23.546875 5.15625 
Q 27 2.40625 33.5 2.40625 
Q 45 2.40625 53.640625 9.953125 
Q 62.296875 17.5 62.296875 32.59375 
Q 62.296875 45.796875 53.296875 53.390625 
Q 44.296875 61 28.296875 61 
Q 22.90625 61 21.5 59.953125 
Q 20.09375 58.90625 20.09375 55.09375 
z
" id="STSong-44"/>
    </defs>
    <g transform="translate(332.953916 166.825212)scale(0.2 -0.2)">
     <use xlink:href="#STSong-44"/>
     <use x="77.099991" xlink:href="#STSong-6f"/>
     <use x="128.099976" xlink:href="#STSong-67"/>
     <use x="172.899963" xlink:href="#STSong-73"/>
    </g>
   </g>
   <g id="text_6">
    <!-- 45.0% -->
    <defs>
     <path d="M 32.59375 63.5 
L 35 63.5 
L 35 22 
L 45.59375 22 
L 45.59375 17.40625 
L 35 17.40625 
L 35 -1.59375 
L 28.40625 -1.59375 
L 28.40625 17.40625 
L 2.796875 17.40625 
L 2.796875 20.703125 
L 14.703125 38.09375 
z
M 28.40625 22 
L 28.40625 52.703125 
Q 14.796875 33.796875 7.59375 22 
z
" id="STSong-34"/>
    </defs>
    <g transform="translate(248.799929 147.141451)scale(0.2 -0.2)">
     <use xlink:href="#STSong-34"/>
     <use x="46.899994" xlink:href="#STSong-35"/>
     <use x="93.799988" xlink:href="#STSong-2e"/>
     <use x="115.699982" xlink:href="#STSong-30"/>
     <use x="162.599976" xlink:href="#STSong-25"/>
    </g>
   </g>
   <g id="text_7">
    <!-- Logs -->
    <defs>
     <path d="M 20.796875 4.5 
Q 20.796875 3.203125 21.25 2.546875 
Q 21.703125 1.90625 23.59375 1.90625 
L 32.90625 1.90625 
Q 41.59375 1.90625 44.59375 2.796875 
Q 47.59375 3.703125 50.75 7 
Q 53.90625 10.296875 56.203125 16 
L 57.796875 16 
L 54.90625 -0.40625 
Q 46.703125 0 28 0 
Q 7.5 0 1 -0.40625 
L 1 1 
L 10.09375 2.296875 
Q 12.703125 2.59375 12.703125 4.40625 
L 12.703125 56.703125 
Q 12.703125 58.59375 12.046875 59.140625 
Q 11.40625 59.703125 10.09375 59.90625 
L 2.40625 61.203125 
L 2.40625 62.796875 
Q 7.796875 62.5 23 62.5 
Q 29.40625 62.5 32 62.796875 
L 32 61.203125 
L 23.40625 59.90625 
Q 21.90625 59.703125 21.34375 59.25 
Q 20.796875 58.796875 20.796875 56.703125 
z
" id="STSong-4c"/>
    </defs>
    <g transform="translate(247.219863 32.399311)scale(0.2 -0.2)">
     <use xlink:href="#STSong-4c"/>
     <use x="57.299988" xlink:href="#STSong-6f"/>
     <use x="108.299973" xlink:href="#STSong-67"/>
     <use x="153.09996" xlink:href="#STSong-73"/>
    </g>
   </g>
   <g id="text_8">
    <!-- 10.0% -->
    <g transform="translate(202.0359 73.818232)scale(0.2 -0.2)">
     <use xlink:href="#STSong-31"/>
     <use x="46.899994" xlink:href="#STSong-30"/>
     <use x="93.799988" xlink:href="#STSong-2e"/>
     <use x="115.699982" xlink:href="#STSong-30"/>
     <use x="162.599976" xlink:href="#STSong-25"/>
    </g>
   </g>
  </g>
 </g>
</svg>
