<?xml version="1.0" encoding="utf-8" standalone="no"?>
<!DOCTYPE svg PUBLIC "-//W3C//DTD SVG 1.1//EN"
  "http://www.w3.org/Graphics/SVG/1.1/DTD/svg11.dtd">
<!-- Created with matplotlib (http://matplotlib.org/) -->
<svg height="251pt" version="1.1" viewBox="0 0 369 251" width="369pt" xmlns="http://www.w3.org/2000/svg" xmlns:xlink="http://www.w3.org/1999/xlink">
 <defs>
  <style type="text/css">
*{stroke-linecap:butt;stroke-linejoin:round;}
  </style>
 </defs>
 <g id="figure_1">
  <g id="patch_1">
   <path d="M -0 251.510312 
L 369.08125 251.510312 
L 369.08125 0 
L -0 0 
z
" style="fill:none;"/>
  </g>
  <g id="axes_1">
   <g id="patch_2">
    <path d="M 23.58125 228.14 
L 358.38125 228.14 
L 358.38125 10.7 
L 23.58125 10.7 
z
" style="fill:#ffffff;"/>
   </g>
   <g id="matplotlib.axis_1">
    <g id="xtick_1">
     <g id="line2d_1">
      <defs>
       <path d="M 0 0 
L 0 3.5 
" id="m687f3ba942" style="stroke:#000000;stroke-width:0.8;"/>
      </defs>
      <g>
       <use style="stroke:#000000;stroke-width:0.8;" x="38.799432" xlink:href="#m687f3ba942" y="228.14"/>
      </g>
     </g>
     <g id="text_1">
      <!-- 0 -->
      <defs>
       <path d="M 23.703125 63.5 
Q 32 63.5 38.046875 54.140625 
Q 44.09375 44.796875 44.09375 30.90625 
Q 44.09375 17.09375 38.046875 7.75 
Q 32 -1.59375 23.703125 -1.59375 
Q 15.703125 -1.59375 9.5 7.65625 
Q 3.296875 16.90625 3.296875 30.90625 
Q 3.296875 44.796875 9.34375 54.140625 
Q 15.40625 63.5 23.703125 63.5 
M 23.703125 0.703125 
Q 31.09375 0.703125 33.9375 8.046875 
Q 36.796875 15.40625 36.796875 30.90625 
Q 36.796875 46.40625 33.9375 53.796875 
Q 31.09375 61.203125 23.703125 61.203125 
Q 16.296875 61.203125 13.4375 53.796875 
Q 10.59375 46.40625 10.59375 30.90625 
Q 10.59375 0.703125 23.703125 0.703125 
" id="STSong-30"/>
      </defs>
      <g transform="translate(36.454119 241.74)scale(0.1 -0.1)">
       <use xlink:href="#STSong-30"/>
      </g>
     </g>
    </g>
    <g id="xtick_2">
     <g id="line2d_2">
      <g>
       <use style="stroke:#000000;stroke-width:0.8;" x="106.435795" xlink:href="#m687f3ba942" y="228.14"/>
      </g>
     </g>
     <g id="text_2">
      <!-- 2 -->
      <defs>
       <path d="M 42.59375 -0.296875 
Q 35.40625 0 22.203125 0 
Q 9.296875 0 2.203125 -0.296875 
Q 4.09375 3.59375 7 7.09375 
Q 9.90625 10.59375 16.296875 17 
Q 25.59375 26.296875 29.890625 32.84375 
Q 34.203125 39.40625 34.203125 46.09375 
Q 34.203125 51.59375 30.75 55 
Q 27.296875 58.40625 22.203125 58.40625 
Q 17.203125 58.40625 13.09375 54.953125 
Q 9 51.5 7.40625 45.203125 
L 5.09375 45.59375 
Q 6.703125 54.09375 11.796875 58.796875 
Q 16.90625 63.5 24.203125 63.5 
Q 31.5 63.5 36.59375 58.640625 
Q 41.703125 53.796875 41.703125 47 
Q 41.703125 40.203125 36.953125 34.25 
Q 32.203125 28.296875 22.59375 19.40625 
Q 17.5 14.703125 9.90625 5.296875 
L 33.40625 5.296875 
Q 37.203125 5.296875 38.75 6.640625 
Q 40.296875 8 42 12.5 
L 44.09375 12.5 
z
" id="STSong-32"/>
      </defs>
      <g transform="translate(104.090483 241.74)scale(0.1 -0.1)">
       <use xlink:href="#STSong-32"/>
      </g>
     </g>
    </g>
    <g id="xtick_3">
     <g id="line2d_3">
      <g>
       <use style="stroke:#000000;stroke-width:0.8;" x="174.072159" xlink:href="#m687f3ba942" y="228.14"/>
      </g>
     </g>
     <g id="text_3">
      <!-- 4 -->
      <defs>
       <path d="M 32.59375 63.5 
L 35 63.5 
L 35 22 
L 45.59375 22 
L 45.59375 17.40625 
L 35 17.40625 
L 35 -1.59375 
L 28.40625 -1.59375 
L 28.40625 17.40625 
L 2.796875 17.40625 
L 2.796875 20.703125 
L 14.703125 38.09375 
z
M 28.40625 22 
L 28.40625 52.703125 
Q 14.796875 33.796875 7.59375 22 
z
" id="STSong-34"/>
      </defs>
      <g transform="translate(171.726847 241.74)scale(0.1 -0.1)">
       <use xlink:href="#STSong-34"/>
      </g>
     </g>
    </g>
    <g id="xtick_4">
     <g id="line2d_4">
      <g>
       <use style="stroke:#000000;stroke-width:0.8;" x="241.708523" xlink:href="#m687f3ba942" y="228.14"/>
      </g>
     </g>
     <g id="text_4">
      <!-- 6 -->
      <defs>
       <path d="M 38.40625 63.796875 
L 39.203125 61.90625 
Q 26.703125 57.203125 19.25 45.84375 
Q 11.796875 34.5 11.796875 21.5 
Q 11.796875 12.90625 15.390625 6.75 
Q 19 0.59375 24.203125 0.59375 
Q 35.40625 0.59375 35.40625 18.40625 
Q 35.40625 25.90625 32.5 30.09375 
Q 29.59375 34.296875 25.203125 34.296875 
Q 23.5 34.296875 21.90625 33.59375 
L 20.796875 35.203125 
Q 24 36.59375 27.296875 36.59375 
Q 33.90625 36.59375 38.25 31.59375 
Q 42.59375 26.59375 42.59375 17.90625 
Q 42.59375 9.59375 37.4375 4 
Q 32.296875 -1.59375 24.09375 -1.59375 
Q 15.59375 -1.59375 10.25 5.046875 
Q 4.90625 11.703125 4.90625 23.09375 
Q 4.90625 36.90625 13.953125 48.25 
Q 23 59.59375 38.40625 63.796875 
" id="STSong-36"/>
      </defs>
      <g transform="translate(239.36321 241.74)scale(0.1 -0.1)">
       <use xlink:href="#STSong-36"/>
      </g>
     </g>
    </g>
    <g id="xtick_5">
     <g id="line2d_5">
      <g>
       <use style="stroke:#000000;stroke-width:0.8;" x="309.344886" xlink:href="#m687f3ba942" y="228.14"/>
      </g>
     </g>
     <g id="text_5">
      <!-- 8 -->
      <defs>
       <path d="M 19.796875 31.203125 
Q 7.703125 37.203125 7.703125 47.5 
Q 7.703125 53.703125 12.640625 58.59375 
Q 17.59375 63.5 24.296875 63.5 
Q 31.90625 63.5 36.59375 59.390625 
Q 41.296875 55.296875 41.296875 49.09375 
Q 41.296875 43.703125 38.296875 40.390625 
Q 35.296875 37.09375 29.703125 34.296875 
Q 38.90625 29.90625 41.5 25.40625 
Q 44.09375 20.90625 44.09375 16.40625 
Q 44.09375 9.09375 38.640625 3.75 
Q 33.203125 -1.59375 25.09375 -1.59375 
Q 16.703125 -1.59375 11.703125 3.046875 
Q 6.703125 7.703125 6.703125 14.796875 
Q 6.703125 19.09375 8.703125 23.25 
Q 10.703125 27.40625 19.796875 31.203125 
M 27.5 35.5 
Q 31.59375 37.40625 33.796875 41.046875 
Q 36 44.703125 36 49 
Q 36 54.296875 32.953125 57.75 
Q 29.90625 61.203125 24.5 61.203125 
Q 19.59375 61.203125 16.5 57.84375 
Q 13.40625 54.5 13.40625 49.59375 
Q 13.40625 47.09375 14.296875 44.6875 
Q 15.203125 42.296875 19.25 39.5 
Q 23.296875 36.703125 27.5 35.5 
M 22.203125 30.09375 
Q 17.09375 27.59375 14.890625 23.9375 
Q 12.703125 20.296875 12.703125 14.203125 
Q 12.703125 8.09375 16.203125 4.4375 
Q 19.703125 0.796875 25 0.796875 
Q 30.5 0.796875 34.140625 4.4375 
Q 37.796875 8.09375 37.796875 13.796875 
Q 37.796875 19.796875 34.140625 23.390625 
Q 30.5 27 22.203125 30.09375 
" id="STSong-38"/>
      </defs>
      <g transform="translate(306.999574 241.74)scale(0.1 -0.1)">
       <use xlink:href="#STSong-38"/>
      </g>
     </g>
    </g>
   </g>
   <g id="matplotlib.axis_2">
    <g id="ytick_1">
     <g id="line2d_6">
      <defs>
       <path d="M 0 0 
L -3.5 0 
" id="m057f5d6dd5" style="stroke:#000000;stroke-width:0.8;"/>
      </defs>
      <g>
       <use style="stroke:#000000;stroke-width:0.8;" x="23.58125" xlink:href="#m057f5d6dd5" y="218.256364"/>
      </g>
     </g>
     <g id="text_6">
      <!-- 0 -->
      <g transform="translate(11.890625 221.556364)scale(0.1 -0.1)">
       <use xlink:href="#STSong-30"/>
      </g>
     </g>
    </g>
    <g id="ytick_2">
     <g id="line2d_7">
      <g>
       <use style="stroke:#000000;stroke-width:0.8;" x="23.58125" xlink:href="#m057f5d6dd5" y="190.801818"/>
      </g>
     </g>
     <g id="text_7">
      <!-- 5 -->
      <defs>
       <path d="M 38 56.59375 
L 24 56.59375 
Q 16.203125 56.59375 15.40625 56.296875 
L 14.09375 38 
Q 18.5 40.09375 23.09375 40.09375 
Q 31.296875 40.09375 37 34.5 
Q 42.703125 28.90625 42.703125 19.90625 
Q 42.703125 9.90625 35.640625 4.15625 
Q 28.59375 -1.59375 19.59375 -1.59375 
Q 14.59375 -1.59375 10.390625 0.15625 
Q 6.203125 1.90625 6.203125 4 
Q 6.203125 5 7.09375 6.046875 
Q 8 7.09375 9.59375 7.09375 
Q 10.703125 7.09375 11.40625 6.59375 
Q 18.40625 1.296875 22.703125 1.296875 
Q 28.296875 1.296875 32.59375 6.140625 
Q 36.90625 11 36.90625 17.59375 
Q 36.90625 24.59375 32.546875 29.25 
Q 28.203125 33.90625 21.796875 33.90625 
Q 19 33.90625 16.546875 33 
Q 14.09375 32.09375 13 30.5 
L 11.296875 30.5 
L 13.203125 62.5 
L 24.09375 62.5 
Q 31.59375 62.5 34 62.703125 
Q 36.40625 62.90625 37.40625 64.203125 
L 38.90625 64.203125 
z
" id="STSong-35"/>
      </defs>
      <g transform="translate(11.890625 194.101818)scale(0.1 -0.1)">
       <use xlink:href="#STSong-35"/>
      </g>
     </g>
    </g>
    <g id="ytick_3">
     <g id="line2d_8">
      <g>
       <use style="stroke:#000000;stroke-width:0.8;" x="23.58125" xlink:href="#m057f5d6dd5" y="163.347273"/>
      </g>
     </g>
     <g id="text_8">
      <!-- 10 -->
      <defs>
       <path d="M 35.5 -0.296875 
Q 30.296875 0 23.796875 0 
Q 17.296875 0 12.09375 -0.296875 
L 12.09375 1.296875 
L 17.296875 2.203125 
Q 20.796875 2.90625 20.796875 6.09375 
L 20.796875 55.5 
L 8.90625 47.796875 
L 7.5 49.703125 
Q 14.40625 54.203125 24.09375 63.5 
L 27.40625 63.5 
L 27.40625 6.09375 
Q 27.40625 2.703125 30.90625 2.09375 
L 35.5 1.296875 
z
" id="STSong-31"/>
      </defs>
      <g transform="translate(7.2 166.647273)scale(0.1 -0.1)">
       <use xlink:href="#STSong-31"/>
       <use x="46.899994" xlink:href="#STSong-30"/>
      </g>
     </g>
    </g>
    <g id="ytick_4">
     <g id="line2d_9">
      <g>
       <use style="stroke:#000000;stroke-width:0.8;" x="23.58125" xlink:href="#m057f5d6dd5" y="135.892727"/>
      </g>
     </g>
     <g id="text_9">
      <!-- 15 -->
      <g transform="translate(7.2 139.192727)scale(0.1 -0.1)">
       <use xlink:href="#STSong-31"/>
       <use x="46.899994" xlink:href="#STSong-35"/>
      </g>
     </g>
    </g>
    <g id="ytick_5">
     <g id="line2d_10">
      <g>
       <use style="stroke:#000000;stroke-width:0.8;" x="23.58125" xlink:href="#m057f5d6dd5" y="108.438182"/>
      </g>
     </g>
     <g id="text_10">
      <!-- 20 -->
      <g transform="translate(7.2 111.738182)scale(0.1 -0.1)">
       <use xlink:href="#STSong-32"/>
       <use x="46.899994" xlink:href="#STSong-30"/>
      </g>
     </g>
    </g>
    <g id="ytick_6">
     <g id="line2d_11">
      <g>
       <use style="stroke:#000000;stroke-width:0.8;" x="23.58125" xlink:href="#m057f5d6dd5" y="80.983636"/>
      </g>
     </g>
     <g id="text_11">
      <!-- 25 -->
      <g transform="translate(7.2 84.283636)scale(0.1 -0.1)">
       <use xlink:href="#STSong-32"/>
       <use x="46.899994" xlink:href="#STSong-35"/>
      </g>
     </g>
    </g>
    <g id="ytick_7">
     <g id="line2d_12">
      <g>
       <use style="stroke:#000000;stroke-width:0.8;" x="23.58125" xlink:href="#m057f5d6dd5" y="53.529091"/>
      </g>
     </g>
     <g id="text_12">
      <!-- 30 -->
      <defs>
       <path d="M 9.40625 48.90625 
L 7.59375 49.90625 
Q 10.5 56.796875 14.59375 60.140625 
Q 18.703125 63.5 24.90625 63.5 
Q 30.5 63.5 34.296875 60.296875 
Q 38.09375 57.09375 38.09375 53.203125 
Q 38.09375 49.296875 35.4375 45.796875 
Q 32.796875 42.296875 27.203125 38.09375 
Q 34.5 38.59375 38.890625 33.796875 
Q 43.296875 29 43.296875 21.5 
Q 43.296875 11.796875 36.390625 5.09375 
Q 29.5 -1.59375 18.796875 -1.59375 
Q 11.90625 -1.59375 8.296875 0.046875 
Q 4.703125 1.703125 4.703125 3.90625 
Q 4.703125 4.90625 5.640625 5.75 
Q 6.59375 6.59375 7.703125 6.59375 
Q 9.40625 6.59375 11.59375 4.796875 
Q 17.203125 0.59375 21.09375 0.59375 
Q 27.203125 0.59375 31.84375 5.890625 
Q 36.5 11.203125 36.5 18.796875 
Q 36.5 25.203125 33.34375 29.34375 
Q 30.203125 33.5 25.40625 33.5 
Q 21.703125 33.5 17.796875 30.09375 
L 16.703125 32 
Q 18.703125 33.796875 21.09375 35.59375 
Q 32.09375 43.703125 32.09375 49.296875 
Q 32.09375 53.40625 29.34375 55.90625 
Q 26.59375 58.40625 22.5 58.40625 
Q 18.5 58.40625 14.953125 55.953125 
Q 11.40625 53.5 9.40625 48.90625 
" id="STSong-33"/>
      </defs>
      <g transform="translate(7.2 56.829091)scale(0.1 -0.1)">
       <use xlink:href="#STSong-33"/>
       <use x="46.899994" xlink:href="#STSong-30"/>
      </g>
     </g>
    </g>
    <g id="ytick_8">
     <g id="line2d_13">
      <g>
       <use style="stroke:#000000;stroke-width:0.8;" x="23.58125" xlink:href="#m057f5d6dd5" y="26.074545"/>
      </g>
     </g>
     <g id="text_13">
      <!-- 35 -->
      <g transform="translate(7.2 29.374545)scale(0.1 -0.1)">
       <use xlink:href="#STSong-33"/>
       <use x="46.899994" xlink:href="#STSong-35"/>
      </g>
     </g>
    </g>
   </g>
   <g id="line2d_14">
    <path clip-path="url(#p011b81370a)" d="M 38.799432 218.256364 
L 72.617614 210.02 
L 106.435795 201.783636 
L 140.253977 193.547273 
L 174.072159 185.310909 
L 207.890341 177.074545 
L 241.708523 168.838182 
L 275.526705 160.601818 
L 309.344886 152.365455 
L 343.163068 144.129091 
" style="fill:none;stroke:#008000;stroke-linecap:square;stroke-width:1.5;"/>
    <defs>
     <path d="M 0 3 
C 0.795609 3 1.55874 2.683901 2.12132 2.12132 
C 2.683901 1.55874 3 0.795609 3 0 
C 3 -0.795609 2.683901 -1.55874 2.12132 -2.12132 
C 1.55874 -2.683901 0.795609 -3 0 -3 
C -0.795609 -3 -1.55874 -2.683901 -2.12132 -2.12132 
C -2.683901 -1.55874 -3 -0.795609 -3 0 
C -3 0.795609 -2.683901 1.55874 -2.12132 2.12132 
C -1.55874 2.683901 -0.795609 3 0 3 
z
" id="m121e2825f5" style="stroke:#008000;"/>
    </defs>
    <g clip-path="url(#p011b81370a)">
     <use style="fill:#008000;stroke:#008000;" x="38.799432" xlink:href="#m121e2825f5" y="218.256364"/>
     <use style="fill:#008000;stroke:#008000;" x="72.617614" xlink:href="#m121e2825f5" y="210.02"/>
     <use style="fill:#008000;stroke:#008000;" x="106.435795" xlink:href="#m121e2825f5" y="201.783636"/>
     <use style="fill:#008000;stroke:#008000;" x="140.253977" xlink:href="#m121e2825f5" y="193.547273"/>
     <use style="fill:#008000;stroke:#008000;" x="174.072159" xlink:href="#m121e2825f5" y="185.310909"/>
     <use style="fill:#008000;stroke:#008000;" x="207.890341" xlink:href="#m121e2825f5" y="177.074545"/>
     <use style="fill:#008000;stroke:#008000;" x="241.708523" xlink:href="#m121e2825f5" y="168.838182"/>
     <use style="fill:#008000;stroke:#008000;" x="275.526705" xlink:href="#m121e2825f5" y="160.601818"/>
     <use style="fill:#008000;stroke:#008000;" x="309.344886" xlink:href="#m121e2825f5" y="152.365455"/>
     <use style="fill:#008000;stroke:#008000;" x="343.163068" xlink:href="#m121e2825f5" y="144.129091"/>
    </g>
   </g>
   <g id="line2d_15">
    <defs>
     <path d="M 3 0 
L -3 -3 
L -3 3 
z
" id="ma0cf989341" style="stroke:#ff0000;stroke-linejoin:miter;"/>
    </defs>
    <g clip-path="url(#p011b81370a)">
     <use style="fill:#ff0000;stroke:#ff0000;stroke-linejoin:miter;" x="38.799432" xlink:href="#ma0cf989341" y="218.256364"/>
     <use style="fill:#ff0000;stroke:#ff0000;stroke-linejoin:miter;" x="72.617614" xlink:href="#ma0cf989341" y="207.274545"/>
     <use style="fill:#ff0000;stroke:#ff0000;stroke-linejoin:miter;" x="106.435795" xlink:href="#ma0cf989341" y="196.292727"/>
     <use style="fill:#ff0000;stroke:#ff0000;stroke-linejoin:miter;" x="140.253977" xlink:href="#ma0cf989341" y="185.310909"/>
     <use style="fill:#ff0000;stroke:#ff0000;stroke-linejoin:miter;" x="174.072159" xlink:href="#ma0cf989341" y="174.329091"/>
     <use style="fill:#ff0000;stroke:#ff0000;stroke-linejoin:miter;" x="207.890341" xlink:href="#ma0cf989341" y="163.347273"/>
     <use style="fill:#ff0000;stroke:#ff0000;stroke-linejoin:miter;" x="241.708523" xlink:href="#ma0cf989341" y="152.365455"/>
     <use style="fill:#ff0000;stroke:#ff0000;stroke-linejoin:miter;" x="275.526705" xlink:href="#ma0cf989341" y="141.383636"/>
     <use style="fill:#ff0000;stroke:#ff0000;stroke-linejoin:miter;" x="309.344886" xlink:href="#ma0cf989341" y="130.401818"/>
     <use style="fill:#ff0000;stroke:#ff0000;stroke-linejoin:miter;" x="343.163068" xlink:href="#ma0cf989341" y="119.42"/>
    </g>
   </g>
   <g id="line2d_16">
    <defs>
     <path d="M 0 -3 
L -0.673542 -0.927051 
L -2.85317 -0.927051 
L -1.089814 0.354102 
L -1.763356 2.427051 
L -0 1.145898 
L 1.763356 2.427051 
L 1.089814 0.354102 
L 2.85317 -0.927051 
L 0.673542 -0.927051 
z
" id="m1cee98cd03" style="stroke:#1f77b4;stroke-linejoin:bevel;"/>
    </defs>
    <g clip-path="url(#p011b81370a)">
     <use style="fill:#1f77b4;stroke:#1f77b4;stroke-linejoin:bevel;" x="38.799432" xlink:href="#m1cee98cd03" y="218.256364"/>
     <use style="fill:#1f77b4;stroke:#1f77b4;stroke-linejoin:bevel;" x="72.617614" xlink:href="#m1cee98cd03" y="201.783636"/>
     <use style="fill:#1f77b4;stroke:#1f77b4;stroke-linejoin:bevel;" x="106.435795" xlink:href="#m1cee98cd03" y="185.310909"/>
     <use style="fill:#1f77b4;stroke:#1f77b4;stroke-linejoin:bevel;" x="140.253977" xlink:href="#m1cee98cd03" y="168.838182"/>
     <use style="fill:#1f77b4;stroke:#1f77b4;stroke-linejoin:bevel;" x="174.072159" xlink:href="#m1cee98cd03" y="152.365455"/>
     <use style="fill:#1f77b4;stroke:#1f77b4;stroke-linejoin:bevel;" x="207.890341" xlink:href="#m1cee98cd03" y="135.892727"/>
     <use style="fill:#1f77b4;stroke:#1f77b4;stroke-linejoin:bevel;" x="241.708523" xlink:href="#m1cee98cd03" y="119.42"/>
     <use style="fill:#1f77b4;stroke:#1f77b4;stroke-linejoin:bevel;" x="275.526705" xlink:href="#m1cee98cd03" y="102.947273"/>
     <use style="fill:#1f77b4;stroke:#1f77b4;stroke-linejoin:bevel;" x="309.344886" xlink:href="#m1cee98cd03" y="86.474545"/>
     <use style="fill:#1f77b4;stroke:#1f77b4;stroke-linejoin:bevel;" x="343.163068" xlink:href="#m1cee98cd03" y="70.001818"/>
    </g>
   </g>
   <g id="line2d_17">
    <path clip-path="url(#p011b81370a)" d="M 38.799432 218.256364 
L 72.617614 196.292727 
L 106.435795 174.329091 
L 140.253977 152.365455 
L 174.072159 130.401818 
L 207.890341 108.438182 
L 241.708523 86.474545 
L 275.526705 64.510909 
L 309.344886 42.547273 
L 343.163068 20.583636 
" style="fill:none;stroke:#0000ff;stroke-dasharray:9.6,2.4,1.6,2.4;stroke-dashoffset:0;stroke-width:1.5;"/>
   </g>
   <g id="patch_3">
    <path d="M 23.58125 228.14 
L 23.58125 10.7 
" style="fill:none;stroke:#000000;stroke-linecap:square;stroke-linejoin:miter;stroke-width:0.8;"/>
   </g>
   <g id="patch_4">
    <path d="M 358.38125 228.14 
L 358.38125 10.7 
" style="fill:none;stroke:#000000;stroke-linecap:square;stroke-linejoin:miter;stroke-width:0.8;"/>
   </g>
   <g id="patch_5">
    <path d="M 23.58125 228.14 
L 358.38125 228.14 
" style="fill:none;stroke:#000000;stroke-linecap:square;stroke-linejoin:miter;stroke-width:0.8;"/>
   </g>
   <g id="patch_6">
    <path d="M 23.58125 10.7 
L 358.38125 10.7 
" style="fill:none;stroke:#000000;stroke-linecap:square;stroke-linejoin:miter;stroke-width:0.8;"/>
   </g>
  </g>
 </g>
 <defs>
  <clipPath id="p011b81370a">
   <rect height="217.44" width="334.8" x="23.58125" y="10.7"/>
  </clipPath>
 </defs>
</svg>
