<?xml version="1.0" encoding="utf-8" standalone="no"?>
<!DOCTYPE svg PUBLIC "-//W3C//DTD SVG 1.1//EN"
  "http://www.w3.org/Graphics/SVG/1.1/DTD/svg11.dtd">
<!-- Created with matplotlib (http://matplotlib.org/) -->
<svg height="283pt" version="1.1" viewBox="0 0 420 283" width="420pt" xmlns="http://www.w3.org/2000/svg" xmlns:xlink="http://www.w3.org/1999/xlink">
 <defs>
  <style type="text/css">
*{stroke-linecap:butt;stroke-linejoin:round;}
  </style>
 </defs>
 <g id="figure_1">
  <g id="patch_1">
   <path d="M 0 283.661875 
L 420.584375 283.661875 
L 420.584375 0 
L 0 0 
z
" style="fill:none;"/>
  </g>
  <g id="axes_1">
   <g id="patch_2">
    <path d="M 75.084375 228.14 
L 409.884375 228.14 
L 409.884375 10.7 
L 75.084375 10.7 
z
" style="fill:#ffffff;"/>
   </g>
   <g id="matplotlib.axis_1">
    <g id="xtick_1">
     <g id="line2d_1">
      <defs>
       <path d="M 0 0 
L 0 3.5 
" id="me6272b3b49" style="stroke:#000000;stroke-width:0.8;"/>
      </defs>
      <g>
       <use style="stroke:#000000;stroke-width:0.8;" x="90.302557" xlink:href="#me6272b3b49" y="228.14"/>
      </g>
     </g>
     <g id="text_1">
      <!-- 0 -->
      <defs>
       <path d="M 23.703125 63.5 
Q 32 63.5 38.046875 54.140625 
Q 44.09375 44.796875 44.09375 30.90625 
Q 44.09375 17.09375 38.046875 7.75 
Q 32 -1.59375 23.703125 -1.59375 
Q 15.703125 -1.59375 9.5 7.65625 
Q 3.296875 16.90625 3.296875 30.90625 
Q 3.296875 44.796875 9.34375 54.140625 
Q 15.40625 63.5 23.703125 63.5 
M 23.703125 0.703125 
Q 31.09375 0.703125 33.9375 8.046875 
Q 36.796875 15.40625 36.796875 30.90625 
Q 36.796875 46.40625 33.9375 53.796875 
Q 31.09375 61.203125 23.703125 61.203125 
Q 16.296875 61.203125 13.4375 53.796875 
Q 10.59375 46.40625 10.59375 30.90625 
Q 10.59375 0.703125 23.703125 0.703125 
" id="STSong-30"/>
      </defs>
      <g transform="translate(85.611932 248.34)scale(0.2 -0.2)">
       <use xlink:href="#STSong-30"/>
      </g>
     </g>
    </g>
    <g id="xtick_2">
     <g id="line2d_2">
      <g>
       <use style="stroke:#000000;stroke-width:0.8;" x="212.29199" xlink:href="#me6272b3b49" y="228.14"/>
      </g>
     </g>
     <g id="text_2">
      <!-- 2 -->
      <defs>
       <path d="M 42.59375 -0.296875 
Q 35.40625 0 22.203125 0 
Q 9.296875 0 2.203125 -0.296875 
Q 4.09375 3.59375 7 7.09375 
Q 9.90625 10.59375 16.296875 17 
Q 25.59375 26.296875 29.890625 32.84375 
Q 34.203125 39.40625 34.203125 46.09375 
Q 34.203125 51.59375 30.75 55 
Q 27.296875 58.40625 22.203125 58.40625 
Q 17.203125 58.40625 13.09375 54.953125 
Q 9 51.5 7.40625 45.203125 
L 5.09375 45.59375 
Q 6.703125 54.09375 11.796875 58.796875 
Q 16.90625 63.5 24.203125 63.5 
Q 31.5 63.5 36.59375 58.640625 
Q 41.703125 53.796875 41.703125 47 
Q 41.703125 40.203125 36.953125 34.25 
Q 32.203125 28.296875 22.59375 19.40625 
Q 17.5 14.703125 9.90625 5.296875 
L 33.40625 5.296875 
Q 37.203125 5.296875 38.75 6.640625 
Q 40.296875 8 42 12.5 
L 44.09375 12.5 
z
" id="STSong-32"/>
      </defs>
      <g transform="translate(207.601365 248.34)scale(0.2 -0.2)">
       <use xlink:href="#STSong-32"/>
      </g>
     </g>
    </g>
    <g id="xtick_3">
     <g id="line2d_3">
      <g>
       <use style="stroke:#000000;stroke-width:0.8;" x="334.281424" xlink:href="#me6272b3b49" y="228.14"/>
      </g>
     </g>
     <g id="text_3">
      <!-- 4 -->
      <defs>
       <path d="M 32.59375 63.5 
L 35 63.5 
L 35 22 
L 45.59375 22 
L 45.59375 17.40625 
L 35 17.40625 
L 35 -1.59375 
L 28.40625 -1.59375 
L 28.40625 17.40625 
L 2.796875 17.40625 
L 2.796875 20.703125 
L 14.703125 38.09375 
z
M 28.40625 22 
L 28.40625 52.703125 
Q 14.796875 33.796875 7.59375 22 
z
" id="STSong-34"/>
      </defs>
      <g transform="translate(329.590799 248.34)scale(0.2 -0.2)">
       <use xlink:href="#STSong-34"/>
      </g>
     </g>
    </g>
    <g id="text_4">
     <!-- 横轴（x） -->
     <defs>
      <path d="M 35.90625 53.796875 
Q 36.703125 52.90625 36.703125 52.34375 
Q 36.703125 51.796875 35.59375 51.796875 
L 23.40625 51.796875 
L 23.40625 39.703125 
Q 28.40625 37.203125 31.953125 34.296875 
Q 35.5 31.40625 35.5 28.296875 
Q 35.5 26.90625 34.796875 25.953125 
Q 34.09375 25 33.25 25 
Q 32.40625 25 31.59375 25.796875 
Q 30.796875 26.59375 30.34375 28.1875 
Q 29.90625 29.796875 28.046875 32.546875 
Q 26.203125 35.296875 23.40625 37.796875 
L 23.40625 0.59375 
Q 23.40625 -5.90625 23.5 -8.40625 
L 23.59375 -13.09375 
Q 23.59375 -14.796875 21.59375 -15.640625 
Q 19.59375 -16.5 19 -16.5 
Q 18.40625 -16.5 18.40625 -14.90625 
L 18.796875 -7.09375 
Q 19 -2.296875 19 2.59375 
L 19 40.703125 
Q 13.59375 23.59375 5 7.296875 
L 3.703125 8 
Q 13.09375 28.296875 17.796875 51.796875 
L 12.90625 51.796875 
Q 9 51.796875 6.203125 50.703125 
L 3.40625 54.40625 
Q 8.203125 54 10.703125 54 
L 19 54 
L 19 63.09375 
Q 19 69.796875 18.59375 77.703125 
L 25 74 
Q 26.09375 73.40625 26.09375 72.953125 
Q 26.09375 72.5 25.09375 71.90625 
L 23.40625 70.90625 
L 23.40625 54 
L 27.09375 54 
L 30.796875 59.09375 
z
M 95.796875 48.703125 
Q 96.90625 47.703125 96.90625 47.09375 
Q 96.90625 46.5 95.296875 46.5 
L 65.296875 46.5 
L 65.296875 36.09375 
L 79.5 36.09375 
L 81.90625 39.796875 
L 87.59375 35.59375 
Q 88.5 35 88.5 34.640625 
Q 88.5 34.296875 87.59375 33.703125 
L 85.5 32.296875 
L 85.5 16.703125 
Q 85.5 13 85.75 10 
Q 86 7 86 6.40625 
Q 86 4.90625 83.953125 3.84375 
Q 81.90625 2.796875 81.34375 2.796875 
Q 80.796875 2.796875 80.796875 4.203125 
L 80.796875 6.703125 
L 45.40625 6.703125 
L 45.40625 5 
Q 45.40625 3.796875 45.046875 3.296875 
Q 44.703125 2.796875 43.34375 2.140625 
Q 42 1.5 41.25 1.5 
Q 40.5 1.5 40.5 3.296875 
L 40.703125 7.703125 
Q 40.796875 10 40.796875 17 
L 40.796875 32.296875 
Q 40.796875 36.59375 40.5 40.90625 
L 46.703125 36.09375 
L 60.703125 36.09375 
L 60.703125 46.5 
L 41.203125 46.5 
Q 37.5 46.5 34.796875 45.5 
L 32.09375 49.09375 
Q 36.59375 48.703125 39.09375 48.703125 
L 50.09375 48.703125 
L 50.09375 60.59375 
L 46.703125 60.59375 
Q 42.90625 60.59375 40 59.59375 
L 37.203125 63.203125 
Q 41.90625 62.796875 44.5 62.796875 
L 50.09375 62.796875 
L 50.09375 67.703125 
Q 50.09375 72.5 49.796875 77.5 
L 56.703125 74.40625 
Q 57.59375 74 57.59375 73.59375 
Q 57.59375 73.203125 56.796875 72.703125 
L 54.796875 71.40625 
L 54.796875 62.796875 
L 71.296875 62.796875 
L 71.296875 67.296875 
Q 71.296875 72.09375 71 77.09375 
L 77.59375 74.40625 
Q 78.59375 74 78.59375 73.640625 
Q 78.59375 73.296875 77.796875 72.703125 
L 76 71.40625 
L 76 62.796875 
L 83.40625 62.796875 
L 86.703125 67.40625 
L 91.90625 62.40625 
Q 92.703125 61.59375 92.703125 61.09375 
Q 92.703125 60.59375 91.40625 60.59375 
L 76 60.59375 
L 76 48.703125 
L 86.40625 48.703125 
L 90.203125 54.09375 
z
M 71.296875 48.703125 
L 71.296875 60.59375 
L 54.796875 60.59375 
L 54.796875 48.703125 
z
M 80.796875 22.296875 
L 80.796875 33.90625 
L 65.296875 33.90625 
L 65.296875 22.296875 
z
M 60.703125 22.296875 
L 60.703125 33.90625 
L 45.40625 33.90625 
L 45.40625 22.296875 
z
M 80.796875 8.90625 
L 80.796875 20.09375 
L 65.296875 20.09375 
L 65.296875 8.90625 
z
M 60.703125 8.90625 
L 60.703125 20.09375 
L 45.40625 20.09375 
L 45.40625 8.90625 
z
M 59.59375 -2.203125 
Q 60.203125 -2.703125 60.203125 -3.09375 
Q 60.203125 -3.5 58.140625 -3.703125 
Q 56.09375 -3.90625 54.296875 -4.90625 
Q 40.59375 -12.5 28.40625 -17.203125 
L 28 -15.796875 
Q 43.90625 -7.703125 54.203125 2.40625 
z
M 68.40625 1.296875 
Q 78.09375 -1.5 83.1875 -3.59375 
Q 88.296875 -5.703125 90.1875 -7.75 
Q 92.09375 -9.796875 92.09375 -12.796875 
Q 92.09375 -15.796875 90.296875 -15.796875 
Q 89.5 -15.796875 86.25 -12.546875 
Q 83 -9.296875 79 -6.390625 
Q 75 -3.5 67.90625 0.09375 
z
" id="STSong-6a2a"/>
      <path d="M 91.59375 53.703125 
Q 92.40625 53.09375 92.40625 52.6875 
Q 92.40625 52.296875 91.5 51.59375 
L 89.09375 49.703125 
L 89.09375 12.90625 
Q 89.09375 5.09375 89.296875 -0.703125 
L 89.5 -9.40625 
Q 89.5 -10.796875 87.5 -11.890625 
Q 85.5 -13 84.953125 -13 
Q 84.40625 -13 84.40625 -11 
L 84.40625 -3.59375 
L 50.203125 -3.59375 
L 50.203125 -10.796875 
Q 50.203125 -11.703125 49.84375 -12.046875 
Q 49.5 -12.40625 48.046875 -13.15625 
Q 46.59375 -13.90625 46 -13.90625 
Q 45.40625 -13.90625 45.40625 -12.203125 
L 45.59375 -3.703125 
Q 45.796875 1.796875 45.796875 7.40625 
L 45.796875 48.5 
Q 45.796875 55.203125 45.5 59.40625 
L 52 53.796875 
L 64.796875 53.796875 
L 64.796875 62.296875 
Q 64.796875 71.796875 64.5 77.296875 
L 71.59375 73.5 
Q 72.703125 72.90625 72.703125 72.59375 
Q 72.703125 72.296875 71.59375 71.703125 
L 69.40625 70.5 
L 69.40625 53.796875 
L 82.90625 53.796875 
L 85.59375 58.203125 
z
M 84.40625 26.40625 
L 84.40625 51.59375 
L 69.40625 51.59375 
L 69.40625 26.40625 
z
M 64.796875 26.40625 
L 64.796875 51.59375 
L 50.203125 51.59375 
L 50.203125 26.40625 
z
M 84.40625 -1.40625 
L 84.40625 24.203125 
L 69.40625 24.203125 
L 69.40625 -1.40625 
z
M 64.796875 -1.40625 
L 64.796875 24.203125 
L 50.203125 24.203125 
L 50.203125 -1.40625 
z
M 42.5 16.203125 
L 28.5 12.296875 
L 28.5 4.5 
Q 28.5 -2.796875 28.640625 -7.1875 
Q 28.796875 -11.59375 28.796875 -12.25 
Q 28.796875 -12.90625 28.390625 -13.34375 
Q 28 -13.796875 26.453125 -14.59375 
Q 24.90625 -15.40625 24.25 -15.40625 
Q 23.59375 -15.40625 23.59375 -14.09375 
Q 23.59375 -12.796875 23.890625 -8.390625 
Q 24.203125 -4 24.203125 4.703125 
L 24.203125 11.203125 
Q 10.09375 7.296875 8.59375 5.40625 
Q 8.203125 4.796875 7.890625 4.796875 
Q 7.59375 4.796875 7.296875 5.40625 
L 4.59375 10.703125 
L 24.203125 14.296875 
L 24.203125 29.90625 
L 13.59375 29.90625 
L 11.40625 27.90625 
Q 10.796875 27.296875 10.546875 27.296875 
Q 10.296875 27.296875 9.90625 27.703125 
L 5 32.296875 
Q 7.59375 33.40625 8.5 34.5 
Q 9.40625 35.59375 11.25 40.640625 
Q 13.09375 45.703125 16.703125 56.90625 
L 13.90625 56.90625 
Q 10 56.90625 7.203125 55.796875 
L 4.40625 59.5 
Q 9.203125 59.09375 11.703125 59.09375 
L 17.296875 59.09375 
Q 21.09375 71.296875 22.59375 76.90625 
L 28.90625 73.203125 
Q 29.59375 72.796875 29.59375 72.546875 
Q 29.59375 72.296875 28.90625 72 
L 25.703125 70.5 
L 21.703125 59.09375 
L 33.203125 59.09375 
L 37.09375 64.203125 
L 41.703125 58.90625 
Q 42.703125 57.703125 42.703125 57.296875 
Q 42.703125 56.90625 41.296875 56.90625 
L 21 56.90625 
L 12.40625 32.09375 
L 24.203125 32.09375 
L 24.203125 36.09375 
Q 24.203125 44.59375 23.90625 50.5 
L 30.203125 47 
Q 31.09375 46.5 31.09375 46.296875 
Q 31.09375 46.09375 30.5 45.59375 
L 28.5 44 
L 28.5 32.09375 
L 32.09375 32.09375 
L 36.203125 36.703125 
L 40.296875 32.09375 
Q 41.40625 30.796875 41.40625 30.34375 
Q 41.40625 29.90625 39.90625 29.90625 
L 28.5 29.90625 
L 28.5 15.09375 
L 42.296875 17.703125 
z
" id="STSong-8f74"/>
      <path d="M 87.90625 -14.09375 
L 86.703125 -15.59375 
Q 74.59375 -5.203125 68.296875 5.1875 
Q 62 15.59375 62 31.296875 
Q 62 42.90625 68.140625 54.09375 
Q 74.296875 65.296875 86.40625 74.796875 
L 87.90625 73.5 
Q 78.703125 65.40625 73.640625 53.84375 
Q 68.59375 42.296875 68.59375 31.203125 
Q 68.59375 16.796875 73.34375 6.046875 
Q 78.09375 -4.703125 87.90625 -14.09375 
" id="STSong-ff08"/>
      <path d="M 44.5 -0.40625 
Q 40.703125 0 35 0 
Q 29 0 25.40625 -0.40625 
L 25.40625 1.203125 
L 28.796875 2.09375 
Q 31.296875 2.796875 31.296875 4 
Q 31.296875 4.90625 29.796875 6.796875 
L 21.796875 16.90625 
L 14.40625 6.796875 
Q 13.296875 5.40625 13.296875 4.40625 
Q 13.296875 2.59375 17.203125 1.796875 
L 20.203125 1.203125 
L 20.203125 -0.40625 
Q 16.203125 0 12.90625 0 
Q 6.59375 0 1.703125 -0.40625 
L 1.703125 1.203125 
L 4.5 1.90625 
Q 7.203125 2.40625 9.046875 4 
Q 10.90625 5.59375 13.09375 8.59375 
L 20.40625 18.5 
L 10.5 30.5 
Q 6.09375 35.796875 4.59375 36.09375 
L 1.40625 36.796875 
L 1.40625 38.40625 
Q 3.5 38.09375 11.203125 38.09375 
Q 18.59375 38.09375 21.09375 38.40625 
L 21.09375 36.59375 
L 17.5 36.09375 
Q 15.90625 35.796875 15.90625 34.796875 
Q 15.90625 33.40625 18.203125 30.5 
L 24 23.40625 
L 29.59375 30.703125 
Q 30.90625 32.5 30.90625 33.796875 
Q 30.90625 35.796875 28.09375 36.296875 
L 25.09375 36.796875 
L 25.09375 38.40625 
Q 28 38 32.09375 38.046875 
Q 36.203125 38.09375 37.59375 38.09375 
Q 41.703125 38.09375 43 38.40625 
L 43 36.796875 
L 39.703125 36.203125 
Q 37.40625 35.703125 35.59375 34.453125 
Q 33.796875 33.203125 31.59375 30.203125 
L 25.296875 21.703125 
L 37.296875 6.203125 
Q 40.09375 2.796875 41.703125 2.203125 
L 44.5 1.203125 
z
" id="STSong-78"/>
      <path d="M 10.90625 74.5 
Q 22.90625 65.203125 28.953125 53.953125 
Q 35 42.703125 35 30.40625 
Q 35 4.203125 11.5 -14.703125 
L 10 -13.203125 
Q 18.90625 -4.703125 23.546875 6.640625 
Q 28.203125 18 28.203125 30.40625 
Q 28.203125 55.59375 9.703125 73 
z
" id="STSong-ff09"/>
     </defs>
     <g transform="translate(197.904687 271.32125)scale(0.2 -0.2)">
      <use xlink:href="#STSong-6a2a"/>
      <use x="99.999985" xlink:href="#STSong-8f74"/>
      <use x="199.999969" xlink:href="#STSong-ff08"/>
      <use x="299.999954" xlink:href="#STSong-78"/>
      <use x="345.799942" xlink:href="#STSong-ff09"/>
     </g>
    </g>
   </g>
   <g id="matplotlib.axis_2">
    <g id="ytick_1">
     <g id="line2d_4">
      <defs>
       <path d="M 0 0 
L -3.5 0 
" id="m4a6ccff817" style="stroke:#000000;stroke-width:0.8;"/>
      </defs>
      <g>
       <use style="stroke:#000000;stroke-width:0.8;" x="75.084375" xlink:href="#m4a6ccff817" y="218.256364"/>
      </g>
     </g>
     <g id="text_5">
      <!-- −1.0 -->
      <defs>
       <path d="M 7.09375 33.296875 
L 59.59375 33.296875 
L 59.59375 29 
L 7.09375 29 
z
" id="STSong-2212"/>
       <path d="M 35.5 -0.296875 
Q 30.296875 0 23.796875 0 
Q 17.296875 0 12.09375 -0.296875 
L 12.09375 1.296875 
L 17.296875 2.203125 
Q 20.796875 2.90625 20.796875 6.09375 
L 20.796875 55.5 
L 8.90625 47.796875 
L 7.5 49.703125 
Q 14.40625 54.203125 24.09375 63.5 
L 27.40625 63.5 
L 27.40625 6.09375 
Q 27.40625 2.703125 30.90625 2.09375 
L 35.5 1.296875 
z
" id="STSong-31"/>
       <path d="M 11 -1.59375 
Q 8.796875 -1.59375 7.296875 -0.09375 
Q 5.796875 1.40625 5.796875 3.59375 
Q 5.796875 5.796875 7.296875 7.296875 
Q 8.796875 8.796875 11 8.796875 
Q 13.203125 8.796875 14.703125 7.296875 
Q 16.203125 5.796875 16.203125 3.59375 
Q 16.203125 1.40625 14.703125 -0.09375 
Q 13.203125 -1.59375 11 -1.59375 
" id="STSong-2e"/>
      </defs>
      <g transform="translate(31.6 224.856364)scale(0.2 -0.2)">
       <use xlink:href="#STSong-2212"/>
       <use x="66.699997" xlink:href="#STSong-31"/>
       <use x="113.599991" xlink:href="#STSong-2e"/>
       <use x="135.499985" xlink:href="#STSong-30"/>
      </g>
     </g>
    </g>
    <g id="ytick_2">
     <g id="line2d_5">
      <g>
       <use style="stroke:#000000;stroke-width:0.8;" x="75.084375" xlink:href="#m4a6ccff817" y="168.838182"/>
      </g>
     </g>
     <g id="text_6">
      <!-- −0.5 -->
      <defs>
       <path d="M 38 56.59375 
L 24 56.59375 
Q 16.203125 56.59375 15.40625 56.296875 
L 14.09375 38 
Q 18.5 40.09375 23.09375 40.09375 
Q 31.296875 40.09375 37 34.5 
Q 42.703125 28.90625 42.703125 19.90625 
Q 42.703125 9.90625 35.640625 4.15625 
Q 28.59375 -1.59375 19.59375 -1.59375 
Q 14.59375 -1.59375 10.390625 0.15625 
Q 6.203125 1.90625 6.203125 4 
Q 6.203125 5 7.09375 6.046875 
Q 8 7.09375 9.59375 7.09375 
Q 10.703125 7.09375 11.40625 6.59375 
Q 18.40625 1.296875 22.703125 1.296875 
Q 28.296875 1.296875 32.59375 6.140625 
Q 36.90625 11 36.90625 17.59375 
Q 36.90625 24.59375 32.546875 29.25 
Q 28.203125 33.90625 21.796875 33.90625 
Q 19 33.90625 16.546875 33 
Q 14.09375 32.09375 13 30.5 
L 11.296875 30.5 
L 13.203125 62.5 
L 24.09375 62.5 
Q 31.59375 62.5 34 62.703125 
Q 36.40625 62.90625 37.40625 64.203125 
L 38.90625 64.203125 
z
" id="STSong-35"/>
      </defs>
      <g transform="translate(31.6 175.438182)scale(0.2 -0.2)">
       <use xlink:href="#STSong-2212"/>
       <use x="66.699997" xlink:href="#STSong-30"/>
       <use x="113.599991" xlink:href="#STSong-2e"/>
       <use x="135.499985" xlink:href="#STSong-35"/>
      </g>
     </g>
    </g>
    <g id="ytick_3">
     <g id="line2d_6">
      <g>
       <use style="stroke:#000000;stroke-width:0.8;" x="75.084375" xlink:href="#m4a6ccff817" y="119.42"/>
      </g>
     </g>
     <g id="text_7">
      <!-- 0.0 -->
      <g transform="translate(44.940625 126.02)scale(0.2 -0.2)">
       <use xlink:href="#STSong-30"/>
       <use x="46.899994" xlink:href="#STSong-2e"/>
       <use x="68.799988" xlink:href="#STSong-30"/>
      </g>
     </g>
    </g>
    <g id="ytick_4">
     <g id="line2d_7">
      <g>
       <use style="stroke:#000000;stroke-width:0.8;" x="75.084375" xlink:href="#m4a6ccff817" y="70.001818"/>
      </g>
     </g>
     <g id="text_8">
      <!-- 0.5 -->
      <g transform="translate(44.940625 76.601818)scale(0.2 -0.2)">
       <use xlink:href="#STSong-30"/>
       <use x="46.899994" xlink:href="#STSong-2e"/>
       <use x="68.799988" xlink:href="#STSong-35"/>
      </g>
     </g>
    </g>
    <g id="ytick_5">
     <g id="line2d_8">
      <g>
       <use style="stroke:#000000;stroke-width:0.8;" x="75.084375" xlink:href="#m4a6ccff817" y="20.583636"/>
      </g>
     </g>
     <g id="text_9">
      <!-- 1.0 -->
      <g transform="translate(44.940625 27.183636)scale(0.2 -0.2)">
       <use xlink:href="#STSong-31"/>
       <use x="46.899994" xlink:href="#STSong-2e"/>
       <use x="68.799988" xlink:href="#STSong-30"/>
      </g>
     </g>
    </g>
    <g id="text_10">
     <!-- 纵轴（y） -->
     <defs>
      <path d="M 50.59375 39.09375 
Q 65.59375 30.203125 65.59375 23.40625 
Q 65.59375 21.703125 64.75 20.59375 
Q 63.90625 19.5 63 19.5 
Q 60.703125 19.5 59.890625 22.953125 
Q 59.09375 26.40625 56.59375 30.453125 
Q 54.09375 34.5 50.5 37.59375 
Q 48.796875 19 42.296875 7 
Q 35.796875 -5 22.296875 -15.59375 
L 21.59375 -14.5 
Q 28.90625 -7.59375 34.09375 0.09375 
Q 39.296875 7.796875 42.4375 17.890625 
Q 45.59375 28 46.390625 43 
Q 47.203125 58 47.203125 65.703125 
Q 47.203125 73.40625 47 75.90625 
L 54.5 72.296875 
Q 55.203125 72 55.203125 71.703125 
Q 55.203125 71.40625 54.5 70.796875 
L 52.203125 69 
Q 51.59375 52.09375 50.59375 39.09375 
M 38.90625 55.796875 
Q 39.703125 55.296875 39.703125 54.9375 
Q 39.703125 54.59375 38.296875 54.140625 
Q 36.90625 53.703125 36.09375 53.09375 
Q 35.296875 52.5 34.203125 50.703125 
Q 26.5 38.703125 12.703125 21.59375 
L 38.40625 24.5 
L 38.59375 23.203125 
Q 15.90625 18.5 11.203125 15.59375 
Q 10.703125 15.296875 10.390625 15.296875 
Q 10.09375 15.296875 9.703125 15.90625 
L 6.296875 21.703125 
Q 9.296875 22.5 11.1875 23.890625 
Q 13.09375 25.296875 16.59375 30 
Q 20.09375 34.703125 24.90625 43 
Q 11.796875 40.203125 8.40625 37.796875 
Q 8 37.5 7.640625 37.5 
Q 7.296875 37.5 6.90625 38 
L 3.203125 43.09375 
Q 6.5 44.296875 8.640625 47 
Q 10.796875 49.703125 15.5 59.59375 
Q 20.203125 69.5 21.796875 75.203125 
L 27.796875 71.5 
Q 28.59375 71.09375 28.59375 70.75 
Q 28.59375 70.40625 27.140625 69.796875 
Q 25.703125 69.203125 25.25 68.796875 
Q 24.796875 68.40625 24.09375 67.203125 
L 17.5 56.796875 
Q 11.59375 47.703125 8.703125 43.40625 
L 25.703125 44.40625 
Q 30.59375 52.796875 33.203125 59.796875 
z
M 97.703125 -7.90625 
L 97.40625 -8.59375 
Q 91.703125 -8.59375 89.703125 -9.59375 
Q 89.203125 -9.796875 88.90625 -9.796875 
Q 87.40625 -9.796875 82.09375 1.546875 
Q 76.796875 12.90625 75.203125 37.796875 
Q 73.09375 17.296875 65.84375 4.4375 
Q 58.59375 -8.40625 44.203125 -17.796875 
L 43.59375 -16.703125 
Q 56.5 -5.59375 62.296875 5.546875 
Q 68.09375 16.703125 69.84375 31.296875 
Q 71.59375 45.90625 72 74.703125 
L 79.796875 71.296875 
Q 80.5 71 80.5 70.703125 
Q 80.5 70.40625 79.796875 69.796875 
L 77.203125 67.703125 
Q 77.203125 63.09375 76.5 53.203125 
L 75.796875 44.203125 
Q 75.796875 40.59375 77.640625 31.140625 
Q 79.5 21.703125 81.34375 16.09375 
Q 83.203125 10.5 85.59375 6.046875 
Q 88 1.59375 91 -1.84375 
Q 94 -5.296875 97.703125 -7.90625 
M 36.296875 6.09375 
L 20.796875 0.90625 
Q 17.203125 -0.296875 14.046875 -1.84375 
Q 10.90625 -3.40625 10.15625 -4.09375 
Q 9.40625 -4.796875 9.046875 -4.796875 
Q 8.703125 -4.796875 8.40625 -4.40625 
L 4.296875 1.09375 
L 36 7.296875 
z
" id="STSong-7eb5"/>
      <path d="M 0.296875 38.59375 
Q 6.59375 38.09375 10.296875 38.09375 
Q 16.203125 38.09375 20.40625 38.59375 
L 20.40625 37 
L 14.296875 35.796875 
Q 12.796875 35.5 12.796875 34.40625 
Q 12.796875 34 13.09375 33.09375 
L 23.203125 4.59375 
L 32.5 30.40625 
Q 33 31.703125 33 32.796875 
Q 33 35.203125 31.203125 35.59375 
L 25.59375 37 
L 25.59375 38.59375 
Q 30.09375 38.09375 34.09375 38.09375 
Q 37.59375 38.09375 42.59375 38.59375 
L 42.59375 37 
L 39.40625 36.09375 
Q 38 35.703125 37 34.453125 
Q 36 33.203125 34.59375 29.40625 
L 17.703125 -15.203125 
Q 16 -19.90625 13.5 -22.296875 
Q 11 -24.703125 8.203125 -24.703125 
Q 3.90625 -24.703125 3.90625 -21.5 
Q 3.90625 -17.90625 7.59375 -17.90625 
Q 8.90625 -17.90625 10.703125 -18.296875 
Q 11.5 -18.5 12 -18.5 
Q 12.796875 -18.5 13.34375 -18 
Q 13.90625 -17.5 15.59375 -14.546875 
Q 17.296875 -11.59375 18.546875 -8.09375 
Q 19.796875 -4.59375 19.796875 -3.5 
Q 19.796875 -1.796875 18.796875 0.796875 
L 6.59375 33.09375 
Q 5.796875 35.40625 4 35.90625 
L 0.296875 37 
z
" id="STSong-79"/>
     </defs>
     <g transform="translate(22.459375 163.590312)rotate(-90)scale(0.2 -0.2)">
      <use xlink:href="#STSong-7eb5"/>
      <use x="99.999985" xlink:href="#STSong-8f74"/>
      <use x="199.999969" xlink:href="#STSong-ff08"/>
      <use x="299.999954" xlink:href="#STSong-79"/>
      <use x="341.699951" xlink:href="#STSong-ff09"/>
     </g>
    </g>
   </g>
   <g id="line2d_9">
    <path clip-path="url(#pccd8ef3c66)" d="M 90.302557 119.42 
L 96.402028 88.877884 
L 99.451764 74.54923 
L 102.5015 61.325443 
L 104.941289 51.761853 
L 106.77113 45.28175 
L 108.600972 39.459702 
L 110.430813 34.347388 
L 112.260655 29.990184 
L 113.480549 27.524273 
L 114.700444 25.421032 
L 115.920338 23.688762 
L 117.140232 22.3343 
L 118.360127 21.362991 
L 119.580021 20.778667 
L 120.799915 20.583636 
L 122.01981 20.778667 
L 123.239704 21.362991 
L 124.459598 22.3343 
L 125.679493 23.688762 
L 126.899387 25.421032 
L 128.119281 27.524273 
L 129.339176 29.990184 
L 131.169017 34.347388 
L 132.998859 39.459702 
L 134.8287 45.28175 
L 136.658542 51.761853 
L 139.09833 61.325443 
L 141.538119 71.805219 
L 144.587855 85.940376 
L 148.857485 107.032519 
L 158.006692 152.899624 
L 161.056428 167.034781 
L 163.496217 177.514557 
L 165.936006 187.078147 
L 167.765847 193.55825 
L 169.595689 199.380298 
L 171.42553 204.492612 
L 173.255372 208.849816 
L 174.475266 211.315727 
L 175.69516 213.418968 
L 176.915055 215.151238 
L 178.134949 216.5057 
L 179.354843 217.477009 
L 180.574738 218.061333 
L 181.794632 218.256364 
L 183.014526 218.061333 
L 184.234421 217.477009 
L 185.454315 216.5057 
L 186.674209 215.151238 
L 187.894104 213.418968 
L 189.113998 211.315727 
L 190.333892 208.849816 
L 192.163734 204.492612 
L 193.993575 199.380298 
L 195.823417 193.55825 
L 197.653258 187.078147 
L 200.093047 177.514557 
L 202.532836 167.034781 
L 205.582571 152.899624 
L 209.852202 131.807481 
L 219.001409 85.940376 
L 222.051145 71.805219 
L 224.490934 61.325443 
L 226.930722 51.761853 
L 228.760564 45.28175 
L 230.590405 39.459702 
L 232.420247 34.347388 
L 234.250088 29.990184 
L 235.469983 27.524273 
L 236.689877 25.421032 
L 237.909771 23.688762 
L 239.129666 22.3343 
L 240.34956 21.362991 
L 241.569454 20.778667 
L 242.789349 20.583636 
L 244.009243 20.778667 
L 245.229137 21.362991 
L 246.449032 22.3343 
L 247.668926 23.688762 
L 248.88882 25.421032 
L 250.108715 27.524273 
L 251.328609 29.990184 
L 253.15845 34.347388 
L 254.988292 39.459702 
L 256.818133 45.28175 
L 258.647975 51.761853 
L 261.087764 61.325443 
L 263.527552 71.805219 
L 266.577288 85.940376 
L 270.846918 107.032519 
L 279.996126 152.899624 
L 283.045862 167.034781 
L 285.48565 177.514557 
L 287.925439 187.078147 
L 289.75528 193.55825 
L 291.585122 199.380298 
L 293.414963 204.492612 
L 295.244805 208.849816 
L 296.464699 211.315727 
L 297.684594 213.418968 
L 298.904488 215.151238 
L 300.124382 216.5057 
L 301.344277 217.477009 
L 302.564171 218.061333 
L 303.784065 218.256364 
L 305.00396 218.061333 
L 306.223854 217.477009 
L 307.443748 216.5057 
L 308.663643 215.151238 
L 309.883537 213.418968 
L 311.103431 211.315727 
L 312.323326 208.849816 
L 314.153167 204.492612 
L 315.983009 199.380298 
L 317.81285 193.55825 
L 319.642692 187.078147 
L 322.08248 177.514557 
L 324.522269 167.034781 
L 327.572005 152.899624 
L 331.841635 131.807481 
L 340.990842 85.940376 
L 344.040578 71.805219 
L 346.480367 61.325443 
L 348.920156 51.761853 
L 350.749997 45.28175 
L 352.579839 39.459702 
L 354.40968 34.347388 
L 356.239522 29.990184 
L 357.459416 27.524273 
L 358.67931 25.421032 
L 359.899205 23.688762 
L 361.119099 22.3343 
L 362.338993 21.362991 
L 363.558888 20.778667 
L 364.778782 20.583636 
L 365.998676 20.778667 
L 367.218571 21.362991 
L 368.438465 22.3343 
L 369.658359 23.688762 
L 370.878254 25.421032 
L 372.098148 27.524273 
L 373.318042 29.990184 
L 375.147884 34.347388 
L 376.977725 39.459702 
L 378.807567 45.28175 
L 380.637408 51.761853 
L 383.077197 61.325443 
L 385.516986 71.805219 
L 388.566722 85.940376 
L 392.836352 107.032519 
L 394.666193 116.315475 
L 394.666193 116.315475 
" style="fill:none;stroke:#1f77b4;stroke-dasharray:5.6,2.4;stroke-dashoffset:0;stroke-width:1.5;"/>
   </g>
   <g id="patch_3">
    <path d="M 75.084375 228.14 
L 75.084375 10.7 
" style="fill:none;stroke:#000000;stroke-linecap:square;stroke-linejoin:miter;stroke-width:0.8;"/>
   </g>
   <g id="patch_4">
    <path d="M 409.884375 228.14 
L 409.884375 10.7 
" style="fill:none;stroke:#000000;stroke-linecap:square;stroke-linejoin:miter;stroke-width:0.8;"/>
   </g>
   <g id="patch_5">
    <path d="M 75.084375 228.14 
L 409.884375 228.14 
" style="fill:none;stroke:#000000;stroke-linecap:square;stroke-linejoin:miter;stroke-width:0.8;"/>
   </g>
   <g id="patch_6">
    <path d="M 75.084375 10.7 
L 409.884375 10.7 
" style="fill:none;stroke:#000000;stroke-linecap:square;stroke-linejoin:miter;stroke-width:0.8;"/>
   </g>
  </g>
 </g>
 <defs>
  <clipPath id="pccd8ef3c66">
   <rect height="217.44" width="334.8" x="75.084375" y="10.7"/>
  </clipPath>
 </defs>
</svg>
