<?xml version="1.0" encoding="utf-8" standalone="no"?>
<!DOCTYPE svg PUBLIC "-//W3C//DTD SVG 1.1//EN"
  "http://www.w3.org/Graphics/SVG/1.1/DTD/svg11.dtd">
<!-- Created with matplotlib (http://matplotlib.org/) -->
<svg height="283pt" version="1.1" viewBox="0 0 419 283" width="419pt" xmlns="http://www.w3.org/2000/svg" xmlns:xlink="http://www.w3.org/1999/xlink">
 <defs>
  <style type="text/css">
*{stroke-linecap:butt;stroke-linejoin:round;}
  </style>
 </defs>
 <g id="figure_1">
  <g id="patch_1">
   <path d="M 0 283.118125 
L 419.090625 283.118125 
L 419.090625 0 
L 0 0 
z
" style="fill:none;"/>
  </g>
  <g id="axes_1">
   <g id="patch_2">
    <path d="M 73.590625 228.14 
L 408.390625 228.14 
L 408.390625 10.7 
L 73.590625 10.7 
z
" style="fill:#ffffff;"/>
   </g>
   <g id="matplotlib.axis_1">
    <g id="xtick_1">
     <g id="line2d_1">
      <defs>
       <path d="M 0 0 
L 0 3.5 
" id="m317fe31bfe" style="stroke:#000000;stroke-width:0.8;"/>
      </defs>
      <g>
       <use style="stroke:#000000;stroke-width:0.8;" x="88.808807" xlink:href="#m317fe31bfe" y="228.14"/>
      </g>
     </g>
     <g id="text_1">
      <!-- 0 -->
      <defs>
       <path d="M 23.703125 63.5 
Q 32 63.5 38.046875 54.140625 
Q 44.09375 44.796875 44.09375 30.90625 
Q 44.09375 17.09375 38.046875 7.75 
Q 32 -1.59375 23.703125 -1.59375 
Q 15.703125 -1.59375 9.5 7.65625 
Q 3.296875 16.90625 3.296875 30.90625 
Q 3.296875 44.796875 9.34375 54.140625 
Q 15.40625 63.5 23.703125 63.5 
M 23.703125 0.703125 
Q 31.09375 0.703125 33.9375 8.046875 
Q 36.796875 15.40625 36.796875 30.90625 
Q 36.796875 46.40625 33.9375 53.796875 
Q 31.09375 61.203125 23.703125 61.203125 
Q 16.296875 61.203125 13.4375 53.796875 
Q 10.59375 46.40625 10.59375 30.90625 
Q 10.59375 0.703125 23.703125 0.703125 
" id="STSong-30"/>
      </defs>
      <g transform="translate(84.118182 248.34)scale(0.2 -0.2)">
       <use xlink:href="#STSong-30"/>
      </g>
     </g>
    </g>
    <g id="xtick_2">
     <g id="line2d_2">
      <g>
       <use style="stroke:#000000;stroke-width:0.8;" x="211.784013" xlink:href="#m317fe31bfe" y="228.14"/>
      </g>
     </g>
     <g id="text_2">
      <!-- 2 -->
      <defs>
       <path d="M 42.59375 -0.296875 
Q 35.40625 0 22.203125 0 
Q 9.296875 0 2.203125 -0.296875 
Q 4.09375 3.59375 7 7.09375 
Q 9.90625 10.59375 16.296875 17 
Q 25.59375 26.296875 29.890625 32.84375 
Q 34.203125 39.40625 34.203125 46.09375 
Q 34.203125 51.59375 30.75 55 
Q 27.296875 58.40625 22.203125 58.40625 
Q 17.203125 58.40625 13.09375 54.953125 
Q 9 51.5 7.40625 45.203125 
L 5.09375 45.59375 
Q 6.703125 54.09375 11.796875 58.796875 
Q 16.90625 63.5 24.203125 63.5 
Q 31.5 63.5 36.59375 58.640625 
Q 41.703125 53.796875 41.703125 47 
Q 41.703125 40.203125 36.953125 34.25 
Q 32.203125 28.296875 22.59375 19.40625 
Q 17.5 14.703125 9.90625 5.296875 
L 33.40625 5.296875 
Q 37.203125 5.296875 38.75 6.640625 
Q 40.296875 8 42 12.5 
L 44.09375 12.5 
z
" id="STSong-32"/>
      </defs>
      <g transform="translate(207.093388 248.34)scale(0.2 -0.2)">
       <use xlink:href="#STSong-32"/>
      </g>
     </g>
    </g>
    <g id="xtick_3">
     <g id="line2d_3">
      <g>
       <use style="stroke:#000000;stroke-width:0.8;" x="334.75922" xlink:href="#m317fe31bfe" y="228.14"/>
      </g>
     </g>
     <g id="text_3">
      <!-- 4 -->
      <defs>
       <path d="M 32.59375 63.5 
L 35 63.5 
L 35 22 
L 45.59375 22 
L 45.59375 17.40625 
L 35 17.40625 
L 35 -1.59375 
L 28.40625 -1.59375 
L 28.40625 17.40625 
L 2.796875 17.40625 
L 2.796875 20.703125 
L 14.703125 38.09375 
z
M 28.40625 22 
L 28.40625 52.703125 
Q 14.796875 33.796875 7.59375 22 
z
" id="STSong-34"/>
      </defs>
      <g transform="translate(330.068595 248.34)scale(0.2 -0.2)">
       <use xlink:href="#STSong-34"/>
      </g>
     </g>
    </g>
    <g id="text_4">
     <!-- 横轴（x） -->
     <defs>
      <path d="M 74.609375 69.921875 
Q 84.765625 69.921875 89.453125 70.3125 
L 89.453125 64.0625 
Q 84.375 64.453125 74.609375 64.453125 
L 74.609375 53.515625 
L 83.203125 53.515625 
Q 89.453125 53.515625 94.53125 53.90625 
L 94.53125 47.65625 
Q 89.0625 48.046875 83.203125 48.046875 
L 65.234375 48.046875 
L 65.234375 41.40625 
L 86.328125 41.40625 
Q 85.9375 35.9375 85.9375 25.390625 
Q 85.9375 15.234375 86.328125 9.765625 
L 39.0625 9.765625 
Q 39.453125 14.0625 39.453125 25 
Q 39.453125 35.9375 39.0625 41.40625 
L 58.59375 41.40625 
L 58.59375 48.046875 
L 44.53125 48.046875 
Q 39.0625 48.046875 35.15625 47.65625 
L 35.15625 53.90625 
Q 39.453125 53.515625 44.53125 53.515625 
L 50 53.515625 
L 50 64.453125 
Q 43.359375 64.453125 37.890625 64.0625 
L 37.890625 70.3125 
Q 43.75 69.921875 50 69.921875 
Q 50 75.78125 49.609375 79.6875 
L 56.640625 79.6875 
Q 56.25 76.171875 56.25 69.921875 
L 68.359375 69.921875 
Q 68.359375 76.5625 67.96875 80.46875 
L 75 80.46875 
Q 74.609375 76.953125 74.609375 69.921875 
z
M 17.1875 69.140625 
Q 17.1875 73.4375 16.796875 79.6875 
L 24.21875 79.6875 
Q 23.828125 74.609375 23.828125 69.140625 
L 23.828125 59.375 
Q 27.734375 59.375 32.8125 59.765625 
L 32.8125 53.125 
Q 27.734375 53.515625 23.828125 53.515625 
L 23.828125 36.328125 
Q 26.171875 38.28125 27.734375 40.234375 
Q 31.640625 35.15625 35.9375 29.296875 
Q 33.59375 27.734375 30.46875 25 
Q 26.5625 31.25 23.828125 34.375 
L 23.828125 3.515625 
Q 23.828125 -3.90625 24.21875 -9.765625 
L 16.796875 -9.765625 
Q 17.1875 -4.296875 17.1875 3.515625 
L 17.1875 35.546875 
Q 15.625 29.6875 13.28125 24.796875 
Q 10.9375 19.921875 7.8125 14.453125 
Q 5.859375 17.96875 2.734375 21.875 
Q 8.203125 28.515625 11.328125 36.328125 
Q 14.453125 44.140625 16.015625 53.515625 
Q 10.15625 53.515625 5.859375 53.125 
L 5.859375 59.765625 
Q 10.15625 59.375 17.1875 59.375 
z
M 72.265625 8.984375 
Q 76.5625 6.640625 81.4375 3.90625 
Q 86.328125 1.171875 92.1875 -2.734375 
Q 89.0625 -6.640625 87.5 -9.375 
Q 78.125 -2.734375 75.96875 -1.5625 
Q 73.828125 -0.390625 68.359375 2.34375 
Q 70.703125 5.078125 72.265625 8.984375 
z
M 57.421875 2.34375 
Q 52.734375 0 47.453125 -3.703125 
Q 42.1875 -7.421875 36.328125 -10.15625 
Q 34.765625 -6.25 32.421875 -3.515625 
Q 37.890625 -1.171875 41.796875 1.171875 
Q 45.703125 3.515625 51.5625 8.59375 
Q 54.296875 5.46875 57.421875 2.34375 
z
M 68.359375 53.515625 
L 68.359375 64.453125 
L 56.25 64.453125 
L 56.25 53.515625 
z
M 79.6875 15.234375 
L 79.6875 23.046875 
L 65.234375 23.046875 
L 65.234375 15.234375 
z
M 79.6875 28.125 
L 79.6875 35.9375 
L 65.234375 35.9375 
L 65.234375 28.125 
z
M 58.59375 28.125 
L 58.59375 35.9375 
L 45.703125 35.9375 
L 45.703125 28.125 
z
M 58.59375 15.234375 
L 58.59375 23.046875 
L 45.703125 23.046875 
L 45.703125 15.234375 
z
" id="SimHei-6a2a"/>
      <path d="M 65.625 60.9375 
Q 65.625 74.609375 65.234375 80.859375 
L 73.4375 80.859375 
Q 73.046875 75 73.046875 60.9375 
L 92.96875 60.9375 
Q 92.578125 47.265625 92.578125 26.171875 
Q 92.578125 5.078125 92.96875 -8.203125 
L 85.15625 -8.203125 
L 85.15625 1.5625 
L 53.515625 1.5625 
L 53.515625 -8.984375 
L 46.09375 -8.984375 
Q 46.484375 5.078125 46.484375 26.171875 
Q 46.484375 47.265625 46.09375 60.9375 
L 65.625 60.9375 
z
M 42.578125 14.84375 
Q 35.15625 14.0625 32.421875 13.671875 
Q 32.421875 3.125 32.8125 -9.375 
L 24.609375 -9.375 
Q 25 3.125 25 12.5 
Q 10.9375 10.15625 7.03125 8.984375 
Q 6.25 12.5 4.296875 16.796875 
Q 10.9375 17.1875 25 19.53125 
L 25 32.421875 
L 17.1875 32.421875 
Q 13.28125 32.421875 8.203125 31.25 
L 4.6875 38.671875 
Q 8.203125 40.625 10.9375 47.265625 
Q 13.671875 53.90625 16.015625 61.328125 
Q 10.9375 61.328125 5.078125 60.9375 
L 5.078125 67.96875 
Q 10.9375 67.578125 17.578125 67.578125 
Q 20.3125 75.390625 21.484375 82.03125 
Q 25.390625 80.46875 30.078125 79.6875 
Q 28.515625 76.953125 25 67.578125 
Q 33.984375 67.578125 42.96875 67.96875 
L 42.96875 60.9375 
Q 34.375 61.328125 23.046875 61.328125 
Q 17.96875 46.875 14.453125 38.671875 
L 25 38.671875 
Q 25 47.65625 24.609375 53.125 
L 32.8125 53.125 
Q 32.421875 48.4375 32.421875 38.671875 
Q 37.890625 38.671875 41.015625 39.0625 
L 41.015625 32.03125 
Q 38.28125 32.421875 32.421875 32.421875 
L 32.421875 20.3125 
L 43.359375 21.875 
Q 42.578125 18.359375 42.578125 14.84375 
z
M 65.625 8.203125 
L 65.625 28.90625 
L 53.515625 28.90625 
L 53.515625 8.203125 
z
M 85.15625 8.203125 
L 85.15625 28.90625 
L 73.046875 28.90625 
L 73.046875 8.203125 
z
M 65.625 35.15625 
L 65.625 54.296875 
L 53.515625 54.296875 
L 53.515625 35.15625 
z
M 85.15625 35.15625 
L 85.15625 54.296875 
L 73.046875 54.296875 
L 73.046875 35.15625 
z
" id="SimHei-8f74"/>
      <path d="M 84.765625 79.6875 
L 89.0625 74.609375 
Q 66.796875 58.203125 67.578125 36.71875 
Q 67.96875 16.015625 88.671875 0.78125 
L 84.375 -4.296875 
Q 60.546875 12.890625 61.328125 39.0625 
Q 61.328125 60.546875 84.765625 79.6875 
" id="SimHei-ff08"/>
      <path d="M 44.921875 1.953125 
L 35.546875 1.953125 
L 24.21875 18.75 
L 12.890625 1.953125 
L 3.515625 1.953125 
L 19.53125 24.21875 
L 4.6875 45.703125 
L 14.0625 45.703125 
L 24.21875 29.296875 
L 34.375 45.703125 
L 43.75 45.703125 
L 28.90625 24.21875 
z
" id="SimHei-78"/>
      <path d="M 15.625 79.6875 
Q 39.0625 60.546875 39.0625 39.0625 
Q 39.84375 12.890625 16.015625 -4.296875 
L 11.71875 0.78125 
Q 32.421875 16.015625 32.8125 36.71875 
Q 33.59375 58.203125 11.328125 74.609375 
L 15.625 79.6875 
z
" id="SimHei-ff09"/>
     </defs>
     <g transform="translate(195.990625 273.418125)scale(0.2 -0.2)">
      <use xlink:href="#SimHei-6a2a"/>
      <use x="100" xlink:href="#SimHei-8f74"/>
      <use x="200" xlink:href="#SimHei-ff08"/>
      <use x="300" xlink:href="#SimHei-78"/>
      <use x="350" xlink:href="#SimHei-ff09"/>
     </g>
    </g>
   </g>
   <g id="matplotlib.axis_2">
    <g id="ytick_1">
     <g id="line2d_4">
      <defs>
       <path d="M 0 0 
L -3.5 0 
" id="mff30c6aa7a" style="stroke:#000000;stroke-width:0.8;"/>
      </defs>
      <g>
       <use style="stroke:#000000;stroke-width:0.8;" x="73.590625" xlink:href="#mff30c6aa7a" y="218.256364"/>
      </g>
     </g>
     <g id="text_5">
      <!-- −1.0 -->
      <defs>
       <path d="M 7.09375 33.296875 
L 59.59375 33.296875 
L 59.59375 29 
L 7.09375 29 
z
" id="STSong-2212"/>
       <path d="M 35.5 -0.296875 
Q 30.296875 0 23.796875 0 
Q 17.296875 0 12.09375 -0.296875 
L 12.09375 1.296875 
L 17.296875 2.203125 
Q 20.796875 2.90625 20.796875 6.09375 
L 20.796875 55.5 
L 8.90625 47.796875 
L 7.5 49.703125 
Q 14.40625 54.203125 24.09375 63.5 
L 27.40625 63.5 
L 27.40625 6.09375 
Q 27.40625 2.703125 30.90625 2.09375 
L 35.5 1.296875 
z
" id="STSong-31"/>
       <path d="M 11 -1.59375 
Q 8.796875 -1.59375 7.296875 -0.09375 
Q 5.796875 1.40625 5.796875 3.59375 
Q 5.796875 5.796875 7.296875 7.296875 
Q 8.796875 8.796875 11 8.796875 
Q 13.203125 8.796875 14.703125 7.296875 
Q 16.203125 5.796875 16.203125 3.59375 
Q 16.203125 1.40625 14.703125 -0.09375 
Q 13.203125 -1.59375 11 -1.59375 
" id="STSong-2e"/>
      </defs>
      <g transform="translate(30.10625 224.856364)scale(0.2 -0.2)">
       <use xlink:href="#STSong-2212"/>
       <use x="66.699997" xlink:href="#STSong-31"/>
       <use x="113.599991" xlink:href="#STSong-2e"/>
       <use x="135.499985" xlink:href="#STSong-30"/>
      </g>
     </g>
    </g>
    <g id="ytick_2">
     <g id="line2d_5">
      <g>
       <use style="stroke:#000000;stroke-width:0.8;" x="73.590625" xlink:href="#mff30c6aa7a" y="168.838182"/>
      </g>
     </g>
     <g id="text_6">
      <!-- −0.5 -->
      <defs>
       <path d="M 38 56.59375 
L 24 56.59375 
Q 16.203125 56.59375 15.40625 56.296875 
L 14.09375 38 
Q 18.5 40.09375 23.09375 40.09375 
Q 31.296875 40.09375 37 34.5 
Q 42.703125 28.90625 42.703125 19.90625 
Q 42.703125 9.90625 35.640625 4.15625 
Q 28.59375 -1.59375 19.59375 -1.59375 
Q 14.59375 -1.59375 10.390625 0.15625 
Q 6.203125 1.90625 6.203125 4 
Q 6.203125 5 7.09375 6.046875 
Q 8 7.09375 9.59375 7.09375 
Q 10.703125 7.09375 11.40625 6.59375 
Q 18.40625 1.296875 22.703125 1.296875 
Q 28.296875 1.296875 32.59375 6.140625 
Q 36.90625 11 36.90625 17.59375 
Q 36.90625 24.59375 32.546875 29.25 
Q 28.203125 33.90625 21.796875 33.90625 
Q 19 33.90625 16.546875 33 
Q 14.09375 32.09375 13 30.5 
L 11.296875 30.5 
L 13.203125 62.5 
L 24.09375 62.5 
Q 31.59375 62.5 34 62.703125 
Q 36.40625 62.90625 37.40625 64.203125 
L 38.90625 64.203125 
z
" id="STSong-35"/>
      </defs>
      <g transform="translate(30.10625 175.438182)scale(0.2 -0.2)">
       <use xlink:href="#STSong-2212"/>
       <use x="66.699997" xlink:href="#STSong-30"/>
       <use x="113.599991" xlink:href="#STSong-2e"/>
       <use x="135.499985" xlink:href="#STSong-35"/>
      </g>
     </g>
    </g>
    <g id="ytick_3">
     <g id="line2d_6">
      <g>
       <use style="stroke:#000000;stroke-width:0.8;" x="73.590625" xlink:href="#mff30c6aa7a" y="119.42"/>
      </g>
     </g>
     <g id="text_7">
      <!-- 0.0 -->
      <g transform="translate(43.446875 126.02)scale(0.2 -0.2)">
       <use xlink:href="#STSong-30"/>
       <use x="46.899994" xlink:href="#STSong-2e"/>
       <use x="68.799988" xlink:href="#STSong-30"/>
      </g>
     </g>
    </g>
    <g id="ytick_4">
     <g id="line2d_7">
      <g>
       <use style="stroke:#000000;stroke-width:0.8;" x="73.590625" xlink:href="#mff30c6aa7a" y="70.001818"/>
      </g>
     </g>
     <g id="text_8">
      <!-- 0.5 -->
      <g transform="translate(43.446875 76.601818)scale(0.2 -0.2)">
       <use xlink:href="#STSong-30"/>
       <use x="46.899994" xlink:href="#STSong-2e"/>
       <use x="68.799988" xlink:href="#STSong-35"/>
      </g>
     </g>
    </g>
    <g id="ytick_5">
     <g id="line2d_8">
      <g>
       <use style="stroke:#000000;stroke-width:0.8;" x="73.590625" xlink:href="#mff30c6aa7a" y="20.583636"/>
      </g>
     </g>
     <g id="text_9">
      <!-- 1.0 -->
      <g transform="translate(43.446875 27.183636)scale(0.2 -0.2)">
       <use xlink:href="#STSong-31"/>
       <use x="46.899994" xlink:href="#STSong-2e"/>
       <use x="68.799988" xlink:href="#STSong-30"/>
      </g>
     </g>
    </g>
    <g id="text_10">
     <!-- 纵轴（y） -->
     <defs>
      <path d="M 78.125 77.734375 
Q 77.734375 71.875 77.53125 61.328125 
Q 77.34375 50.78125 78.90625 39.25 
Q 80.46875 27.734375 85.34375 16.015625 
Q 90.234375 4.296875 96.875 -1.171875 
Q 93.359375 -3.515625 90.234375 -8.59375 
Q 85.9375 -3.90625 81.828125 4.296875 
Q 77.734375 12.5 74.21875 28.125 
Q 71.09375 11.71875 65.234375 2.140625 
Q 59.375 -7.421875 57.03125 -9.765625 
Q 53.125 -6.640625 49.609375 -5.46875 
Q 57.03125 1.171875 61.71875 11.125 
Q 66.40625 21.09375 67.96875 31.640625 
Q 69.53125 42.1875 69.53125 53.90625 
Q 69.53125 65.625 69.140625 78.515625 
L 78.125 77.734375 
z
M 53.125 78.90625 
Q 52.34375 71.484375 52.34375 64.0625 
Q 52.34375 56.640625 51.953125 40.234375 
Q 60.15625 30.859375 64.84375 24.21875 
Q 61.328125 21.09375 58.984375 17.96875 
Q 55.078125 26.171875 50.78125 31.640625 
Q 48.4375 14.84375 44.53125 6.046875 
Q 40.625 -2.734375 36.328125 -9.375 
Q 33.59375 -6.640625 28.515625 -5.46875 
Q 35.15625 2.734375 38.671875 12.296875 
Q 42.1875 21.875 43.75 32.8125 
Q 45.3125 43.75 45.109375 55.65625 
Q 44.921875 67.578125 44.53125 79.6875 
Q 49.609375 78.90625 53.125 78.90625 
z
M 7.8125 25 
Q 12.109375 28.125 15.03125 32.21875 
Q 17.96875 36.328125 21.875 43.359375 
Q 19.140625 43.359375 15.421875 42.578125 
Q 11.71875 41.796875 8.59375 40.625 
Q 7.421875 44.53125 5.46875 48.828125 
Q 9.375 51.5625 13.28125 60.9375 
Q 17.1875 70.3125 19.140625 80.46875 
Q 23.4375 78.515625 27.734375 77.34375 
Q 25.390625 72.265625 22.265625 66.015625 
Q 19.140625 59.765625 14.0625 49.21875 
Q 21.484375 49.21875 25 49.609375 
Q 28.90625 57.03125 30.859375 63.28125 
Q 33.984375 60.546875 38.28125 58.203125 
Q 35.15625 53.515625 31.046875 45.890625 
Q 26.953125 38.28125 18.359375 26.171875 
Q 22.65625 27.34375 36.328125 29.296875 
L 36.328125 22.65625 
Q 29.6875 21.875 23.828125 20.703125 
Q 17.96875 19.53125 11.328125 16.796875 
Q 9.765625 21.484375 7.8125 25 
z
M 5.859375 5.46875 
Q 10.9375 6.640625 17.96875 8.78125 
Q 25 10.9375 35.15625 14.453125 
Q 35.15625 11.328125 35.9375 7.421875 
Q 29.296875 6.25 22.0625 3.3125 
Q 14.84375 0.390625 9.765625 -2.34375 
Q 7.8125 2.34375 5.859375 5.46875 
z
" id="SimHei-7eb5"/>
      <path d="M 45.3125 45.703125 
L 27.34375 -1.5625 
Q 25.78125 -7.03125 22.65625 -9.765625 
Q 19.53125 -12.5 14.84375 -12.5 
Q 12.890625 -12.5 11.125 -12.296875 
Q 9.375 -12.109375 7.8125 -11.328125 
L 7.8125 -3.515625 
Q 9.375 -4.296875 10.9375 -4.6875 
Q 12.5 -5.078125 13.671875 -5.078125 
Q 16.796875 -5.078125 17.96875 -4.09375 
Q 19.140625 -3.125 20.3125 0.390625 
L 3.125 45.703125 
L 11.71875 45.703125 
L 24.21875 11.328125 
L 24.609375 11.328125 
L 36.71875 45.703125 
z
" id="SimHei-79"/>
     </defs>
     <g transform="translate(23.60625 164.42)rotate(-90)scale(0.2 -0.2)">
      <use xlink:href="#SimHei-7eb5"/>
      <use x="100" xlink:href="#SimHei-8f74"/>
      <use x="200" xlink:href="#SimHei-ff08"/>
      <use x="300" xlink:href="#SimHei-79"/>
      <use x="350" xlink:href="#SimHei-ff09"/>
     </g>
    </g>
   </g>
   <g id="line2d_9">
    <defs>
     <path d="M -3 0 
L 3 0 
M 0 3 
L 0 -3 
" id="m8805b14648" style="stroke:#ff0000;"/>
    </defs>
    <g clip-path="url(#p0ad621ccfb)">
     <use style="fill:#ff0000;stroke:#ff0000;" x="88.808807" xlink:href="#m8805b14648" y="119.42"/>
     <use style="fill:#ff0000;stroke:#ff0000;" x="91.883187" xlink:href="#m8805b14648" y="103.958586"/>
     <use style="fill:#ff0000;stroke:#ff0000;" x="94.957567" xlink:href="#m8805b14648" y="88.877884"/>
     <use style="fill:#ff0000;stroke:#ff0000;" x="98.031947" xlink:href="#m8805b14648" y="74.54923"/>
     <use style="fill:#ff0000;stroke:#ff0000;" x="101.106327" xlink:href="#m8805b14648" y="61.325443"/>
     <use style="fill:#ff0000;stroke:#ff0000;" x="104.180708" xlink:href="#m8805b14648" y="49.532137"/>
     <use style="fill:#ff0000;stroke:#ff0000;" x="107.255088" xlink:href="#m8805b14648" y="39.459702"/>
     <use style="fill:#ff0000;stroke:#ff0000;" x="110.329468" xlink:href="#m8805b14648" y="31.356155"/>
     <use style="fill:#ff0000;stroke:#ff0000;" x="113.403848" xlink:href="#m8805b14648" y="25.421032"/>
     <use style="fill:#ff0000;stroke:#ff0000;" x="116.478228" xlink:href="#m8805b14648" y="21.800476"/>
     <use style="fill:#ff0000;stroke:#ff0000;" x="119.552608" xlink:href="#m8805b14648" y="20.583636"/>
     <use style="fill:#ff0000;stroke:#ff0000;" x="122.626989" xlink:href="#m8805b14648" y="21.800476"/>
     <use style="fill:#ff0000;stroke:#ff0000;" x="125.701369" xlink:href="#m8805b14648" y="25.421032"/>
     <use style="fill:#ff0000;stroke:#ff0000;" x="128.775749" xlink:href="#m8805b14648" y="31.356155"/>
     <use style="fill:#ff0000;stroke:#ff0000;" x="131.850129" xlink:href="#m8805b14648" y="39.459702"/>
     <use style="fill:#ff0000;stroke:#ff0000;" x="134.924509" xlink:href="#m8805b14648" y="49.532137"/>
     <use style="fill:#ff0000;stroke:#ff0000;" x="137.998889" xlink:href="#m8805b14648" y="61.325443"/>
     <use style="fill:#ff0000;stroke:#ff0000;" x="141.07327" xlink:href="#m8805b14648" y="74.54923"/>
     <use style="fill:#ff0000;stroke:#ff0000;" x="144.14765" xlink:href="#m8805b14648" y="88.877884"/>
     <use style="fill:#ff0000;stroke:#ff0000;" x="147.22203" xlink:href="#m8805b14648" y="103.958586"/>
     <use style="fill:#ff0000;stroke:#ff0000;" x="150.29641" xlink:href="#m8805b14648" y="119.42"/>
     <use style="fill:#ff0000;stroke:#ff0000;" x="153.37079" xlink:href="#m8805b14648" y="134.881414"/>
     <use style="fill:#ff0000;stroke:#ff0000;" x="156.44517" xlink:href="#m8805b14648" y="149.962116"/>
     <use style="fill:#ff0000;stroke:#ff0000;" x="159.519551" xlink:href="#m8805b14648" y="164.29077"/>
     <use style="fill:#ff0000;stroke:#ff0000;" x="162.593931" xlink:href="#m8805b14648" y="177.514557"/>
     <use style="fill:#ff0000;stroke:#ff0000;" x="165.668311" xlink:href="#m8805b14648" y="189.307863"/>
     <use style="fill:#ff0000;stroke:#ff0000;" x="168.742691" xlink:href="#m8805b14648" y="199.380298"/>
     <use style="fill:#ff0000;stroke:#ff0000;" x="171.817071" xlink:href="#m8805b14648" y="207.483845"/>
     <use style="fill:#ff0000;stroke:#ff0000;" x="174.891451" xlink:href="#m8805b14648" y="213.418968"/>
     <use style="fill:#ff0000;stroke:#ff0000;" x="177.965832" xlink:href="#m8805b14648" y="217.039524"/>
     <use style="fill:#ff0000;stroke:#ff0000;" x="181.040212" xlink:href="#m8805b14648" y="218.256364"/>
     <use style="fill:#ff0000;stroke:#ff0000;" x="184.114592" xlink:href="#m8805b14648" y="217.039524"/>
     <use style="fill:#ff0000;stroke:#ff0000;" x="187.188972" xlink:href="#m8805b14648" y="213.418968"/>
     <use style="fill:#ff0000;stroke:#ff0000;" x="190.263352" xlink:href="#m8805b14648" y="207.483845"/>
     <use style="fill:#ff0000;stroke:#ff0000;" x="193.337732" xlink:href="#m8805b14648" y="199.380298"/>
     <use style="fill:#ff0000;stroke:#ff0000;" x="196.412113" xlink:href="#m8805b14648" y="189.307863"/>
     <use style="fill:#ff0000;stroke:#ff0000;" x="199.486493" xlink:href="#m8805b14648" y="177.514557"/>
     <use style="fill:#ff0000;stroke:#ff0000;" x="202.560873" xlink:href="#m8805b14648" y="164.29077"/>
     <use style="fill:#ff0000;stroke:#ff0000;" x="205.635253" xlink:href="#m8805b14648" y="149.962116"/>
     <use style="fill:#ff0000;stroke:#ff0000;" x="208.709633" xlink:href="#m8805b14648" y="134.881414"/>
     <use style="fill:#ff0000;stroke:#ff0000;" x="211.784013" xlink:href="#m8805b14648" y="119.42"/>
     <use style="fill:#ff0000;stroke:#ff0000;" x="214.858394" xlink:href="#m8805b14648" y="103.958586"/>
     <use style="fill:#ff0000;stroke:#ff0000;" x="217.932774" xlink:href="#m8805b14648" y="88.877884"/>
     <use style="fill:#ff0000;stroke:#ff0000;" x="221.007154" xlink:href="#m8805b14648" y="74.54923"/>
     <use style="fill:#ff0000;stroke:#ff0000;" x="224.081534" xlink:href="#m8805b14648" y="61.325443"/>
     <use style="fill:#ff0000;stroke:#ff0000;" x="227.155914" xlink:href="#m8805b14648" y="49.532137"/>
     <use style="fill:#ff0000;stroke:#ff0000;" x="230.230294" xlink:href="#m8805b14648" y="39.459702"/>
     <use style="fill:#ff0000;stroke:#ff0000;" x="233.304675" xlink:href="#m8805b14648" y="31.356155"/>
     <use style="fill:#ff0000;stroke:#ff0000;" x="236.379055" xlink:href="#m8805b14648" y="25.421032"/>
     <use style="fill:#ff0000;stroke:#ff0000;" x="239.453435" xlink:href="#m8805b14648" y="21.800476"/>
     <use style="fill:#ff0000;stroke:#ff0000;" x="242.527815" xlink:href="#m8805b14648" y="20.583636"/>
     <use style="fill:#ff0000;stroke:#ff0000;" x="245.602195" xlink:href="#m8805b14648" y="21.800476"/>
     <use style="fill:#ff0000;stroke:#ff0000;" x="248.676575" xlink:href="#m8805b14648" y="25.421032"/>
     <use style="fill:#ff0000;stroke:#ff0000;" x="251.750956" xlink:href="#m8805b14648" y="31.356155"/>
     <use style="fill:#ff0000;stroke:#ff0000;" x="254.825336" xlink:href="#m8805b14648" y="39.459702"/>
     <use style="fill:#ff0000;stroke:#ff0000;" x="257.899716" xlink:href="#m8805b14648" y="49.532137"/>
     <use style="fill:#ff0000;stroke:#ff0000;" x="260.974096" xlink:href="#m8805b14648" y="61.325443"/>
     <use style="fill:#ff0000;stroke:#ff0000;" x="264.048476" xlink:href="#m8805b14648" y="74.54923"/>
     <use style="fill:#ff0000;stroke:#ff0000;" x="267.122856" xlink:href="#m8805b14648" y="88.877884"/>
     <use style="fill:#ff0000;stroke:#ff0000;" x="270.197237" xlink:href="#m8805b14648" y="103.958586"/>
     <use style="fill:#ff0000;stroke:#ff0000;" x="273.271617" xlink:href="#m8805b14648" y="119.42"/>
     <use style="fill:#ff0000;stroke:#ff0000;" x="276.345997" xlink:href="#m8805b14648" y="134.881414"/>
     <use style="fill:#ff0000;stroke:#ff0000;" x="279.420377" xlink:href="#m8805b14648" y="149.962116"/>
     <use style="fill:#ff0000;stroke:#ff0000;" x="282.494757" xlink:href="#m8805b14648" y="164.29077"/>
     <use style="fill:#ff0000;stroke:#ff0000;" x="285.569137" xlink:href="#m8805b14648" y="177.514557"/>
     <use style="fill:#ff0000;stroke:#ff0000;" x="288.643518" xlink:href="#m8805b14648" y="189.307863"/>
     <use style="fill:#ff0000;stroke:#ff0000;" x="291.717898" xlink:href="#m8805b14648" y="199.380298"/>
     <use style="fill:#ff0000;stroke:#ff0000;" x="294.792278" xlink:href="#m8805b14648" y="207.483845"/>
     <use style="fill:#ff0000;stroke:#ff0000;" x="297.866658" xlink:href="#m8805b14648" y="213.418968"/>
     <use style="fill:#ff0000;stroke:#ff0000;" x="300.941038" xlink:href="#m8805b14648" y="217.039524"/>
     <use style="fill:#ff0000;stroke:#ff0000;" x="304.015418" xlink:href="#m8805b14648" y="218.256364"/>
     <use style="fill:#ff0000;stroke:#ff0000;" x="307.089799" xlink:href="#m8805b14648" y="217.039524"/>
     <use style="fill:#ff0000;stroke:#ff0000;" x="310.164179" xlink:href="#m8805b14648" y="213.418968"/>
     <use style="fill:#ff0000;stroke:#ff0000;" x="313.238559" xlink:href="#m8805b14648" y="207.483845"/>
     <use style="fill:#ff0000;stroke:#ff0000;" x="316.312939" xlink:href="#m8805b14648" y="199.380298"/>
     <use style="fill:#ff0000;stroke:#ff0000;" x="319.387319" xlink:href="#m8805b14648" y="189.307863"/>
     <use style="fill:#ff0000;stroke:#ff0000;" x="322.461699" xlink:href="#m8805b14648" y="177.514557"/>
     <use style="fill:#ff0000;stroke:#ff0000;" x="325.53608" xlink:href="#m8805b14648" y="164.29077"/>
     <use style="fill:#ff0000;stroke:#ff0000;" x="328.61046" xlink:href="#m8805b14648" y="149.962116"/>
     <use style="fill:#ff0000;stroke:#ff0000;" x="331.68484" xlink:href="#m8805b14648" y="134.881414"/>
     <use style="fill:#ff0000;stroke:#ff0000;" x="334.75922" xlink:href="#m8805b14648" y="119.42"/>
     <use style="fill:#ff0000;stroke:#ff0000;" x="337.8336" xlink:href="#m8805b14648" y="103.958586"/>
     <use style="fill:#ff0000;stroke:#ff0000;" x="340.90798" xlink:href="#m8805b14648" y="88.877884"/>
     <use style="fill:#ff0000;stroke:#ff0000;" x="343.982361" xlink:href="#m8805b14648" y="74.54923"/>
     <use style="fill:#ff0000;stroke:#ff0000;" x="347.056741" xlink:href="#m8805b14648" y="61.325443"/>
     <use style="fill:#ff0000;stroke:#ff0000;" x="350.131121" xlink:href="#m8805b14648" y="49.532137"/>
     <use style="fill:#ff0000;stroke:#ff0000;" x="353.205501" xlink:href="#m8805b14648" y="39.459702"/>
     <use style="fill:#ff0000;stroke:#ff0000;" x="356.279881" xlink:href="#m8805b14648" y="31.356155"/>
     <use style="fill:#ff0000;stroke:#ff0000;" x="359.354261" xlink:href="#m8805b14648" y="25.421032"/>
     <use style="fill:#ff0000;stroke:#ff0000;" x="362.428642" xlink:href="#m8805b14648" y="21.800476"/>
     <use style="fill:#ff0000;stroke:#ff0000;" x="365.503022" xlink:href="#m8805b14648" y="20.583636"/>
     <use style="fill:#ff0000;stroke:#ff0000;" x="368.577402" xlink:href="#m8805b14648" y="21.800476"/>
     <use style="fill:#ff0000;stroke:#ff0000;" x="371.651782" xlink:href="#m8805b14648" y="25.421032"/>
     <use style="fill:#ff0000;stroke:#ff0000;" x="374.726162" xlink:href="#m8805b14648" y="31.356155"/>
     <use style="fill:#ff0000;stroke:#ff0000;" x="377.800542" xlink:href="#m8805b14648" y="39.459702"/>
     <use style="fill:#ff0000;stroke:#ff0000;" x="380.874923" xlink:href="#m8805b14648" y="49.532137"/>
     <use style="fill:#ff0000;stroke:#ff0000;" x="383.949303" xlink:href="#m8805b14648" y="61.325443"/>
     <use style="fill:#ff0000;stroke:#ff0000;" x="387.023683" xlink:href="#m8805b14648" y="74.54923"/>
     <use style="fill:#ff0000;stroke:#ff0000;" x="390.098063" xlink:href="#m8805b14648" y="88.877884"/>
     <use style="fill:#ff0000;stroke:#ff0000;" x="393.172443" xlink:href="#m8805b14648" y="103.958586"/>
    </g>
   </g>
   <g id="patch_3">
    <path d="M 73.590625 228.14 
L 73.590625 10.7 
" style="fill:none;stroke:#000000;stroke-linecap:square;stroke-linejoin:miter;stroke-width:0.8;"/>
   </g>
   <g id="patch_4">
    <path d="M 408.390625 228.14 
L 408.390625 10.7 
" style="fill:none;stroke:#000000;stroke-linecap:square;stroke-linejoin:miter;stroke-width:0.8;"/>
   </g>
   <g id="patch_5">
    <path d="M 73.590625 228.14 
L 408.390625 228.14 
" style="fill:none;stroke:#000000;stroke-linecap:square;stroke-linejoin:miter;stroke-width:0.8;"/>
   </g>
   <g id="patch_6">
    <path d="M 73.590625 10.7 
L 408.390625 10.7 
" style="fill:none;stroke:#000000;stroke-linecap:square;stroke-linejoin:miter;stroke-width:0.8;"/>
   </g>
  </g>
 </g>
 <defs>
  <clipPath id="p0ad621ccfb">
   <rect height="217.44" width="334.8" x="73.590625" y="10.7"/>
  </clipPath>
 </defs>
</svg>
