<?xml version="1.0" encoding="utf-8" standalone="no"?>
<!DOCTYPE svg PUBLIC "-//W3C//DTD SVG 1.1//EN"
  "http://www.w3.org/Graphics/SVG/1.1/DTD/svg11.dtd">
<!-- Created with matplotlib (http://matplotlib.org/) -->
<svg height="271pt" version="1.1" viewBox="0 0 292 271" width="292pt" xmlns="http://www.w3.org/2000/svg" xmlns:xlink="http://www.w3.org/1999/xlink">
 <defs>
  <style type="text/css">
*{stroke-linecap:butt;stroke-linejoin:round;}
  </style>
 </defs>
 <g id="figure_1">
  <g id="patch_1">
   <path d="M 0 271.924625 
L 292.3465 271.924625 
L 292.3465 0 
L 0 0 
z
" style="fill:none;"/>
  </g>
  <g id="axes_1">
   <g id="patch_2">
    <path d="M 150.863875 244.682313 
C 179.696756 244.682313 207.352599 233.226887 227.740524 212.838962 
C 248.12845 192.451036 259.583875 164.795194 259.583875 135.962313 
C 259.583875 107.129431 248.12845 79.473589 227.740524 59.085663 
C 207.352599 38.697738 179.696756 27.242313 150.863875 27.242313 
C 122.030994 27.242313 94.375151 38.697738 73.987226 59.085663 
C 53.5993 79.473589 42.143875 107.129431 42.143875 135.962313 
C 42.143875 164.795194 53.5993 192.451036 73.987226 212.838962 
C 94.375151 233.226887 122.030994 244.682313 150.863875 244.682313 
z
" style="fill:#ffffff;"/>
   </g>
   <g id="patch_3">
    <path clip-path="url(#p25d21291bf)" d="M 150.863875 135.962313 
L 150.863875 135.962313 
L 150.863875 135.962313 
L 150.863875 135.962313 
L 150.863875 135.962313 
L 150.863875 135.962313 
L 150.863875 135.962313 
L 150.863875 135.962313 
L 150.863875 135.962313 
L 150.863875 135.962313 
L 150.863875 135.962313 
L 150.863875 135.962313 
L 150.863875 135.962313 
L 150.863875 135.962313 
L 150.863875 135.962313 
L 150.863875 135.962313 
L 150.863875 135.962313 
L 150.863875 135.962313 
L 150.863875 135.962313 
L 150.863875 135.962313 
L 150.863875 135.962313 
L 150.863875 135.962313 
L 150.863875 135.962313 
L 150.863875 135.962313 
L 150.863875 135.962313 
L 150.863875 135.962313 
L 150.863875 135.962313 
L 150.863875 135.962313 
L 150.863875 135.962313 
L 150.863875 135.962313 
L 150.863875 135.962313 
L 150.863875 135.962313 
L 150.863875 135.962313 
L 150.863875 135.962313 
L 150.863875 135.962313 
L 150.863875 135.962313 
L 150.863875 135.962313 
L 150.863875 135.962313 
L 150.863875 135.962313 
L 150.863875 135.962313 
L 150.863875 135.962313 
L 150.863875 135.962313 
L 150.863875 135.962313 
L 150.863875 135.962313 
L 150.863875 135.962313 
L 150.863875 135.962313 
L 150.863875 135.962313 
L 150.863875 135.962313 
L 150.863875 135.962313 
L 150.863875 135.962313 
L 150.863875 135.962313 
L 150.863875 135.962313 
L 150.863875 135.962313 
L 150.863875 135.962313 
L 150.863875 135.962313 
L 150.863875 135.962313 
L 150.863875 135.962313 
L 150.863875 135.962313 
L 150.863875 135.962313 
L 150.863875 135.962313 
L 150.863875 135.962313 
L 150.863875 135.962313 
L 150.863875 135.962313 
L 150.863875 135.962313 
L 150.863875 135.962313 
L 150.863875 135.962313 
L 150.863875 135.962313 
L 150.863875 135.962313 
L 150.863875 135.962313 
L 150.863875 135.962313 
L 150.863875 135.962313 
L 150.863875 135.962313 
L 150.863875 135.962313 
L 150.863875 135.962313 
L 150.863875 135.962313 
L 150.863875 135.962313 
L 150.863875 135.962313 
L 150.863875 135.962313 
L 150.863875 135.962313 
L 150.863875 135.962313 
L 150.863875 135.962313 
L 150.863875 135.962313 
L 150.863875 135.962313 
L 150.863875 135.962313 
L 150.863875 135.962313 
L 150.863875 135.962313 
L 150.863875 135.962313 
L 150.863875 135.962313 
L 150.863875 135.962313 
L 150.863875 135.962313 
L 150.863875 135.962313 
L 150.863875 135.962313 
L 150.863875 135.962313 
L 150.863875 135.962313 
L 150.863875 135.962313 
L 150.863875 135.962313 
L 150.863875 135.962313 
L 150.863875 135.962313 
L 150.863875 135.962313 
L 150.863875 135.962313 
L 150.863875 135.962313 
L 151.817568 135.559098 
L 152.771261 135.155883 
L 153.724954 134.752668 
L 154.678646 134.349453 
L 155.632339 133.946238 
L 156.586032 133.543023 
L 157.539725 133.139808 
L 158.493418 132.736593 
L 159.447111 132.333379 
L 160.400804 131.930164 
L 161.354497 131.526949 
L 162.308189 131.123734 
L 163.261882 130.720519 
L 164.215575 130.317304 
L 165.169268 129.914089 
L 166.122961 129.510874 
L 167.076654 129.10766 
L 168.030347 128.704445 
L 168.98404 128.30123 
L 169.937732 127.898015 
L 170.891425 127.4948 
L 171.845118 127.091585 
L 172.798811 126.68837 
L 173.752504 126.285155 
L 174.706197 125.881941 
L 175.65989 125.478726 
L 176.613582 125.075511 
L 177.567275 124.672296 
L 178.520968 124.269081 
L 179.474661 123.865866 
L 180.428354 123.462651 
L 181.382047 123.059436 
L 182.33574 122.656222 
L 183.289433 122.253007 
L 184.243125 121.849792 
L 185.196818 121.446577 
L 186.150511 121.043362 
L 187.104204 120.640147 
L 188.057897 120.236932 
L 189.01159 119.833717 
L 189.965283 119.430503 
L 190.918976 119.027288 
L 191.872668 118.624073 
L 192.826361 118.220858 
L 193.780054 117.817643 
L 194.733747 117.414428 
L 195.68744 117.011213 
L 196.641133 116.607998 
L 197.594826 116.204783 
L 198.548518 115.801569 
L 199.502211 115.398354 
L 200.455904 114.995139 
L 201.409597 114.591924 
L 202.36329 114.188709 
L 203.316983 113.785494 
L 204.270676 113.382279 
L 205.224369 112.979064 
L 206.178061 112.57585 
L 207.131754 112.172635 
L 208.085447 111.76942 
L 209.03914 111.366205 
L 209.992833 110.96299 
L 210.946526 110.559775 
L 211.900219 110.15656 
L 212.853911 109.753345 
L 213.807604 109.350131 
L 214.761297 108.946916 
L 215.71499 108.543701 
L 216.668683 108.140486 
L 217.622376 107.737271 
L 218.576069 107.334056 
L 219.529762 106.930841 
L 220.483454 106.527626 
L 221.437147 106.124412 
L 222.39084 105.721197 
L 223.344533 105.317982 
L 224.298226 104.914767 
L 225.251919 104.511552 
L 226.205612 104.108337 
L 227.159305 103.705122 
L 228.112997 103.301907 
L 229.06669 102.898693 
L 230.020383 102.495478 
L 230.974076 102.092263 
L 231.927769 101.689048 
L 232.881462 101.285833 
L 233.835155 100.882618 
L 234.788847 100.479403 
L 235.74254 100.076188 
L 236.696233 99.672973 
L 237.649926 99.269759 
L 238.603619 98.866544 
L 239.557312 98.463329 
L 240.511005 98.060114 
L 241.464698 97.656899 
L 242.41839 97.253684 
L 243.372083 96.850469 
L 244.325776 96.447254 
L 245.279469 96.04404 
L 246.233162 95.640825 
L 246.552679 96.405061 
L 246.866071 97.171829 
L 247.17332 97.94108 
L 247.474404 98.712764 
L 247.769306 99.486832 
L 248.058006 100.263234 
L 248.340485 101.041921 
L 248.616726 101.822843 
L 248.886711 102.60595 
L 249.150422 103.391192 
L 249.407843 104.178518 
L 249.658958 104.967879 
L 249.903749 105.759223 
L 250.142202 106.5525 
L 250.374301 107.347659 
L 250.600031 108.14465 
L 250.819379 108.943421 
L 251.032329 109.743921 
L 251.238869 110.546099 
L 251.438984 111.349903 
L 251.632663 112.155283 
L 251.819893 112.962187 
L 252.000661 113.770562 
L 252.174957 114.580358 
L 252.342769 115.391522 
L 252.504086 116.204003 
L 252.658898 117.017748 
L 252.807196 117.832706 
L 252.948969 118.648824 
L 253.084209 119.46605 
L 253.212906 120.284332 
L 253.335054 121.103617 
L 253.450643 121.923853 
L 253.559667 122.744988 
L 253.662118 123.566969 
L 253.75799 124.389742 
L 253.847277 125.213257 
L 253.929973 126.037459 
L 254.006073 126.862297 
L 254.075572 127.687717 
L 254.138465 128.513666 
L 254.194749 129.340093 
L 254.244419 130.166943 
L 254.287474 130.994164 
L 254.323909 131.821703 
L 254.353723 132.649507 
L 254.376913 133.477522 
L 254.393479 134.305697 
L 254.403419 135.133978 
L 254.406732 135.962313 
L 254.403419 136.790647 
L 254.393479 137.618928 
L 254.376913 138.447103 
L 254.353723 139.275118 
L 254.323909 140.102922 
L 254.287474 140.930461 
L 254.244419 141.757682 
L 254.194749 142.584532 
L 254.138465 143.410959 
L 254.075572 144.236908 
L 254.006073 145.062328 
L 253.929973 145.887166 
L 253.847277 146.711368 
L 253.75799 147.534883 
L 253.662118 148.357656 
L 253.559667 149.179637 
L 253.450643 150.000772 
L 253.335054 150.821008 
L 253.212906 151.640293 
L 253.084209 152.458575 
L 252.948969 153.275801 
L 252.807196 154.091919 
L 252.658898 154.906877 
L 252.504086 155.720622 
L 252.342769 156.533103 
L 252.174957 157.344267 
L 252.000661 158.154063 
L 251.819893 158.962438 
L 251.632663 159.769342 
L 251.438984 160.574722 
L 251.238869 161.378526 
L 251.032329 162.180704 
L 250.819379 162.981204 
L 250.600031 163.779975 
L 250.374301 164.576966 
L 250.142202 165.372125 
L 249.903749 166.165402 
L 249.658958 166.956746 
L 249.407843 167.746107 
L 249.150422 168.533433 
L 248.886711 169.318675 
L 248.616726 170.101782 
L 248.340485 170.882704 
L 248.058006 171.661391 
L 247.769306 172.437793 
L 247.474404 173.211861 
L 247.17332 173.983545 
L 246.866071 174.752796 
L 246.552679 175.519564 
L 246.233162 176.2838 
L 245.279469 175.880585 
L 244.325776 175.477371 
L 243.372083 175.074156 
L 242.41839 174.670941 
L 241.464698 174.267726 
L 240.511005 173.864511 
L 239.557312 173.461296 
L 238.603619 173.058081 
L 237.649926 172.654866 
L 236.696233 172.251652 
L 235.74254 171.848437 
L 234.788847 171.445222 
L 233.835155 171.042007 
L 232.881462 170.638792 
L 231.927769 170.235577 
L 230.974076 169.832362 
L 230.020383 169.429147 
L 229.06669 169.025932 
L 228.112997 168.622718 
L 227.159305 168.219503 
L 226.205612 167.816288 
L 225.251919 167.413073 
L 224.298226 167.009858 
L 223.344533 166.606643 
L 222.39084 166.203428 
L 221.437147 165.800213 
L 220.483454 165.396999 
L 219.529762 164.993784 
L 218.576069 164.590569 
L 217.622376 164.187354 
L 216.668683 163.784139 
L 215.71499 163.380924 
L 214.761297 162.977709 
L 213.807604 162.574494 
L 212.853911 162.17128 
L 211.900219 161.768065 
L 210.946526 161.36485 
L 209.992833 160.961635 
L 209.03914 160.55842 
L 208.085447 160.155205 
L 207.131754 159.75199 
L 206.178061 159.348775 
L 205.224369 158.945561 
L 204.270676 158.542346 
L 203.316983 158.139131 
L 202.36329 157.735916 
L 201.409597 157.332701 
L 200.455904 156.929486 
L 199.502211 156.526271 
L 198.548518 156.123056 
L 197.594826 155.719842 
L 196.641133 155.316627 
L 195.68744 154.913412 
L 194.733747 154.510197 
L 193.780054 154.106982 
L 192.826361 153.703767 
L 191.872668 153.300552 
L 190.918976 152.897337 
L 189.965283 152.494122 
L 189.01159 152.090908 
L 188.057897 151.687693 
L 187.104204 151.284478 
L 186.150511 150.881263 
L 185.196818 150.478048 
L 184.243125 150.074833 
L 183.289433 149.671618 
L 182.33574 149.268403 
L 181.382047 148.865189 
L 180.428354 148.461974 
L 179.474661 148.058759 
L 178.520968 147.655544 
L 177.567275 147.252329 
L 176.613582 146.849114 
L 175.65989 146.445899 
L 174.706197 146.042684 
L 173.752504 145.63947 
L 172.798811 145.236255 
L 171.845118 144.83304 
L 170.891425 144.429825 
L 169.937732 144.02661 
L 168.98404 143.623395 
L 168.030347 143.22018 
L 167.076654 142.816965 
L 166.122961 142.413751 
L 165.169268 142.010536 
L 164.215575 141.607321 
L 163.261882 141.204106 
L 162.308189 140.800891 
L 161.354497 140.397676 
L 160.400804 139.994461 
L 159.447111 139.591246 
L 158.493418 139.188032 
L 157.539725 138.784817 
L 156.586032 138.381602 
L 155.632339 137.978387 
L 154.678646 137.575172 
L 153.724954 137.171957 
L 152.771261 136.768742 
L 151.817568 136.365527 
z
" style="fill:#fde725;opacity:0.5;"/>
   </g>
   <g id="patch_4">
    <path clip-path="url(#p25d21291bf)" d="M 150.863875 135.962313 
L 150.863875 135.962313 
L 150.863875 135.962313 
L 150.863875 135.962313 
L 150.863875 135.962313 
L 150.863875 135.962313 
L 150.863875 135.962313 
L 150.863875 135.962313 
L 150.863875 135.962313 
L 150.863875 135.962313 
L 150.863875 135.962313 
L 150.863875 135.962313 
L 150.863875 135.962313 
L 150.863875 135.962313 
L 150.863875 135.962313 
L 150.863875 135.962313 
L 150.863875 135.962313 
L 150.863875 135.962313 
L 150.863875 135.962313 
L 150.863875 135.962313 
L 150.863875 135.962313 
L 150.863875 135.962313 
L 150.863875 135.962313 
L 150.863875 135.962313 
L 150.863875 135.962313 
L 150.863875 135.962313 
L 150.863875 135.962313 
L 150.863875 135.962313 
L 150.863875 135.962313 
L 150.863875 135.962313 
L 150.863875 135.962313 
L 150.863875 135.962313 
L 150.863875 135.962313 
L 150.863875 135.962313 
L 150.863875 135.962313 
L 150.863875 135.962313 
L 150.863875 135.962313 
L 150.863875 135.962313 
L 150.863875 135.962313 
L 150.863875 135.962313 
L 150.863875 135.962313 
L 150.863875 135.962313 
L 150.863875 135.962313 
L 150.863875 135.962313 
L 150.863875 135.962313 
L 150.863875 135.962313 
L 150.863875 135.962313 
L 150.863875 135.962313 
L 150.863875 135.962313 
L 150.863875 135.962313 
L 150.863875 135.962313 
L 150.863875 135.962313 
L 150.863875 135.962313 
L 150.863875 135.962313 
L 150.863875 135.962313 
L 150.863875 135.962313 
L 150.863875 135.962313 
L 150.863875 135.962313 
L 150.863875 135.962313 
L 150.863875 135.962313 
L 150.863875 135.962313 
L 150.863875 135.962313 
L 150.863875 135.962313 
L 150.863875 135.962313 
L 150.863875 135.962313 
L 150.863875 135.962313 
L 150.863875 135.962313 
L 150.863875 135.962313 
L 150.863875 135.962313 
L 150.863875 135.962313 
L 150.863875 135.962313 
L 150.863875 135.962313 
L 150.863875 135.962313 
L 150.863875 135.962313 
L 150.863875 135.962313 
L 150.863875 135.962313 
L 150.863875 135.962313 
L 150.863875 135.962313 
L 150.863875 135.962313 
L 150.863875 135.962313 
L 150.863875 135.962313 
L 150.863875 135.962313 
L 150.863875 135.962313 
L 150.863875 135.962313 
L 150.863875 135.962313 
L 150.863875 135.962313 
L 150.863875 135.962313 
L 150.863875 135.962313 
L 150.863875 135.962313 
L 150.863875 135.962313 
L 150.863875 135.962313 
L 150.863875 135.962313 
L 150.863875 135.962313 
L 150.863875 135.962313 
L 150.863875 135.962313 
L 150.863875 135.962313 
L 150.863875 135.962313 
L 150.863875 135.962313 
L 150.863875 135.962313 
L 150.863875 135.962313 
L 150.863875 135.962313 
L 150.969527 135.784205 
L 151.075178 135.606098 
L 151.18083 135.427991 
L 151.286482 135.249883 
L 151.392134 135.071776 
L 151.497785 134.893669 
L 151.603437 134.715561 
L 151.709089 134.537454 
L 151.81474 134.359347 
L 151.920392 134.18124 
L 152.026044 134.003132 
L 152.131696 133.825025 
L 152.237347 133.646918 
L 152.342999 133.46881 
L 152.448651 133.290703 
L 152.554303 133.112596 
L 152.659954 132.934489 
L 152.765606 132.756381 
L 152.871258 132.578274 
L 152.976909 132.400167 
L 153.082561 132.222059 
L 153.188213 132.043952 
L 153.293865 131.865845 
L 153.399516 131.687738 
L 153.505168 131.50963 
L 153.61082 131.331523 
L 153.716471 131.153416 
L 153.822123 130.975308 
L 153.927775 130.797201 
L 154.033427 130.619094 
L 154.139078 130.440986 
L 154.24473 130.262879 
L 154.350382 130.084772 
L 154.456033 129.906665 
L 154.561685 129.728557 
L 154.667337 129.55045 
L 154.772989 129.372343 
L 154.87864 129.194235 
L 154.984292 129.016128 
L 155.089944 128.838021 
L 155.195596 128.659914 
L 155.301247 128.481806 
L 155.406899 128.303699 
L 155.512551 128.125592 
L 155.618202 127.947484 
L 155.723854 127.769377 
L 155.829506 127.59127 
L 155.935158 127.413163 
L 156.040809 127.235055 
L 156.146461 127.056948 
L 156.252113 126.878841 
L 156.357764 126.700733 
L 156.463416 126.522626 
L 156.569068 126.344519 
L 156.67472 126.166411 
L 156.780371 125.988304 
L 156.886023 125.810197 
L 156.991675 125.63209 
L 157.097326 125.453982 
L 157.202978 125.275875 
L 157.30863 125.097768 
L 157.414282 124.91966 
L 157.519933 124.741553 
L 157.625585 124.563446 
L 157.731237 124.385339 
L 157.836889 124.207231 
L 157.94254 124.029124 
L 158.048192 123.851017 
L 158.153844 123.672909 
L 158.259495 123.494802 
L 158.365147 123.316695 
L 158.470799 123.138588 
L 158.576451 122.96048 
L 158.682102 122.782373 
L 158.787754 122.604266 
L 158.893406 122.426158 
L 158.999057 122.248051 
L 159.104709 122.069944 
L 159.210361 121.891837 
L 159.316013 121.713729 
L 159.421664 121.535622 
L 159.527316 121.357515 
L 159.632968 121.179407 
L 159.738619 121.0013 
L 159.844271 120.823193 
L 159.949923 120.645085 
L 160.055575 120.466978 
L 160.161226 120.288871 
L 160.266878 120.110764 
L 160.37253 119.932656 
L 160.478182 119.754549 
L 160.583833 119.576442 
L 160.689485 119.398334 
L 160.795137 119.220227 
L 160.900788 119.04212 
L 161.00644 118.864013 
L 161.112092 118.685905 
L 161.217744 118.507798 
L 161.323395 118.329691 
L 161.429047 118.151583 
L 161.517968 118.204632 
L 161.606623 118.258124 
L 161.695009 118.312059 
L 161.783125 118.366435 
L 161.870967 118.421251 
L 161.958535 118.476505 
L 162.045825 118.532197 
L 162.132835 118.588324 
L 162.219564 118.644886 
L 162.306009 118.701881 
L 162.392168 118.759307 
L 162.478038 118.817163 
L 162.563618 118.875448 
L 162.648906 118.93416 
L 162.733899 118.993298 
L 162.818595 119.05286 
L 162.902993 119.112845 
L 162.987089 119.173251 
L 163.070883 119.234076 
L 163.154371 119.29532 
L 163.237552 119.356981 
L 163.320424 119.419056 
L 163.402984 119.481546 
L 163.485231 119.544447 
L 163.567162 119.607759 
L 163.648776 119.671479 
L 163.73007 119.735607 
L 163.811042 119.800141 
L 163.891691 119.865078 
L 163.972014 119.930418 
L 164.052009 119.996159 
L 164.131674 120.062299 
L 164.211008 120.128837 
L 164.290009 120.19577 
L 164.368673 120.263097 
L 164.447 120.330817 
L 164.524987 120.398928 
L 164.602633 120.467428 
L 164.679936 120.536315 
L 164.756893 120.605588 
L 164.833502 120.675245 
L 164.909763 120.745284 
L 164.985672 120.815703 
L 165.061228 120.886501 
L 165.136429 120.957676 
L 165.211274 121.029226 
L 165.28576 121.101149 
L 165.359885 121.173444 
L 165.433648 121.246109 
L 165.507046 121.319141 
L 165.580079 121.39254 
L 165.652743 121.466303 
L 165.725038 121.540428 
L 165.796962 121.614914 
L 165.868512 121.689758 
L 165.939687 121.764959 
L 166.010485 121.840516 
L 166.080904 121.916425 
L 166.150943 121.992685 
L 166.2206 122.069295 
L 166.289873 122.146252 
L 166.35876 122.223554 
L 166.42726 122.3012 
L 166.49537 122.379187 
L 166.56309 122.457514 
L 166.630418 122.536179 
L 166.697351 122.615179 
L 166.763888 122.694513 
L 166.830028 122.774179 
L 166.895769 122.854174 
L 166.961109 122.934497 
L 167.026047 123.015146 
L 167.09058 123.096118 
L 167.154708 123.177412 
L 167.218429 123.259026 
L 167.281741 123.340957 
L 167.344642 123.423204 
L 167.407131 123.505764 
L 167.469207 123.588635 
L 167.530867 123.671816 
L 167.592111 123.755305 
L 167.652937 123.839098 
L 167.713343 123.923195 
L 167.773328 124.007592 
L 167.83289 124.092288 
L 167.892027 124.177281 
L 167.950739 124.262569 
L 168.009024 124.348149 
L 168.066881 124.43402 
L 168.124307 124.520179 
L 168.181301 124.606624 
L 168.237863 124.693352 
L 168.293991 124.780363 
L 168.349682 124.867653 
L 168.404937 124.95522 
L 168.459753 125.043063 
L 168.514129 125.131178 
L 168.568064 125.219564 
L 168.621556 125.308219 
L 168.674604 125.397141 
L 168.496497 125.502792 
L 168.31839 125.608444 
L 168.140282 125.714096 
L 167.962175 125.819747 
L 167.784068 125.925399 
L 167.60596 126.031051 
L 167.427853 126.136703 
L 167.249746 126.242354 
L 167.071638 126.348006 
L 166.893531 126.453658 
L 166.715424 126.559309 
L 166.537317 126.664961 
L 166.359209 126.770613 
L 166.181102 126.876265 
L 166.002995 126.981916 
L 165.824887 127.087568 
L 165.64678 127.19322 
L 165.468673 127.298871 
L 165.290566 127.404523 
L 165.112458 127.510175 
L 164.934351 127.615827 
L 164.756244 127.721478 
L 164.578136 127.82713 
L 164.400029 127.932782 
L 164.221922 128.038434 
L 164.043815 128.144085 
L 163.865707 128.249737 
L 163.6876 128.355389 
L 163.509493 128.46104 
L 163.331385 128.566692 
L 163.153278 128.672344 
L 162.975171 128.777996 
L 162.797063 128.883647 
L 162.618956 128.989299 
L 162.440849 129.094951 
L 162.262742 129.200602 
L 162.084634 129.306254 
L 161.906527 129.411906 
L 161.72842 129.517558 
L 161.550312 129.623209 
L 161.372205 129.728861 
L 161.194098 129.834513 
L 161.015991 129.940164 
L 160.837883 130.045816 
L 160.659776 130.151468 
L 160.481669 130.25712 
L 160.303561 130.362771 
L 160.125454 130.468423 
L 159.947347 130.574075 
L 159.76924 130.679727 
L 159.591132 130.785378 
L 159.413025 130.89103 
L 159.234918 130.996682 
L 159.05681 131.102333 
L 158.878703 131.207985 
L 158.700596 131.313637 
L 158.522489 131.419289 
L 158.344381 131.52494 
L 158.166274 131.630592 
L 157.988167 131.736244 
L 157.810059 131.841895 
L 157.631952 131.947547 
L 157.453845 132.053199 
L 157.275737 132.158851 
L 157.09763 132.264502 
L 156.919523 132.370154 
L 156.741416 132.475806 
L 156.563308 132.581457 
L 156.385201 132.687109 
L 156.207094 132.792761 
L 156.028986 132.898413 
L 155.850879 133.004064 
L 155.672772 133.109716 
L 155.494665 133.215368 
L 155.316557 133.32102 
L 155.13845 133.426671 
L 154.960343 133.532323 
L 154.782235 133.637975 
L 154.604128 133.743626 
L 154.426021 133.849278 
L 154.247914 133.95493 
L 154.069806 134.060582 
L 153.891699 134.166233 
L 153.713592 134.271885 
L 153.535484 134.377537 
L 153.357377 134.483188 
L 153.17927 134.58884 
L 153.001162 134.694492 
L 152.823055 134.800144 
L 152.644948 134.905795 
L 152.466841 135.011447 
L 152.288733 135.117099 
L 152.110626 135.22275 
L 151.932519 135.328402 
L 151.754411 135.434054 
L 151.576304 135.539706 
L 151.398197 135.645357 
L 151.22009 135.751009 
L 151.041982 135.856661 
z
" style="fill:#414487;opacity:0.5;"/>
   </g>
   <g id="patch_5">
    <path clip-path="url(#p25d21291bf)" d="M 150.863875 135.962313 
L 150.863875 135.962313 
L 150.863875 135.962313 
L 150.863875 135.962313 
L 150.863875 135.962313 
L 150.863875 135.962313 
L 150.863875 135.962313 
L 150.863875 135.962313 
L 150.863875 135.962313 
L 150.863875 135.962313 
L 150.863875 135.962313 
L 150.863875 135.962313 
L 150.863875 135.962313 
L 150.863875 135.962313 
L 150.863875 135.962313 
L 150.863875 135.962313 
L 150.863875 135.962313 
L 150.863875 135.962313 
L 150.863875 135.962313 
L 150.863875 135.962313 
L 150.863875 135.962313 
L 150.863875 135.962313 
L 150.863875 135.962313 
L 150.863875 135.962313 
L 150.863875 135.962313 
L 150.863875 135.962313 
L 150.863875 135.962313 
L 150.863875 135.962313 
L 150.863875 135.962313 
L 150.863875 135.962313 
L 150.863875 135.962313 
L 150.863875 135.962313 
L 150.863875 135.962313 
L 150.863875 135.962313 
L 150.863875 135.962313 
L 150.863875 135.962313 
L 150.863875 135.962313 
L 150.863875 135.962313 
L 150.863875 135.962313 
L 150.863875 135.962313 
L 150.863875 135.962313 
L 150.863875 135.962313 
L 150.863875 135.962313 
L 150.863875 135.962313 
L 150.863875 135.962313 
L 150.863875 135.962313 
L 150.863875 135.962313 
L 150.863875 135.962313 
L 150.863875 135.962313 
L 150.863875 135.962313 
L 150.863875 135.962313 
L 150.863875 135.962313 
L 150.863875 135.962313 
L 150.863875 135.962313 
L 150.863875 135.962313 
L 150.863875 135.962313 
L 150.863875 135.962313 
L 150.863875 135.962313 
L 150.863875 135.962313 
L 150.863875 135.962313 
L 150.863875 135.962313 
L 150.863875 135.962313 
L 150.863875 135.962313 
L 150.863875 135.962313 
L 150.863875 135.962313 
L 150.863875 135.962313 
L 150.863875 135.962313 
L 150.863875 135.962313 
L 150.863875 135.962313 
L 150.863875 135.962313 
L 150.863875 135.962313 
L 150.863875 135.962313 
L 150.863875 135.962313 
L 150.863875 135.962313 
L 150.863875 135.962313 
L 150.863875 135.962313 
L 150.863875 135.962313 
L 150.863875 135.962313 
L 150.863875 135.962313 
L 150.863875 135.962313 
L 150.863875 135.962313 
L 150.863875 135.962313 
L 150.863875 135.962313 
L 150.863875 135.962313 
L 150.863875 135.962313 
L 150.863875 135.962313 
L 150.863875 135.962313 
L 150.863875 135.962313 
L 150.863875 135.962313 
L 150.863875 135.962313 
L 150.863875 135.962313 
L 150.863875 135.962313 
L 150.863875 135.962313 
L 150.863875 135.962313 
L 150.863875 135.962313 
L 150.863875 135.962313 
L 150.863875 135.962313 
L 150.863875 135.962313 
L 150.863875 135.962313 
L 150.863875 135.962313 
L 150.863875 135.962313 
L 150.822527 135.55021 
L 150.781179 135.138108 
L 150.739831 134.726006 
L 150.698482 134.313903 
L 150.657134 133.901801 
L 150.615786 133.489699 
L 150.574438 133.077596 
L 150.53309 132.665494 
L 150.491742 132.253392 
L 150.450394 131.84129 
L 150.409045 131.429187 
L 150.367697 131.017085 
L 150.326349 130.604983 
L 150.285001 130.19288 
L 150.243653 129.780778 
L 150.202305 129.368676 
L 150.160956 128.956573 
L 150.119608 128.544471 
L 150.07826 128.132369 
L 150.036912 127.720267 
L 149.995564 127.308164 
L 149.954216 126.896062 
L 149.912868 126.48396 
L 149.871519 126.071857 
L 149.830171 125.659755 
L 149.788823 125.247653 
L 149.747475 124.83555 
L 149.706127 124.423448 
L 149.664779 124.011346 
L 149.623431 123.599244 
L 149.582082 123.187141 
L 149.540734 122.775039 
L 149.499386 122.362937 
L 149.458038 121.950834 
L 149.41669 121.538732 
L 149.375342 121.12663 
L 149.333993 120.714528 
L 149.292645 120.302425 
L 149.251297 119.890323 
L 149.209949 119.478221 
L 149.168601 119.066118 
L 149.127253 118.654016 
L 149.085905 118.241914 
L 149.044556 117.829811 
L 149.003208 117.417709 
L 148.96186 117.005607 
L 148.920512 116.593505 
L 148.879164 116.181402 
L 148.837816 115.7693 
L 148.796468 115.357198 
L 148.755119 114.945095 
L 148.713771 114.532993 
L 148.672423 114.120891 
L 148.631075 113.708788 
L 148.589727 113.296686 
L 148.548379 112.884584 
L 148.507031 112.472482 
L 148.465682 112.060379 
L 148.424334 111.648277 
L 148.382986 111.236175 
L 148.341638 110.824072 
L 148.30029 110.41197 
L 148.258942 109.999868 
L 148.217593 109.587766 
L 148.176245 109.175663 
L 148.134897 108.763561 
L 148.093549 108.351459 
L 148.052201 107.939356 
L 148.010853 107.527254 
L 147.969505 107.115152 
L 147.928156 106.703049 
L 147.886808 106.290947 
L 147.84546 105.878845 
L 147.804112 105.466743 
L 147.762764 105.05464 
L 147.721416 104.642538 
L 147.680068 104.230436 
L 147.638719 103.818333 
L 147.597371 103.406231 
L 147.556023 102.994129 
L 147.514675 102.582026 
L 147.473327 102.169924 
L 147.431979 101.757822 
L 147.390631 101.34572 
L 147.349282 100.933617 
L 147.307934 100.521515 
L 147.266586 100.109413 
L 147.225238 99.69731 
L 147.18389 99.285208 
L 147.142542 98.873106 
L 147.101193 98.461004 
L 147.059845 98.048901 
L 147.018497 97.636799 
L 146.977149 97.224697 
L 146.935801 96.812594 
L 146.894453 96.400492 
L 146.853105 95.98839 
L 146.811756 95.576287 
L 146.770408 95.164185 
L 146.72906 94.752083 
L 146.811489 94.743896 
L 146.893934 94.735873 
L 146.976394 94.728016 
L 147.058871 94.720323 
L 147.141362 94.712796 
L 147.223869 94.705433 
L 147.30639 94.698236 
L 147.388925 94.691203 
L 147.471474 94.684336 
L 147.554037 94.677634 
L 147.636613 94.671097 
L 147.719201 94.664725 
L 147.801803 94.658518 
L 147.884417 94.652477 
L 147.967042 94.6466 
L 148.049679 94.640889 
L 148.132328 94.635343 
L 148.214987 94.629963 
L 148.297657 94.624748 
L 148.380337 94.619698 
L 148.463027 94.614814 
L 148.545727 94.610095 
L 148.628436 94.605541 
L 148.711154 94.601153 
L 148.793881 94.59693 
L 148.876615 94.592873 
L 148.959358 94.588981 
L 149.042109 94.585255 
L 149.124866 94.581694 
L 149.207631 94.578299 
L 149.290402 94.575069 
L 149.37318 94.572005 
L 149.455963 94.569106 
L 149.538753 94.566373 
L 149.621547 94.563806 
L 149.704347 94.561404 
L 149.787151 94.559168 
L 149.869959 94.557097 
L 149.952771 94.555192 
L 150.035587 94.553453 
L 150.118407 94.551879 
L 150.201229 94.550471 
L 150.284054 94.549228 
L 150.366881 94.548152 
L 150.44971 94.54724 
L 150.532541 94.546495 
L 150.615374 94.545915 
L 150.698207 94.545501 
L 150.781041 94.545252 
L 150.863875 94.54517 
L 150.946709 94.545252 
L 151.029543 94.545501 
L 151.112376 94.545915 
L 151.195209 94.546495 
L 151.27804 94.54724 
L 151.360869 94.548152 
L 151.443696 94.549228 
L 151.526521 94.550471 
L 151.609343 94.551879 
L 151.692163 94.553453 
L 151.774979 94.555192 
L 151.857791 94.557097 
L 151.940599 94.559168 
L 152.023403 94.561404 
L 152.106203 94.563806 
L 152.188997 94.566373 
L 152.271787 94.569106 
L 152.35457 94.572005 
L 152.437348 94.575069 
L 152.520119 94.578299 
L 152.602884 94.581694 
L 152.685641 94.585255 
L 152.768392 94.588981 
L 152.851135 94.592873 
L 152.933869 94.59693 
L 153.016596 94.601153 
L 153.099314 94.605541 
L 153.182023 94.610095 
L 153.264723 94.614814 
L 153.347413 94.619698 
L 153.430093 94.624748 
L 153.512763 94.629963 
L 153.595422 94.635343 
L 153.678071 94.640889 
L 153.760708 94.6466 
L 153.843333 94.652477 
L 153.925947 94.658518 
L 154.008549 94.664725 
L 154.091137 94.671097 
L 154.173713 94.677634 
L 154.256276 94.684336 
L 154.338825 94.691203 
L 154.42136 94.698236 
L 154.503881 94.705433 
L 154.586388 94.712796 
L 154.668879 94.720323 
L 154.751356 94.728016 
L 154.833816 94.735873 
L 154.916261 94.743896 
L 154.99869 94.752083 
L 154.957342 95.164185 
L 154.915994 95.576287 
L 154.874645 95.98839 
L 154.833297 96.400492 
L 154.791949 96.812594 
L 154.750601 97.224697 
L 154.709253 97.636799 
L 154.667905 98.048901 
L 154.626557 98.461004 
L 154.585208 98.873106 
L 154.54386 99.285208 
L 154.502512 99.69731 
L 154.461164 100.109413 
L 154.419816 100.521515 
L 154.378468 100.933617 
L 154.337119 101.34572 
L 154.295771 101.757822 
L 154.254423 102.169924 
L 154.213075 102.582026 
L 154.171727 102.994129 
L 154.130379 103.406231 
L 154.089031 103.818333 
L 154.047682 104.230436 
L 154.006334 104.642538 
L 153.964986 105.05464 
L 153.923638 105.466743 
L 153.88229 105.878845 
L 153.840942 106.290947 
L 153.799594 106.703049 
L 153.758245 107.115152 
L 153.716897 107.527254 
L 153.675549 107.939356 
L 153.634201 108.351459 
L 153.592853 108.763561 
L 153.551505 109.175663 
L 153.510157 109.587766 
L 153.468808 109.999868 
L 153.42746 110.41197 
L 153.386112 110.824072 
L 153.344764 111.236175 
L 153.303416 111.648277 
L 153.262068 112.060379 
L 153.220719 112.472482 
L 153.179371 112.884584 
L 153.138023 113.296686 
L 153.096675 113.708788 
L 153.055327 114.120891 
L 153.013979 114.532993 
L 152.972631 114.945095 
L 152.931282 115.357198 
L 152.889934 115.7693 
L 152.848586 116.181402 
L 152.807238 116.593505 
L 152.76589 117.005607 
L 152.724542 117.417709 
L 152.683194 117.829811 
L 152.641845 118.241914 
L 152.600497 118.654016 
L 152.559149 119.066118 
L 152.517801 119.478221 
L 152.476453 119.890323 
L 152.435105 120.302425 
L 152.393757 120.714528 
L 152.352408 121.12663 
L 152.31106 121.538732 
L 152.269712 121.950834 
L 152.228364 122.362937 
L 152.187016 122.775039 
L 152.145668 123.187141 
L 152.104319 123.599244 
L 152.062971 124.011346 
L 152.021623 124.423448 
L 151.980275 124.83555 
L 151.938927 125.247653 
L 151.897579 125.659755 
L 151.856231 126.071857 
L 151.814882 126.48396 
L 151.773534 126.896062 
L 151.732186 127.308164 
L 151.690838 127.720267 
L 151.64949 128.132369 
L 151.608142 128.544471 
L 151.566794 128.956573 
L 151.525445 129.368676 
L 151.484097 129.780778 
L 151.442749 130.19288 
L 151.401401 130.604983 
L 151.360053 131.017085 
L 151.318705 131.429187 
L 151.277356 131.84129 
L 151.236008 132.253392 
L 151.19466 132.665494 
L 151.153312 133.077596 
L 151.111964 133.489699 
L 151.070616 133.901801 
L 151.029268 134.313903 
L 150.987919 134.726006 
L 150.946571 135.138108 
L 150.905223 135.55021 
z
" style="fill:#2a788e;opacity:0.5;"/>
   </g>
   <g id="patch_6">
    <path clip-path="url(#p25d21291bf)" d="M 150.863875 135.962313 
L 150.863875 135.962313 
L 150.863875 135.962313 
L 150.863875 135.962313 
L 150.863875 135.962313 
L 150.863875 135.962313 
L 150.863875 135.962313 
L 150.863875 135.962313 
L 150.863875 135.962313 
L 150.863875 135.962313 
L 150.863875 135.962313 
L 150.863875 135.962313 
L 150.863875 135.962313 
L 150.863875 135.962313 
L 150.863875 135.962313 
L 150.863875 135.962313 
L 150.863875 135.962313 
L 150.863875 135.962313 
L 150.863875 135.962313 
L 150.863875 135.962313 
L 150.863875 135.962313 
L 150.863875 135.962313 
L 150.863875 135.962313 
L 150.863875 135.962313 
L 150.863875 135.962313 
L 150.863875 135.962313 
L 150.863875 135.962313 
L 150.863875 135.962313 
L 150.863875 135.962313 
L 150.863875 135.962313 
L 150.863875 135.962313 
L 150.863875 135.962313 
L 150.863875 135.962313 
L 150.863875 135.962313 
L 150.863875 135.962313 
L 150.863875 135.962313 
L 150.863875 135.962313 
L 150.863875 135.962313 
L 150.863875 135.962313 
L 150.863875 135.962313 
L 150.863875 135.962313 
L 150.863875 135.962313 
L 150.863875 135.962313 
L 150.863875 135.962313 
L 150.863875 135.962313 
L 150.863875 135.962313 
L 150.863875 135.962313 
L 150.863875 135.962313 
L 150.863875 135.962313 
L 150.863875 135.962313 
L 150.863875 135.962313 
L 150.863875 135.962313 
L 150.863875 135.962313 
L 150.863875 135.962313 
L 150.863875 135.962313 
L 150.863875 135.962313 
L 150.863875 135.962313 
L 150.863875 135.962313 
L 150.863875 135.962313 
L 150.863875 135.962313 
L 150.863875 135.962313 
L 150.863875 135.962313 
L 150.863875 135.962313 
L 150.863875 135.962313 
L 150.863875 135.962313 
L 150.863875 135.962313 
L 150.863875 135.962313 
L 150.863875 135.962313 
L 150.863875 135.962313 
L 150.863875 135.962313 
L 150.863875 135.962313 
L 150.863875 135.962313 
L 150.863875 135.962313 
L 150.863875 135.962313 
L 150.863875 135.962313 
L 150.863875 135.962313 
L 150.863875 135.962313 
L 150.863875 135.962313 
L 150.863875 135.962313 
L 150.863875 135.962313 
L 150.863875 135.962313 
L 150.863875 135.962313 
L 150.863875 135.962313 
L 150.863875 135.962313 
L 150.863875 135.962313 
L 150.863875 135.962313 
L 150.863875 135.962313 
L 150.863875 135.962313 
L 150.863875 135.962313 
L 150.863875 135.962313 
L 150.863875 135.962313 
L 150.863875 135.962313 
L 150.863875 135.962313 
L 150.863875 135.962313 
L 150.863875 135.962313 
L 150.863875 135.962313 
L 150.863875 135.962313 
L 150.863875 135.962313 
L 150.863875 135.962313 
L 150.863875 135.962313 
L 150.863875 135.962313 
L 150.363865 135.593598 
L 149.863855 135.224883 
L 149.363846 134.856168 
L 148.863836 134.487453 
L 148.363826 134.118738 
L 147.863816 133.750023 
L 147.363807 133.381308 
L 146.863797 133.012593 
L 146.363787 132.643879 
L 145.863777 132.275164 
L 145.363767 131.906449 
L 144.863758 131.537734 
L 144.363748 131.169019 
L 143.863738 130.800304 
L 143.363728 130.431589 
L 142.863719 130.062874 
L 142.363709 129.694159 
L 141.863699 129.325445 
L 141.363689 128.95673 
L 140.86368 128.588015 
L 140.36367 128.2193 
L 139.86366 127.850585 
L 139.36365 127.48187 
L 138.86364 127.113155 
L 138.363631 126.74444 
L 137.863621 126.375726 
L 137.363611 126.007011 
L 136.863601 125.638296 
L 136.363592 125.269581 
L 135.863582 124.900866 
L 135.363572 124.532151 
L 134.863562 124.163436 
L 134.363552 123.794721 
L 133.863543 123.426006 
L 133.363533 123.057292 
L 132.863523 122.688577 
L 132.363513 122.319862 
L 131.863504 121.951147 
L 131.363494 121.582432 
L 130.863484 121.213717 
L 130.363474 120.845002 
L 129.863465 120.476287 
L 129.363455 120.107573 
L 128.863445 119.738858 
L 128.363435 119.370143 
L 127.863425 119.001428 
L 127.363416 118.632713 
L 126.863406 118.263998 
L 126.363396 117.895283 
L 125.863386 117.526568 
L 125.363377 117.157853 
L 124.863367 116.789139 
L 124.363357 116.420424 
L 123.863347 116.051709 
L 123.363337 115.682994 
L 122.863328 115.314279 
L 122.363318 114.945564 
L 121.863308 114.576849 
L 121.363298 114.208134 
L 120.863289 113.83942 
L 120.363279 113.470705 
L 119.863269 113.10199 
L 119.363259 112.733275 
L 118.86325 112.36456 
L 118.36324 111.995845 
L 117.86323 111.62713 
L 117.36322 111.258415 
L 116.86321 110.8897 
L 116.363201 110.520986 
L 115.863191 110.152271 
L 115.363181 109.783556 
L 114.863171 109.414841 
L 114.363162 109.046126 
L 113.863152 108.677411 
L 113.363142 108.308696 
L 112.863132 107.939981 
L 112.363122 107.571267 
L 111.863113 107.202552 
L 111.363103 106.833837 
L 110.863093 106.465122 
L 110.363083 106.096407 
L 109.863074 105.727692 
L 109.363064 105.358977 
L 108.863054 104.990262 
L 108.363044 104.621547 
L 107.863035 104.252833 
L 107.363025 103.884118 
L 106.863015 103.515403 
L 106.363005 103.146688 
L 105.862995 102.777973 
L 105.362986 102.409258 
L 104.862976 102.040543 
L 104.362966 101.671828 
L 103.862956 101.303114 
L 103.362947 100.934399 
L 102.862937 100.565684 
L 102.362927 100.196969 
L 101.862917 99.828254 
L 101.362907 99.459539 
L 100.862898 99.090824 
L 100.973737 98.940987 
L 101.085025 98.791484 
L 101.196762 98.642315 
L 101.308945 98.493482 
L 101.421574 98.344986 
L 101.534649 98.196828 
L 101.648167 98.049011 
L 101.762128 97.901534 
L 101.876531 97.754401 
L 101.991375 97.607611 
L 102.106659 97.461166 
L 102.222382 97.315068 
L 102.338542 97.169318 
L 102.455139 97.023916 
L 102.572172 96.878866 
L 102.68964 96.734167 
L 102.807541 96.589821 
L 102.925874 96.445829 
L 103.044639 96.302193 
L 103.163835 96.158914 
L 103.283459 96.015993 
L 103.403512 95.873432 
L 103.523992 95.731232 
L 103.644898 95.589393 
L 103.766229 95.447918 
L 103.887984 95.306808 
L 104.010162 95.166063 
L 104.132761 95.025686 
L 104.255781 94.885677 
L 104.379221 94.746038 
L 104.503079 94.606769 
L 104.627354 94.467873 
L 104.752045 94.329351 
L 104.877151 94.191203 
L 105.002671 94.053431 
L 105.128604 93.916036 
L 105.254949 93.77902 
L 105.381703 93.642383 
L 105.508868 93.506127 
L 105.63644 93.370253 
L 105.76442 93.234763 
L 105.892805 93.099657 
L 106.021595 92.964937 
L 106.150789 92.830604 
L 106.280385 92.696659 
L 106.410383 92.563103 
L 106.54078 92.429938 
L 106.671576 92.297165 
L 106.80277 92.164785 
L 106.934361 92.032799 
L 107.066347 91.901208 
L 107.198727 91.770014 
L 107.331501 91.639217 
L 107.464666 91.50882 
L 107.598221 91.378823 
L 107.732166 91.249226 
L 107.866499 91.120033 
L 108.001219 90.991243 
L 108.136325 90.862857 
L 108.271816 90.734878 
L 108.407689 90.607305 
L 108.543945 90.480141 
L 108.680582 90.353386 
L 108.817598 90.227042 
L 108.954993 90.101109 
L 109.092765 89.975589 
L 109.230913 89.850482 
L 109.369436 89.725791 
L 109.508332 89.601516 
L 109.6476 89.477658 
L 109.787239 89.354219 
L 109.927248 89.231199 
L 110.067626 89.1086 
L 110.20837 88.986422 
L 110.349481 88.864667 
L 110.490956 88.743336 
L 110.632794 88.62243 
L 110.774995 88.50195 
L 110.917556 88.381897 
L 111.060477 88.262272 
L 111.203756 88.143077 
L 111.347392 88.024312 
L 111.491383 87.905978 
L 111.635729 87.788077 
L 111.780428 87.67061 
L 111.925479 87.553577 
L 112.07088 87.43698 
L 112.21663 87.320819 
L 112.362729 87.205097 
L 112.509173 87.089813 
L 112.655963 86.974969 
L 112.803097 86.860566 
L 112.950573 86.746604 
L 113.098391 86.633086 
L 113.246548 86.520012 
L 113.395044 86.407382 
L 113.543877 86.295199 
L 113.693046 86.183463 
L 113.84255 86.072175 
L 113.992387 85.961335 
L 114.361102 86.461345 
L 114.729817 86.961355 
L 115.098531 87.461365 
L 115.467246 87.961374 
L 115.835961 88.461384 
L 116.204676 88.961394 
L 116.573391 89.461404 
L 116.942106 89.961413 
L 117.310821 90.461423 
L 117.679536 90.961433 
L 118.04825 91.461443 
L 118.416965 91.961452 
L 118.78568 92.461462 
L 119.154395 92.961472 
L 119.52311 93.461482 
L 119.891825 93.961492 
L 120.26054 94.461501 
L 120.629255 94.961511 
L 120.99797 95.461521 
L 121.366684 95.961531 
L 121.735399 96.46154 
L 122.104114 96.96155 
L 122.472829 97.46156 
L 122.841544 97.96157 
L 123.210259 98.46158 
L 123.578974 98.961589 
L 123.947689 99.461599 
L 124.316403 99.961609 
L 124.685118 100.461619 
L 125.053833 100.961628 
L 125.422548 101.461638 
L 125.791263 101.961648 
L 126.159978 102.461658 
L 126.528693 102.961667 
L 126.897408 103.461677 
L 127.266123 103.961687 
L 127.634837 104.461697 
L 128.003552 104.961707 
L 128.372267 105.461716 
L 128.740982 105.961726 
L 129.109697 106.461736 
L 129.478412 106.961746 
L 129.847127 107.461755 
L 130.215842 107.961765 
L 130.584556 108.461775 
L 130.953271 108.961785 
L 131.321986 109.461795 
L 131.690701 109.961804 
L 132.059416 110.461814 
L 132.428131 110.961824 
L 132.796846 111.461834 
L 133.165561 111.961843 
L 133.534276 112.461853 
L 133.90299 112.961863 
L 134.271705 113.461873 
L 134.64042 113.961882 
L 135.009135 114.461892 
L 135.37785 114.961902 
L 135.746565 115.461912 
L 136.11528 115.961922 
L 136.483995 116.461931 
L 136.852709 116.961941 
L 137.221424 117.461951 
L 137.590139 117.961961 
L 137.958854 118.46197 
L 138.327569 118.96198 
L 138.696284 119.46199 
L 139.064999 119.962 
L 139.433714 120.46201 
L 139.802429 120.962019 
L 140.171143 121.462029 
L 140.539858 121.962039 
L 140.908573 122.462049 
L 141.277288 122.962058 
L 141.646003 123.462068 
L 142.014718 123.962078 
L 142.383433 124.462088 
L 142.752148 124.962097 
L 143.120862 125.462107 
L 143.489577 125.962117 
L 143.858292 126.462127 
L 144.227007 126.962137 
L 144.595722 127.462146 
L 144.964437 127.962156 
L 145.333152 128.462166 
L 145.701867 128.962176 
L 146.070582 129.462185 
L 146.439296 129.962195 
L 146.808011 130.462205 
L 147.176726 130.962215 
L 147.545441 131.462225 
L 147.914156 131.962234 
L 148.282871 132.462244 
L 148.651586 132.962254 
L 149.020301 133.462264 
L 149.389015 133.962273 
L 149.75773 134.462283 
L 150.126445 134.962293 
L 150.49516 135.462303 
z
" style="fill:#22a884;opacity:0.5;"/>
   </g>
   <g id="patch_7">
    <path clip-path="url(#p25d21291bf)" d="M 150.863875 135.962313 
L 150.863875 135.962313 
L 150.863875 135.962313 
L 150.863875 135.962313 
L 150.863875 135.962313 
L 150.863875 135.962313 
L 150.863875 135.962313 
L 150.863875 135.962313 
L 150.863875 135.962313 
L 150.863875 135.962313 
L 150.863875 135.962313 
L 150.863875 135.962313 
L 150.863875 135.962313 
L 150.863875 135.962313 
L 150.863875 135.962313 
L 150.863875 135.962313 
L 150.863875 135.962313 
L 150.863875 135.962313 
L 150.863875 135.962313 
L 150.863875 135.962313 
L 150.863875 135.962313 
L 150.863875 135.962313 
L 150.863875 135.962313 
L 150.863875 135.962313 
L 150.863875 135.962313 
L 150.863875 135.962313 
L 150.863875 135.962313 
L 150.863875 135.962313 
L 150.863875 135.962313 
L 150.863875 135.962313 
L 150.863875 135.962313 
L 150.863875 135.962313 
L 150.863875 135.962313 
L 150.863875 135.962313 
L 150.863875 135.962313 
L 150.863875 135.962313 
L 150.863875 135.962313 
L 150.863875 135.962313 
L 150.863875 135.962313 
L 150.863875 135.962313 
L 150.863875 135.962313 
L 150.863875 135.962313 
L 150.863875 135.962313 
L 150.863875 135.962313 
L 150.863875 135.962313 
L 150.863875 135.962313 
L 150.863875 135.962313 
L 150.863875 135.962313 
L 150.863875 135.962313 
L 150.863875 135.962313 
L 150.863875 135.962313 
L 150.863875 135.962313 
L 150.863875 135.962313 
L 150.863875 135.962313 
L 150.863875 135.962313 
L 150.863875 135.962313 
L 150.863875 135.962313 
L 150.863875 135.962313 
L 150.863875 135.962313 
L 150.863875 135.962313 
L 150.863875 135.962313 
L 150.863875 135.962313 
L 150.863875 135.962313 
L 150.863875 135.962313 
L 150.863875 135.962313 
L 150.863875 135.962313 
L 150.863875 135.962313 
L 150.863875 135.962313 
L 150.863875 135.962313 
L 150.863875 135.962313 
L 150.863875 135.962313 
L 150.863875 135.962313 
L 150.863875 135.962313 
L 150.863875 135.962313 
L 150.863875 135.962313 
L 150.863875 135.962313 
L 150.863875 135.962313 
L 150.863875 135.962313 
L 150.863875 135.962313 
L 150.863875 135.962313 
L 150.863875 135.962313 
L 150.863875 135.962313 
L 150.863875 135.962313 
L 150.863875 135.962313 
L 150.863875 135.962313 
L 150.863875 135.962313 
L 150.863875 135.962313 
L 150.863875 135.962313 
L 150.863875 135.962313 
L 150.863875 135.962313 
L 150.863875 135.962313 
L 150.863875 135.962313 
L 150.863875 135.962313 
L 150.863875 135.962313 
L 150.863875 135.962313 
L 150.863875 135.962313 
L 150.863875 135.962313 
L 150.863875 135.962313 
L 150.863875 135.962313 
L 150.863875 135.962313 
L 150.863875 135.962313 
L 150.348747 136.013998 
L 149.833619 136.065683 
L 149.318491 136.117368 
L 148.803364 136.169053 
L 148.288236 136.220738 
L 147.773108 136.272424 
L 147.25798 136.324109 
L 146.742852 136.375794 
L 146.227724 136.427479 
L 145.712596 136.479164 
L 145.197468 136.53085 
L 144.682341 136.582535 
L 144.167213 136.63422 
L 143.652085 136.685905 
L 143.136957 136.73759 
L 142.621829 136.789275 
L 142.106701 136.840961 
L 141.591573 136.892646 
L 141.076445 136.944331 
L 140.561318 136.996016 
L 140.04619 137.047701 
L 139.531062 137.099387 
L 139.015934 137.151072 
L 138.500806 137.202757 
L 137.985678 137.254442 
L 137.47055 137.306127 
L 136.955422 137.357813 
L 136.440295 137.409498 
L 135.925167 137.461183 
L 135.410039 137.512868 
L 134.894911 137.564553 
L 134.379783 137.616238 
L 133.864655 137.667924 
L 133.349527 137.719609 
L 132.8344 137.771294 
L 132.319272 137.822979 
L 131.804144 137.874664 
L 131.289016 137.92635 
L 130.773888 137.978035 
L 130.25876 138.02972 
L 129.743632 138.081405 
L 129.228504 138.13309 
L 128.713377 138.184775 
L 128.198249 138.236461 
L 127.683121 138.288146 
L 127.167993 138.339831 
L 126.652865 138.391516 
L 126.137737 138.443201 
L 125.622609 138.494887 
L 125.107481 138.546572 
L 124.592354 138.598257 
L 124.077226 138.649942 
L 123.562098 138.701627 
L 123.04697 138.753313 
L 122.531842 138.804998 
L 122.016714 138.856683 
L 121.501586 138.908368 
L 120.986458 138.960053 
L 120.471331 139.011738 
L 119.956203 139.063424 
L 119.441075 139.115109 
L 118.925947 139.166794 
L 118.410819 139.218479 
L 117.895691 139.270164 
L 117.380563 139.32185 
L 116.865436 139.373535 
L 116.350308 139.42522 
L 115.83518 139.476905 
L 115.320052 139.52859 
L 114.804924 139.580276 
L 114.289796 139.631961 
L 113.774668 139.683646 
L 113.25954 139.735331 
L 112.744413 139.787016 
L 112.229285 139.838701 
L 111.714157 139.890387 
L 111.199029 139.942072 
L 110.683901 139.993757 
L 110.168773 140.045442 
L 109.653645 140.097127 
L 109.138517 140.148813 
L 108.62339 140.200498 
L 108.108262 140.252183 
L 107.593134 140.303868 
L 107.078006 140.355553 
L 106.562878 140.407238 
L 106.04775 140.458924 
L 105.532622 140.510609 
L 105.017495 140.562294 
L 104.502367 140.613979 
L 103.987239 140.665664 
L 103.472111 140.71735 
L 102.956983 140.769035 
L 102.441855 140.82072 
L 101.926727 140.872405 
L 101.411599 140.92409 
L 100.896472 140.975776 
L 100.381344 141.027461 
L 99.866216 141.079146 
L 99.351088 141.130831 
L 99.340854 141.027795 
L 99.330826 140.924739 
L 99.321004 140.821663 
L 99.311389 140.718568 
L 99.301979 140.615453 
L 99.292776 140.51232 
L 99.283779 140.409169 
L 99.274989 140.306 
L 99.266404 140.202814 
L 99.258027 140.09961 
L 99.249855 139.99639 
L 99.24189 139.893154 
L 99.234132 139.789903 
L 99.22658 139.686636 
L 99.219235 139.583354 
L 99.212096 139.480057 
L 99.205164 139.376747 
L 99.198438 139.273422 
L 99.191919 139.170085 
L 99.185607 139.066735 
L 99.179502 138.963372 
L 99.173603 138.859997 
L 99.167911 138.756611 
L 99.162426 138.653214 
L 99.157147 138.549805 
L 99.152076 138.446387 
L 99.147211 138.342958 
L 99.142553 138.23952 
L 99.138102 138.136073 
L 99.133858 138.032617 
L 99.129821 137.929153 
L 99.125991 137.825681 
L 99.122367 137.722202 
L 99.118951 137.618715 
L 99.115742 137.515222 
L 99.11274 137.411723 
L 99.109944 137.308218 
L 99.107356 137.204708 
L 99.104975 137.101192 
L 99.1028 136.997672 
L 99.100833 136.894148 
L 99.099073 136.79062 
L 99.09752 136.687089 
L 99.096174 136.583555 
L 99.095035 136.480018 
L 99.094103 136.37648 
L 99.093378 136.272939 
L 99.092861 136.169398 
L 99.09255 136.065855 
L 99.092446 135.962313 
L 99.09255 135.85877 
L 99.092861 135.755227 
L 99.093378 135.651686 
L 99.094103 135.548145 
L 99.095035 135.444607 
L 99.096174 135.34107 
L 99.09752 135.237536 
L 99.099073 135.134005 
L 99.100833 135.030477 
L 99.1028 134.926953 
L 99.104975 134.823433 
L 99.107356 134.719917 
L 99.109944 134.616407 
L 99.11274 134.512902 
L 99.115742 134.409403 
L 99.118951 134.30591 
L 99.122367 134.202423 
L 99.125991 134.098944 
L 99.129821 133.995472 
L 99.133858 133.892008 
L 99.138102 133.788552 
L 99.142553 133.685105 
L 99.147211 133.581667 
L 99.152076 133.478238 
L 99.157147 133.37482 
L 99.162426 133.271411 
L 99.167911 133.168014 
L 99.173603 133.064628 
L 99.179502 132.961253 
L 99.185607 132.85789 
L 99.191919 132.75454 
L 99.198438 132.651203 
L 99.205164 132.547878 
L 99.212096 132.444568 
L 99.219235 132.341271 
L 99.22658 132.237989 
L 99.234132 132.134722 
L 99.24189 132.031471 
L 99.249855 131.928235 
L 99.258027 131.825015 
L 99.266404 131.721811 
L 99.274989 131.618625 
L 99.283779 131.515456 
L 99.292776 131.412305 
L 99.301979 131.309172 
L 99.311389 131.206057 
L 99.321004 131.102962 
L 99.330826 130.999886 
L 99.340854 130.89683 
L 99.351088 130.793794 
L 99.866216 130.845479 
L 100.381344 130.897164 
L 100.896472 130.948849 
L 101.411599 131.000535 
L 101.926727 131.05222 
L 102.441855 131.103905 
L 102.956983 131.15559 
L 103.472111 131.207275 
L 103.987239 131.258961 
L 104.502367 131.310646 
L 105.017495 131.362331 
L 105.532622 131.414016 
L 106.04775 131.465701 
L 106.562878 131.517387 
L 107.078006 131.569072 
L 107.593134 131.620757 
L 108.108262 131.672442 
L 108.62339 131.724127 
L 109.138517 131.775812 
L 109.653645 131.827498 
L 110.168773 131.879183 
L 110.683901 131.930868 
L 111.199029 131.982553 
L 111.714157 132.034238 
L 112.229285 132.085924 
L 112.744413 132.137609 
L 113.25954 132.189294 
L 113.774668 132.240979 
L 114.289796 132.292664 
L 114.804924 132.344349 
L 115.320052 132.396035 
L 115.83518 132.44772 
L 116.350308 132.499405 
L 116.865436 132.55109 
L 117.380563 132.602775 
L 117.895691 132.654461 
L 118.410819 132.706146 
L 118.925947 132.757831 
L 119.441075 132.809516 
L 119.956203 132.861201 
L 120.471331 132.912887 
L 120.986458 132.964572 
L 121.501586 133.016257 
L 122.016714 133.067942 
L 122.531842 133.119627 
L 123.04697 133.171312 
L 123.562098 133.222998 
L 124.077226 133.274683 
L 124.592354 133.326368 
L 125.107481 133.378053 
L 125.622609 133.429738 
L 126.137737 133.481424 
L 126.652865 133.533109 
L 127.167993 133.584794 
L 127.683121 133.636479 
L 128.198249 133.688164 
L 128.713377 133.73985 
L 129.228504 133.791535 
L 129.743632 133.84322 
L 130.25876 133.894905 
L 130.773888 133.94659 
L 131.289016 133.998275 
L 131.804144 134.049961 
L 132.319272 134.101646 
L 132.8344 134.153331 
L 133.349527 134.205016 
L 133.864655 134.256701 
L 134.379783 134.308387 
L 134.894911 134.360072 
L 135.410039 134.411757 
L 135.925167 134.463442 
L 136.440295 134.515127 
L 136.955422 134.566812 
L 137.47055 134.618498 
L 137.985678 134.670183 
L 138.500806 134.721868 
L 139.015934 134.773553 
L 139.531062 134.825238 
L 140.04619 134.876924 
L 140.561318 134.928609 
L 141.076445 134.980294 
L 141.591573 135.031979 
L 142.106701 135.083664 
L 142.621829 135.13535 
L 143.136957 135.187035 
L 143.652085 135.23872 
L 144.167213 135.290405 
L 144.682341 135.34209 
L 145.197468 135.393775 
L 145.712596 135.445461 
L 146.227724 135.497146 
L 146.742852 135.548831 
L 147.25798 135.600516 
L 147.773108 135.652201 
L 148.288236 135.703887 
L 148.803364 135.755572 
L 149.318491 135.807257 
L 149.833619 135.858942 
L 150.348747 135.910627 
z
" style="fill:#21918c;opacity:0.5;"/>
   </g>
   <g id="patch_8">
    <path clip-path="url(#p25d21291bf)" d="M 150.863875 135.962313 
L 150.863875 135.962313 
L 150.863875 135.962313 
L 150.863875 135.962313 
L 150.863875 135.962313 
L 150.863875 135.962313 
L 150.863875 135.962313 
L 150.863875 135.962313 
L 150.863875 135.962313 
L 150.863875 135.962313 
L 150.863875 135.962313 
L 150.863875 135.962313 
L 150.863875 135.962313 
L 150.863875 135.962313 
L 150.863875 135.962313 
L 150.863875 135.962313 
L 150.863875 135.962313 
L 150.863875 135.962313 
L 150.863875 135.962313 
L 150.863875 135.962313 
L 150.863875 135.962313 
L 150.863875 135.962313 
L 150.863875 135.962313 
L 150.863875 135.962313 
L 150.863875 135.962313 
L 150.863875 135.962313 
L 150.863875 135.962313 
L 150.863875 135.962313 
L 150.863875 135.962313 
L 150.863875 135.962313 
L 150.863875 135.962313 
L 150.863875 135.962313 
L 150.863875 135.962313 
L 150.863875 135.962313 
L 150.863875 135.962313 
L 150.863875 135.962313 
L 150.863875 135.962313 
L 150.863875 135.962313 
L 150.863875 135.962313 
L 150.863875 135.962313 
L 150.863875 135.962313 
L 150.863875 135.962313 
L 150.863875 135.962313 
L 150.863875 135.962313 
L 150.863875 135.962313 
L 150.863875 135.962313 
L 150.863875 135.962313 
L 150.863875 135.962313 
L 150.863875 135.962313 
L 150.863875 135.962313 
L 150.863875 135.962313 
L 150.863875 135.962313 
L 150.863875 135.962313 
L 150.863875 135.962313 
L 150.863875 135.962313 
L 150.863875 135.962313 
L 150.863875 135.962313 
L 150.863875 135.962313 
L 150.863875 135.962313 
L 150.863875 135.962313 
L 150.863875 135.962313 
L 150.863875 135.962313 
L 150.863875 135.962313 
L 150.863875 135.962313 
L 150.863875 135.962313 
L 150.863875 135.962313 
L 150.863875 135.962313 
L 150.863875 135.962313 
L 150.863875 135.962313 
L 150.863875 135.962313 
L 150.863875 135.962313 
L 150.863875 135.962313 
L 150.863875 135.962313 
L 150.863875 135.962313 
L 150.863875 135.962313 
L 150.863875 135.962313 
L 150.863875 135.962313 
L 150.863875 135.962313 
L 150.863875 135.962313 
L 150.863875 135.962313 
L 150.863875 135.962313 
L 150.863875 135.962313 
L 150.863875 135.962313 
L 150.863875 135.962313 
L 150.863875 135.962313 
L 150.863875 135.962313 
L 150.863875 135.962313 
L 150.863875 135.962313 
L 150.863875 135.962313 
L 150.863875 135.962313 
L 150.863875 135.962313 
L 150.863875 135.962313 
L 150.863875 135.962313 
L 150.863875 135.962313 
L 150.863875 135.962313 
L 150.863875 135.962313 
L 150.863875 135.962313 
L 150.863875 135.962313 
L 150.863875 135.962313 
L 150.863875 135.962313 
L 150.863875 135.962313 
L 151.065482 136.439159 
L 151.26709 136.916005 
L 151.468697 137.392852 
L 151.670305 137.869698 
L 151.871912 138.346545 
L 152.07352 138.823391 
L 152.275127 139.300238 
L 152.476735 139.777084 
L 152.678342 140.25393 
L 152.879949 140.730777 
L 153.081557 141.207623 
L 153.283164 141.68447 
L 153.484772 142.161316 
L 153.686379 142.638163 
L 153.887987 143.115009 
L 154.089594 143.591855 
L 154.291201 144.068702 
L 154.492809 144.545548 
L 154.694416 145.022395 
L 154.896024 145.499241 
L 155.097631 145.976088 
L 155.299239 146.452934 
L 155.500846 146.92978 
L 155.702454 147.406627 
L 155.904061 147.883473 
L 156.105668 148.36032 
L 156.307276 148.837166 
L 156.508883 149.314013 
L 156.710491 149.790859 
L 156.912098 150.267706 
L 157.113706 150.744552 
L 157.315313 151.221398 
L 157.51692 151.698245 
L 157.718528 152.175091 
L 157.920135 152.651938 
L 158.121743 153.128784 
L 158.32335 153.605631 
L 158.524958 154.082477 
L 158.726565 154.559323 
L 158.928173 155.03617 
L 159.12978 155.513016 
L 159.331387 155.989863 
L 159.532995 156.466709 
L 159.734602 156.943556 
L 159.93621 157.420402 
L 160.137817 157.897248 
L 160.339425 158.374095 
L 160.541032 158.850941 
L 160.74264 159.327788 
L 160.944247 159.804634 
L 161.145854 160.281481 
L 161.347462 160.758327 
L 161.549069 161.235174 
L 161.750677 161.71202 
L 161.952284 162.188866 
L 162.153892 162.665713 
L 162.355499 163.142559 
L 162.557106 163.619406 
L 162.758714 164.096252 
L 162.960321 164.573099 
L 163.161929 165.049945 
L 163.363536 165.526791 
L 163.565144 166.003638 
L 163.766751 166.480484 
L 163.968359 166.957331 
L 164.169966 167.434177 
L 164.371573 167.911024 
L 164.573181 168.38787 
L 164.774788 168.864716 
L 164.976396 169.341563 
L 165.178003 169.818409 
L 165.379611 170.295256 
L 165.581218 170.772102 
L 165.782825 171.248949 
L 165.984433 171.725795 
L 166.18604 172.202642 
L 166.387648 172.679488 
L 166.589255 173.156334 
L 166.790863 173.633181 
L 166.99247 174.110027 
L 167.194078 174.586874 
L 167.395685 175.06372 
L 167.597292 175.540567 
L 167.7989 176.017413 
L 168.000507 176.494259 
L 168.202115 176.971106 
L 168.403722 177.447952 
L 168.60533 177.924799 
L 168.806937 178.401645 
L 169.008545 178.878492 
L 169.210152 179.355338 
L 169.411759 179.832184 
L 169.613367 180.309031 
L 169.814974 180.785877 
L 170.016582 181.262724 
L 170.218189 181.73957 
L 170.419797 182.216417 
L 170.621404 182.693263 
L 170.823011 183.17011 
L 171.024619 183.646956 
L 170.642501 183.806714 
L 170.259117 183.963411 
L 169.874491 184.117035 
L 169.488649 184.267577 
L 169.101615 184.415028 
L 168.713414 184.559378 
L 168.324071 184.700618 
L 167.93361 184.838738 
L 167.542056 184.97373 
L 167.149435 185.105586 
L 166.755772 185.234297 
L 166.361092 185.359854 
L 165.96542 185.482249 
L 165.568781 185.601476 
L 165.171202 185.717525 
L 164.772706 185.830391 
L 164.373321 185.940064 
L 163.973071 186.04654 
L 163.571982 186.149809 
L 163.17008 186.249867 
L 162.76739 186.346706 
L 162.363938 186.440321 
L 161.95975 186.530706 
L 161.554852 186.617853 
L 161.14927 186.701759 
L 160.74303 186.782418 
L 160.336157 186.859824 
L 159.928678 186.933973 
L 159.520619 187.004859 
L 159.112006 187.072479 
L 158.702865 187.136828 
L 158.293223 187.197902 
L 157.883105 187.255696 
L 157.472537 187.310208 
L 157.061547 187.361434 
L 156.65016 187.40937 
L 156.238403 187.454013 
L 155.826302 187.495361 
L 155.413883 187.533411 
L 155.001173 187.568161 
L 154.588198 187.599607 
L 154.174985 187.627749 
L 153.76156 187.652585 
L 153.347949 187.674112 
L 152.93418 187.692329 
L 152.520278 187.707236 
L 152.10627 187.718832 
L 151.692183 187.727114 
L 151.278042 187.732084 
L 150.863875 187.733741 
L 150.449708 187.732084 
L 150.035567 187.727114 
L 149.62148 187.718832 
L 149.207472 187.707236 
L 148.79357 187.692329 
L 148.379801 187.674112 
L 147.96619 187.652585 
L 147.552765 187.627749 
L 147.139552 187.599607 
L 146.726577 187.568161 
L 146.313867 187.533411 
L 145.901448 187.495361 
L 145.489347 187.454013 
L 145.07759 187.40937 
L 144.666203 187.361434 
L 144.255213 187.310208 
L 143.844645 187.255696 
L 143.434527 187.197902 
L 143.024885 187.136828 
L 142.615744 187.072479 
L 142.207131 187.004859 
L 141.799072 186.933973 
L 141.391593 186.859824 
L 140.98472 186.782418 
L 140.57848 186.701759 
L 140.172898 186.617853 
L 139.768 186.530706 
L 139.363812 186.440321 
L 138.96036 186.346706 
L 138.55767 186.249867 
L 138.155768 186.149809 
L 137.754679 186.04654 
L 137.354429 185.940064 
L 136.955044 185.830391 
L 136.556548 185.717525 
L 136.158969 185.601476 
L 135.76233 185.482249 
L 135.366658 185.359854 
L 134.971978 185.234297 
L 134.578315 185.105586 
L 134.185694 184.97373 
L 133.79414 184.838738 
L 133.403679 184.700618 
L 133.014336 184.559378 
L 132.626135 184.415028 
L 132.239101 184.267577 
L 131.853259 184.117035 
L 131.468633 183.963411 
L 131.085249 183.806714 
L 130.703131 183.646956 
L 130.904739 183.17011 
L 131.106346 182.693263 
L 131.307953 182.216417 
L 131.509561 181.73957 
L 131.711168 181.262724 
L 131.912776 180.785877 
L 132.114383 180.309031 
L 132.315991 179.832184 
L 132.517598 179.355338 
L 132.719205 178.878492 
L 132.920813 178.401645 
L 133.12242 177.924799 
L 133.324028 177.447952 
L 133.525635 176.971106 
L 133.727243 176.494259 
L 133.92885 176.017413 
L 134.130458 175.540567 
L 134.332065 175.06372 
L 134.533672 174.586874 
L 134.73528 174.110027 
L 134.936887 173.633181 
L 135.138495 173.156334 
L 135.340102 172.679488 
L 135.54171 172.202642 
L 135.743317 171.725795 
L 135.944925 171.248949 
L 136.146532 170.772102 
L 136.348139 170.295256 
L 136.549747 169.818409 
L 136.751354 169.341563 
L 136.952962 168.864716 
L 137.154569 168.38787 
L 137.356177 167.911024 
L 137.557784 167.434177 
L 137.759391 166.957331 
L 137.960999 166.480484 
L 138.162606 166.003638 
L 138.364214 165.526791 
L 138.565821 165.049945 
L 138.767429 164.573099 
L 138.969036 164.096252 
L 139.170644 163.619406 
L 139.372251 163.142559 
L 139.573858 162.665713 
L 139.775466 162.188866 
L 139.977073 161.71202 
L 140.178681 161.235174 
L 140.380288 160.758327 
L 140.581896 160.281481 
L 140.783503 159.804634 
L 140.98511 159.327788 
L 141.186718 158.850941 
L 141.388325 158.374095 
L 141.589933 157.897248 
L 141.79154 157.420402 
L 141.993148 156.943556 
L 142.194755 156.466709 
L 142.396363 155.989863 
L 142.59797 155.513016 
L 142.799577 155.03617 
L 143.001185 154.559323 
L 143.202792 154.082477 
L 143.4044 153.605631 
L 143.606007 153.128784 
L 143.807615 152.651938 
L 144.009222 152.175091 
L 144.21083 151.698245 
L 144.412437 151.221398 
L 144.614044 150.744552 
L 144.815652 150.267706 
L 145.017259 149.790859 
L 145.218867 149.314013 
L 145.420474 148.837166 
L 145.622082 148.36032 
L 145.823689 147.883473 
L 146.025296 147.406627 
L 146.226904 146.92978 
L 146.428511 146.452934 
L 146.630119 145.976088 
L 146.831726 145.499241 
L 147.033334 145.022395 
L 147.234941 144.545548 
L 147.436549 144.068702 
L 147.638156 143.591855 
L 147.839763 143.115009 
L 148.041371 142.638163 
L 148.242978 142.161316 
L 148.444586 141.68447 
L 148.646193 141.207623 
L 148.847801 140.730777 
L 149.049408 140.25393 
L 149.251015 139.777084 
L 149.452623 139.300238 
L 149.65423 138.823391 
L 149.855838 138.346545 
L 150.057445 137.869698 
L 150.259053 137.392852 
L 150.46066 136.916005 
L 150.662268 136.439159 
z
" style="fill:#21918c;opacity:0.5;"/>
   </g>
   <g id="matplotlib.axis_1">
    <g id="xtick_1">
     <g id="line2d_1">
      <path clip-path="url(#p25d21291bf)" d="M 150.863875 135.962313 
L 259.583875 135.962313 
" style="fill:none;stroke:#b0b0b0;stroke-linecap:square;stroke-width:0.8;"/>
     </g>
     <g id="text_1">
      <!-- 0 -->
      <defs>
       <path d="M 23.703125 63.5 
Q 32 63.5 38.046875 54.140625 
Q 44.09375 44.796875 44.09375 30.90625 
Q 44.09375 17.09375 38.046875 7.75 
Q 32 -1.59375 23.703125 -1.59375 
Q 15.703125 -1.59375 9.5 7.65625 
Q 3.296875 16.90625 3.296875 30.90625 
Q 3.296875 44.796875 9.34375 54.140625 
Q 15.40625 63.5 23.703125 63.5 
M 23.703125 0.703125 
Q 31.09375 0.703125 33.9375 8.046875 
Q 36.796875 15.40625 36.796875 30.90625 
Q 36.796875 46.40625 33.9375 53.796875 
Q 31.09375 61.203125 23.703125 61.203125 
Q 16.296875 61.203125 13.4375 53.796875 
Q 10.59375 46.40625 10.59375 30.90625 
Q 10.59375 0.703125 23.703125 0.703125 
" id="STSong-30"/>
       <path d="M 18.203125 76 
Q 22.203125 76 24.796875 73.34375 
Q 27.40625 70.703125 27.40625 66.75 
Q 27.40625 62.796875 24.796875 60.1875 
Q 22.203125 57.59375 18.203125 57.59375 
Q 14.203125 57.59375 11.59375 60.25 
Q 9 62.90625 9 66.75 
Q 9 70.59375 11.703125 73.296875 
Q 14.40625 76 18.203125 76 
M 18.203125 59.703125 
Q 21.203125 59.703125 23.25 61.75 
Q 25.296875 63.796875 25.296875 66.796875 
Q 25.296875 69.796875 23.25 71.84375 
Q 21.203125 73.90625 18.203125 73.90625 
Q 15.203125 73.90625 13.140625 71.84375 
Q 11.09375 69.796875 11.09375 66.796875 
Q 11.09375 63.796875 13.140625 61.75 
Q 15.203125 59.703125 18.203125 59.703125 
" id="STSong-b0"/>
      </defs>
      <g transform="translate(255.76525 139.992)scale(0.2 -0.2)">
       <use xlink:href="#STSong-30"/>
       <use x="46.899994" xlink:href="#STSong-b0"/>
      </g>
     </g>
    </g>
    <g id="xtick_2">
     <g id="line2d_2">
      <path clip-path="url(#p25d21291bf)" d="M 150.863875 135.962313 
L 227.740524 59.085663 
" style="fill:none;stroke:#b0b0b0;stroke-linecap:square;stroke-width:0.8;"/>
     </g>
     <g id="text_2">
      <!-- 45 -->
      <defs>
       <path d="M 32.59375 63.5 
L 35 63.5 
L 35 22 
L 45.59375 22 
L 45.59375 17.40625 
L 35 17.40625 
L 35 -1.59375 
L 28.40625 -1.59375 
L 28.40625 17.40625 
L 2.796875 17.40625 
L 2.796875 20.703125 
L 14.703125 38.09375 
z
M 28.40625 22 
L 28.40625 52.703125 
Q 14.796875 33.796875 7.59375 22 
z
" id="STSong-34"/>
       <path d="M 38 56.59375 
L 24 56.59375 
Q 16.203125 56.59375 15.40625 56.296875 
L 14.09375 38 
Q 18.5 40.09375 23.09375 40.09375 
Q 31.296875 40.09375 37 34.5 
Q 42.703125 28.90625 42.703125 19.90625 
Q 42.703125 9.90625 35.640625 4.15625 
Q 28.59375 -1.59375 19.59375 -1.59375 
Q 14.59375 -1.59375 10.390625 0.15625 
Q 6.203125 1.90625 6.203125 4 
Q 6.203125 5 7.09375 6.046875 
Q 8 7.09375 9.59375 7.09375 
Q 10.703125 7.09375 11.40625 6.59375 
Q 18.40625 1.296875 22.703125 1.296875 
Q 28.296875 1.296875 32.59375 6.140625 
Q 36.90625 11 36.90625 17.59375 
Q 36.90625 24.59375 32.546875 29.25 
Q 28.203125 33.90625 21.796875 33.90625 
Q 19 33.90625 16.546875 33 
Q 14.09375 32.09375 13 30.5 
L 11.296875 30.5 
L 13.203125 62.5 
L 24.09375 62.5 
Q 31.59375 62.5 34 62.703125 
Q 36.40625 62.90625 37.40625 64.203125 
L 38.90625 64.203125 
z
" id="STSong-35"/>
      </defs>
      <g transform="translate(216.046939 55.427686)scale(0.2 -0.2)">
       <use xlink:href="#STSong-34"/>
       <use x="46.899994" xlink:href="#STSong-35"/>
       <use x="93.799988" xlink:href="#STSong-b0"/>
      </g>
     </g>
    </g>
    <g id="xtick_3">
     <g id="line2d_3">
      <path clip-path="url(#p25d21291bf)" d="M 150.863875 135.962313 
L 150.863875 27.242313 
" style="fill:none;stroke:#b0b0b0;stroke-linecap:square;stroke-width:0.8;"/>
     </g>
     <g id="text_3">
      <!-- 90 -->
      <defs>
       <path d="M 26.203125 25.796875 
Q 23.40625 24.296875 20.296875 24.296875 
Q 13.90625 24.296875 9.15625 29.84375 
Q 4.40625 35.40625 4.40625 43.59375 
Q 4.40625 52 9.796875 57.75 
Q 15.203125 63.5 22.90625 63.5 
Q 31.59375 63.5 36.890625 56.59375 
Q 42.203125 49.703125 42.203125 38.703125 
Q 42.203125 23.203125 32.75 11.703125 
Q 23.296875 0.203125 8.5 -1.90625 
L 8.09375 0.296875 
Q 20.796875 2.796875 27.9375 13.390625 
Q 35.09375 24 35.09375 39.59375 
Q 35.09375 50 31.59375 55.640625 
Q 28.09375 61.296875 22.09375 61.296875 
Q 17.5 61.296875 14.59375 56.1875 
Q 11.703125 51.09375 11.703125 42.703125 
Q 11.703125 35.796875 14.5 31.59375 
Q 17.296875 27.40625 21.90625 27.40625 
Q 23.5 27.40625 25.296875 27.90625 
z
" id="STSong-39"/>
      </defs>
      <g transform="translate(131.482625 20.4)scale(0.2 -0.2)">
       <use xlink:href="#STSong-39"/>
       <use x="46.899994" xlink:href="#STSong-30"/>
       <use x="93.799988" xlink:href="#STSong-b0"/>
      </g>
     </g>
    </g>
    <g id="xtick_4">
     <g id="line2d_4">
      <path clip-path="url(#p25d21291bf)" d="M 150.863875 135.962313 
L 73.987226 59.085663 
" style="fill:none;stroke:#b0b0b0;stroke-linecap:square;stroke-width:0.8;"/>
     </g>
     <g id="text_4">
      <!-- 135 -->
      <defs>
       <path d="M 35.5 -0.296875 
Q 30.296875 0 23.796875 0 
Q 17.296875 0 12.09375 -0.296875 
L 12.09375 1.296875 
L 17.296875 2.203125 
Q 20.796875 2.90625 20.796875 6.09375 
L 20.796875 55.5 
L 8.90625 47.796875 
L 7.5 49.703125 
Q 14.40625 54.203125 24.09375 63.5 
L 27.40625 63.5 
L 27.40625 6.09375 
Q 27.40625 2.703125 30.90625 2.09375 
L 35.5 1.296875 
z
" id="STSong-31"/>
       <path d="M 9.40625 48.90625 
L 7.59375 49.90625 
Q 10.5 56.796875 14.59375 60.140625 
Q 18.703125 63.5 24.90625 63.5 
Q 30.5 63.5 34.296875 60.296875 
Q 38.09375 57.09375 38.09375 53.203125 
Q 38.09375 49.296875 35.4375 45.796875 
Q 32.796875 42.296875 27.203125 38.09375 
Q 34.5 38.59375 38.890625 33.796875 
Q 43.296875 29 43.296875 21.5 
Q 43.296875 11.796875 36.390625 5.09375 
Q 29.5 -1.59375 18.796875 -1.59375 
Q 11.90625 -1.59375 8.296875 0.046875 
Q 4.703125 1.703125 4.703125 3.90625 
Q 4.703125 4.90625 5.640625 5.75 
Q 6.59375 6.59375 7.703125 6.59375 
Q 9.40625 6.59375 11.59375 4.796875 
Q 17.203125 0.59375 21.09375 0.59375 
Q 27.203125 0.59375 31.84375 5.890625 
Q 36.5 11.203125 36.5 18.796875 
Q 36.5 25.203125 33.34375 29.34375 
Q 30.203125 33.5 25.40625 33.5 
Q 21.703125 33.5 17.796875 30.09375 
L 16.703125 32 
Q 18.703125 33.796875 21.09375 35.59375 
Q 32.09375 43.703125 32.09375 49.296875 
Q 32.09375 53.40625 29.34375 55.90625 
Q 26.59375 58.40625 22.5 58.40625 
Q 18.5 58.40625 14.953125 55.953125 
Q 11.40625 53.5 9.40625 48.90625 
" id="STSong-33"/>
      </defs>
      <g transform="translate(42.227686 55.427686)scale(0.2 -0.2)">
       <use xlink:href="#STSong-31"/>
       <use x="46.899994" xlink:href="#STSong-33"/>
       <use x="93.799988" xlink:href="#STSong-35"/>
       <use x="140.699982" xlink:href="#STSong-b0"/>
      </g>
     </g>
    </g>
    <g id="xtick_5">
     <g id="line2d_5">
      <path clip-path="url(#p25d21291bf)" d="M 150.863875 135.962313 
L 42.143875 135.962313 
" style="fill:none;stroke:#b0b0b0;stroke-linecap:square;stroke-width:0.8;"/>
     </g>
     <g id="text_5">
      <!-- 180 -->
      <defs>
       <path d="M 19.796875 31.203125 
Q 7.703125 37.203125 7.703125 47.5 
Q 7.703125 53.703125 12.640625 58.59375 
Q 17.59375 63.5 24.296875 63.5 
Q 31.90625 63.5 36.59375 59.390625 
Q 41.296875 55.296875 41.296875 49.09375 
Q 41.296875 43.703125 38.296875 40.390625 
Q 35.296875 37.09375 29.703125 34.296875 
Q 38.90625 29.90625 41.5 25.40625 
Q 44.09375 20.90625 44.09375 16.40625 
Q 44.09375 9.09375 38.640625 3.75 
Q 33.203125 -1.59375 25.09375 -1.59375 
Q 16.703125 -1.59375 11.703125 3.046875 
Q 6.703125 7.703125 6.703125 14.796875 
Q 6.703125 19.09375 8.703125 23.25 
Q 10.703125 27.40625 19.796875 31.203125 
M 27.5 35.5 
Q 31.59375 37.40625 33.796875 41.046875 
Q 36 44.703125 36 49 
Q 36 54.296875 32.953125 57.75 
Q 29.90625 61.203125 24.5 61.203125 
Q 19.59375 61.203125 16.5 57.84375 
Q 13.40625 54.5 13.40625 49.59375 
Q 13.40625 47.09375 14.296875 44.6875 
Q 15.203125 42.296875 19.25 39.5 
Q 23.296875 36.703125 27.5 35.5 
M 22.203125 30.09375 
Q 17.09375 27.59375 14.890625 23.9375 
Q 12.703125 20.296875 12.703125 14.203125 
Q 12.703125 8.09375 16.203125 4.4375 
Q 19.703125 0.796875 25 0.796875 
Q 30.5 0.796875 34.140625 4.4375 
Q 37.796875 8.09375 37.796875 13.796875 
Q 37.796875 19.796875 34.140625 23.390625 
Q 30.5 27 22.203125 30.09375 
" id="STSong-38"/>
      </defs>
      <g transform="translate(7.2 139.992)scale(0.2 -0.2)">
       <use xlink:href="#STSong-31"/>
       <use x="46.899994" xlink:href="#STSong-38"/>
       <use x="93.799988" xlink:href="#STSong-30"/>
       <use x="140.699982" xlink:href="#STSong-b0"/>
      </g>
     </g>
    </g>
    <g id="xtick_6">
     <g id="line2d_6">
      <path clip-path="url(#p25d21291bf)" d="M 150.863875 135.962313 
L 73.987226 212.838962 
" style="fill:none;stroke:#b0b0b0;stroke-linecap:square;stroke-width:0.8;"/>
     </g>
     <g id="text_6">
      <!-- 225 -->
      <defs>
       <path d="M 42.59375 -0.296875 
Q 35.40625 0 22.203125 0 
Q 9.296875 0 2.203125 -0.296875 
Q 4.09375 3.59375 7 7.09375 
Q 9.90625 10.59375 16.296875 17 
Q 25.59375 26.296875 29.890625 32.84375 
Q 34.203125 39.40625 34.203125 46.09375 
Q 34.203125 51.59375 30.75 55 
Q 27.296875 58.40625 22.203125 58.40625 
Q 17.203125 58.40625 13.09375 54.953125 
Q 9 51.5 7.40625 45.203125 
L 5.09375 45.59375 
Q 6.703125 54.09375 11.796875 58.796875 
Q 16.90625 63.5 24.203125 63.5 
Q 31.5 63.5 36.59375 58.640625 
Q 41.703125 53.796875 41.703125 47 
Q 41.703125 40.203125 36.953125 34.25 
Q 32.203125 28.296875 22.59375 19.40625 
Q 17.5 14.703125 9.90625 5.296875 
L 33.40625 5.296875 
Q 37.203125 5.296875 38.75 6.640625 
Q 40.296875 8 42 12.5 
L 44.09375 12.5 
z
" id="STSong-32"/>
      </defs>
      <g transform="translate(42.227686 224.556314)scale(0.2 -0.2)">
       <use xlink:href="#STSong-32"/>
       <use x="46.899994" xlink:href="#STSong-32"/>
       <use x="93.799988" xlink:href="#STSong-35"/>
       <use x="140.699982" xlink:href="#STSong-b0"/>
      </g>
     </g>
    </g>
    <g id="xtick_7">
     <g id="line2d_7">
      <path clip-path="url(#p25d21291bf)" d="M 150.863875 135.962313 
L 150.863875 244.682313 
" style="fill:none;stroke:#b0b0b0;stroke-linecap:square;stroke-width:0.8;"/>
     </g>
     <g id="text_7">
      <!-- 270 -->
      <defs>
       <path d="M 4.59375 62.5 
L 43.09375 62.5 
L 43.09375 60.796875 
Q 39.703125 54.796875 30.953125 30.140625 
Q 22.203125 5.5 21.296875 0 
L 18 0 
Q 22.796875 20.703125 37.296875 56.40625 
L 10.296875 56.40625 
Q 7.796875 56.40625 7.59375 55.09375 
L 6.796875 50.90625 
L 4.59375 50.90625 
z
" id="STSong-37"/>
      </defs>
      <g transform="translate(126.792 259.584)scale(0.2 -0.2)">
       <use xlink:href="#STSong-32"/>
       <use x="46.899994" xlink:href="#STSong-37"/>
       <use x="93.799988" xlink:href="#STSong-30"/>
       <use x="140.699982" xlink:href="#STSong-b0"/>
      </g>
     </g>
    </g>
    <g id="xtick_8">
     <g id="line2d_8">
      <path clip-path="url(#p25d21291bf)" d="M 150.863875 135.962313 
L 227.740524 212.838962 
" style="fill:none;stroke:#b0b0b0;stroke-linecap:square;stroke-width:0.8;"/>
     </g>
     <g id="text_8">
      <!-- 315 -->
      <g transform="translate(211.356314 224.556314)scale(0.2 -0.2)">
       <use xlink:href="#STSong-33"/>
       <use x="46.899994" xlink:href="#STSong-31"/>
       <use x="93.799988" xlink:href="#STSong-35"/>
       <use x="140.699982" xlink:href="#STSong-b0"/>
      </g>
     </g>
    </g>
   </g>
   <g id="matplotlib.axis_2">
    <g id="ytick_1">
     <g id="line2d_9">
      <path clip-path="url(#p25d21291bf)" d="M 176.749589 135.962313 
L 176.607785 133.256519 
L 176.183924 130.58037 
L 175.482652 127.963187 
L 174.511652 125.433644 
L 173.281561 123.019455 
L 171.805858 120.747071 
L 170.10071 118.641389 
L 168.184799 116.725478 
L 166.079116 115.02033 
L 163.806732 113.544626 
L 161.392544 112.314536 
L 158.863001 111.343535 
L 156.245818 110.642263 
L 153.569669 110.218403 
L 150.863875 110.076598 
L 148.158081 110.218403 
L 145.481932 110.642263 
L 142.864749 111.343535 
L 140.335206 112.314536 
L 137.921018 113.544626 
L 135.648634 115.02033 
L 133.542951 116.725478 
L 131.62704 118.641389 
L 129.921892 120.747071 
L 128.446189 123.019455 
L 127.216098 125.433644 
L 126.245098 127.963187 
L 125.543826 130.58037 
L 125.119965 133.256519 
L 124.978161 135.962313 
L 125.119965 138.668106 
L 125.543826 141.344255 
L 126.245098 143.961438 
L 127.216098 146.490981 
L 128.446189 148.90517 
L 129.921892 151.177554 
L 131.62704 153.283236 
L 133.542951 155.199147 
L 135.648634 156.904295 
L 137.921018 158.379999 
L 140.335206 159.610089 
L 142.864749 160.58109 
L 145.481932 161.282362 
L 148.158081 161.706222 
L 150.863875 161.848027 
L 153.569669 161.706222 
L 156.245818 161.282362 
L 158.863001 160.58109 
L 161.392544 159.610089 
L 163.806732 158.379999 
L 166.079116 156.904295 
L 168.184799 155.199147 
L 170.10071 153.283236 
L 171.805858 151.177554 
L 173.281561 148.90517 
L 174.511652 146.490981 
L 175.482652 143.961438 
L 176.183924 141.344255 
L 176.607785 138.668106 
L 176.749589 135.962313 
L 176.749589 135.962313 
" style="fill:none;stroke:#b0b0b0;stroke-linecap:square;stroke-width:0.8;"/>
     </g>
     <g id="text_9">
      <!-- 2.5 -->
      <defs>
       <path d="M 11 -1.59375 
Q 8.796875 -1.59375 7.296875 -0.09375 
Q 5.796875 1.40625 5.796875 3.59375 
Q 5.796875 5.796875 7.296875 7.296875 
Q 8.796875 8.796875 11 8.796875 
Q 13.203125 8.796875 14.703125 7.296875 
Q 16.203125 5.796875 16.203125 3.59375 
Q 16.203125 1.40625 14.703125 -0.09375 
Q 13.203125 -1.59375 11 -1.59375 
" id="STSong-2e"/>
      </defs>
      <g transform="translate(174.779157 120.915654)scale(0.2 -0.2)">
       <use xlink:href="#STSong-32"/>
       <use x="46.899994" xlink:href="#STSong-2e"/>
       <use x="68.799988" xlink:href="#STSong-35"/>
      </g>
     </g>
    </g>
    <g id="ytick_2">
     <g id="line2d_10">
      <path clip-path="url(#p25d21291bf)" d="M 202.635304 135.962313 
L 202.603766 134.155516 
L 202.509191 132.35092 
L 202.131468 128.757122 
L 201.503974 125.198427 
L 200.629766 121.692173 
L 199.513104 118.255441 
L 198.159428 114.904975 
L 196.575333 111.657099 
L 194.768536 108.527635 
L 192.747841 105.53183 
L 190.52309 102.68428 
L 188.105124 99.998856 
L 185.505722 97.488643 
L 182.737549 95.16587 
L 179.81409 93.041853 
L 176.749589 91.12694 
L 173.558976 89.430461 
L 170.257793 87.96068 
L 166.862126 86.724758 
L 163.388517 85.728717 
L 159.853889 84.977408 
L 156.275463 84.474493 
L 152.670672 84.222422 
L 149.057078 84.222422 
L 145.452287 84.474493 
L 141.873861 84.977408 
L 138.339233 85.728717 
L 134.865624 86.724758 
L 131.469957 87.96068 
L 128.168774 89.430461 
L 124.978161 91.12694 
L 121.91366 93.041853 
L 118.990201 95.16587 
L 116.222028 97.488643 
L 113.622626 99.998856 
L 111.20466 102.68428 
L 108.979909 105.53183 
L 106.959214 108.527635 
L 105.152417 111.657099 
L 103.568322 114.904975 
L 102.214646 118.255441 
L 101.097984 121.692173 
L 100.223776 125.198427 
L 99.596282 128.757122 
L 99.218559 132.35092 
L 99.092446 135.962313 
L 99.218559 139.573705 
L 99.596282 143.167503 
L 100.223776 146.726198 
L 101.097984 150.232452 
L 102.214646 153.669184 
L 103.568322 157.01965 
L 105.152417 160.267526 
L 106.959214 163.39699 
L 108.979909 166.392795 
L 111.20466 169.240345 
L 113.622626 171.925769 
L 116.222028 174.435982 
L 118.990201 176.758755 
L 121.91366 178.882772 
L 124.978161 180.797685 
L 128.168774 182.494164 
L 131.469957 183.963945 
L 134.865624 185.199867 
L 138.339233 186.195908 
L 141.873861 186.947217 
L 145.452287 187.450132 
L 149.057078 187.702203 
L 152.670672 187.702203 
L 156.275463 187.450132 
L 159.853889 186.947217 
L 163.388517 186.195908 
L 166.862126 185.199867 
L 170.257793 183.963945 
L 173.558976 182.494164 
L 176.749589 180.797685 
L 179.81409 178.882772 
L 182.737549 176.758755 
L 185.505722 174.435982 
L 188.105124 171.925769 
L 190.52309 169.240345 
L 192.747841 166.392795 
L 194.768536 163.39699 
L 196.575333 160.267526 
L 198.159428 157.01965 
L 199.513104 153.669184 
L 200.629766 150.232452 
L 201.503974 146.726198 
L 202.131468 143.167503 
L 202.509191 139.573705 
L 202.635304 135.962313 
L 202.635304 135.962313 
" style="fill:none;stroke:#b0b0b0;stroke-linecap:square;stroke-width:0.8;"/>
     </g>
     <g id="text_10">
      <!-- 5.0 -->
      <g transform="translate(198.694438 111.00962)scale(0.2 -0.2)">
       <use xlink:href="#STSong-35"/>
       <use x="46.899994" xlink:href="#STSong-2e"/>
       <use x="68.799988" xlink:href="#STSong-30"/>
      </g>
     </g>
    </g>
    <g id="ytick_3">
     <g id="line2d_11">
      <path clip-path="url(#p25d21291bf)" d="M 228.521018 135.962313 
L 228.473711 133.252117 
L 228.331849 130.545224 
L 227.765264 125.154527 
L 226.824023 119.816485 
L 225.512712 114.557103 
L 223.837719 109.402005 
L 221.807205 104.376307 
L 219.431062 99.504492 
L 216.720867 94.810296 
L 213.689823 90.316589 
L 210.352698 86.045263 
L 206.725749 82.017128 
L 202.826646 78.251809 
L 198.674386 74.767649 
L 194.289198 71.581623 
L 189.692446 68.709254 
L 184.906526 66.164535 
L 179.954753 63.959863 
L 174.861252 62.105981 
L 169.650838 60.611919 
L 164.348896 59.484956 
L 158.981257 58.730584 
L 153.57407 58.352476 
L 148.15368 58.352476 
L 142.746493 58.730584 
L 137.378854 59.484956 
L 132.076912 60.611919 
L 126.866498 62.105981 
L 121.772997 63.959863 
L 116.821224 66.164535 
L 112.035304 68.709254 
L 107.438552 71.581623 
L 103.053364 74.767649 
L 98.901104 78.251809 
L 95.002001 82.017128 
L 91.375052 86.045263 
L 88.037927 90.316589 
L 85.006883 94.810296 
L 82.296688 99.504492 
L 79.920545 104.376307 
L 77.890031 109.402005 
L 76.215038 114.557103 
L 74.903727 119.816485 
L 73.962486 125.154527 
L 73.395901 130.545224 
L 73.206732 135.962313 
L 73.395901 141.379401 
L 73.962486 146.770098 
L 74.903727 152.10814 
L 76.215038 157.367522 
L 77.890031 162.52262 
L 79.920545 167.548318 
L 82.296688 172.420133 
L 85.006883 177.114329 
L 88.037927 181.608036 
L 91.375052 185.879362 
L 95.002001 189.907497 
L 98.901104 193.672816 
L 103.053364 197.156976 
L 107.438552 200.343002 
L 112.035304 203.215371 
L 116.821224 205.76009 
L 121.772997 207.964762 
L 126.866498 209.818644 
L 132.076912 211.312706 
L 137.378854 212.439669 
L 142.746493 213.194041 
L 148.15368 213.572149 
L 153.57407 213.572149 
L 158.981257 213.194041 
L 164.348896 212.439669 
L 169.650838 211.312706 
L 174.861252 209.818644 
L 179.954753 207.964762 
L 184.906526 205.76009 
L 189.692446 203.215371 
L 194.289198 200.343002 
L 198.674386 197.156976 
L 202.826646 193.672816 
L 206.725749 189.907497 
L 210.352698 185.879362 
L 213.689823 181.608036 
L 216.720867 177.114329 
L 219.431062 172.420133 
L 221.807205 167.548318 
L 223.837719 162.52262 
L 225.512712 157.367522 
L 226.824023 152.10814 
L 227.765264 146.770098 
L 228.331849 141.379401 
L 228.521018 135.962313 
L 228.521018 135.962313 
" style="fill:none;stroke:#b0b0b0;stroke-linecap:square;stroke-width:0.8;"/>
     </g>
     <g id="text_11">
      <!-- 7.5 -->
      <g transform="translate(222.60972 101.103586)scale(0.2 -0.2)">
       <use xlink:href="#STSong-37"/>
       <use x="46.899994" xlink:href="#STSong-2e"/>
       <use x="68.799988" xlink:href="#STSong-35"/>
      </g>
     </g>
    </g>
    <g id="ytick_4">
     <g id="line2d_12">
      <path clip-path="url(#p25d21291bf)" d="M 254.406732 135.962313 
L 254.343657 132.348719 
L 254.154507 128.739528 
L 253.839514 125.139137 
L 253.39906 121.551932 
L 252.833683 117.982284 
L 252.144072 114.434542 
L 251.331067 110.913028 
L 250.395657 107.422033 
L 249.338984 103.96581 
L 248.162334 100.54857 
L 246.86714 97.174476 
L 245.454982 93.847638 
L 243.927579 90.572111 
L 242.286791 87.351886 
L 240.53462 84.190884 
L 238.673198 81.092958 
L 236.704794 78.061882 
L 234.631806 75.101348 
L 232.45676 72.214964 
L 230.182305 69.406247 
L 227.811214 66.678618 
L 225.346373 64.0354 
L 222.790787 61.479814 
L 220.14757 59.014974 
L 217.419941 56.643882 
L 214.611223 54.369428 
L 211.724839 52.194381 
L 208.764306 50.121394 
L 205.73323 48.15299 
L 202.635304 46.291568 
L 199.474302 44.539396 
L 196.254076 42.898609 
L 192.978549 41.371206 
L 189.651712 39.959047 
L 186.277618 38.663854 
L 182.860378 37.487203 
L 179.404154 36.43053 
L 175.913159 35.495121 
L 172.391646 34.682115 
L 168.843903 33.992504 
L 165.274256 33.427127 
L 161.687051 32.986674 
L 158.08666 32.671681 
L 154.477469 32.482531 
L 150.863875 32.419455 
L 147.250281 32.482531 
L 143.64109 32.671681 
L 140.040699 32.986674 
L 136.453494 33.427127 
L 132.883847 33.992504 
L 129.336104 34.682115 
L 125.814591 35.495121 
L 122.323596 36.43053 
L 118.867372 37.487203 
L 115.450132 38.663854 
L 112.076038 39.959047 
L 108.749201 41.371206 
L 105.473674 42.898609 
L 102.253448 44.539396 
L 99.092446 46.291568 
L 95.99452 48.15299 
L 92.963444 50.121394 
L 90.002911 52.194381 
L 87.116527 54.369428 
L 84.307809 56.643882 
L 81.58018 59.014974 
L 78.936963 61.479814 
L 76.381377 64.0354 
L 73.916536 66.678618 
L 71.545445 69.406247 
L 69.27099 72.214964 
L 67.095944 75.101348 
L 65.022956 78.061882 
L 63.054552 81.092958 
L 61.19313 84.190884 
L 59.440959 87.351886 
L 57.800171 90.572111 
L 56.272768 93.847638 
L 54.86061 97.174476 
L 53.565416 100.54857 
L 52.388766 103.96581 
L 51.332093 107.422033 
L 50.396683 110.913028 
L 49.583678 114.434542 
L 48.894067 117.982284 
L 48.32869 121.551932 
L 47.888236 125.139137 
L 47.573243 128.739528 
L 47.384093 132.348719 
L 47.321018 135.962313 
L 47.384093 139.575906 
L 47.573243 143.185097 
L 47.888236 146.785488 
L 48.32869 150.372693 
L 48.894067 153.942341 
L 49.583678 157.490083 
L 50.396683 161.011597 
L 51.332093 164.502592 
L 52.388766 167.958815 
L 53.565416 171.376055 
L 54.86061 174.750149 
L 56.272768 178.076987 
L 57.800171 181.352514 
L 59.440959 184.572739 
L 61.19313 187.733741 
L 63.054552 190.831667 
L 65.022956 193.862743 
L 67.095944 196.823277 
L 69.27099 199.709661 
L 71.545445 202.518378 
L 73.916536 205.246007 
L 76.381377 207.889225 
L 78.936963 210.444811 
L 81.58018 212.909651 
L 84.307809 215.280743 
L 87.116527 217.555197 
L 90.002911 219.730244 
L 92.963444 221.803231 
L 95.99452 223.771635 
L 99.092446 225.633057 
L 102.253448 227.385229 
L 105.473674 229.026016 
L 108.749201 230.553419 
L 112.076038 231.965578 
L 115.450132 233.260771 
L 118.867372 234.437422 
L 122.323596 235.494095 
L 125.814591 236.429504 
L 129.336104 237.24251 
L 132.883847 237.932121 
L 136.453494 238.497498 
L 140.040699 238.937951 
L 143.64109 239.252944 
L 147.250281 239.442094 
L 150.863875 239.50517 
L 154.477469 239.442094 
L 158.08666 239.252944 
L 161.687051 238.937951 
L 165.274256 238.497498 
L 168.843903 237.932121 
L 172.391646 237.24251 
L 175.913159 236.429504 
L 179.404154 235.494095 
L 182.860378 234.437422 
L 186.277618 233.260771 
L 189.651712 231.965578 
L 192.978549 230.553419 
L 196.254076 229.026016 
L 199.474302 227.385229 
L 202.635304 225.633057 
L 205.73323 223.771635 
L 208.764306 221.803231 
L 211.724839 219.730244 
L 214.611223 217.555197 
L 217.419941 215.280743 
L 220.14757 212.909651 
L 222.790787 210.444811 
L 225.346373 207.889225 
L 227.811214 205.246007 
L 230.182305 202.518378 
L 232.45676 199.709661 
L 234.631806 196.823277 
L 236.704794 193.862743 
L 238.673198 190.831667 
L 240.53462 187.733741 
L 242.286791 184.572739 
L 243.927579 181.352514 
L 245.454982 178.076987 
L 246.86714 174.750149 
L 248.162334 171.376055 
L 249.338984 167.958815 
L 250.395657 164.502592 
L 251.331067 161.011597 
L 252.144072 157.490083 
L 252.833683 153.942341 
L 253.39906 150.372693 
L 253.839514 146.785488 
L 254.154507 143.185097 
L 254.343657 139.575906 
L 254.406732 135.962313 
L 254.406732 135.962313 
" style="fill:none;stroke:#b0b0b0;stroke-linecap:square;stroke-width:0.8;"/>
     </g>
     <g id="text_12">
      <!-- 10.0 -->
      <g transform="translate(246.525001 91.197552)scale(0.2 -0.2)">
       <use xlink:href="#STSong-31"/>
       <use x="46.899994" xlink:href="#STSong-30"/>
       <use x="93.799988" xlink:href="#STSong-2e"/>
       <use x="115.699982" xlink:href="#STSong-30"/>
      </g>
     </g>
    </g>
   </g>
   <g id="patch_9">
    <path d="M 150.863875 244.682313 
C 179.696756 244.682313 207.352599 233.226887 227.740524 212.838962 
C 248.12845 192.451036 259.583875 164.795194 259.583875 135.962313 
C 259.583875 107.129431 248.12845 79.473589 227.740524 59.085663 
C 207.352599 38.697738 179.696756 27.242313 150.863875 27.242313 
C 122.030994 27.242313 94.375151 38.697738 73.987226 59.085663 
C 53.5993 79.473589 42.143875 107.129431 42.143875 135.962313 
C 42.143875 164.795194 53.5993 192.451036 73.987226 212.838962 
C 94.375151 233.226887 122.030994 244.682313 150.863875 244.682313 
z
" style="fill:none;stroke:#000000;stroke-linecap:square;stroke-linejoin:miter;stroke-width:0.8;"/>
   </g>
  </g>
 </g>
 <defs>
  <clipPath id="p25d21291bf">
   <path d="M 150.863875 244.682313 
C 179.696756 244.682313 207.352599 233.226887 227.740524 212.838962 
C 248.12845 192.451036 259.583875 164.795194 259.583875 135.962313 
C 259.583875 107.129431 248.12845 79.473589 227.740524 59.085663 
C 207.352599 38.697738 179.696756 27.242313 150.863875 27.242313 
C 122.030994 27.242313 94.375151 38.697738 73.987226 59.085663 
C 53.5993 79.473589 42.143875 107.129431 42.143875 135.962313 
C 42.143875 164.795194 53.5993 192.451036 73.987226 212.838962 
C 94.375151 233.226887 122.030994 244.682313 150.863875 244.682313 
z
"/>
  </clipPath>
 </defs>
</svg>
